<svg width="119" height="71" viewBox="0 0 119 71" fill="none" xmlns="http://www.w3.org/2000/svg">
<path d="M-5.89603e-06 30.5414L21.2474 24.5061L22.9306 30.4317L7.82038 34.7237L9.70793 41.3689L23.0828 37.5697L24.766 43.4953L11.3911 47.2944L13.3027 54.0242L29.0055 49.5638L30.6887 55.4894L8.84865 61.6931L-5.89603e-06 30.5414ZM36.1861 33.9392L37.5895 37.1083L37.4207 36.8361C37.741 35.4948 38.3936 34.3032 39.3783 33.2611C40.3551 32.1909 41.704 31.4113 43.4253 30.9223C45.1747 30.4254 46.7762 30.5346 48.2297 31.2501C49.7033 31.9292 50.6867 33.0831 51.1798 34.7117L55.1112 48.5522L49.1856 50.2353L45.8794 38.5958C45.6187 37.7855 45.2086 37.2006 44.6491 36.8412C44.1098 36.4455 43.3605 36.3839 42.4011 36.6564C41.4982 36.9129 40.7922 37.4336 40.2833 38.2185C39.7744 39.0034 39.4809 39.9559 39.4026 41.0759C39.3243 42.1959 39.4735 43.419 39.8502 44.7452L41.9903 52.2792L36.0647 53.9623L30.8108 35.4661L36.1861 33.9392ZM64.9597 55.4059L60.4854 52.6975C61.1556 51.8362 61.5881 50.89 61.7831 49.8588C62.0063 48.8196 61.9336 47.651 61.5649 46.353L56.4072 28.1954L62.3328 26.5122L67.5867 45.0085C68.2118 47.2094 68.3338 49.1416 67.9525 50.8051C67.5792 52.4968 66.5816 54.0304 64.9597 55.4059ZM54.3321 21.695C54.0836 20.8203 54.2178 20.0046 54.7347 19.2479C55.2798 18.4831 55.9474 17.9886 56.7375 17.7641C57.5276 17.5397 58.3273 17.6175 59.1366 17.9975C59.9741 18.3695 60.5171 18.9928 60.7655 19.8676C61.014 20.7423 60.8798 21.558 60.3629 22.3147C59.8662 23.0352 59.2228 23.5076 58.4327 23.7321C57.6426 23.9565 56.8187 23.9008 55.961 23.5651C55.1235 23.1931 54.5805 22.5697 54.3321 21.695ZM69.5461 34.206C69.0091 32.3155 68.9656 30.4982 69.4155 28.7542C69.8936 27.0022 70.8167 25.4746 72.1846 24.1712C73.5445 22.8396 75.2685 21.8772 77.3565 21.2841C79.4728 20.683 81.4312 20.5994 83.2316 21.0333C85.024 21.439 86.5417 22.2733 87.7848 23.5364C89.0561 24.7915 89.9603 26.3642 90.4973 28.2548C91.0343 30.1453 91.0959 31.9727 90.6822 33.7369C90.2888 35.4648 89.4403 36.9866 88.1368 38.3021C86.8333 39.6177 85.0952 40.584 82.9225 41.2012C80.8909 41.7783 78.9587 41.9002 77.1259 41.567C75.3213 41.2258 73.7551 40.4356 72.4274 39.1966C71.0997 37.9576 70.1392 36.2941 69.5461 34.206ZM75.526 32.5531C75.7985 33.5125 76.2445 34.3311 76.864 35.009C77.4754 35.6587 78.1839 36.113 78.9893 36.3721C79.7948 36.6313 80.6208 36.6406 81.4673 36.4001C82.3985 36.1356 83.1385 35.6815 83.6875 35.0376C84.2365 34.3938 84.5861 33.6388 84.7366 32.7728C84.879 31.8785 84.8139 30.9517 84.5414 29.9923C84.2609 29.0047 83.829 28.1821 83.2458 27.5244C82.6625 26.8668 81.9682 26.4084 81.1627 26.1493C80.3573 25.8901 79.489 25.8928 78.5578 26.1573C77.7113 26.3978 77.0136 26.8399 76.4646 27.4838C75.9156 28.1276 75.5518 28.8866 75.3732 29.7606C75.1946 30.6347 75.2455 31.5655 75.526 32.5531ZM101.245 45.0535L105.783 14.1702L111.116 12.6554L106.958 43.4304L101.245 45.0535ZM103.696 34.8431L89.3603 18.835L96.0054 16.9474L107.426 30.5818L103.696 34.8431Z" fill="#F2F2F2"/>
</svg>
