<svg width="160" height="31" viewBox="0 0 160 31" fill="none" xmlns="http://www.w3.org/2000/svg">
<path d="M25.68 26.8C25.3333 27.1733 24.7867 27.56 24.04 27.96C23.2933 28.3333 22.4267 28.68 21.44 29C20.48 29.32 19.4933 29.5733 18.48 29.76C17.4667 29.9733 16.5067 30.08 15.6 30.08C13.2 30.08 11.04 29.7333 9.12 29.04C7.2 28.32 5.56 27.3333 4.2 26.08C2.84 24.8 1.8 23.2933 1.08 21.56C0.36 19.8267 2.98023e-08 17.9333 2.98023e-08 15.88C2.98023e-08 13.1867 0.4 10.8533 1.2 8.87999C2.02667 6.87999 3.13333 5.22666 4.52 3.91999C5.93333 2.58666 7.54667 1.59999 9.36 0.959993C11.2 0.319994 13.12 -6.19888e-06 15.12 -6.19888e-06C17.0133 -6.19888e-06 18.7467 0.213327 20.32 0.639993C21.8933 1.03999 23.2267 1.54666 24.32 2.15999L22.44 7.55999C21.96 7.29333 21.32 7.02666 20.52 6.75999C19.72 6.49333 18.9067 6.27999 18.08 6.11999C17.2533 5.93333 16.52 5.83999 15.88 5.83999C14.28 5.83999 12.8667 6.03999 11.64 6.43999C10.4133 6.83999 9.37333 7.43999 8.52 8.23999C7.69333 9.03999 7.06667 10.04 6.64 11.24C6.21333 12.4133 6 13.7867 6 15.36C6 16.7467 6.24 18 6.72 19.12C7.2 20.2133 7.86667 21.1467 8.72 21.92C9.6 22.6933 10.6267 23.28 11.8 23.68C13 24.08 14.32 24.28 15.76 24.28C16.5867 24.28 17.3467 24.2267 18.04 24.12C18.7333 23.9867 19.32 23.7867 19.8 23.52V19.96H14.72V14.36H25.68V26.8ZM38.7088 30.24C37.0821 30.24 35.6021 29.92 34.2688 29.28C32.9621 28.6133 31.9221 27.6 31.1488 26.24C30.3754 24.88 29.9888 23.1467 29.9888 21.04C29.9888 19.0667 30.3888 17.36 31.1888 15.92C31.9888 14.48 33.0421 13.3733 34.3487 12.6C35.6554 11.8 37.0421 11.4 38.5088 11.4C40.2421 11.4 41.5488 11.6933 42.4288 12.28C43.3354 12.84 44.0821 13.4667 44.6688 14.16L44.4288 14.84L44.9488 12.28H50.1488V29.76H44.5488V25.96L44.9888 27.16C44.9354 27.16 44.7754 27.32 44.5088 27.64C44.2421 27.9333 43.8421 28.2933 43.3088 28.72C42.8021 29.12 42.1621 29.4667 41.3888 29.76C40.6421 30.08 39.7488 30.24 38.7088 30.24ZM40.3088 25.68C40.9754 25.68 41.5754 25.5867 42.1088 25.4C42.6421 25.1867 43.1088 24.8933 43.5088 24.52C43.9088 24.12 44.2554 23.6267 44.5488 23.04V18.76C44.3354 18.1733 44.0154 17.68 43.5888 17.28C43.1621 16.8533 42.6554 16.5333 42.0688 16.32C41.4821 16.08 40.8288 15.96 40.1088 15.96C39.3088 15.96 38.5621 16.1733 37.8688 16.6C37.2021 17 36.6688 17.56 36.2688 18.28C35.8688 19 35.6688 19.8267 35.6688 20.76C35.6688 21.6933 35.8821 22.5333 36.3088 23.28C36.7354 24.0267 37.2954 24.6133 37.9888 25.04C38.7088 25.4667 39.4821 25.68 40.3088 25.68ZM60.9991 12.28L61.4391 15.36L61.3591 15.12C62.0524 13.9467 62.9191 13.04 63.9591 12.4C64.9991 11.7333 66.2524 11.4 67.7191 11.4C68.6791 11.4 69.5191 11.5333 70.2391 11.8C70.9857 12.0667 71.6124 12.4667 72.1191 13C72.6257 13.5067 72.9724 14.1733 73.1591 15L72.9591 15.04C73.7057 13.9467 74.5991 13.0667 75.6391 12.4C76.7057 11.7333 77.8124 11.4 78.9591 11.4C80.6924 11.4 82.0657 11.8933 83.0791 12.88C84.1191 13.84 84.6524 15.0933 84.6791 16.64V29.76H79.1191V18.96C79.0924 18.1867 78.9724 17.56 78.7591 17.08C78.5457 16.5733 78.0524 16.2933 77.2791 16.24C76.3724 16.24 75.5991 16.56 74.9591 17.2C74.3457 17.8133 73.8791 18.6133 73.5591 19.6C73.2657 20.56 73.1191 21.56 73.1191 22.6V29.76H67.5191V18.96C67.4924 18.1867 67.3457 17.56 67.0791 17.08C66.8391 16.5733 66.3324 16.2933 65.5591 16.24C64.6791 16.24 63.9324 16.56 63.3191 17.2C62.7324 17.8133 62.2791 18.6 61.9591 19.56C61.6657 20.52 61.5191 21.5067 61.5191 22.52V29.76H55.9191V12.28H60.9991ZM90.4503 12.28H96.0503V29.76H90.4503V12.28ZM90.3303 6.07999C90.3303 5.25333 90.6503 4.57333 91.2903 4.03999C91.957 3.50666 92.6636 3.23999 93.4103 3.23999C94.157 3.23999 94.837 3.50666 95.4503 4.03999C96.0903 4.57333 96.4103 5.25333 96.4103 6.07999C96.4103 6.90666 96.0903 7.58666 95.4503 8.11999C94.837 8.62666 94.157 8.87999 93.4103 8.87999C92.6636 8.87999 91.957 8.62666 91.2903 8.11999C90.6503 7.58666 90.3303 6.90666 90.3303 6.07999ZM109.738 17.84L113.058 12.28H118.618L111.698 21.88L109.738 17.84ZM119.578 29.76H112.818L99.3375 12.28H106.218L119.578 29.76ZM109.018 24.16L105.098 29.76H99.5375L106.458 20.4L109.018 24.16Z" fill="url(#paint0_linear_10_416)"/>
<path d="M122.152 18.16H129.672V23.04H122.152V18.16Z" fill="#2E2594"/>
<path d="M159.899 26.8C159.552 27.1733 159.005 27.56 158.259 27.96C157.512 28.3333 156.645 28.68 155.659 29C154.699 29.32 153.712 29.5733 152.699 29.76C151.685 29.9733 150.725 30.08 149.819 30.08C147.419 30.08 145.259 29.7333 143.339 29.04C141.419 28.32 139.779 27.3333 138.419 26.08C137.059 24.8 136.019 23.2933 135.299 21.56C134.579 19.8267 134.219 17.9333 134.219 15.88C134.219 13.1867 134.619 10.8533 135.419 8.87999C136.245 6.87999 137.352 5.22666 138.739 3.91999C140.152 2.58666 141.765 1.59999 143.579 0.959993C145.419 0.319994 147.339 -6.19888e-06 149.339 -6.19888e-06C151.232 -6.19888e-06 152.965 0.213327 154.539 0.639993C156.112 1.03999 157.445 1.54666 158.539 2.15999L156.659 7.55999C156.179 7.29333 155.539 7.02666 154.739 6.75999C153.939 6.49333 153.125 6.27999 152.299 6.11999C151.472 5.93333 150.739 5.83999 150.099 5.83999C148.499 5.83999 147.085 6.03999 145.859 6.43999C144.632 6.83999 143.592 7.43999 142.739 8.23999C141.912 9.03999 141.285 10.04 140.859 11.24C140.432 12.4133 140.219 13.7867 140.219 15.36C140.219 16.7467 140.459 18 140.939 19.12C141.419 20.2133 142.085 21.1467 142.939 21.92C143.819 22.6933 144.845 23.28 146.019 23.68C147.219 24.08 148.539 24.28 149.979 24.28C150.805 24.28 151.565 24.2267 152.259 24.12C152.952 23.9867 153.539 23.7867 154.019 23.52V19.96H148.939V14.36H159.899V26.8Z" fill="#B53071"/>
<defs>
<linearGradient id="paint0_linear_10_416" x1="89.3896" y1="-4.81435" x2="88.7461" y2="103.914" gradientUnits="userSpaceOnUse">
<stop stop-color="#2E2594"/>
<stop offset="1" stop-color="#F73B6C"/>
</linearGradient>
</defs>
</svg>
