<svg width="160" height="31" viewBox="0 0 160 31" fill="none" xmlns="http://www.w3.org/2000/svg">
<path d="M25.68 26.7998C25.3333 27.1731 24.7867 27.5598 24.04 27.9598C23.2933 28.3331 22.4267 28.6798 21.44 28.9998C20.48 29.3198 19.4933 29.5731 18.48 29.7598C17.4667 29.9731 16.5067 30.0798 15.6 30.0798C13.2 30.0798 11.04 29.7331 9.12 29.0398C7.2 28.3198 5.56 27.3331 4.2 26.0798C2.84 24.7998 1.8 23.2931 1.08 21.5598C0.36 19.8264 2.98023e-08 17.9331 2.98023e-08 15.8798C2.98023e-08 13.1864 0.4 10.8531 1.2 8.87977C2.02667 6.87977 3.13333 5.22643 4.52 3.91976C5.93333 2.58643 7.54667 1.59976 9.36 0.959764C11.2 0.319765 13.12 -0.000235081 15.12 -0.000235081C17.0133 -0.000235081 18.7467 0.213098 20.32 0.639764C21.8933 1.03976 23.2267 1.54643 24.32 2.15976L22.44 7.55977C21.96 7.2931 21.32 7.02643 20.52 6.75976C19.72 6.4931 18.9067 6.27976 18.08 6.11976C17.2533 5.9331 16.52 5.83976 15.88 5.83976C14.28 5.83976 12.8667 6.03976 11.64 6.43977C10.4133 6.83977 9.37333 7.43976 8.52 8.23976C7.69333 9.03976 7.06667 10.0398 6.64 11.2398C6.21333 12.4131 6 13.7864 6 15.3598C6 16.7464 6.24 17.9998 6.72 19.1198C7.2 20.2131 7.86667 21.1464 8.72 21.9198C9.6 22.6931 10.6267 23.2798 11.8 23.6798C13 24.0798 14.32 24.2798 15.76 24.2798C16.5867 24.2798 17.3467 24.2264 18.04 24.1198C18.7333 23.9864 19.32 23.7864 19.8 23.5198V19.9598H14.72V14.3598H25.68V26.7998ZM38.7088 30.2398C37.0821 30.2398 35.6021 29.9198 34.2688 29.2798C32.9621 28.6131 31.9221 27.5998 31.1488 26.2398C30.3754 24.8798 29.9888 23.1464 29.9888 21.0398C29.9888 19.0664 30.3888 17.3598 31.1888 15.9198C31.9888 14.4798 33.0421 13.3731 34.3487 12.5998C35.6554 11.7998 37.0421 11.3998 38.5088 11.3998C40.2421 11.3998 41.5488 11.6931 42.4288 12.2798C43.3354 12.8398 44.0821 13.4664 44.6688 14.1598L44.4288 14.8398L44.9488 12.2798H50.1488V29.7598H44.5488V25.9598L44.9888 27.1598C44.9354 27.1598 44.7754 27.3198 44.5088 27.6398C44.2421 27.9331 43.8421 28.2931 43.3088 28.7198C42.8021 29.1198 42.1621 29.4664 41.3888 29.7598C40.6421 30.0798 39.7488 30.2398 38.7088 30.2398ZM40.3088 25.6798C40.9754 25.6798 41.5754 25.5864 42.1088 25.3998C42.6421 25.1864 43.1088 24.8931 43.5088 24.5198C43.9088 24.1198 44.2554 23.6264 44.5488 23.0398V18.7598C44.3354 18.1731 44.0154 17.6798 43.5888 17.2798C43.1621 16.8531 42.6554 16.5331 42.0688 16.3198C41.4821 16.0798 40.8288 15.9598 40.1088 15.9598C39.3088 15.9598 38.5621 16.1731 37.8688 16.5998C37.2021 16.9998 36.6688 17.5598 36.2688 18.2798C35.8688 18.9998 35.6688 19.8264 35.6688 20.7598C35.6688 21.6931 35.8821 22.5331 36.3088 23.2798C36.7354 24.0264 37.2954 24.6131 37.9888 25.0398C38.7088 25.4664 39.4821 25.6798 40.3088 25.6798ZM60.9991 12.2798L61.4391 15.3598L61.3591 15.1198C62.0524 13.9464 62.9191 13.0398 63.9591 12.3998C64.9991 11.7331 66.2524 11.3998 67.7191 11.3998C68.6791 11.3998 69.5191 11.5331 70.2391 11.7998C70.9857 12.0664 71.6124 12.4664 72.1191 12.9998C72.6257 13.5064 72.9724 14.1731 73.1591 14.9998L72.9591 15.0398C73.7057 13.9464 74.5991 13.0664 75.6391 12.3998C76.7057 11.7331 77.8124 11.3998 78.9591 11.3998C80.6924 11.3998 82.0657 11.8931 83.0791 12.8798C84.1191 13.8398 84.6524 15.0931 84.6791 16.6398V29.7598H79.1191V18.9598C79.0924 18.1864 78.9724 17.5598 78.7591 17.0798C78.5457 16.5731 78.0524 16.2931 77.2791 16.2398C76.3724 16.2398 75.5991 16.5598 74.9591 17.1998C74.3457 17.8131 73.8791 18.6131 73.5591 19.5998C73.2657 20.5598 73.1191 21.5598 73.1191 22.5998V29.7598H67.5191V18.9598C67.4924 18.1864 67.3457 17.5598 67.0791 17.0798C66.8391 16.5731 66.3324 16.2931 65.5591 16.2398C64.6791 16.2398 63.9324 16.5598 63.3191 17.1998C62.7324 17.8131 62.2791 18.5998 61.9591 19.5598C61.6657 20.5198 61.5191 21.5064 61.5191 22.5198V29.7598H55.9191V12.2798H60.9991ZM90.4503 12.2798H96.0503V29.7598H90.4503V12.2798ZM90.3303 6.07977C90.3303 5.2531 90.6503 4.5731 91.2903 4.03977C91.957 3.50643 92.6636 3.23976 93.4103 3.23976C94.157 3.23976 94.837 3.50643 95.4503 4.03977C96.0903 4.5731 96.4103 5.2531 96.4103 6.07977C96.4103 6.90643 96.0903 7.58643 95.4503 8.11977C94.837 8.62643 94.157 8.87977 93.4103 8.87977C92.6636 8.87977 91.957 8.62643 91.2903 8.11977C90.6503 7.58643 90.3303 6.90643 90.3303 6.07977ZM109.738 17.8398L113.058 12.2798H118.618L111.698 21.8798L109.738 17.8398ZM119.578 29.7598H112.818L99.3375 12.2798H106.218L119.578 29.7598ZM109.018 24.1598L105.098 29.7598H99.5375L106.458 20.3998L109.018 24.1598ZM122.152 18.1598H129.672V23.0398H122.152V18.1598ZM159.899 26.7998C159.552 27.1731 159.005 27.5598 158.259 27.9598C157.512 28.3331 156.645 28.6798 155.659 28.9998C154.699 29.3198 153.712 29.5731 152.699 29.7598C151.685 29.9731 150.725 30.0798 149.819 30.0798C147.419 30.0798 145.259 29.7331 143.339 29.0398C141.419 28.3198 139.779 27.3331 138.419 26.0798C137.059 24.7998 136.019 23.2931 135.299 21.5598C134.579 19.8264 134.219 17.9331 134.219 15.8798C134.219 13.1864 134.619 10.8531 135.419 8.87977C136.245 6.87977 137.352 5.22643 138.739 3.91976C140.152 2.58643 141.765 1.59976 143.579 0.959764C145.419 0.319765 147.339 -0.000235081 149.339 -0.000235081C151.232 -0.000235081 152.965 0.213098 154.539 0.639764C156.112 1.03976 157.445 1.54643 158.539 2.15976L156.659 7.55977C156.179 7.2931 155.539 7.02643 154.739 6.75976C153.939 6.4931 153.125 6.27976 152.299 6.11976C151.472 5.9331 150.739 5.83976 150.099 5.83976C148.499 5.83976 147.085 6.03976 145.859 6.43977C144.632 6.83977 143.592 7.43976 142.739 8.23976C141.912 9.03976 141.285 10.0398 140.859 11.2398C140.432 12.4131 140.219 13.7864 140.219 15.3598C140.219 16.7464 140.459 17.9998 140.939 19.1198C141.419 20.2131 142.085 21.1464 142.939 21.9198C143.819 22.6931 144.845 23.2798 146.019 23.6798C147.219 24.0798 148.539 24.2798 149.979 24.2798C150.805 24.2798 151.565 24.2264 152.259 24.1198C152.952 23.9864 153.539 23.7864 154.019 23.5198V19.9598H148.939V14.3598H159.899V26.7998Z" fill="white"/>
</svg>
