<svg width="162" height="36" viewBox="0 0 162 36" fill="none" xmlns="http://www.w3.org/2000/svg">
<path d="M50.666 11.968H53.114L56.354 21.256L56.012 21.112L58.532 14.65L59.504 17.512L55.904 25.612L50.666 11.968ZM57.074 11.968H59.162L62.762 21.058L62.348 20.986L65.336 11.968H67.586L62.474 25.576L57.074 11.968ZM71.1658 25.198C70.4578 25.198 69.8098 25.048 69.2218 24.748C68.6458 24.448 68.1898 24.004 67.8538 23.416C67.5178 22.816 67.3498 22.078 67.3498 21.202C67.3498 20.338 67.5238 19.6 67.8718 18.988C68.2318 18.364 68.6998 17.884 69.2758 17.548C69.8638 17.212 70.4998 17.044 71.1838 17.044C71.9158 17.044 72.5038 17.194 72.9478 17.494C73.4038 17.782 73.7578 18.118 74.0098 18.502L73.9018 18.79L74.0998 17.386H75.9538V25H73.9378V23.146L74.1358 23.632C74.0998 23.704 74.0038 23.824 73.8478 23.992C73.7038 24.148 73.5058 24.322 73.2538 24.514C73.0018 24.706 72.7018 24.868 72.3538 25C72.0178 25.132 71.6218 25.198 71.1658 25.198ZM71.7238 23.542C72.0958 23.542 72.4318 23.476 72.7318 23.344C73.0318 23.212 73.2838 23.026 73.4878 22.786C73.6918 22.546 73.8418 22.258 73.9378 21.922V20.266C73.8418 19.954 73.6858 19.684 73.4698 19.456C73.2538 19.216 72.9898 19.03 72.6778 18.898C72.3778 18.766 72.0418 18.7 71.6698 18.7C71.2498 18.7 70.8658 18.802 70.5178 19.006C70.1818 19.21 69.9058 19.492 69.6898 19.852C69.4858 20.212 69.3838 20.626 69.3838 21.094C69.3838 21.55 69.4918 21.964 69.7078 22.336C69.9238 22.708 70.2118 23.002 70.5718 23.218C70.9318 23.434 71.3158 23.542 71.7238 23.542ZM79.458 14.038H81.474V17.386H83.454V18.97H81.474V25H79.458V18.97H78.144V17.386H79.458V14.038ZM91.7348 24.298C91.3988 24.574 90.9848 24.796 90.4928 24.964C90.0128 25.12 89.5268 25.198 89.0348 25.198C88.1948 25.198 87.4568 25.036 86.8208 24.712C86.1848 24.376 85.6868 23.914 85.3268 23.326C84.9788 22.726 84.8048 22.012 84.8048 21.184C84.8048 20.356 84.9908 19.642 85.3628 19.042C85.7468 18.442 86.2448 17.986 86.8568 17.674C87.4808 17.35 88.1348 17.188 88.8188 17.188C89.4668 17.188 90.0368 17.278 90.5288 17.458C91.0208 17.626 91.4408 17.86 91.7888 18.16L90.7988 19.474C90.6068 19.318 90.3548 19.174 90.0428 19.042C89.7428 18.898 89.3948 18.826 88.9988 18.826C88.6028 18.826 88.2368 18.928 87.9008 19.132C87.5648 19.336 87.3008 19.618 87.1088 19.978C86.9168 20.326 86.8208 20.728 86.8208 21.184C86.8208 21.616 86.9228 22.012 87.1268 22.372C87.3308 22.732 87.6068 23.02 87.9548 23.236C88.3148 23.44 88.7288 23.542 89.1968 23.542C89.5088 23.542 89.7908 23.5 90.0428 23.416C90.2948 23.32 90.5228 23.194 90.7268 23.038L91.7348 24.298ZM93.802 25V10.96H95.782V19.06L95.746 18.754C96.01 18.262 96.4 17.86 96.916 17.548C97.432 17.224 98.05 17.062 98.77 17.062C99.49 17.062 100.084 17.272 100.552 17.692C101.02 18.112 101.26 18.664 101.272 19.348V25H99.256V20.068C99.244 19.684 99.136 19.378 98.932 19.15C98.728 18.91 98.404 18.784 97.96 18.772C97.552 18.772 97.186 18.898 96.862 19.15C96.538 19.402 96.28 19.744 96.088 20.176C95.908 20.596 95.818 21.076 95.818 21.616V25H93.802ZM109.294 11.896H118.06V13.912H114.676V25H112.588V13.912H109.294V11.896ZM121.056 17.386L121.236 19.546L121.164 19.24C121.368 18.784 121.656 18.394 122.028 18.07C122.412 17.746 122.802 17.494 123.198 17.314C123.606 17.134 123.936 17.044 124.188 17.044L124.098 19.06C123.522 19.012 123.018 19.114 122.586 19.366C122.166 19.618 121.836 19.96 121.596 20.392C121.356 20.812 121.236 21.256 121.236 21.724V25H119.238V17.386H121.056ZM129.226 25.198C128.518 25.198 127.87 25.048 127.282 24.748C126.706 24.448 126.25 24.004 125.914 23.416C125.578 22.816 125.41 22.078 125.41 21.202C125.41 20.338 125.584 19.6 125.932 18.988C126.292 18.364 126.76 17.884 127.336 17.548C127.924 17.212 128.56 17.044 129.244 17.044C129.976 17.044 130.564 17.194 131.008 17.494C131.464 17.782 131.818 18.118 132.07 18.502L131.962 18.79L132.16 17.386H134.014V25H131.998V23.146L132.196 23.632C132.16 23.704 132.064 23.824 131.908 23.992C131.764 24.148 131.566 24.322 131.314 24.514C131.062 24.706 130.762 24.868 130.414 25C130.078 25.132 129.682 25.198 129.226 25.198ZM129.784 23.542C130.156 23.542 130.492 23.476 130.792 23.344C131.092 23.212 131.344 23.026 131.548 22.786C131.752 22.546 131.902 22.258 131.998 21.922V20.266C131.902 19.954 131.746 19.684 131.53 19.456C131.314 19.216 131.05 19.03 130.738 18.898C130.438 18.766 130.102 18.7 129.73 18.7C129.31 18.7 128.926 18.802 128.578 19.006C128.242 19.21 127.966 19.492 127.75 19.852C127.546 20.212 127.444 20.626 127.444 21.094C127.444 21.55 127.552 21.964 127.768 22.336C127.984 22.708 128.272 23.002 128.632 23.218C128.992 23.434 129.376 23.542 129.784 23.542ZM136.781 17.386H138.797V25H136.781V17.386ZM136.691 14.65C136.691 14.338 136.811 14.08 137.051 13.876C137.303 13.672 137.573 13.57 137.861 13.57C138.149 13.57 138.407 13.672 138.635 13.876C138.863 14.08 138.977 14.338 138.977 14.65C138.977 14.962 138.863 15.22 138.635 15.424C138.407 15.616 138.149 15.712 137.861 15.712C137.573 15.712 137.303 15.61 137.051 15.406C136.811 15.202 136.691 14.95 136.691 14.65ZM141.562 10.96H143.578V25H141.562V10.96ZM149.979 25.198C149.079 25.198 148.311 25.024 147.675 24.676C147.039 24.328 146.553 23.848 146.217 23.236C145.881 22.624 145.713 21.922 145.713 21.13C145.713 20.374 145.905 19.69 146.289 19.078C146.673 18.454 147.189 17.962 147.837 17.602C148.497 17.23 149.223 17.044 150.015 17.044C151.059 17.044 151.917 17.35 152.589 17.962C153.273 18.562 153.729 19.414 153.957 20.518L147.819 22.588L147.351 21.454L152.157 19.744L151.725 19.978C151.605 19.618 151.395 19.306 151.095 19.042C150.795 18.766 150.381 18.628 149.853 18.628C149.433 18.628 149.061 18.73 148.737 18.934C148.413 19.138 148.155 19.42 147.963 19.78C147.783 20.128 147.693 20.542 147.693 21.022C147.693 21.526 147.795 21.964 147.999 22.336C148.203 22.696 148.479 22.978 148.827 23.182C149.175 23.374 149.571 23.47 150.015 23.47C150.327 23.47 150.621 23.416 150.897 23.308C151.185 23.2 151.461 23.056 151.725 22.876L152.643 24.37C152.247 24.622 151.809 24.826 151.329 24.982C150.861 25.126 150.411 25.198 149.979 25.198ZM157.759 17.386L157.939 19.546L157.867 19.24C158.071 18.784 158.359 18.394 158.731 18.07C159.115 17.746 159.505 17.494 159.901 17.314C160.309 17.134 160.639 17.044 160.891 17.044L160.801 19.06C160.225 19.012 159.721 19.114 159.289 19.366C158.869 19.618 158.539 19.96 158.299 20.392C158.059 20.812 157.939 21.256 157.939 21.724V25H155.941V17.386H157.759Z" fill="#2E299A"/>
<rect opacity="0.4" width="40" height="36" rx="6" fill="white"/>
<path d="M34 26.5714V9.42857C34 7.54286 32.5176 6 30.7059 6H9.29412C7.48235 6 6 7.54286 6 9.42857V26.5714C6 28.4571 7.48235 30 9.29412 30H30.7059C32.5176 30 34 28.4571 34 26.5714ZM15.8824 24.8571V11.1429L25.7647 18L15.8824 24.8571Z" fill="#2B187A"/>
</svg>
