<svg width="180" height="172" viewBox="0 0 180 172" fill="none" xmlns="http://www.w3.org/2000/svg">
<path d="M114.358 32.4393C114.358 24.9893 120.418 18.9393 127.858 18.9393C135.298 18.9393 141.358 24.9993 141.358 32.4393C141.358 39.8793 135.298 45.9393 127.858 45.9393C120.418 45.9393 114.358 39.8893 114.358 32.4393ZM118.338 32.4393C118.338 37.6893 122.608 41.9593 127.858 41.9593C133.108 41.9593 137.378 37.6893 137.378 32.4393C137.378 27.1893 133.108 22.9193 127.858 22.9193C122.608 22.9193 118.338 27.1893 118.338 32.4393Z" fill="#FFA2A4"/>
<path d="M23.6975 89.8705C28.0451 117.838 30.2444 138.22 46.4451 139.21C62.6458 140.199 63.4946 127.358 61.8939 120.814C61.1503 114.876 66.7718 102.311 95.2069 99.5593C130.751 96.1196 120.984 106.038 140.961 111.571C160.937 117.104 164.04 103.288 151.691 68.8831C141.812 41.3591 132.405 27.9121 123.456 30.1449C108.035 33.9928 71.2433 42.9175 47.4526 47.8336C17.7141 53.9786 19.3499 61.9035 23.6975 89.8705Z" fill="url(#paint0_linear_1_2847)"/>
<path d="M27.036 69.6648L48.2835 63.6294L49.9666 69.555L34.8564 73.8471L36.744 80.4922L50.1188 76.693L51.802 82.6186L38.4271 86.4178L40.3387 93.1475L56.0415 88.6871L57.7247 94.6127L35.8847 100.816L27.036 69.6648ZM63.2222 73.0625L64.6255 76.2317L64.4567 75.9594C64.7771 74.6182 65.4296 73.4265 66.4144 72.3845C67.3911 71.3142 68.7401 70.5346 70.4613 70.0457C72.2108 69.5487 73.8122 69.658 75.2657 70.3734C76.7394 71.0526 77.7227 72.2064 78.2158 73.835L82.1472 87.6755L76.2216 89.3587L72.9154 77.7191C72.6548 76.9088 72.2447 76.324 71.6852 75.9645C71.1459 75.5688 70.3965 75.5072 69.4371 75.7797C68.5342 76.0362 67.8283 76.5569 67.3194 77.3418C66.8105 78.1267 66.5169 79.0792 66.4386 80.1992C66.3603 81.3192 66.5095 82.5423 66.8863 83.8685L69.0263 91.4025L63.1007 93.0857L57.8468 74.5894L63.2222 73.0625ZM91.9957 94.5293L87.5214 91.8208C88.1916 90.9596 88.6242 90.0133 88.8192 88.9822C89.0424 87.943 88.9696 86.7744 88.6009 85.4764L83.4432 67.3187L89.3688 65.6355L94.6227 84.1318C95.2479 86.3327 95.3698 88.265 94.9885 89.9284C94.6152 91.6202 93.6176 93.1538 91.9957 94.5293ZM81.3681 60.8183C81.1196 59.9436 81.2538 59.1279 81.7707 58.3712C82.3159 57.6065 82.9835 57.1119 83.7735 56.8875C84.5636 56.6631 85.3633 56.7408 86.1726 57.1208C87.0101 57.4928 87.5531 58.1162 87.8016 58.9909C88.05 59.8656 87.9158 60.6813 87.3989 61.438C86.9022 62.1585 86.2588 62.631 85.4687 62.8554C84.6787 63.0798 83.8548 63.0241 82.997 62.6884C82.1595 62.3164 81.6165 61.6931 81.3681 60.8183ZM96.5821 73.3293C96.0451 71.4388 96.0016 69.6215 96.4515 67.8776C96.9297 66.1256 97.8527 64.5979 99.2206 63.2945C100.581 61.9629 102.304 61.0006 104.393 60.4075C106.509 59.8063 108.467 59.7227 110.268 60.1566C112.06 60.5623 113.578 61.3967 114.821 62.6597C116.092 63.9148 116.996 65.4876 117.533 67.3781C118.07 69.2687 118.132 71.096 117.718 72.8602C117.325 74.5881 116.476 76.1099 115.173 77.4255C113.869 78.741 112.131 79.7074 109.959 80.3245C107.927 80.9016 105.995 81.0236 104.162 80.6903C102.357 80.3491 100.791 79.559 99.4634 78.32C98.1357 77.0809 97.1752 75.4174 96.5821 73.3293ZM102.562 71.6765C102.835 72.6358 103.281 73.4545 103.9 74.1323C104.511 74.782 105.22 75.2364 106.025 75.4955C106.831 75.7546 107.657 75.7639 108.503 75.5235C109.434 75.259 110.175 74.8048 110.724 74.161C111.272 73.5171 111.622 72.7622 111.773 71.8961C111.915 71.0018 111.85 70.075 111.577 69.1156C111.297 68.128 110.865 67.3054 110.282 66.6477C109.699 65.9901 109.004 65.5317 108.199 65.2726C107.393 65.0135 106.525 65.0162 105.594 65.2807C104.747 65.5211 104.05 65.9633 103.501 66.6071C102.952 67.2509 102.588 68.0099 102.409 68.884C102.231 69.758 102.282 70.6889 102.562 71.6765ZM128.281 84.1768L132.819 53.2935L138.152 51.7787L133.995 82.5537L128.281 84.1768ZM130.732 73.9664L116.396 57.9583L123.041 56.0708L134.462 69.7052L130.732 73.9664Z" fill="#F2F2F2"/>
<defs>
<linearGradient id="paint0_linear_1_2847" x1="124.349" y1="13.0568" x2="-5.13705" y2="344.556" gradientUnits="userSpaceOnUse">
<stop stop-color="#2E2594"/>
<stop offset="1" stop-color="#F73B6C"/>
</linearGradient>
</defs>
</svg>
