<svg width="107" height="61" viewBox="0 0 107 61" fill="none" xmlns="http://www.w3.org/2000/svg">
<path d="M2.28 21V3.336H7.56C9.336 3.336 10.848 3.6 12.096 4.128C13.344 4.656 14.344 5.36 15.096 6.24C15.864 7.12 16.424 8.104 16.776 9.192C17.128 10.28 17.304 11.376 17.304 12.48C17.304 13.792 17.064 14.976 16.584 16.032C16.12 17.072 15.48 17.968 14.664 18.72C13.848 19.456 12.904 20.024 11.832 20.424C10.76 20.808 9.624 21 8.424 21H2.28ZM5.76 17.64H7.824C8.704 17.64 9.504 17.528 10.224 17.304C10.944 17.064 11.56 16.72 12.072 16.272C12.6 15.824 13 15.264 13.272 14.592C13.56 13.904 13.704 13.12 13.704 12.24C13.704 11.088 13.512 10.152 13.128 9.432C12.76 8.696 12.296 8.128 11.736 7.728C11.192 7.328 10.632 7.056 10.056 6.912C9.48 6.752 8.992 6.672 8.592 6.672H5.76V17.64ZM23.6276 21.504C22.6836 21.504 21.8916 21.216 21.2516 20.64C20.6116 20.048 20.2756 19.288 20.2436 18.36V10.512H23.6036V17.112C23.6356 17.576 23.7556 17.952 23.9636 18.24C24.1716 18.512 24.5236 18.648 25.0196 18.648C25.5156 18.648 25.9396 18.48 26.2916 18.144C26.6596 17.808 26.9396 17.352 27.1316 16.776C27.3396 16.184 27.4436 15.52 27.4436 14.784V10.512H30.8036V21H27.7556L27.4916 19.08L27.5396 19.296C27.2996 19.728 26.9956 20.112 26.6276 20.448C26.2596 20.784 25.8196 21.04 25.3076 21.216C24.8116 21.408 24.2516 21.504 23.6276 21.504ZM34.2593 2.064H37.6193V21H34.2593V2.064ZM45.4956 21.288C44.5196 21.288 43.6316 21.096 42.8316 20.712C42.0476 20.312 41.4236 19.704 40.9596 18.888C40.4956 18.072 40.2636 17.032 40.2636 15.768C40.2636 14.584 40.5036 13.56 40.9836 12.696C41.4636 11.832 42.0956 11.168 42.8796 10.704C43.6636 10.224 44.4956 9.984 45.3756 9.984C46.4156 9.984 47.1996 10.16 47.7276 10.512C48.2716 10.848 48.7196 11.224 49.0716 11.64L48.9276 12.048L49.2396 10.512H52.3596V21H48.9996V18.72L49.2636 19.44C49.2316 19.44 49.1356 19.536 48.9756 19.728C48.8156 19.904 48.5756 20.12 48.2556 20.376C47.9516 20.616 47.5676 20.824 47.1036 21C46.6556 21.192 46.1196 21.288 45.4956 21.288ZM46.4556 18.552C46.8556 18.552 47.2156 18.496 47.5356 18.384C47.8556 18.256 48.1356 18.08 48.3756 17.856C48.6156 17.616 48.8236 17.32 48.9996 16.968V14.4C48.8716 14.048 48.6796 13.752 48.4236 13.512C48.1676 13.256 47.8636 13.064 47.5116 12.936C47.1596 12.792 46.7676 12.72 46.3356 12.72C45.8556 12.72 45.4076 12.848 44.9916 13.104C44.5916 13.344 44.2716 13.68 44.0316 14.112C43.7916 14.544 43.6716 15.04 43.6716 15.6C43.6716 16.16 43.7996 16.664 44.0556 17.112C44.3116 17.56 44.6476 17.912 45.0636 18.168C45.4956 18.424 45.9596 18.552 46.4556 18.552ZM55.8218 2.064H59.1818V21H55.8218V2.064ZM85.8548 3.336V21H82.3748V13.824H74.4788V21H70.9988V3.336H74.4788V10.464H82.3748V3.336H85.8548ZM90.405 21V3.336H95.685C97.461 3.336 98.973 3.6 100.221 4.128C101.469 4.656 102.469 5.36 103.221 6.24C103.989 7.12 104.549 8.104 104.901 9.192C105.253 10.28 105.429 11.376 105.429 12.48C105.429 13.792 105.189 14.976 104.709 16.032C104.245 17.072 103.605 17.968 102.789 18.72C101.973 19.456 101.029 20.024 99.957 20.424C98.885 20.808 97.749 21 96.549 21H90.405ZM93.885 17.64H95.949C96.829 17.64 97.629 17.528 98.349 17.304C99.069 17.064 99.685 16.72 100.197 16.272C100.725 15.824 101.125 15.264 101.397 14.592C101.685 13.904 101.829 13.12 101.829 12.24C101.829 11.088 101.637 10.152 101.253 9.432C100.885 8.696 100.421 8.128 99.861 7.728C99.317 7.328 98.757 7.056 98.181 6.912C97.605 6.752 97.117 6.672 96.717 6.672H93.885V17.64Z" fill="#B53071"/>
<path d="M3.056 45.904C3.056 46.4267 3.17867 46.896 3.424 47.312C3.68 47.7173 4.016 48.0373 4.432 48.272C4.848 48.5067 5.31733 48.624 5.84 48.624C6.384 48.624 6.86933 48.5067 7.296 48.272C7.72267 48.0373 8.05867 47.7173 8.304 47.312C8.54933 46.896 8.672 46.4267 8.672 45.904V38.432H10.192V45.952C10.192 46.7947 9.99467 47.5307 9.6 48.16C9.216 48.7893 8.69333 49.2747 8.032 49.616C7.38133 49.9573 6.65067 50.128 5.84 50.128C5.02933 50.128 4.29867 49.9573 3.648 49.616C2.99733 49.2747 2.48 48.7893 2.096 48.16C1.712 47.5307 1.52 46.7947 1.52 45.952V38.432H3.056V45.904ZM12.4071 38.432H14.3751L21.9111 50H19.9271L12.4071 38.432ZM12.2471 50L16.2631 43.712L17.0151 45.216L14.1671 50H12.2471ZM17.0631 43.152L19.8791 38.432H21.7511L17.8951 44.448L17.0631 43.152ZM38.2356 49.008C38.0756 49.1467 37.8516 49.2853 37.5636 49.424C37.2756 49.552 36.9556 49.6693 36.6036 49.776C36.2623 49.8827 35.905 49.968 35.5316 50.032C35.169 50.096 34.8276 50.128 34.5076 50.128C33.5796 50.128 32.7423 49.984 31.9956 49.696C31.2596 49.408 30.625 49.008 30.0916 48.496C29.569 47.984 29.1636 47.3813 28.8756 46.688C28.5983 45.9947 28.4596 45.2427 28.4596 44.432C28.4596 43.472 28.6143 42.6133 28.9236 41.856C29.2436 41.088 29.6756 40.4427 30.2196 39.92C30.7743 39.3867 31.409 38.9867 32.1236 38.72C32.8383 38.4427 33.5956 38.304 34.3956 38.304C35.0676 38.304 35.6916 38.384 36.2676 38.544C36.8436 38.704 37.3503 38.9067 37.7876 39.152L37.2596 40.576C37.0463 40.448 36.7796 40.3307 36.4596 40.224C36.1503 40.1173 35.8303 40.032 35.4996 39.968C35.169 39.8933 34.8596 39.856 34.5716 39.856C33.889 39.856 33.2703 39.9627 32.7156 40.176C32.161 40.3787 31.6863 40.6773 31.2916 41.072C30.897 41.456 30.593 41.9253 30.3796 42.48C30.1663 43.024 30.0596 43.6373 30.0596 44.32C30.0596 44.9493 30.1663 45.5253 30.3796 46.048C30.593 46.5707 30.897 47.024 31.2916 47.408C31.6863 47.7813 32.1556 48.0747 32.6996 48.288C33.2543 48.4907 33.8623 48.592 34.5236 48.592C34.9183 48.592 35.3076 48.5547 35.6916 48.48C36.0756 48.3947 36.4063 48.2773 36.6836 48.128V45.824H34.3796V44.336H38.2356V49.008ZM43.5793 50.16C42.9606 50.16 42.3953 50.0267 41.8832 49.76C41.3819 49.4933 40.9819 49.104 40.6833 48.592C40.3953 48.0693 40.2513 47.4347 40.2513 46.688C40.2513 45.952 40.4059 45.3173 40.7153 44.784C41.0246 44.24 41.4353 43.824 41.9473 43.536C42.4699 43.248 43.0406 43.104 43.6593 43.104C44.2779 43.104 44.8006 43.248 45.2273 43.536C45.6539 43.8133 45.9793 44.144 46.2033 44.528L46.1073 44.784L46.2513 43.376H47.6273V50H46.1393V48.272L46.2993 48.656C46.2566 48.7627 46.1606 48.9013 46.0113 49.072C45.8726 49.232 45.6806 49.3973 45.4353 49.568C45.2006 49.7387 44.9286 49.8827 44.6193 50C44.3099 50.1067 43.9633 50.16 43.5793 50.16ZM43.9793 48.928C44.3526 48.928 44.6886 48.8587 44.9873 48.72C45.2859 48.5813 45.5313 48.3893 45.7233 48.144C45.9259 47.888 46.0646 47.584 46.1393 47.232V45.936C46.0539 45.616 45.9046 45.3387 45.6913 45.104C45.4779 44.8587 45.2219 44.672 44.9233 44.544C44.6246 44.4053 44.2939 44.336 43.9313 44.336C43.5366 44.336 43.1739 44.432 42.8433 44.624C42.5126 44.816 42.2459 45.0827 42.0433 45.424C41.8513 45.7653 41.7553 46.1653 41.7553 46.624C41.7553 47.0507 41.8566 47.44 42.0593 47.792C42.2619 48.144 42.5339 48.4213 42.8753 48.624C43.2166 48.8267 43.5846 48.928 43.9793 48.928ZM51.5303 43.376L51.6583 44.864L51.5943 44.736C51.8396 44.2347 52.1863 43.84 52.6343 43.552C53.0929 43.264 53.6156 43.12 54.2023 43.12C54.5756 43.12 54.9063 43.1787 55.1943 43.296C55.4823 43.4133 55.7169 43.584 55.8983 43.808C56.0903 44.0213 56.2129 44.288 56.2663 44.608L56.1863 44.656C56.4423 44.176 56.7943 43.8027 57.2423 43.536C57.7009 43.2587 58.1809 43.12 58.6823 43.12C59.3329 43.12 59.8449 43.3067 60.2183 43.68C60.6023 44.0427 60.7996 44.5173 60.8103 45.104V50H59.3223V45.632C59.3116 45.2907 59.2263 45.008 59.0663 44.784C58.9169 44.5493 58.6503 44.4213 58.2663 44.4C57.8823 44.4 57.5356 44.5173 57.2263 44.752C56.9276 44.9867 56.6929 45.2907 56.5223 45.664C56.3516 46.0267 56.2609 46.4213 56.2503 46.848V50H54.7623V45.632C54.7516 45.2907 54.6609 45.008 54.4903 44.784C54.3303 44.5493 54.0583 44.4213 53.6743 44.4C53.2796 44.4 52.9329 44.5173 52.6343 44.752C52.3356 44.9867 52.1009 45.2907 51.9303 45.664C51.7703 46.0373 51.6903 46.4373 51.6903 46.864V50H50.2023V43.376H51.5303ZM66.4774 50.16C65.72 50.16 65.0694 50.0107 64.5254 49.712C63.9814 49.4027 63.56 48.9867 63.2614 48.464C62.9734 47.9307 62.8294 47.3227 62.8294 46.64C62.8294 45.9893 62.9947 45.3973 63.3254 44.864C63.656 44.3307 64.0987 43.904 64.6534 43.584C65.208 43.264 65.8267 43.104 66.5094 43.104C67.384 43.104 68.1094 43.36 68.6854 43.872C69.2614 44.384 69.6507 45.088 69.8534 45.984L64.3974 47.904L64.0454 47.024L68.5254 45.392L68.2054 45.6C68.0774 45.248 67.864 44.944 67.5654 44.688C67.2667 44.4213 66.8774 44.288 66.3974 44.288C65.992 44.288 65.6294 44.3893 65.3094 44.592C64.9894 44.784 64.7387 45.0507 64.5574 45.392C64.376 45.7333 64.2854 46.1227 64.2854 46.56C64.2854 47.0187 64.3814 47.424 64.5734 47.776C64.7654 48.1173 65.0267 48.3893 65.3574 48.592C65.6987 48.784 66.0827 48.88 66.5094 48.88C66.7974 48.88 67.0747 48.8267 67.3414 48.72C67.6187 48.6133 67.8747 48.4747 68.1094 48.304L68.7974 49.408C68.4667 49.632 68.0934 49.8133 67.6774 49.952C67.272 50.0907 66.872 50.16 66.4774 50.16ZM73.0459 43.376L73.1899 45.296L73.1099 45.04C73.2805 44.6347 73.5259 44.2933 73.8459 44.016C74.1765 43.728 74.5179 43.5093 74.8699 43.36C75.2325 43.2 75.5472 43.12 75.8139 43.12L75.7339 44.592C75.2325 44.56 74.7899 44.656 74.4059 44.88C74.0325 45.104 73.7339 45.4027 73.5099 45.776C73.2965 46.1493 73.1899 46.5493 73.1899 46.976V50H71.7179V43.376H73.0459Z" fill="url(#paint0_linear_37_987)"/>
<defs>
<linearGradient id="paint0_linear_37_987" x1="42.6485" y1="27.5692" x2="41.8729" y2="109.111" gradientUnits="userSpaceOnUse">
<stop stop-color="#2E2594"/>
<stop offset="1" stop-color="#F73B6C"/>
</linearGradient>
</defs>
</svg>
