<svg width="733" height="723" viewBox="0 0 733 723" fill="none" xmlns="http://www.w3.org/2000/svg">
<path opacity="0.3" d="M364.298 566.752C492.933 566.752 597.213 462.472 597.213 333.837C597.213 205.202 492.933 100.922 364.298 100.922C235.662 100.922 131.383 205.202 131.383 333.837C131.383 462.472 235.662 566.752 364.298 566.752Z" fill="#B100A0"/>
<path opacity="0.3" d="M311.628 566.752C440.263 566.752 544.543 462.472 544.543 333.837C544.543 205.202 440.263 100.922 311.628 100.922C182.992 100.922 78.7129 205.202 78.7129 333.837C78.7129 462.472 182.992 566.752 311.628 566.752Z" fill="#B100A0"/>
<path d="M339.205 566.752C467.84 566.752 572.12 462.472 572.12 333.837C572.12 205.202 467.84 100.922 339.205 100.922C210.57 100.922 106.29 205.202 106.29 333.837C106.29 462.472 210.57 566.752 339.205 566.752Z" fill="#B100A0"/>
<path opacity="0.4" d="M384.232 64.2531C316.023 109.926 233.427 129.724 151.187 124.637C123.709 122.936 95.8585 127.245 71.4264 142.41C-16.5326 197.058 30.0149 341.318 77.5344 410.321C125.054 479.324 40.0437 574.023 75.0717 675.283C110.1 776.544 267.451 662.954 347.033 659.114C392.997 656.895 442.072 708.951 578.102 671.379C714.131 633.807 795.058 545.168 669.933 375.925C544.791 206.682 612.384 46.6905 485.493 25.5797C448.407 19.4069 410.139 46.9011 384.232 64.2531Z" fill="url(#paint0_linear_1_2767)"/>
<path opacity="0.4" d="M477.036 85.1857C398.328 108.5 313.577 102.813 236.586 73.4881C210.858 63.6861 182.991 59.506 155.141 66.732C54.917 92.7357 56.4237 244.319 81.2609 324.323C106.098 404.326 -3.2471 469.457 0.0742438 576.55C3.37939 683.643 187.414 622.029 264.518 642.038C309.057 653.589 340.423 717.894 481.475 722.511C622.527 727.113 726.169 666.567 657.052 467.756C587.952 268.945 700.068 136.318 585.214 78.3972C551.644 61.4664 506.928 76.3396 477.036 85.1857Z" fill="url(#paint1_linear_1_2767)"/>
<path d="M269.939 523.06C269.939 523.06 258.307 577.158 211.775 575.343C165.244 573.545 230.278 520.355 230.278 520.355C230.278 520.355 267.606 518.556 269.939 523.06Z" fill="url(#paint2_linear_1_2767)"/>
<path opacity="0.2" d="M268.74 522.056C264.787 534.904 250.157 571.422 211.775 569.948C202.216 569.575 197.615 567.032 196.303 563.24C194.602 569.932 198.182 574.841 211.775 575.359C258.307 577.158 269.939 523.077 269.939 523.077C269.745 522.688 269.324 522.347 268.74 522.056Z" fill="url(#paint3_linear_1_2767)"/>
<path d="M448.748 646.684C448.748 646.684 436.24 695.587 386.193 693.96C336.146 692.334 406.089 644.237 406.089 644.237C406.089 644.237 446.253 642.611 448.748 646.684Z" fill="url(#paint4_linear_1_2767)"/>
<path opacity="0.2" d="M447.452 645.766C443.207 657.387 427.459 690.416 386.193 689.067C375.922 688.734 370.964 686.44 369.554 682.993C367.723 689.039 371.579 693.474 386.193 693.946C436.24 695.573 448.748 646.67 448.748 646.67C448.537 646.336 448.084 646.044 447.452 645.766Z" fill="url(#paint5_linear_1_2767)"/>
<path d="M230.368 519.96C230.368 519.96 180.922 392.687 180.017 382.589C179.112 372.505 214.856 372.338 273.675 393.887C332.494 415.436 424.568 422.94 424.568 422.94C424.568 422.94 501 534.689 501 542.458C501 550.213 447.95 648 447.95 648H402.09C402.09 648 442.488 554.676 443.377 546.14C444.282 537.604 380.744 484.115 359.948 470.99C339.151 457.865 254.623 440.793 254.623 440.793L269.91 522.275C269.926 522.289 254.639 535.484 230.368 519.96Z" fill="url(#paint6_linear_1_2767)"/>
<path d="M273.608 397.492L292.385 227.504C292.385 227.504 369.019 213.117 411.387 255.468L424.915 431.24C424.899 431.24 362.117 445.773 273.608 397.492Z" fill="url(#paint7_linear_1_2767)"/>
<path d="M336.146 220.602C336.146 220.602 320.301 247.011 348.8 251.272C374.852 255.177 372.535 215.45 364.434 212.469C356.317 209.488 343.761 210.217 336.146 220.602Z" fill="url(#paint8_linear_1_2767)"/>
<path opacity="0.3" d="M390.952 245.925C390.952 245.925 308.163 241.051 308.728 288.117C309.293 335.167 338.934 346.759 338.934 346.759C338.934 346.759 310.651 343.343 299.082 325.614C299.082 325.614 301.447 362.513 361.326 385.309C361.326 385.309 332.539 389.972 292.976 360.457C292.976 360.457 293.053 401.985 352.946 416.961C412.84 431.954 423.127 406.729 423.127 406.729L426.989 444.226C426.989 444.226 303.905 451.415 261.732 393.339L290.656 228.309C290.641 228.309 352.351 207.148 390.952 245.925Z" fill="url(#paint9_linear_1_2767)"/>
<path d="M288.627 333.593L378.384 347.056C378.384 347.056 396.886 346.57 396.886 363.695C396.886 380.821 399.155 401.219 382.613 396.423C360.902 390.104 362.539 364.019 362.539 364.019L294.767 353.748C294.767 353.748 284.868 380.756 260.825 375.652C236.781 370.549 265.053 332.199 275.39 331.794C285.727 331.389 288.627 333.593 288.627 333.593Z" fill="url(#paint10_linear_1_2767)"/>
<path opacity="0.2" d="M305.25 333.641C305.25 333.641 295.334 339.944 327.786 344.756C360.238 349.568 354.503 339.344 354.503 339.344L305.25 333.641Z" fill="url(#paint11_linear_1_2767)"/>
<path d="M350.963 197.975H349.798C343.894 197.975 339.107 202.841 339.107 208.843V233.273C339.107 239.275 343.894 244.141 349.798 244.141H350.963C356.867 244.141 361.654 239.275 361.654 233.273V208.843C361.654 202.841 356.867 197.975 350.963 197.975Z" fill="url(#paint12_linear_1_2767)"/>
<path d="M354.859 79.0642C354.859 79.0642 354.146 79.0318 352.899 79.0318C322.666 79.2262 298.753 104.728 300.114 134.944C301.151 157.804 303.143 192.525 305.914 199.265C310.126 209.488 336.503 225.155 354.859 225.155C373.216 225.155 399.608 209.488 403.804 199.265C406.575 192.525 408.568 157.804 409.605 134.944C410.966 104.744 387.068 79.2262 356.82 79.0318C355.572 79.0156 354.859 79.0642 354.859 79.0642Z" fill="url(#paint13_linear_1_2767)"/>
<path opacity="0.3" d="M354.859 225.155C354.859 225.155 317.709 219.306 315.667 189.641C313.626 159.959 325.566 150.238 343.631 155.358C343.631 155.358 340.213 146.155 331.01 146.658C331.01 146.658 333.57 136.418 341.25 137.957C348.929 139.497 386.339 145.831 406.51 134.215C426.697 122.614 385.756 86.7924 337.151 86.7924C288.546 86.7924 298.785 176.841 298.785 192.184C298.785 207.544 326.004 232.008 354.859 225.155Z" fill="url(#paint14_linear_1_2767)"/>
<path d="M323.185 200.642C323.185 200.642 333.149 188.555 346.661 194.777C357.694 199.88 355.831 208.678 355.831 208.678L323.185 200.642Z" fill="url(#paint15_linear_1_2767)"/>
<path d="M331.334 203.428C331.334 203.428 341.25 190.904 354.924 197.547C366.087 202.975 364.305 212.161 364.305 212.161L331.334 203.428Z" fill="url(#paint16_linear_1_2767)"/>
<path d="M348.087 183.808C350.452 184.278 353.126 184.391 355.232 183.598C356.269 183.209 357.095 182.561 357.613 181.734C358.18 180.94 358.245 179.806 358.326 178.737L358.375 179.174C357.289 174.363 356.333 169.551 355.54 164.69C355.135 162.26 354.778 159.83 354.503 157.367C354.243 154.904 354.017 152.442 354.049 149.93C354.065 149.477 354.422 149.12 354.875 149.137C355.313 149.137 355.653 149.493 355.669 149.914V149.93C355.734 152.312 356.074 154.71 356.447 157.108C356.82 159.506 357.289 161.887 357.808 164.269C358.829 169.016 360.011 173.763 361.291 178.445L361.307 178.51C361.34 178.64 361.356 178.769 361.34 178.883C361.113 180.357 360.854 181.945 359.801 183.257C358.829 184.57 357.37 185.428 355.928 185.817C354.487 186.222 353.061 186.255 351.684 186.141C350.29 186.028 348.994 185.785 347.649 185.363C347.228 185.234 346.985 184.78 347.115 184.359C347.244 183.954 347.633 183.727 348.038 183.792L348.087 183.808Z" fill="url(#paint17_linear_1_2767)"/>
<path d="M331.545 173.569C334.167 173.569 336.292 169.993 336.292 165.581C336.292 161.17 334.167 157.594 331.545 157.594C328.923 157.594 326.798 161.17 326.798 165.581C326.798 169.993 328.923 173.569 331.545 173.569Z" fill="url(#paint18_linear_1_2767)"/>
<path d="M376.148 173.569C378.77 173.569 380.895 169.993 380.895 165.581C380.895 161.17 378.77 157.594 376.148 157.594C373.526 157.594 371.401 161.17 371.401 165.581C371.401 169.993 373.526 173.569 376.148 173.569Z" fill="url(#paint19_linear_1_2767)"/>
<path d="M319.28 153.236C319.28 153.236 327.997 142.089 340.91 151.34" stroke="url(#paint20_linear_1_2767)" stroke-width="1.8618" stroke-miterlimit="10" stroke-linecap="round" stroke-linejoin="round"/>
<path d="M387.635 153.236C387.635 153.236 378.919 142.089 366.006 151.34" stroke="url(#paint21_linear_1_2767)" stroke-width="1.8618" stroke-miterlimit="10" stroke-linecap="round" stroke-linejoin="round"/>
<path d="M293.293 189.641H288.983C274.936 189.641 263.546 178.251 263.546 164.204V161.434C263.546 147.387 274.936 135.997 288.983 135.997H293.293V189.641Z" fill="url(#paint22_linear_1_2767)"/>
<path d="M298.51 194.777H297.991C295.399 194.777 293.293 192.67 293.293 190.078V134.215C293.293 131.623 295.399 129.516 297.991 129.516H298.51C301.102 129.516 303.208 131.623 303.208 134.215V190.078C303.208 192.67 301.102 194.777 298.51 194.777Z" fill="url(#paint23_linear_1_2767)"/>
<path d="M416.426 189.641H420.735C434.782 189.641 446.172 178.251 446.172 164.204V161.434C446.172 147.387 434.782 135.997 420.735 135.997H416.426V189.641Z" fill="url(#paint24_linear_1_2767)"/>
<path d="M411.208 194.777H411.727C414.319 194.777 416.425 192.67 416.425 190.078V134.215C416.425 131.623 414.319 129.516 411.727 129.516H411.208C408.616 129.516 406.51 131.623 406.51 134.215V190.078C406.51 192.67 408.616 194.777 411.208 194.777Z" fill="url(#paint25_linear_1_2767)"/>
<path d="M406.51 173.909C406.51 173.909 390.859 135.884 387.23 107.79L420.038 126.438L406.51 173.909Z" fill="url(#paint26_linear_1_2767)"/>
<path opacity="0.3" d="M416.425 135.997C416.425 135.997 390.94 134.134 406.51 173.893C422.08 213.668 381.09 128.739 381.09 128.739L409.297 111.856L431.299 116.458L416.425 135.997Z" fill="url(#paint27_linear_1_2767)"/>
<path d="M273.608 92.5764L302.739 171.786C302.739 171.786 315.36 152.361 324.611 122.469C324.611 122.469 385.886 149.218 420.039 126.454C454.192 103.691 438.979 54.5835 426.179 39.7427C426.179 39.7427 409.362 70.2343 349.254 64.1263C298.251 58.9255 273.608 92.5764 273.608 92.5764Z" fill="url(#paint28_linear_1_2767)"/>
<path opacity="0.8" d="M302.738 171.786C302.738 171.786 288.546 123.635 320.269 103.675C350.55 84.6214 431.299 104.193 426.179 39.7265C421.059 -24.74 255.3 18.5023 260.922 79.7771C266.56 141.036 302.738 171.786 302.738 171.786Z" fill="url(#paint29_linear_1_2767)"/>
<path d="M274.045 253.654L181.177 324.358C176.349 328.035 178.001 335.666 183.915 337.011L245.66 351.172C245.66 351.172 253.177 372.055 275.406 372.655C297.635 373.254 298.85 348.919 290.425 351.172C282.016 353.424 257.373 332.993 275.406 331.794L288.626 333.593C288.626 333.593 273.818 319.173 250.877 331.195L221.713 324.05C218.684 323.305 217.89 319.384 220.401 317.521L282.178 271.702L274.045 253.654Z" fill="url(#paint30_linear_1_2767)"/>
<path d="M427.183 282.071L478.624 386.848C481.297 392.291 476.404 398.383 470.523 396.941L408.956 381.987C408.956 381.987 392.901 397.314 372.746 387.901C352.591 378.488 362.393 356.178 368.922 361.962C375.435 367.746 406.623 360.487 391.021 351.35L378.384 347.056C378.384 347.056 398.085 340.77 413.234 361.784L442.51 368.426C445.54 369.123 448.019 365.947 446.609 363.177L411.84 294.563L427.183 282.071Z" fill="url(#paint31_linear_1_2767)"/>
<path d="M237.112 263.302L269.274 291.381C269.274 291.381 296.378 270.471 299.798 255.52C303.218 240.586 292.203 228.037 292.203 228.037L237.112 263.302Z" fill="url(#paint32_linear_1_2767)"/>
<path d="M411.066 255.951C411.066 255.951 395.755 274.08 399.963 291.342C404.171 308.605 419.708 324.664 419.708 324.664L453.987 307.402L411.066 255.951Z" fill="url(#paint33_linear_1_2767)"/>
<path d="M6.44189 652.004L24.0207 669.567L74.1973 619.374L124.39 669.567L141.953 652.004L91.7762 601.812L141.953 551.619L124.39 534.056L74.1973 584.249L24.0207 534.056L6.44189 551.619L56.6347 601.812L6.44189 652.004Z" fill="url(#paint34_linear_1_2767)"/>
<path opacity="0.2" d="M475.254 119.131L492.995 136.872L543.674 86.1768L594.369 136.872L612.11 119.131L561.431 68.4359L612.11 17.7408L594.369 0L543.674 50.6951L492.995 0L475.254 17.7408L525.933 68.4359L475.254 119.131Z" fill="url(#paint35_linear_1_2767)"/>
<path opacity="0.2" d="M687.672 367.008C708.451 346.23 708.451 312.541 687.672 291.763C666.894 270.985 633.206 270.985 612.428 291.763C591.65 312.541 591.65 346.23 612.428 367.008C633.206 387.786 666.894 387.786 687.672 367.008Z" stroke="url(#paint36_linear_1_2767)" stroke-width="5" stroke-miterlimit="10"/>
<defs>
<linearGradient id="paint0_linear_1_2767" x1="423.682" y1="702.381" x2="300.025" y2="56.7427" gradientUnits="userSpaceOnUse">
<stop stop-color="white" stop-opacity="0"/>
<stop offset="0.9899" stop-color="white"/>
</linearGradient>
<linearGradient id="paint1_linear_1_2767" x1="324.831" y1="706.163" x2="398.854" y2="52.9727" gradientUnits="userSpaceOnUse">
<stop stop-color="white" stop-opacity="0"/>
<stop offset="0.9899" stop-color="white"/>
</linearGradient>
<linearGradient id="paint2_linear_1_2767" x1="234.687" y1="504.951" x2="226.35" y2="651.695" gradientUnits="userSpaceOnUse">
<stop stop-color="#F73B6C"/>
<stop offset="1" stop-color="#842774"/>
</linearGradient>
<linearGradient id="paint3_linear_1_2767" x1="235.091" y1="506.376" x2="226.917" y2="650.251" gradientUnits="userSpaceOnUse">
<stop stop-color="white"/>
<stop offset="1" stop-color="#6DE4E3"/>
</linearGradient>
<linearGradient id="paint4_linear_1_2767" x1="410.787" y1="630.267" x2="404.307" y2="763.195" gradientUnits="userSpaceOnUse">
<stop stop-color="#F73B6C"/>
<stop offset="1" stop-color="#842774"/>
</linearGradient>
<linearGradient id="paint5_linear_1_2767" x1="411.223" y1="631.541" x2="404.868" y2="761.903" gradientUnits="userSpaceOnUse">
<stop stop-color="white"/>
<stop offset="1" stop-color="#6DE4E3"/>
</linearGradient>
<linearGradient id="paint6_linear_1_2767" x1="340.499" y1="637.54" x2="340.499" y2="402.343" gradientUnits="userSpaceOnUse">
<stop stop-color="#16164F"/>
<stop offset="1" stop-color="#0C0723"/>
</linearGradient>
<linearGradient id="paint7_linear_1_2767" x1="349.26" y1="232.914" x2="349.26" y2="421.325" gradientUnits="userSpaceOnUse">
<stop stop-color="#F73B6C"/>
<stop offset="1" stop-color="#842774"/>
</linearGradient>
<linearGradient id="paint8_linear_1_2767" x1="352.901" y1="206.299" x2="350.038" y2="316.588" gradientUnits="userSpaceOnUse">
<stop stop-color="#2E2594"/>
<stop offset="1" stop-color="#F73B6C"/>
</linearGradient>
<linearGradient id="paint9_linear_1_2767" x1="345.752" y1="236.705" x2="342.357" y2="627.21" gradientUnits="userSpaceOnUse">
<stop stop-color="#2F2EA6"/>
<stop offset="1" stop-color="#2B187A"/>
</linearGradient>
<linearGradient id="paint10_linear_1_2767" x1="324.197" y1="331.747" x2="324.197" y2="397.136" gradientUnits="userSpaceOnUse">
<stop stop-color="#16164F"/>
<stop offset="1" stop-color="#0C0723"/>
</linearGradient>
<linearGradient id="paint11_linear_1_2767" x1="329.69" y1="332.499" x2="328.187" y2="358.943" gradientUnits="userSpaceOnUse">
<stop stop-color="white"/>
<stop offset="1" stop-color="#6DE4E3"/>
</linearGradient>
<linearGradient id="paint12_linear_1_2767" x1="339.115" y1="221.059" x2="361.649" y2="221.059" gradientUnits="userSpaceOnUse">
<stop stop-color="#FA9791"/>
<stop offset="1" stop-color="#FCC0A2"/>
</linearGradient>
<linearGradient id="paint13_linear_1_2767" x1="354.859" y1="234.266" x2="354.859" y2="84.1621" gradientUnits="userSpaceOnUse">
<stop stop-color="#FA9791"/>
<stop offset="1" stop-color="#FCC0A2"/>
</linearGradient>
<linearGradient id="paint14_linear_1_2767" x1="354.834" y1="235.044" x2="354.834" y2="91.697" gradientUnits="userSpaceOnUse">
<stop stop-color="#2F2EA6"/>
<stop offset="1" stop-color="#2B187A"/>
</linearGradient>
<linearGradient id="paint15_linear_1_2767" x1="354.215" y1="198.857" x2="324.581" y2="206.251" gradientUnits="userSpaceOnUse">
<stop stop-color="#16164F"/>
<stop offset="1" stop-color="#0C0723"/>
</linearGradient>
<linearGradient id="paint16_linear_1_2767" x1="330.718" y1="200.692" x2="373.989" y2="206.101" gradientUnits="userSpaceOnUse">
<stop stop-color="#F73B6C"/>
<stop offset="1" stop-color="#842774"/>
</linearGradient>
<linearGradient id="paint17_linear_1_2767" x1="354.21" y1="148.425" x2="354.21" y2="186.676" gradientUnits="userSpaceOnUse">
<stop stop-color="#16164F"/>
<stop offset="1" stop-color="#0C0723"/>
</linearGradient>
<linearGradient id="paint18_linear_1_2767" x1="331.549" y1="159.591" x2="331.549" y2="178.085" gradientUnits="userSpaceOnUse">
<stop stop-color="#16164F"/>
<stop offset="1" stop-color="#0C0723"/>
</linearGradient>
<linearGradient id="paint19_linear_1_2767" x1="376.153" y1="159.591" x2="376.153" y2="178.085" gradientUnits="userSpaceOnUse">
<stop stop-color="#16164F"/>
<stop offset="1" stop-color="#0C0723"/>
</linearGradient>
<linearGradient id="paint20_linear_1_2767" x1="320.191" y1="147.561" x2="340.197" y2="156.586" gradientUnits="userSpaceOnUse">
<stop stop-color="#16164F"/>
<stop offset="1" stop-color="#0C0723"/>
</linearGradient>
<linearGradient id="paint21_linear_1_2767" x1="386.735" y1="147.561" x2="366.729" y2="156.586" gradientUnits="userSpaceOnUse">
<stop stop-color="#16164F"/>
<stop offset="1" stop-color="#0C0723"/>
</linearGradient>
<linearGradient id="paint22_linear_1_2767" x1="278.414" y1="130.144" x2="278.414" y2="201.385" gradientUnits="userSpaceOnUse">
<stop stop-color="#F73B6C"/>
<stop offset="1" stop-color="#842774"/>
</linearGradient>
<linearGradient id="paint23_linear_1_2767" x1="298.785" y1="122.053" x2="270.997" y2="294.986" gradientUnits="userSpaceOnUse">
<stop stop-color="#2E2594"/>
<stop offset="1" stop-color="#F73B6C"/>
</linearGradient>
<linearGradient id="paint24_linear_1_2767" x1="431.304" y1="130.144" x2="431.304" y2="201.385" gradientUnits="userSpaceOnUse">
<stop stop-color="#F73B6C"/>
<stop offset="1" stop-color="#842774"/>
</linearGradient>
<linearGradient id="paint25_linear_1_2767" x1="412.002" y1="122.053" x2="384.214" y2="294.986" gradientUnits="userSpaceOnUse">
<stop stop-color="#2E2594"/>
<stop offset="1" stop-color="#F73B6C"/>
</linearGradient>
<linearGradient id="paint26_linear_1_2767" x1="403.636" y1="112.377" x2="403.636" y2="166.004" gradientUnits="userSpaceOnUse">
<stop stop-color="#2F2EA6"/>
<stop offset="1" stop-color="#2B187A"/>
</linearGradient>
<linearGradient id="paint27_linear_1_2767" x1="406.195" y1="116.902" x2="406.195" y2="175.826" gradientUnits="userSpaceOnUse">
<stop stop-color="#2F2EA6"/>
<stop offset="1" stop-color="#2B187A"/>
</linearGradient>
<linearGradient id="paint28_linear_1_2767" x1="357.244" y1="66.4316" x2="357.244" y2="161.789" gradientUnits="userSpaceOnUse">
<stop stop-color="#2F2EA6"/>
<stop offset="1" stop-color="#2B187A"/>
</linearGradient>
<linearGradient id="paint29_linear_1_2767" x1="343.599" y1="40.9431" x2="343.599" y2="159.371" gradientUnits="userSpaceOnUse">
<stop stop-color="#2F2EA6"/>
<stop offset="1" stop-color="#2B187A"/>
</linearGradient>
<linearGradient id="paint30_linear_1_2767" x1="213.24" y1="383.258" x2="286.261" y2="262.458" gradientUnits="userSpaceOnUse">
<stop stop-color="#FA9791"/>
<stop offset="1" stop-color="#FCC0A2"/>
</linearGradient>
<linearGradient id="paint31_linear_1_2767" x1="435.77" y1="424.317" x2="389.794" y2="299.01" gradientUnits="userSpaceOnUse">
<stop stop-color="#FA9791"/>
<stop offset="1" stop-color="#FCC0A2"/>
</linearGradient>
<linearGradient id="paint32_linear_1_2767" x1="272.197" y1="220.793" x2="267.996" y2="392.88" gradientUnits="userSpaceOnUse">
<stop stop-color="#2E2594"/>
<stop offset="1" stop-color="#F73B6C"/>
</linearGradient>
<linearGradient id="paint33_linear_1_2767" x1="429.559" y1="248.093" x2="423.842" y2="434.701" gradientUnits="userSpaceOnUse">
<stop stop-color="#2E2594"/>
<stop offset="1" stop-color="#F73B6C"/>
</linearGradient>
<linearGradient id="paint34_linear_1_2767" x1="74.2037" y1="661.858" x2="74.2037" y2="475.618" gradientUnits="userSpaceOnUse">
<stop stop-color="white" stop-opacity="0"/>
<stop offset="0.9899" stop-color="white"/>
</linearGradient>
<linearGradient id="paint35_linear_1_2767" x1="543.681" y1="138.231" x2="543.681" y2="15.1996" gradientUnits="userSpaceOnUse">
<stop stop-color="white" stop-opacity="0"/>
<stop offset="0.9899" stop-color="white"/>
</linearGradient>
<linearGradient id="paint36_linear_1_2767" x1="690.541" y1="369.868" x2="609.564" y2="288.891" gradientUnits="userSpaceOnUse">
<stop stop-color="white" stop-opacity="0"/>
<stop offset="0.9899" stop-color="white"/>
</linearGradient>
</defs>
</svg>
