<svg width="427" height="638" viewBox="0 0 427 638" fill="none" xmlns="http://www.w3.org/2000/svg">
<path d="M213.323 637.257C311.235 637.257 390.609 614.902 390.609 587.326C390.609 559.75 311.235 537.395 213.323 537.395C115.411 537.395 36.0372 559.75 36.0372 587.326C36.0372 614.902 115.411 637.257 213.323 637.257Z" fill="#FEDFF6"/>
<path d="M69.8422 223.983L84.4133 201.584C81.5638 198.874 78.3418 196.303 74.7391 193.872C69.815 202.926 63.3901 212.896 57.1636 222.561C55.7933 224.688 54.4174 226.824 53.0525 228.954C55.6763 230.069 58.5911 230.343 61.4406 229.722C64.9508 228.954 67.9335 226.918 69.8422 223.983Z" fill="url(#paint0_linear_24_141)"/>
<path d="M297.13 447.223C298.226 444.895 305.643 428.928 312.661 408.351C319.613 387.97 327.591 358.77 326.114 335.408C323.466 293.528 335.788 232.102 337.926 221.858L240.602 174.084C240.004 173.789 239.594 173.23 239.509 172.591C233.941 130.956 218.573 21.8686 213.587 10.9431C204.712 4.6254 194.546 2.42986 185.622 4.9204C179.132 6.73218 174.134 10.9718 171.877 16.5716C168.288 54.7886 179.295 131.434 179.406 132.204C179.409 132.222 179.412 132.241 179.414 132.259C183.876 171.194 175.434 180.425 170.004 182.461C165.466 184.163 160.341 182.031 156.292 176.757C147.252 164.983 130.329 132.102 129.614 130.711C129.595 130.674 129.576 130.635 129.559 130.596C116.84 101.224 95.5203 53.6948 91.3358 48.6275C82.0477 44.7795 72.4497 45.4948 64.9399 50.5933C58.9282 54.6737 55.4914 60.8087 55.97 66.6043C55.9727 66.633 55.9727 66.6617 55.9754 66.6879C56.7503 87.4632 78.7224 155.332 85.4383 175.64C87.0615 180.548 86.7081 185.756 84.4404 190.309C83.5948 192.008 82.6758 193.225 81.6589 193.979C84.0951 195.867 86.3356 197.83 88.3829 199.866C88.4428 199.919 88.4972 199.973 88.5488 200.031C97.497 208.985 102.709 219.342 104.091 230.967C105.113 239.574 104.012 248.902 100.822 258.686C99.006 264.258 96.51 269.988 93.3777 275.797C95.8819 277.687 101.111 282.187 106.353 290.142C112.835 299.979 120.587 317.251 120.698 343.66C120.703 344.741 119.793 345.62 118.667 345.626C118.384 345.626 118.112 345.573 117.868 345.472C117.136 345.177 116.622 344.485 116.62 343.675C116.514 318.339 109.18 301.835 103.049 292.452C98.4622 285.435 93.8481 281.245 91.4119 279.313C90.7593 280.436 90.0878 281.561 89.389 282.686C80.8024 296.541 71.8162 305.735 71.4383 306.119C70.6661 306.905 69.3746 306.939 68.5561 306.197C67.7377 305.456 67.6997 304.216 68.4719 303.43C68.5616 303.339 77.575 294.11 85.9304 280.605C93.5681 268.262 102.214 249.709 100.037 231.398C98.851 221.43 94.5795 212.442 87.3035 204.529L73.298 226.061C70.8102 229.886 66.9193 232.544 62.3433 233.544C58.7297 234.335 55.0347 234.016 51.6876 232.661C51.4238 232.554 51.1655 232.439 50.9072 232.322C38.5413 251.826 27.8666 270.588 31.2599 280.712C37.6549 299.783 44.0527 338.574 43.9412 357.572C43.8923 365.975 50.0018 375.784 61.6146 385.936C71.9848 395.006 85.9631 403.668 100.972 410.325C130.28 423.326 136.281 472.207 132.515 510.116C131.28 522.535 135.114 530.978 143.312 533.865C148.614 535.739 155.324 535.186 162.203 532.309C169.362 529.315 175.904 524.099 180.619 517.622C185.818 510.484 191.617 506.524 198.352 505.521C211.721 503.529 225.515 513.646 240.118 524.36C241.511 525.38 242.905 526.404 244.3 527.417C252.62 533.455 263.129 533.969 272.414 528.795C284.71 521.942 291.349 507.793 289.329 492.742C285.27 462.482 290.901 453.557 297.13 447.223Z" fill="#F5DDF2"/>
<path d="M86.0011 177.71C88.8588 171.184 89.1823 161.644 89.1823 161.644C89.1823 161.644 87.589 156.82 82.1646 142.95C76.7376 129.077 70.87 110.972 75.3155 108.716C79.7611 106.461 80.5061 104.182 76.1475 105.367C71.789 106.552 70.6661 105.605 74.788 103.219C78.9073 100.832 85.0767 99.0285 80.381 98.3549C75.6853 97.6814 70.8537 102.853 67.1994 92.5254C63.5451 82.1977 61.272 64.9336 69.2305 56.7258C73.9479 51.8596 73.8038 48.7399 72.9038 47.0065C70.0842 47.7296 67.4033 48.9253 64.9453 50.5935C58.9337 54.6739 55.4969 60.8089 55.9754 66.6045C55.9781 66.6332 55.9781 66.6619 55.9809 66.688C56.7558 87.4634 78.7278 155.332 85.4437 175.64C85.6667 176.324 85.8516 177.016 86.0011 177.71Z" fill="#FFFCFA"/>
<path d="M289.329 492.74C285.267 462.483 290.901 453.557 297.13 447.224C298.226 444.895 305.643 428.928 312.661 408.351C316.712 396.476 321.109 381.603 323.781 366.636C312.683 354.954 301.154 346.197 289.797 342.177C260.886 331.943 160.281 327.581 160.281 327.581C160.281 327.581 134.888 333.52 154.465 354.228C174.039 374.935 234.825 378.167 253.613 412.319C272.401 446.472 227.766 450.764 204.679 432.813C181.59 414.862 183.795 441.316 149.878 430.529C120.282 421.117 111.318 407.336 80.3456 399.517C86.7951 403.464 93.7665 407.124 100.975 410.325C130.282 423.326 136.283 472.207 132.517 510.116C131.283 522.535 135.117 530.978 143.315 533.865C148.617 535.74 155.327 535.186 162.206 532.309C169.365 529.315 175.907 524.099 180.622 517.622C181.364 516.601 182.12 515.648 182.889 514.755C194.105 474.426 207.227 438.481 206.112 462.765C204.633 494.977 222.872 445.587 223.533 462.446C224.191 479.303 276.251 437.71 276.186 488.56C276.158 508.733 271.514 521.814 266.248 531.354C268.339 530.766 270.405 529.913 272.414 528.793C284.71 521.94 291.352 507.79 289.329 492.74Z" fill="#FF99CB"/>
<path d="M103.095 399.788C94.0955 394.055 87.2763 395.593 71.3648 386.939C55.4561 378.285 76.2753 366.438 82.2136 347.09C88.1518 327.743 71.6639 323.033 65.0867 328.972C58.5095 334.912 55.3582 346.169 51.5815 336.407C47.8049 326.646 46.8152 318.995 44.8385 306.886C42.8618 294.781 36.7169 274.964 39.8355 267.871C42.9515 260.775 50.755 242.43 55.4561 241.631C60.1599 240.832 66.6284 240.381 73.3905 231.69C79.0949 224.359 82.3332 215.59 81.2021 213.914L73.3008 226.061C70.8129 229.886 66.922 232.544 62.346 233.543C58.7325 234.335 55.0374 234.016 51.6903 232.661C51.4266 232.554 51.1683 232.439 50.91 232.322C38.544 251.826 27.8693 270.588 31.2626 280.712C37.6576 299.783 44.0554 338.574 43.9439 357.572C43.895 365.975 50.0045 375.784 61.6173 385.936C70.5492 393.747 82.1538 401.253 94.7916 407.44C105.363 409.241 109.485 403.858 103.095 399.788Z" fill="#FFFCFA"/>
<path d="M171.875 16.5716C168.286 54.7886 179.292 131.434 179.404 132.204C179.406 132.222 179.409 132.241 179.412 132.259C183.33 133.958 189.075 136.551 186.511 125.683C183.947 114.812 180.437 74.9687 182.435 73.6269C184.434 72.285 200.555 72.7314 198.271 70.2096C195.987 67.6877 189.839 70.1756 183.528 69.0948C177.22 68.014 178.033 60.4798 184.39 59.1196C190.747 57.7621 197.555 54.4962 189.741 55.3864C181.927 56.2766 177.122 55.5613 176.954 50.7003C176.785 45.8394 175.412 26.2362 178.724 18.1145C181.494 11.3216 193.885 5.84976 198.124 4.34343C193.858 3.63072 189.613 3.80303 185.619 4.92038C179.129 6.73215 174.131 10.9718 171.875 16.5716Z" fill="#FFFCFA"/>
<path d="M113.438 170.238C113.438 170.238 121.013 168.145 129.635 159.592C132.053 157.193 134.63 151.635 136.93 144.545C132.885 137.078 129.902 131.28 129.611 130.714C129.592 130.677 129.573 130.638 129.556 130.599C116.84 101.224 95.5203 53.6948 91.3358 48.6276C88.2878 47.364 85.2072 46.5965 82.1782 46.3093C78.2303 48.7868 75.2584 57.3601 82.2571 83.8763C94.4599 130.11 113.438 170.238 113.438 170.238Z" fill="#FF99CB"/>
<path d="M239.507 172.591C233.938 130.956 218.57 21.8687 213.584 10.9432C212.809 10.3924 212.026 9.87546 211.235 9.38727C207.616 10.1287 196.917 13.4598 196.074 26.9855C195.057 43.2863 217.967 163.044 220.52 170.346C222.576 176.225 233.742 184.594 239.969 173.598C239.721 173.314 239.558 172.967 239.507 172.591Z" fill="#FF99CB"/>
<path d="M300.319 449.685C300.474 449.528 300.605 449.348 300.697 449.15C300.779 448.98 308.884 431.99 316.522 409.612C326.805 379.478 331.403 354.431 330.185 335.167C327.335 290.111 342.077 221.874 342.227 221.19C342.415 220.326 341.98 219.446 341.158 219.044L243.411 171.063C242.557 164.727 237.873 130.09 232.636 94.7677C220.928 15.7858 217.972 10.481 217.002 8.73713C216.863 8.48912 216.67 8.27244 216.436 8.10014C206.43 0.811265 194.785 -1.71582 184.48 1.16109C176.644 3.34879 170.621 8.55438 167.957 15.4464C167.894 15.6083 167.853 15.7754 167.837 15.9477C164.153 54.256 175.094 130.891 175.358 132.718C178.882 163.492 174.134 176.71 168.514 178.817C165.801 179.835 162.456 178.196 159.569 174.436C150.911 163.158 134.094 130.591 133.292 129.035C132.768 127.826 124.545 108.857 115.82 89.5439C97.5323 49.053 94.9765 46.5677 94.014 45.6305C93.8345 45.4582 93.6252 45.3172 93.394 45.218C82.6432 40.6207 71.4084 41.4065 62.5853 47.3953C55.418 52.2589 51.3287 59.7175 51.9024 66.8706C52.7262 88.1916 74.8016 156.412 81.5529 176.825C82.8607 180.78 82.5807 184.97 80.7644 188.62C79.9324 190.293 79.2825 190.813 79.0514 190.956C78.5892 190.841 78.1052 190.888 77.6838 191.076C76.8463 190.502 75.9898 189.933 75.1143 189.374C74.6276 189.064 74.0295 188.97 73.4639 189.111C72.9011 189.254 72.428 189.62 72.1642 190.121C67.2021 199.54 60.3367 210.197 53.6969 220.501C37.8317 245.124 22.8474 268.38 27.3853 281.908C33.6798 300.684 39.9824 338.856 39.8709 357.546C39.8138 367.09 46.3856 377.906 58.8739 388.826C69.5459 398.157 83.8885 407.054 99.267 413.875C111.505 419.305 120.54 432.716 125.391 452.659C130.791 474.846 129.63 497.945 128.458 509.74C127.724 517.115 128.621 523.302 131.12 528.132C133.295 532.335 136.713 535.457 141.041 537.209C141.327 537.324 141.615 537.434 141.906 537.538C154.922 542.138 173.397 534.374 183.966 519.861C188.493 513.643 193.406 510.218 198.983 509.388C210.634 507.651 223.756 517.277 237.647 527.466C239.044 528.492 240.445 529.518 241.848 530.536C251.522 537.556 263.716 538.17 274.467 532.178C280.778 528.662 286.115 523.031 289.503 516.324C293.179 509.043 294.52 500.715 293.381 492.238C289.166 460.885 295.879 454.144 300.319 449.685ZM57.1636 222.563C63.3901 212.899 69.815 202.929 74.7391 193.875C78.339 196.305 81.5638 198.88 84.4132 201.587L69.8422 223.986C67.9335 226.918 64.9508 228.957 61.4406 229.724C58.5911 230.348 55.6763 230.071 53.0525 228.957C54.4174 226.824 55.7905 224.691 57.1636 222.563ZM272.414 528.792C263.129 533.967 252.62 533.452 244.3 527.414C242.905 526.401 241.511 525.378 240.118 524.357C225.515 513.646 211.721 503.527 198.352 505.519C191.617 506.524 185.818 510.481 180.619 517.619C175.902 524.096 169.362 529.312 162.203 532.306C155.324 535.183 148.614 535.737 143.312 533.862C135.117 530.972 131.28 522.532 132.515 510.113C136.281 472.204 130.28 423.323 100.972 410.322C85.9631 403.665 71.9848 395.003 61.6146 385.934C50.0045 375.781 43.8923 365.973 43.9412 357.569C44.0527 338.569 37.6522 299.78 31.2599 280.71C27.8666 270.586 38.5413 251.823 50.9072 232.319C51.1655 232.439 51.4238 232.554 51.6876 232.658C55.0347 234.013 58.727 234.332 62.3433 233.541C66.922 232.538 70.8129 229.883 73.2981 226.059L87.3035 204.526C94.5822 212.439 98.851 221.428 100.037 231.395C102.214 249.703 93.5681 268.26 85.9304 280.603C77.575 294.107 68.5616 303.336 68.4719 303.427C67.6997 304.213 67.735 305.453 68.5561 306.195C69.3746 306.936 70.6661 306.902 71.4383 306.116C71.8162 305.733 80.8024 296.538 89.389 282.683C90.0878 281.555 90.7593 280.433 91.4119 279.31C93.8454 281.242 98.4622 285.432 103.049 292.45C109.183 301.832 116.516 318.337 116.62 343.673C116.622 344.482 117.136 345.174 117.868 345.469C118.112 345.568 118.384 345.623 118.667 345.623C119.793 345.618 120.703 344.738 120.698 343.657C120.589 317.248 112.837 299.976 106.353 290.139C101.111 282.185 95.8819 277.684 93.3777 275.794C96.51 269.988 99.006 264.255 100.822 258.684C104.012 248.899 105.11 239.571 104.091 230.964C102.712 219.339 97.497 208.983 88.5488 200.028C88.4972 199.971 88.4428 199.916 88.383 199.864C86.3356 197.827 84.0924 195.864 81.6589 193.977C82.6758 193.22 83.5921 192.006 84.4404 190.306C86.7053 185.753 87.0615 180.545 85.4383 175.637C78.7251 155.332 56.753 87.4632 55.9781 66.6878C55.9781 66.6591 55.9754 66.6304 55.9727 66.6043C55.4942 60.8087 58.931 54.6737 64.9426 50.5933C72.4524 45.4948 82.0505 44.7794 91.3385 48.6275C95.523 53.6973 116.84 101.224 129.556 130.599C129.573 130.638 129.592 130.674 129.611 130.713C130.326 132.108 147.249 164.986 156.29 176.76C160.338 182.033 165.466 184.166 170.001 182.464C175.431 180.428 183.874 171.196 179.412 132.262C179.409 132.243 179.406 132.225 179.404 132.207C179.292 131.434 168.286 54.7912 171.875 16.5742C174.134 10.9744 179.129 6.73478 185.619 4.923C194.54 2.43246 204.709 4.62539 213.584 10.9457C218.57 21.8712 233.938 130.956 239.507 172.593C239.594 173.233 240.001 173.794 240.6 174.086L337.926 221.858C335.788 232.102 323.466 293.528 326.114 335.408C327.591 358.773 319.613 387.972 312.661 408.351C305.643 428.928 298.226 444.895 297.13 447.223C290.901 453.557 285.267 462.482 289.329 492.74C291.352 507.79 284.71 521.939 272.414 528.792Z" fill="#FFCADD"/>
<path d="M391.223 248.228C365.178 237.681 335.049 249.445 324.064 274.455C313.08 299.462 325.331 328.39 351.379 338.937C375.388 348.659 402.866 339.423 415.62 318.331C415.626 318.324 415.629 318.316 415.634 318.311C415.827 317.99 416.017 317.666 416.205 317.337C416.238 317.279 416.273 317.219 416.306 317.162C416.493 316.833 416.675 316.501 416.858 316.165C416.863 316.154 416.868 316.144 416.874 316.133C417.056 315.791 417.236 315.447 417.412 315.1C417.453 315.016 417.494 314.932 417.537 314.849C417.671 314.583 417.798 314.316 417.926 314.047C417.972 313.951 418.019 313.852 418.065 313.755C418.225 313.41 418.386 313.063 418.541 312.711C418.701 312.348 418.853 311.982 419.003 311.62C419.065 311.468 419.125 311.314 419.185 311.16C419.267 310.954 419.348 310.748 419.427 310.541C419.506 310.338 419.579 310.132 419.655 309.928C419.71 309.779 419.764 309.633 419.816 309.484C419.903 309.239 419.99 308.993 420.071 308.745C420.104 308.651 420.134 308.557 420.167 308.463C420.264 308.171 420.357 307.876 420.449 307.584C420.458 307.56 420.463 307.539 420.471 307.516C421.907 302.848 422.603 298.013 422.562 293.181C422.559 292.925 422.557 292.669 422.551 292.416C422.551 292.361 422.548 292.309 422.546 292.254C421.988 273.559 410.31 255.958 391.223 248.228Z" fill="url(#paint1_linear_24_141)"/>
<path d="M399.675 273.435C402.308 265.314 397.586 256.682 389.128 254.154C380.67 251.626 371.679 256.16 369.047 264.281C366.414 272.402 371.136 281.034 379.594 283.562C388.052 286.09 397.043 281.556 399.675 273.435Z" fill="url(#paint2_linear_24_141)"/>
<path d="M374.856 329.906C379.123 322.453 376.29 313.09 368.527 308.993C360.765 304.896 351.013 307.617 346.746 315.07C342.479 322.523 345.312 331.886 353.075 335.983C360.837 340.08 370.589 337.359 374.856 329.906Z" fill="url(#paint3_linear_24_141)"/>
<path d="M347.787 299.481C356.476 297.826 362.123 289.722 360.4 281.379C358.677 273.037 350.236 267.614 341.547 269.269C332.858 270.923 327.211 279.027 328.934 287.37C330.657 295.713 339.098 301.135 347.787 299.481Z" fill="url(#paint4_linear_24_141)"/>
<path d="M403.64 322.1C412.329 320.446 417.976 312.341 416.253 303.999C414.53 295.656 406.09 290.234 397.401 291.888C388.712 293.542 383.064 301.646 384.787 309.989C386.51 318.332 394.951 323.754 403.64 322.1Z" fill="url(#paint5_linear_24_141)"/>
<path d="M319.241 342.717C323.415 324.439 311.367 306.373 292.331 302.365C273.295 298.357 254.479 309.925 250.304 328.203C246.13 346.48 258.178 364.547 277.214 368.555C296.25 372.563 315.066 360.995 319.241 342.717Z" fill="#FFF6E1"/>
<path d="M182.426 307.882C196.206 294.651 196.206 273.199 182.426 259.968C168.645 246.737 146.303 246.737 132.523 259.968C118.743 273.199 118.743 294.651 132.523 307.882C146.303 321.113 168.645 321.113 182.426 307.882Z" fill="#FFF6E1"/>
<path d="M349.794 342.545C321.674 331.158 308.446 299.932 320.307 272.933C332.167 245.934 364.689 233.233 392.808 244.62C405.808 249.883 415.62 259.389 421.246 270.755C422.945 258.198 420.667 250.132 418.369 245.498C416.384 241.498 414.065 239.342 413.054 238.532L358.177 216.311L358.19 216.282C358.06 216.246 357.932 216.206 357.801 216.157L278.304 186.529L273.034 184.393L195.533 150.447L140.248 128.059C138.945 127.931 135.718 127.837 131.343 129.267C126.283 130.922 118.678 134.987 110.496 144.918C122.9 140.853 136.838 140.968 149.837 146.231C177.957 157.619 191.185 188.844 179.325 215.844C167.465 242.843 134.943 255.543 106.823 244.156C86.322 235.854 73.7412 217.005 73.0207 196.937C55.2386 222.712 21.4281 272.98 12.2107 295.585C5.76672 311.39 3.13203 325.067 4.38276 336.233C5.58455 346.983 10.3591 354.82 18.5704 359.522C27.0727 364.391 38.7017 365.281 50.4776 361.963C59.8663 359.318 73.8391 352.789 87.0806 336.697C97.3338 324.237 114.417 319.386 137.858 322.284C156.447 324.581 178.822 331.541 206.253 343.563C234.368 354.034 255.176 364.561 269.864 375.739C288.383 389.834 296.689 404.965 294.555 420.713C291.795 441.049 296.679 455.215 301.257 463.514C307.003 473.925 315.782 481.3 325.35 483.749C334.587 486.111 343.763 483.926 352.622 477.248C361.823 470.312 370.186 458.956 377.476 443.493C387.903 421.376 401.797 363.044 408.606 332.826C393.134 346.341 370.295 350.847 349.794 342.545ZM301.053 233.027L315.252 238.775C320.483 240.892 322.944 246.701 320.736 251.724C318.531 256.747 312.481 259.109 307.25 256.99L293.052 251.241C287.82 249.124 285.36 243.315 287.567 238.292C289.772 233.272 295.822 230.909 301.053 233.027ZM208.328 195.478L222.527 201.227C227.758 203.344 230.219 209.152 228.011 214.175C225.806 219.198 219.756 221.561 214.525 219.441L200.326 213.692C195.095 211.575 192.634 205.766 194.842 200.744C197.047 195.723 203.097 193.361 208.328 195.478ZM142.181 318.752C122.18 310.654 112.772 288.442 121.206 269.239C129.641 250.035 152.774 241.002 172.775 249.1C192.776 257.198 202.183 279.41 193.749 298.613C185.312 317.817 162.179 326.85 142.181 318.752ZM240.08 266.782L239.993 266.748L239.909 266.714C230.934 263.08 226.711 253.113 230.496 244.495C234.281 235.877 244.662 231.823 253.637 235.457L253.73 235.494L253.808 235.525C262.784 239.159 267.006 249.126 263.222 257.744C259.437 266.362 249.056 270.416 240.08 266.782ZM269.478 370.301C249.477 362.203 240.069 339.992 248.504 320.788C256.938 301.584 280.071 292.552 300.072 300.65C320.073 308.748 329.48 330.959 321.046 350.163C312.612 369.364 289.479 378.399 269.478 370.301Z" fill="#2E2594"/>
<path d="M394.414 277.66C400.677 271.646 400.677 261.895 394.414 255.881C388.15 249.867 377.995 249.867 371.731 255.881C365.467 261.895 365.467 271.646 371.731 277.66C377.995 283.674 388.15 283.674 394.414 277.66Z" fill="#FFCADD"/>
<path d="M361.341 335.7C370.145 334.751 376.48 327.13 375.491 318.677C374.503 310.225 366.565 304.142 357.761 305.091C348.958 306.04 342.623 313.662 343.612 322.114C344.6 330.567 352.538 336.65 361.341 335.7Z" fill="#FFCADD"/>
<path d="M345.751 297.509C354.512 296.25 360.551 288.411 359.24 279.999C357.929 271.588 349.765 265.789 341.004 267.048C332.243 268.307 326.204 276.146 327.515 284.558C328.826 292.969 336.991 298.768 345.751 297.509Z" fill="#FFCADD"/>
<path d="M401.606 320.128C410.366 318.87 416.406 311.03 415.095 302.618C413.784 294.207 405.619 288.408 396.858 289.667C388.097 290.926 382.058 298.765 383.369 307.177C384.68 315.589 392.845 321.387 401.606 320.128Z" fill="#FFCADD"/>
<path d="M302.044 352.06C311.583 342.9 311.583 328.05 302.044 318.891C292.504 309.732 277.038 309.732 267.499 318.891C257.959 328.05 257.959 342.9 267.499 352.06C277.038 361.219 292.504 361.219 302.044 352.06Z" fill="#FFCADD"/>
<path d="M285.471 351.805C294.871 351.437 302.186 343.821 301.809 334.796C301.433 325.77 293.507 318.751 284.107 319.119C274.706 319.488 267.392 327.103 267.768 336.129C268.145 345.155 276.071 352.173 285.471 351.805Z" fill="url(#paint6_linear_24_141)"/>
<path d="M273.711 334.951C276.553 328.482 284.315 325.451 291.053 328.179C294.27 329.481 296.668 331.865 297.989 334.7C297.69 330.032 294.71 325.701 289.919 323.762C283.182 321.034 275.419 324.064 272.578 330.534C271.093 333.912 271.248 337.559 272.694 340.663C272.572 338.77 272.89 336.82 273.711 334.951Z" fill="#FFF6E1"/>
<path d="M184.058 283.876L176.451 280.796C173.479 279.592 172.087 276.306 173.34 273.452L176.549 266.148C177.802 263.294 176.41 260.008 173.438 258.804L165.072 255.415C162.1 254.212 158.677 255.549 157.423 258.402L154.215 265.707C152.961 268.56 149.538 269.897 146.566 268.693L138.959 265.613C135.987 264.409 132.564 265.746 131.31 268.599L127.781 276.632C126.528 279.485 127.92 282.772 130.892 283.976L138.499 287.056C141.471 288.26 142.863 291.546 141.61 294.4L138.401 301.704C137.148 304.558 138.54 307.845 141.512 309.048L149.878 312.437C152.85 313.64 156.273 312.304 157.527 309.45L160.735 302.146C161.988 299.292 165.412 297.956 168.384 299.159L175.991 302.24C178.963 303.443 182.386 302.107 183.64 299.253L187.169 291.22C188.42 288.367 187.028 285.077 184.058 283.876Z" fill="#FFCADD"/>
<path d="M201.911 210.084L216.11 215.833C219.269 217.112 222.921 215.684 224.253 212.653C225.585 209.62 224.098 206.114 220.941 204.834L206.743 199.086C203.583 197.807 199.932 199.235 198.6 202.266C197.267 205.299 198.755 208.805 201.911 210.084Z" fill="url(#paint7_linear_24_141)"/>
<path d="M80.5251 177.42C80.4136 177.697 80.3049 177.971 80.1988 178.248C80.1662 178.334 80.1308 178.42 80.0982 178.506C79.9623 178.869 79.829 179.235 79.7013 179.598C79.6985 179.608 79.6931 179.619 79.6904 179.629C79.5653 179.987 79.4457 180.347 79.3315 180.707C79.3124 180.77 79.2907 180.832 79.2717 180.895C79.1575 181.253 79.0487 181.61 78.9454 181.968C78.9427 181.976 78.9399 181.984 78.9372 181.992C72.1099 205.487 84.3997 230.826 108.408 240.548C134.453 251.095 164.582 239.331 175.567 214.322C186.552 189.312 174.3 160.386 148.252 149.839C129.162 142.109 107.883 146.364 93.5517 159.034C93.511 159.07 93.4702 159.104 93.4321 159.138C93.2363 159.313 93.0433 159.491 92.8475 159.671C89.215 163.018 86.099 166.868 83.6193 171.113C83.6084 171.134 83.5948 171.152 83.584 171.173C83.429 171.442 83.274 171.711 83.1244 171.982C83.0755 172.069 83.0293 172.155 82.9803 172.243C82.8553 172.473 82.7302 172.703 82.6078 172.935C82.5344 173.074 82.461 173.215 82.3903 173.356C82.2897 173.551 82.1891 173.745 82.0912 173.94C81.9934 174.139 81.8955 174.34 81.8003 174.538C81.7296 174.687 81.6562 174.836 81.5855 174.985C81.4169 175.342 81.2538 175.703 81.0934 176.065C80.9384 176.415 80.7916 176.768 80.6475 177.12C80.604 177.222 80.5659 177.321 80.5251 177.42ZM140.9 166.576C157.334 173.23 165.066 191.484 158.136 207.262C151.205 223.041 132.194 230.466 115.76 223.811C99.3269 217.157 91.5941 198.903 98.5248 183.125C105.455 167.346 124.467 159.921 140.9 166.576Z" fill="url(#paint8_linear_24_141)"/>
<path d="M294.637 247.633L308.835 253.382C311.992 254.661 315.646 253.233 316.979 250.202C318.311 247.168 316.824 243.662 313.667 242.383L299.468 236.635C296.312 235.355 292.657 236.783 291.325 239.814C289.993 242.848 291.48 246.354 294.637 247.633Z" fill="url(#paint9_linear_24_141)"/>
<path d="M199.385 203.976C200.718 200.942 204.369 199.517 207.529 200.796L221.727 206.544C222.924 207.03 223.878 207.834 224.533 208.81C224.057 207.085 222.785 205.581 220.941 204.834L206.743 199.086C203.583 197.807 199.932 199.235 198.6 202.266C197.773 204.151 198.034 206.216 199.105 207.818C198.765 206.586 198.828 205.239 199.385 203.976Z" fill="#FFF6E1"/>
<path d="M292.111 241.524C293.443 238.491 297.095 237.065 300.254 238.344L314.453 244.093C315.649 244.579 316.603 245.383 317.259 246.359C316.783 244.633 315.51 243.13 313.67 242.383L299.471 236.635C296.314 235.355 292.66 236.783 291.328 239.814C290.501 241.699 290.762 243.764 291.833 245.367C291.491 244.135 291.556 242.788 292.111 241.524Z" fill="#FFF6E1"/>
<path d="M154.693 204.99C160.323 191.008 153.083 175.292 138.521 169.886C123.959 164.481 107.59 171.433 101.96 185.415C96.3301 199.396 103.571 215.113 118.133 220.518C132.695 225.924 149.064 218.972 154.693 204.99Z" fill="#FFCADD"/>
<path d="M148.44 204.052C153.535 193.393 148.665 180.786 137.563 175.894C126.461 171.003 113.332 175.678 108.237 186.338C103.142 196.997 108.012 209.604 119.114 214.495C130.216 219.387 143.345 214.711 148.44 204.052Z" fill="url(#paint10_linear_24_141)"/>
<path d="M112.517 193.88C116.527 184.751 127.487 180.47 136.996 184.32C141.536 186.158 144.921 189.523 146.787 193.528C146.362 186.941 142.159 180.827 135.397 178.089C125.889 174.238 114.928 178.517 110.918 187.649C108.824 192.418 109.042 197.567 111.081 201.945C110.91 199.269 111.358 196.514 112.517 193.88Z" fill="#FFF6E1"/>
<path d="M410.411 232.533L411.678 229.646C411.982 228.954 411.643 228.153 410.922 227.86L369.232 210.977C367.212 210.16 364.876 211.071 364.025 213.011L363.696 213.758C363.628 213.912 363.552 214.058 363.468 214.201L410.204 233.128C410.259 232.927 410.324 232.729 410.411 232.533Z" fill="url(#paint11_linear_24_141)"/>
<path d="M193.175 144.706L193.504 143.96C194.355 142.02 193.406 139.778 191.386 138.961L149.696 122.078C148.975 121.785 148.141 122.112 147.836 122.803L146.569 125.691C146.482 125.886 146.379 126.069 146.27 126.247L193.007 145.174C193.053 145.017 193.107 144.861 193.175 144.706Z" fill="url(#paint12_linear_24_141)"/>
<path d="M252.223 239.133L252.147 239.102L252.055 239.062C245.151 236.266 237.168 239.386 234.256 246.012C231.344 252.64 234.593 260.305 241.494 263.101L241.578 263.135L241.665 263.169C248.569 265.965 256.552 262.845 259.464 256.22C262.376 249.594 259.127 241.929 252.223 239.133Z" fill="url(#paint13_linear_24_141)"/>
<path d="M200.326 213.692L214.525 219.441C219.756 221.558 225.806 219.196 228.011 214.175C230.216 209.153 227.755 203.344 222.527 201.227L208.328 195.478C203.097 193.361 197.047 195.723 194.842 200.744C192.637 205.767 195.098 211.575 200.326 213.692ZM206.743 199.086L220.941 204.835C224.101 206.114 225.585 209.62 224.253 212.653C222.921 215.687 219.269 217.112 216.11 215.833L201.911 210.085C198.752 208.805 197.267 205.299 198.6 202.266C199.932 199.235 203.583 197.807 206.743 199.086Z" fill="#FFCADD"/>
<path d="M115.76 223.811C132.194 230.466 151.205 223.044 158.136 207.262C165.066 191.484 157.336 173.23 140.9 166.576C124.467 159.921 105.455 167.343 98.5248 183.124C91.5941 198.903 99.3241 217.157 115.76 223.811ZM139.315 170.184C153.677 176 160.433 191.951 154.378 205.74C148.32 219.53 131.707 226.017 117.346 220.203C102.984 214.387 96.2272 198.436 102.282 184.646C108.34 170.857 124.953 164.37 139.315 170.184Z" fill="#FFCADD"/>
<path d="M253.808 235.525L253.73 235.494L253.637 235.457C244.662 231.823 234.281 235.878 230.496 244.495C226.711 253.113 230.934 263.08 239.909 266.714L239.993 266.748L240.08 266.782C249.056 270.416 259.437 266.362 263.222 257.744C267.006 249.126 262.784 239.159 253.808 235.525ZM241.666 263.172L241.579 263.138L241.494 263.104C234.591 260.308 231.344 252.643 234.256 246.015C237.168 239.386 245.151 236.269 252.055 239.065L252.147 239.104L252.223 239.136C259.127 241.932 262.373 249.596 259.461 256.225C256.552 262.851 248.569 265.968 241.666 263.172Z" fill="#FFCADD"/>
<path d="M300.072 300.65C280.071 292.552 256.938 301.584 248.504 320.788C240.069 339.992 249.477 362.203 269.478 370.301C289.479 378.399 312.612 369.367 321.046 350.163C329.48 330.959 320.073 308.748 300.072 300.65ZM271.063 366.693C253.137 359.433 244.703 339.525 252.264 322.31C259.826 305.098 280.561 297 298.489 304.258C316.418 311.518 324.85 331.426 317.291 348.641C309.727 365.855 288.992 373.951 271.063 366.693Z" fill="#FFCADD"/>
<path d="M293.052 251.241L307.25 256.99C312.481 259.107 318.531 256.744 320.736 251.724C322.941 246.701 320.481 240.892 315.252 238.775L301.053 233.027C295.822 230.909 289.772 233.272 287.567 238.292C285.362 243.315 287.823 249.124 293.052 251.241ZM299.468 236.635L313.667 242.383C316.824 243.662 318.311 247.168 316.979 250.202C315.646 253.235 311.995 254.661 308.835 253.382L294.637 247.633C291.48 246.354 289.993 242.848 291.325 239.814C292.657 236.783 296.312 235.355 299.468 236.635Z" fill="#FFCADD"/>
<path d="M172.775 249.1C152.774 241.002 129.641 250.035 121.206 269.239C112.772 288.442 122.18 310.654 142.181 318.752C162.182 326.85 185.315 317.817 193.749 298.613C202.183 279.412 192.773 257.201 172.775 249.1ZM143.766 315.144C125.837 307.884 117.405 287.975 124.964 270.761C132.526 253.546 153.261 245.451 171.19 252.708C189.116 259.968 197.55 279.877 189.991 297.091C182.43 314.306 161.692 322.404 143.766 315.144Z" fill="#FFCADD"/>
<path d="M382.435 274.794C382.234 274.768 381.935 274.703 381.538 274.598C381.141 274.494 380.76 274.366 380.402 274.222C379.648 273.917 379.134 273.567 378.865 273.17C378.596 272.774 378.634 272.181 378.979 271.395L380.38 268.208C380.225 267.458 380.067 266.636 379.901 265.735C379.735 264.835 379.589 263.921 379.453 262.997C379.319 262.07 379.213 261.172 379.134 260.295C379.056 259.42 379.026 258.634 379.042 257.935C379.379 257.736 379.784 257.595 380.257 257.509C380.731 257.423 381.236 257.488 381.777 257.708C382.416 257.966 382.881 258.303 383.172 258.718C383.463 259.133 383.637 259.76 383.694 260.598L384.004 265.367L384.151 265.427C384.594 265.033 384.991 264.67 385.339 264.339C385.687 264.007 386.033 263.673 386.372 263.339C386.712 263.005 387.068 262.657 387.438 262.297C387.808 261.937 388.232 261.522 388.711 261.047C389.067 261.026 389.445 261.047 389.839 261.114C390.233 261.182 390.595 261.282 390.924 261.415C391.498 261.647 391.922 261.989 392.194 262.443C392.468 262.898 392.476 263.414 392.221 263.997C392.137 264.185 391.995 264.396 391.797 264.631C391.596 264.866 391.231 265.195 390.698 265.618C390.165 266.041 389.412 266.602 388.439 267.302C387.465 268.001 386.166 268.902 384.543 270.006L382.435 274.794Z" fill="#FFF6E1"/>
<path d="M396.049 312.489C395.769 312.377 395.446 312.236 395.076 312.066C394.706 311.896 394.331 311.708 393.95 311.5C393.57 311.291 393.197 311.069 392.835 310.839C392.474 310.609 392.156 310.364 391.884 310.106C391.128 309.411 390.929 308.654 391.288 307.834L396.131 296.81C396.275 296.478 396.482 296.261 396.751 296.157C397.017 296.053 397.341 296.011 397.716 296.034C398.355 296.071 399.114 296.214 399.986 296.468C400.859 296.721 401.74 297.024 402.624 297.384C404.723 298.232 406.188 299.227 407.02 300.36C407.855 301.496 407.961 302.77 407.338 304.187C407.028 304.895 406.547 305.419 405.895 305.759C405.242 306.098 404.505 306.239 403.681 306.184C404.405 306.738 404.913 307.414 405.207 308.221C405.5 309.025 405.454 309.868 405.065 310.75C404.38 312.309 403.271 313.217 401.74 313.476C400.209 313.734 398.311 313.405 396.049 312.489ZM398.445 302.754L400.239 303.48C400.943 303.764 401.512 303.848 401.941 303.725C402.371 303.602 402.694 303.297 402.909 302.809C403.097 302.383 403.059 301.971 402.803 301.569C402.545 301.167 402.047 300.817 401.31 300.519C401.066 300.42 400.778 300.313 400.451 300.198C400.125 300.083 399.864 300.008 399.671 299.966L398.445 302.754ZM395.913 308.513C396.114 308.67 396.392 308.832 396.743 309.001C397.093 309.171 397.43 309.322 397.759 309.455C398.415 309.722 399.018 309.811 399.565 309.727C400.114 309.643 400.508 309.325 400.75 308.774C400.979 308.255 400.96 307.811 400.696 307.445C400.432 307.08 399.932 306.746 399.195 306.448L397.18 305.631L395.913 308.513Z" fill="#FFF6E1"/>
<path d="M338.972 274.097C339.152 273.909 339.364 273.737 339.606 273.575C339.851 273.416 340.123 273.288 340.424 273.196C340.726 273.105 341.05 273.061 341.395 273.061C341.743 273.063 342.097 273.136 342.455 273.283C342.931 273.476 343.298 273.758 343.559 274.134C343.82 274.507 344.016 275.047 344.152 275.75L344.837 279.337L349.427 276.468C349.585 276.457 349.797 276.473 350.058 276.515C350.319 276.556 350.566 276.622 350.795 276.716C351.548 277.021 352.062 277.433 352.336 277.953C352.611 278.472 352.638 278.984 352.415 279.485C352.222 279.927 351.928 280.271 351.54 280.522C351.151 280.772 350.642 281.057 350.02 281.381L346.18 283.331L347.771 290.455C347.385 290.985 346.898 291.33 346.316 291.492C345.735 291.654 345.074 291.586 344.334 291.288C343.858 291.095 343.5 290.816 343.255 290.447C343.01 290.079 342.828 289.547 342.711 288.85L342.048 285.023L336.979 288.255C336.841 288.218 336.713 288.179 336.596 288.14C336.476 288.1 336.362 288.059 336.245 288.012C335.31 287.633 334.701 287.174 334.418 286.633C334.135 286.093 334.111 285.555 334.345 285.02C334.546 284.563 334.821 284.208 335.177 283.952C335.53 283.696 335.995 283.417 336.574 283.114L340.555 280.973L338.972 274.097Z" fill="#FFF6E1"/>
<path d="M359.465 312.45C359.813 312.405 360.3 312.426 360.928 312.515C361.556 312.601 362.157 312.763 362.731 312.995C363.549 313.327 364.226 313.734 364.756 314.22C365.287 314.703 365.534 315.225 365.501 315.786C365.436 316.723 365.338 317.807 365.205 319.031C365.072 320.256 364.925 321.517 364.759 322.814C364.596 324.109 364.43 325.388 364.264 326.646C364.098 327.905 363.946 329.017 363.813 329.98C363.519 330.121 363.147 330.179 362.695 330.152C362.244 330.126 361.747 330.004 361.205 329.784C360.811 329.625 360.493 329.458 360.251 329.286C360.009 329.113 359.83 328.931 359.713 328.735C359.596 328.539 359.528 328.317 359.512 328.069C359.495 327.821 359.503 327.547 359.539 327.247L359.811 325.438L355.36 323.636C355.02 324.054 354.674 324.49 354.324 324.942C353.97 325.393 353.625 325.827 353.288 326.247C353.024 326.231 352.752 326.203 352.475 326.153C352.197 326.106 351.877 326.009 351.518 325.863C350.683 325.524 350.123 325.135 349.843 324.699C349.563 324.26 349.53 323.798 349.742 323.31C349.84 323.091 349.968 322.882 350.131 322.689C350.294 322.495 350.482 322.266 350.694 321.999C350.996 321.621 351.387 321.159 351.868 320.613C352.35 320.068 352.874 319.478 353.443 318.846C354.011 318.214 354.601 317.569 355.221 316.909C355.838 316.251 356.42 315.63 356.967 315.045C357.513 314.46 358.005 313.94 358.446 313.489C358.886 313.029 359.226 312.685 359.465 312.45ZM361.078 316.689C360.558 317.259 359.976 317.888 359.335 318.582C358.69 319.277 358.073 319.994 357.478 320.736L360.526 321.971C360.67 321.028 360.8 320.104 360.92 319.196C361.037 318.29 361.14 317.473 361.227 316.75L361.078 316.689Z" fill="#FFF6E1"/>
<path d="M46.8913 290.267C55.8123 269.957 69.3691 248.04 84.1305 227.153C77.3303 218.449 73.4123 207.876 73.0234 196.937C55.2386 222.712 21.4281 272.98 12.2107 295.585C5.76672 311.39 3.13203 325.067 4.38276 336.233C5.58455 346.983 10.3591 354.82 18.5704 359.522C27.0727 364.391 38.7017 365.281 50.4776 361.963C56.6334 360.23 64.7632 356.823 73.3633 350.147C48.5472 348.03 27.4696 334.481 46.8913 290.267Z" fill="url(#paint14_linear_24_141)"/>
<path d="M131.343 129.267C126.283 130.922 118.678 134.987 110.496 144.918C122.832 140.877 136.686 140.968 149.62 146.148C153.524 141.822 156.779 138.295 159.177 135.726L140.245 128.061C138.945 127.931 135.718 127.839 131.343 129.267Z" fill="url(#paint15_linear_24_141)"/>
<path d="M357.209 415.93C366.13 395.619 373.014 371.001 378.292 346.273C389.529 344.874 400.149 340.188 408.581 332.823C401.77 363.041 387.879 421.373 377.451 443.49C370.162 458.953 361.801 470.309 352.597 477.246C343.739 483.924 334.562 486.109 325.326 483.746C315.76 481.297 306.978 473.922 301.233 463.511C298.228 458.068 295.096 450.1 294.074 439.527C312.971 455.107 337.787 460.143 357.209 415.93Z" fill="url(#paint16_linear_24_141)"/>
<path d="M418.345 245.487C420.642 250.121 422.921 258.188 421.222 270.745C415.626 259.444 405.889 249.983 392.999 244.701C393.499 238.997 393.858 234.298 394.102 230.857L413.035 238.522C414.038 239.329 416.36 241.483 418.345 245.487Z" fill="url(#paint17_linear_24_141)"/>
<path d="M418.418 321.467C418.426 321.451 418.437 321.438 418.445 321.423C418.91 320.697 419.356 319.958 419.783 319.211C419.821 319.143 419.862 319.076 419.9 319.005C420.077 318.692 420.251 318.379 420.419 318.063C420.452 318 420.487 317.94 420.52 317.877C420.713 317.514 420.903 317.149 421.091 316.781C421.126 316.708 421.162 316.635 421.2 316.564C421.349 316.264 421.496 315.964 421.64 315.661C421.689 315.559 421.738 315.457 421.784 315.355C421.958 314.985 422.13 314.611 422.296 314.235C422.467 313.846 422.633 313.455 422.793 313.063C422.858 312.904 422.921 312.742 422.986 312.583C423.076 312.358 423.166 312.134 423.253 311.907C423.334 311.693 423.413 311.479 423.492 311.267C423.552 311.103 423.612 310.941 423.671 310.776C423.764 310.518 423.854 310.259 423.941 310.001C423.976 309.899 424.009 309.795 424.044 309.693C424.147 309.382 424.248 309.069 424.346 308.758C424.348 308.748 424.351 308.737 424.357 308.727C425.849 303.918 426.594 299.029 426.643 294.191C426.646 294.063 426.646 293.938 426.649 293.81C426.649 293.606 426.649 293.403 426.646 293.199C426.643 292.948 426.641 292.695 426.635 292.445C426.632 292.335 426.63 292.228 426.627 292.118C426.488 287.333 425.681 282.558 424.191 277.924C424.465 276.4 424.713 274.998 424.922 273.752C429.34 247.443 418.078 237.305 415.33 235.261L415.349 235.217L415.164 235.141C414.949 234.987 414.807 234.898 414.759 234.867L414.612 234.776L414.451 234.711C414.19 234.603 414.065 234.314 414.177 234.06L415.444 231.173C416.621 228.492 415.308 225.388 412.513 224.258L370.823 207.375C366.73 205.717 361.997 207.565 360.273 211.494L359.944 212.241C359.835 212.489 359.544 212.609 359.28 212.51L279.864 182.913L274.704 180.825L197.194 146.871C196.938 146.758 196.824 146.477 196.933 146.229L197.262 145.482C198.988 141.553 197.063 137.008 192.971 135.353L151.281 118.47C148.489 117.339 145.256 118.6 144.079 121.281L142.812 124.169C142.7 124.419 142.398 124.539 142.134 124.432L141.974 124.367L141.803 124.328C141.088 124.169 124.086 120.699 105.706 144.482C104.928 145.49 104.055 146.636 103.104 147.897C98.609 150.105 94.4816 152.883 90.8164 156.128C90.7322 156.201 90.6506 156.274 90.5663 156.35C90.3732 156.522 90.1829 156.695 89.9953 156.869C89.843 157.01 89.6908 157.151 89.5385 157.292C89.4434 157.381 89.3509 157.472 89.2558 157.561C85.6803 160.973 82.5535 164.9 80.0085 169.283C80.0031 169.291 79.9976 169.299 79.9949 169.309C79.829 169.594 79.6686 169.881 79.5082 170.171C79.4565 170.265 79.4022 170.361 79.3505 170.455C79.22 170.695 79.0895 170.938 78.9617 171.181C78.8801 171.335 78.8013 171.489 78.7197 171.646C78.6137 171.849 78.5103 172.053 78.407 172.259C78.2982 172.476 78.1949 172.692 78.0889 172.912C78.0128 173.068 77.9366 173.225 77.8632 173.382C77.6838 173.765 77.507 174.152 77.3357 174.543C77.1699 174.919 77.0122 175.298 76.8545 175.676C76.811 175.781 76.7702 175.885 76.7267 175.99C76.6016 176.3 76.4793 176.611 76.3596 176.924C76.3324 177 76.3025 177.073 76.2726 177.149C76.1285 177.535 75.9871 177.922 75.8512 178.308C75.8294 178.373 75.8077 178.436 75.7859 178.501C75.669 178.84 75.5548 179.182 75.446 179.522C75.4216 179.595 75.3998 179.668 75.3754 179.739C75.1143 180.558 74.8751 181.381 74.6575 182.208C74.6548 182.221 74.6494 182.237 74.6467 182.25C74.024 184.623 73.5699 187.035 73.2926 189.468C56.9026 213.058 18.4535 269.523 8.40957 294.155C1.7236 310.552 -0.995381 324.848 0.323325 336.65C1.65291 348.521 7.23769 357.593 16.4768 362.885C17.8064 363.644 19.1985 364.318 20.6477 364.905C29.5415 368.505 40.5642 368.834 51.6223 365.72C65.9024 361.697 79.2689 352.502 90.2781 339.123C99.5824 327.816 115.415 323.456 137.333 326.166C155.523 328.414 177.527 335.274 204.611 347.148L204.666 347.171L204.72 347.192C232.475 357.527 252.955 367.868 267.327 378.807C284.647 391.988 292.445 405.915 290.507 420.206C288.214 437.112 290.683 452.721 297.649 465.346C303.925 476.718 313.634 484.806 324.295 487.532C334.69 490.192 345.354 487.701 355.137 480.329C364.86 473.001 373.623 461.151 381.187 445.109C392.55 421.01 407.828 355.162 413.981 327.427C415.604 325.542 417.083 323.55 418.418 321.467ZM422.543 292.254C422.546 292.309 422.546 292.361 422.548 292.416C422.554 292.672 422.557 292.925 422.559 293.181C422.6 298.016 421.901 302.848 420.468 307.516C420.46 307.539 420.455 307.56 420.447 307.584C420.357 307.879 420.262 308.171 420.164 308.463C420.134 308.557 420.101 308.651 420.069 308.745C419.984 308.993 419.9 309.239 419.813 309.484C419.761 309.633 419.707 309.779 419.653 309.928C419.577 310.132 419.503 310.338 419.424 310.541C419.345 310.748 419.264 310.954 419.182 311.16C419.123 311.314 419.063 311.466 419 311.62C418.851 311.985 418.696 312.348 418.538 312.711C418.383 313.061 418.225 313.408 418.062 313.755C418.016 313.854 417.97 313.951 417.923 314.047C417.796 314.316 417.665 314.583 417.535 314.849C417.494 314.932 417.453 315.016 417.41 315.1C417.233 315.447 417.056 315.791 416.871 316.133C416.866 316.144 416.86 316.154 416.855 316.165C416.675 316.499 416.491 316.83 416.303 317.162C416.27 317.219 416.235 317.279 416.202 317.337C416.015 317.663 415.824 317.987 415.631 318.311C415.626 318.318 415.623 318.326 415.618 318.332C402.863 339.423 375.385 348.659 351.376 338.937C325.331 328.39 313.077 299.465 324.061 274.455C335.046 249.448 365.172 237.681 391.22 248.228C410.31 255.958 421.988 273.559 422.543 292.254ZM363.696 213.758L364.025 213.011C364.876 211.071 367.212 210.16 369.232 210.977L410.922 227.86C411.643 228.153 411.982 228.954 411.678 229.646L410.411 232.533C410.324 232.729 410.261 232.927 410.204 233.128L363.468 214.201C363.549 214.058 363.628 213.912 363.696 213.758ZM146.566 125.691L147.833 122.803C148.138 122.112 148.973 121.785 149.693 122.078L191.383 138.961C193.404 139.778 194.353 142.023 193.501 143.96L193.172 144.707C193.105 144.861 193.05 145.017 193.001 145.174L146.265 126.247C146.379 126.069 146.482 125.887 146.566 125.691ZM81.5855 174.985C81.6562 174.836 81.7296 174.687 81.8003 174.538C81.8955 174.337 81.9934 174.139 82.0912 173.94C82.1891 173.745 82.2897 173.549 82.3903 173.356C82.4637 173.215 82.5344 173.076 82.6078 172.935C82.7302 172.703 82.8553 172.473 82.9803 172.243C83.0293 172.157 83.0755 172.071 83.1244 171.982C83.2767 171.711 83.429 171.442 83.584 171.173C83.5948 171.152 83.6084 171.134 83.6193 171.113C86.099 166.868 89.215 163.017 92.8475 159.671C93.0406 159.493 93.2336 159.313 93.4321 159.138C93.4729 159.102 93.511 159.068 93.5517 159.034C107.883 146.364 129.162 142.109 148.252 149.839C174.297 160.386 186.552 189.314 175.567 214.322C164.582 239.329 134.453 251.095 108.408 240.548C84.3997 230.826 72.1099 205.487 78.9372 181.994C78.9399 181.986 78.9426 181.978 78.9454 181.971C79.0487 181.613 79.1602 181.255 79.2717 180.898C79.2907 180.835 79.3124 180.772 79.3315 180.71C79.4484 180.349 79.5653 179.992 79.6904 179.632C79.6931 179.621 79.6985 179.611 79.7012 179.6C79.829 179.235 79.9623 178.872 80.0982 178.509C80.1308 178.423 80.1635 178.337 80.1988 178.25C80.3049 177.974 80.4136 177.697 80.5251 177.423C80.5659 177.324 80.6067 177.224 80.6475 177.123C80.7916 176.77 80.9411 176.418 81.0934 176.068C81.2538 175.703 81.4169 175.342 81.5855 174.985ZM377.473 443.495C370.184 458.958 361.823 470.314 352.619 477.251C343.761 483.929 334.584 486.114 325.348 483.751C315.782 481.303 307 473.928 301.255 463.516C296.673 455.215 291.793 441.049 294.552 420.715C296.69 404.968 288.383 389.837 269.861 375.742C255.173 364.563 234.365 354.037 206.251 343.566C178.816 331.544 156.442 324.584 137.855 322.287C114.417 319.391 97.3338 324.239 87.0778 336.7C73.8364 352.792 59.8636 359.321 50.4749 361.966C38.699 365.281 27.0699 364.393 18.5677 359.525C10.3564 354.823 5.58455 346.988 4.38004 336.235C3.12931 325.067 5.76401 311.392 12.208 295.588C21.4253 272.98 55.2359 222.715 73.0207 196.94C73.7385 217.008 86.322 235.857 106.823 244.158C134.943 255.546 167.465 242.845 179.325 215.846C191.185 188.847 177.954 157.621 149.837 146.234C136.841 140.971 122.9 140.858 110.496 144.921C118.675 134.99 126.283 130.925 131.343 129.27C135.718 127.839 138.945 127.933 140.248 128.061L195.533 150.45L273.034 184.396L278.304 186.531L357.801 216.159C357.929 216.206 358.06 216.248 358.19 216.285L358.177 216.313L413.054 238.535C414.065 239.347 416.384 241.501 418.369 245.5C420.667 250.134 422.945 258.201 421.246 270.758C415.618 259.391 405.805 249.889 392.808 244.623C364.689 233.236 332.167 245.939 320.307 272.935C308.446 299.934 321.677 331.16 349.794 342.548C370.295 350.85 393.135 346.344 408.603 332.831C401.792 363.046 387.9 421.378 377.473 443.495Z" fill="#FFCADD"/>
<path d="M256.817 247.963C257.88 245.543 255.264 242.172 250.973 240.435C246.683 238.697 242.343 239.251 241.279 241.671C240.216 244.092 242.832 247.462 247.123 249.2C251.414 250.937 255.754 250.384 256.817 247.963Z" fill="#FFF6E1"/>
<path d="M240.804 174.87C231.559 195.914 237.008 219.42 252.691 235.105C253.009 235.214 253.324 235.329 253.64 235.457L253.732 235.494L253.811 235.525C257.591 237.055 260.522 239.71 262.373 242.911C265.519 244.939 268.91 246.712 272.534 248.179C280.422 251.374 288.617 252.815 296.638 252.69L293.054 251.238C287.823 249.121 285.362 243.313 287.57 238.29C289.775 233.267 295.825 230.904 301.056 233.024L315.255 238.773C318.876 240.24 321.168 243.474 321.503 246.991C333.643 241.318 343.736 231.622 349.359 218.822C350.098 217.138 350.743 215.436 351.295 213.724L278.304 186.521L273.034 184.386L242.644 171.082C241.986 172.311 241.372 173.575 240.804 174.87Z" fill="url(#paint18_linear_24_141)"/>
<path d="M329.067 357.097C332.934 349.03 338.048 343.608 343.815 339.705C319.861 326.566 309.325 297.937 320.307 272.933C321.585 270.022 323.104 267.281 324.831 264.715C316.957 270.361 311.135 278.765 308.392 287.033C305.972 294.324 304.596 299.125 303.022 301.984C320.978 310.985 329.056 331.93 321.049 350.16C312.615 369.364 289.482 378.397 269.481 370.299C249.48 362.201 240.072 339.989 248.506 320.786C248.55 320.684 248.599 320.587 248.642 320.485C239.912 326.759 238.59 340.809 230.276 337.243C219.935 332.81 182.267 321.242 190.307 308.769C193.817 303.32 195.081 298.65 195.293 294.423C194.869 295.831 194.355 297.23 193.749 298.611C185.315 317.815 162.182 326.847 142.181 318.749C129.57 313.643 121.174 302.924 118.803 290.889C115.698 295.173 112.101 299.882 107.807 304.856C99.1501 314.883 95.3272 323.652 93.7638 330.348C104.153 322.657 118.933 319.942 137.858 322.281C156.447 324.579 178.822 331.539 206.254 343.561C234.368 354.032 255.176 364.558 269.864 375.737C284.405 386.803 292.646 398.509 294.484 410.649C294.827 402.54 292.543 392.272 299.43 387.858C309.762 381.232 319.891 376.238 329.067 357.097Z" fill="url(#paint19_linear_24_141)"/>
<path d="M239.705 273.23C249.727 277.29 261.278 272.779 265.506 263.156C268.298 256.797 267.191 249.797 263.227 244.607C264.997 248.667 265.139 253.379 263.219 257.744C259.434 266.362 249.053 270.416 240.078 266.782L239.991 266.748L239.906 266.714C232.157 263.576 227.956 255.718 229.389 248.082C229.33 248.208 229.267 248.333 229.213 248.461C224.987 258.081 229.683 269.171 239.705 273.23Z" fill="url(#paint20_linear_24_141)"/>
<path d="M108.903 367.787C111.059 364.091 112.99 360.279 114.616 356.337C115.385 354.468 116.176 352.552 116.902 350.622V346.417C116.949 345.918 117.019 345.425 117.117 344.936C116.813 344.594 116.625 344.156 116.622 343.67C116.516 318.334 109.183 301.83 103.049 292.447C98.4622 285.427 93.8481 281.24 91.4146 279.305C90.7621 280.43 90.0905 281.553 89.3917 282.681C80.8052 296.535 71.8189 305.73 71.441 306.114C70.6688 306.9 69.3773 306.936 68.5589 306.192C67.7405 305.451 67.7024 304.211 68.4773 303.425C68.567 303.334 77.5777 294.105 85.9359 280.6C93.5735 268.26 102.22 249.703 100.039 231.392C98.8565 221.425 94.585 212.437 87.3062 204.524L73.2981 226.054C70.8129 229.878 66.922 232.536 62.3406 233.536C58.727 234.324 55.0319 234.008 51.6876 232.653C51.4266 232.549 51.1683 232.434 50.9072 232.314C38.5413 251.818 27.8693 270.581 31.2626 280.705C37.6577 299.775 44.0581 338.567 43.9467 357.567C43.8977 365.97 50.0073 375.778 61.62 385.931C68.4719 391.925 76.9034 397.739 86.1643 402.916C92.5974 390.565 101.393 379.54 108.903 367.787Z" fill="#F5DDF2"/>
<path d="M88.9893 204.333C88.9893 204.333 90.9306 228.468 78.8312 256.013C66.7317 283.558 51.2417 289.492 53.8465 307.26C56.4513 325.028 57.1337 321.535 72.4987 301.704C87.8636 281.874 99.4247 298.681 102.035 320.71C104.645 342.741 100.404 355.115 94.1445 364.704C87.8854 374.293 103.093 376.193 111.981 360.621C120.869 345.049 121.359 343.937 119.352 332.964C117.346 321.992 112.302 300.451 103.607 289.557C94.9112 278.663 90.3977 276.507 90.3977 276.507C90.3977 276.507 96.9042 263.247 97.4535 261.997C98.0027 260.744 101.35 250.795 102.127 239.31C102.902 227.826 100.306 211.21 88.9893 204.333Z" fill="#FF99CB"/>
<path d="M78.7714 194.379C78.7714 194.379 86.2431 197.569 85.8761 201.517C85.5063 205.464 73.6515 223.519 70.4921 226.829C67.3326 230.137 64.6599 231.171 59.9696 231.163C55.2794 231.155 49.216 229.202 48.8245 228.952C48.433 228.701 70.4377 197.423 71.3703 196.272C72.3029 195.121 73.279 192.894 74.353 192.591C75.4243 192.285 78.7714 194.379 78.7714 194.379Z" fill="#2E299C"/>
<path d="M100.975 410.322C85.9658 403.665 71.9875 395.003 61.62 385.934C50.01 375.781 43.8977 365.973 43.9467 357.569C44.0582 338.569 37.6604 299.78 31.2626 280.707C27.8693 270.583 38.5413 251.821 50.9073 232.317C51.1683 232.437 51.4266 232.549 51.6876 232.656C55.0347 234.011 58.7298 234.329 62.3406 233.538C66.9193 232.536 70.8102 229.881 73.2981 226.056L87.3063 204.526C94.585 212.437 98.8538 221.425 100.039 231.395C102.217 249.706 93.5708 268.262 85.9359 280.603C77.5777 294.108 68.567 303.336 68.4773 303.427C67.7051 304.213 67.7405 305.453 68.5589 306.195C69.3773 306.936 70.6688 306.902 71.441 306.116C71.8189 305.733 80.8052 296.538 89.3917 282.683C90.0905 281.558 90.7621 280.433 91.4146 279.308C93.8509 281.24 98.465 285.43 103.049 292.45C109.183 301.832 116.516 318.337 116.622 343.673C116.628 344.482 117.139 345.174 117.87 345.472C118.115 345.571 118.384 345.626 118.667 345.626C119.793 345.62 120.704 344.743 120.698 343.66C120.589 317.248 112.838 299.979 106.355 290.142C101.111 282.187 95.8874 277.687 93.3778 275.794C96.51 269.988 99.0088 264.258 100.825 258.687C104.014 248.899 105.113 239.574 104.093 230.964C102.712 219.342 97.4997 208.983 88.5516 200.028C88.5026 199.971 88.4455 199.919 88.3857 199.866C86.3383 197.833 84.0951 195.867 81.6617 193.982L77.6811 191.079C76.8409 190.505 75.9844 189.936 75.1089 189.377C74.6249 189.069 74.024 188.972 73.4585 189.113C72.8929 189.257 72.4226 189.622 72.1588 190.124C67.194 199.543 60.3313 210.199 53.6915 220.503C37.8262 245.127 22.8419 268.382 27.3799 281.911C33.6744 300.689 39.977 338.862 39.8655 357.548C39.8111 367.09 46.3829 377.909 58.8712 388.832C69.5432 398.162 83.8858 407.056 99.2644 413.878C99.6341 414.042 100.001 414.215 100.366 414.392C101.108 413.364 101.877 412.275 102.669 411.129C102.117 410.847 101.551 410.578 100.975 410.322ZM57.1636 222.563C63.3901 212.899 69.8151 202.926 74.7419 193.872C78.3418 196.303 81.5638 198.877 84.4133 201.587L69.8422 223.983C67.9335 226.918 64.9508 228.954 61.4406 229.724C58.5911 230.346 55.6791 230.071 53.0553 228.957C54.4175 226.826 55.7906 224.691 57.1636 222.563Z" fill="#FFCADD"/>
<path d="M341.191 200.357C340.288 198.971 338.48 196.898 334.984 194.891C329.086 191.505 321.78 194.439 320.935 195.697C315.72 206.547 314.692 212.959 314.502 215.452C320.334 221.31 326.963 221.652 328.686 221.258C333.553 216.157 339.081 206.422 341.264 202.412C341.621 201.759 341.593 200.973 341.191 200.357Z" fill="#2E299C"/>
<path d="M285.71 151.666C283.886 150.706 282.034 149.849 280.174 149.098C270.155 145.041 260.019 144.062 253.713 146.764C249.98 148.364 247.593 151.215 246.614 155.238C243.517 167.975 241.913 199.235 252.234 213.778C255.271 218.057 259.159 220.556 263.793 221.206C275.914 222.905 282.929 220.686 286.678 218.525C290.637 216.243 291.833 213.624 291.882 213.515L291.901 213.47L291.915 213.444C300.126 196.332 303.223 182.208 301.119 171.471C299.403 162.694 294.362 156.217 285.71 151.666ZM288.459 214.804L288.206 215.073C284.973 218.532 273.1 221.738 260.263 216.541C259.701 216.313 259.14 216.071 258.575 215.81L257.852 215.475L257.547 214.729C256.209 211.458 253.183 201.707 253.969 181.85C254.078 179.647 256.106 176.791 259.393 174.188C261.99 172.134 269.002 167.489 278.005 168.745C284.835 169.698 289.199 171.899 291.657 173.575C293.99 175.165 295.284 177.861 295.034 180.61C294.408 187.492 292.53 204.566 288.595 214.465L288.459 214.804Z" fill="#F5DDF2"/>
<path d="M289.294 176.768C287.203 175.34 283.443 173.463 277.417 172.622C270.027 171.591 264.165 175.488 261.987 177.211C259.102 179.496 258.069 181.469 258.042 182.02C257.327 200.114 259.907 209.408 261.076 212.612C273.113 217.841 282.844 214.358 284.938 212.672C288.584 203.172 290.368 186.894 290.969 180.268C291.094 178.898 290.452 177.556 289.294 176.768Z" fill="#2E299C"/>
<path d="M342.151 176.407C338.41 173.175 334.277 170.643 330.31 169.038C326.188 167.369 322.245 166.696 319.11 167.27C316.073 167.826 313.893 169.46 312.443 172.264C307.739 181.362 300.716 204.701 305.804 217.42C307.288 221.133 309.632 223.547 312.957 224.816C329.453 231.079 335.011 224.239 335.239 223.944L335.283 223.882L335.285 223.887C344.669 212.353 349.631 202.226 350.033 193.786C350.351 186.952 347.776 181.268 342.151 176.407ZM344.884 204.224C342.572 208.471 336.623 218.924 331.327 224.284L331.066 224.547L330.723 224.704C328.727 225.618 324.48 225.568 319.874 223.702C316.864 222.482 313.699 220.488 310.904 217.483L310.369 216.909L310.385 216.139C310.439 213.653 311.214 206.571 317.248 194.024C318.365 191.76 322.093 190.526 323.21 190.199C325.513 189.528 331.468 188.314 337.075 191.533C341.27 193.943 343.508 196.535 344.647 198.284C345.816 200.07 345.903 202.347 344.884 204.224Z" fill="#F5DDF2"/>
<path d="M344.878 173.496C338.301 167.813 327.403 161.764 318.344 163.425C314.091 164.205 310.785 166.659 308.786 170.523C307.957 172.126 306.905 174.53 305.82 177.467C305.774 175.115 305.543 172.87 305.127 170.742C303.196 160.885 297.323 153.311 287.668 148.231C277.852 143.067 262.637 138.647 252.049 143.187C247.161 145.283 243.906 149.142 242.642 154.345C241.25 160.073 239.806 171.191 240.32 183.67C240.725 193.489 242.536 207.061 248.865 215.979C251.492 219.681 254.681 222.294 258.385 223.795C259.904 224.412 261.514 224.84 263.205 225.077C288.965 228.69 295.145 216.152 295.635 215.047C297.277 211.625 298.718 208.312 299.963 205.109C299.835 210.061 300.387 214.81 301.992 218.822C303.832 223.422 306.894 226.615 311.103 228.317C311.22 228.364 311.337 228.411 311.454 228.455C330.573 235.716 337.841 227.14 338.513 226.273C348.418 214.097 353.663 203.224 354.104 193.961C354.479 185.999 351.376 179.112 344.878 173.496ZM291.915 213.439L291.901 213.465L291.882 213.51C291.833 213.619 290.637 216.238 286.678 218.519C282.929 220.681 275.914 222.9 263.793 221.2C259.159 220.55 255.271 218.052 252.234 213.773C241.913 199.229 243.517 167.97 246.614 155.233C247.593 151.212 249.98 148.361 253.713 146.758C260.019 144.054 270.155 145.033 280.174 149.092C282.032 149.844 283.886 150.703 285.71 151.661C294.362 156.214 299.403 162.691 301.119 171.463C303.223 182.206 300.126 196.326 291.915 213.439ZM335.28 223.887L335.277 223.882L335.234 223.944C335.005 224.239 329.448 231.079 312.952 224.816C309.626 223.55 307.283 221.133 305.798 217.42C300.711 204.701 307.734 181.362 312.438 172.264C313.887 169.46 316.068 167.826 319.105 167.27C322.24 166.696 326.182 167.367 330.304 169.038C334.271 170.643 338.404 173.175 342.145 176.407C347.771 181.268 350.349 186.952 350.022 193.786C349.625 202.226 344.663 212.353 335.28 223.887Z" fill="#FFCADD"/>
<path d="M291.657 173.575C289.199 171.899 284.835 169.701 278.005 168.745C269.002 167.489 261.99 172.134 259.393 174.188C256.106 176.791 254.078 179.647 253.969 181.85C253.183 201.707 256.209 211.46 257.547 214.729L257.852 215.475L258.575 215.809C259.14 216.071 259.7 216.313 260.263 216.54C273.1 221.738 284.973 218.532 288.206 215.073L288.459 214.804L288.595 214.465C292.529 204.566 294.408 187.492 295.034 180.61C295.281 177.861 293.987 175.165 291.657 173.575ZM261.079 212.611C259.91 209.406 257.33 200.114 258.045 182.02C258.072 181.469 259.102 179.496 261.99 177.211C264.168 175.488 270.03 171.591 277.42 172.622C283.445 173.462 287.203 175.34 289.297 176.768C290.455 177.559 291.097 178.898 290.971 180.268C290.371 186.892 288.587 203.169 284.941 212.672C282.847 214.355 273.116 217.838 261.079 212.611Z" fill="#FFCADD"/>
<path d="M344.652 198.282C343.513 196.53 341.275 193.938 337.08 191.531C331.473 188.312 325.516 189.526 323.216 190.197C322.098 190.523 318.371 191.758 317.253 194.021C311.22 206.568 310.445 213.651 310.39 216.136L310.374 216.906L310.91 217.48C313.705 220.488 316.87 222.482 319.88 223.699C324.488 225.565 328.733 225.615 330.728 224.701L331.071 224.545L331.332 224.281C336.629 218.924 342.575 208.468 344.889 204.221C345.903 202.346 345.816 200.07 344.652 198.282ZM341.267 202.409C339.084 206.422 333.556 216.154 328.689 221.255C326.965 221.649 320.336 221.307 314.504 215.449C314.695 212.956 315.722 206.544 320.937 195.695C321.78 194.439 329.086 191.502 334.986 194.888C338.483 196.896 340.291 198.968 341.194 200.355C341.593 200.973 341.621 201.759 341.267 202.409Z" fill="#FFCADD"/>
<path d="M297.997 162.942C294.629 159.021 288.807 154.507 279.353 153.246C261.702 150.891 254.325 163.02 253.92 170.351C253.545 177.123 261.4 166.158 269.255 169.265C271.846 168.599 274.796 168.296 278.002 168.745C284.832 169.698 289.196 171.899 291.654 173.575C293.987 175.165 295.281 177.861 295.031 180.61C294.406 187.492 292.527 204.566 288.592 214.465L288.456 214.804L288.204 215.073C284.971 218.532 273.097 221.738 260.261 216.541C259.698 216.313 259.138 216.071 258.572 215.81L257.849 215.475L257.544 214.729C257.215 213.927 256.788 212.734 256.337 211.103C255.086 209.946 253.613 207.463 252.338 203.383C249.861 195.455 247.367 202.096 249.841 209.695C250.557 211.163 251.351 212.533 252.234 213.776C255.271 218.055 259.159 220.553 263.793 221.203C275.914 222.903 282.929 220.684 286.678 218.522C290.637 216.24 291.833 213.622 291.882 213.512L291.901 213.468L291.915 213.442C300.126 196.329 303.223 182.206 301.119 171.468C300.507 168.338 299.468 165.503 297.997 162.942Z" fill="#FF99CB"/>
<path d="M342.151 176.407C340.269 174.784 338.29 173.335 336.283 172.092C334.448 172.022 333.083 173.094 333.915 177.06C335.859 186.328 333.869 185.03 336.688 187.646C339.508 190.262 335.052 188.458 330.111 186.886C325.171 185.315 317.666 189.283 315.826 194.496C313.982 199.71 309.877 208.187 309.311 211.951C308.909 214.635 306.845 216.582 305.271 215.906C305.431 216.426 305.608 216.932 305.804 217.42C307.288 221.133 309.632 223.547 312.957 224.816C329.453 231.079 335.011 224.239 335.239 223.944L335.283 223.882L335.285 223.887C344.669 212.353 349.631 202.226 350.033 193.786C350.351 186.952 347.776 181.268 342.151 176.407ZM344.883 204.224C342.572 208.471 336.623 218.924 331.327 224.284L331.066 224.547L330.723 224.704C328.727 225.618 324.48 225.568 319.874 223.702C316.864 222.482 313.699 220.488 310.904 217.483L310.369 216.909L310.385 216.139C310.439 213.653 311.214 206.571 317.248 194.024C318.365 191.76 322.093 190.526 323.21 190.199C325.513 189.528 331.468 188.314 337.075 191.533C341.27 193.943 343.508 196.535 344.647 198.284C345.816 200.07 345.903 202.347 344.883 204.224Z" fill="#FF99CB"/>
<path d="M90.8273 394.752C85.7918 393.283 79.8807 391.57 71.3649 386.939C55.4561 378.285 76.2753 366.437 82.2136 347.09C88.1518 327.743 71.6639 323.033 65.0867 328.972C58.5095 334.912 55.3582 346.169 51.5815 336.407C47.8049 326.646 46.8152 318.995 44.8385 306.886C42.8618 294.781 36.7169 274.964 39.8356 267.871C42.9515 260.775 50.755 242.43 55.4561 241.631C60.1599 240.832 66.6284 240.381 73.3905 231.69C79.0949 224.359 82.3305 215.593 81.2021 213.914L73.3008 226.059C70.8156 229.883 66.9248 232.541 62.3433 233.541C58.7297 234.329 55.0347 234.013 51.6903 232.658C51.4293 232.554 51.171 232.439 50.91 232.319C38.544 251.823 27.872 270.586 31.2653 280.71C37.6604 299.78 44.0608 338.572 43.9494 357.572C43.9004 365.975 50.01 375.784 61.6227 385.936C68.4746 391.93 76.9061 397.744 86.167 402.921C87.6108 400.138 89.1823 397.423 90.8273 394.752Z" fill="#FFFCFA"/>
<defs>
<linearGradient id="paint0_linear_24_141" x1="70.4225" y1="189.736" x2="67.6554" y2="287.992" gradientUnits="userSpaceOnUse">
<stop stop-color="#2E2594"/>
<stop offset="1" stop-color="#F73B6C"/>
</linearGradient>
<linearGradient id="paint1_linear_24_141" x1="376.823" y1="233.101" x2="370.554" y2="500.561" gradientUnits="userSpaceOnUse">
<stop stop-color="#2E2594"/>
<stop offset="1" stop-color="#F73B6C"/>
</linearGradient>
<linearGradient id="paint2_linear_24_141" x1="366.058" y1="261.65" x2="447.921" y2="290.49" gradientUnits="userSpaceOnUse">
<stop stop-color="#2E2594"/>
<stop offset="1" stop-color="#F73B6C"/>
</linearGradient>
<linearGradient id="paint3_linear_24_141" x1="344.364" y1="311.919" x2="418.125" y2="356.624" gradientUnits="userSpaceOnUse">
<stop stop-color="#2E2594"/>
<stop offset="1" stop-color="#F73B6C"/>
</linearGradient>
<linearGradient id="paint4_linear_24_141" x1="342.529" y1="265.491" x2="356.263" y2="348.152" gradientUnits="userSpaceOnUse">
<stop stop-color="#2E2594"/>
<stop offset="1" stop-color="#F73B6C"/>
</linearGradient>
<linearGradient id="paint5_linear_24_141" x1="398.382" y1="288.11" x2="412.116" y2="370.771" gradientUnits="userSpaceOnUse">
<stop stop-color="#2E2594"/>
<stop offset="1" stop-color="#F73B6C"/>
</linearGradient>
<linearGradient id="paint6_linear_24_141" x1="285.785" y1="315.31" x2="287.181" y2="404.195" gradientUnits="userSpaceOnUse">
<stop stop-color="#2E2594"/>
<stop offset="1" stop-color="#F73B6C"/>
</linearGradient>
<linearGradient id="paint7_linear_24_141" x1="212.861" y1="196.594" x2="212.082" y2="244.656" gradientUnits="userSpaceOnUse">
<stop stop-color="#2E2594"/>
<stop offset="1" stop-color="#F73B6C"/>
</linearGradient>
<linearGradient id="paint8_linear_24_141" x1="133.854" y1="134.712" x2="127.585" y2="402.172" gradientUnits="userSpaceOnUse">
<stop stop-color="#2E2594"/>
<stop offset="1" stop-color="#F73B6C"/>
</linearGradient>
<linearGradient id="paint9_linear_24_141" x1="305.587" y1="234.143" x2="304.807" y2="282.204" gradientUnits="userSpaceOnUse">
<stop stop-color="#2E2594"/>
<stop offset="1" stop-color="#F73B6C"/>
</linearGradient>
<linearGradient id="paint10_linear_24_141" x1="104.634" y1="182.232" x2="210.892" y2="236.327" gradientUnits="userSpaceOnUse">
<stop stop-color="#2E2594"/>
<stop offset="1" stop-color="#F73B6C"/>
</linearGradient>
<linearGradient id="paint11_linear_24_141" x1="390.232" y1="208.11" x2="389.54" y2="269.131" gradientUnits="userSpaceOnUse">
<stop stop-color="#2E2594"/>
<stop offset="1" stop-color="#F73B6C"/>
</linearGradient>
<linearGradient id="paint12_linear_24_141" x1="172.605" y1="119.317" x2="171.853" y2="182.382" gradientUnits="userSpaceOnUse">
<stop stop-color="#2E2594"/>
<stop offset="1" stop-color="#F73B6C"/>
</linearGradient>
<linearGradient id="paint13_linear_24_141" x1="248.333" y1="235.046" x2="246.674" y2="306.111" gradientUnits="userSpaceOnUse">
<stop stop-color="#2E2594"/>
<stop offset="1" stop-color="#F73B6C"/>
</linearGradient>
<linearGradient id="paint14_linear_24_141" x1="48.4183" y1="177.839" x2="25.3566" y2="630.627" gradientUnits="userSpaceOnUse">
<stop stop-color="#2E2594"/>
<stop offset="1" stop-color="#F73B6C"/>
</linearGradient>
<linearGradient id="paint15_linear_24_141" x1="137.459" y1="125.917" x2="137.01" y2="175.262" gradientUnits="userSpaceOnUse">
<stop stop-color="#2E2594"/>
<stop offset="1" stop-color="#F73B6C"/>
</linearGradient>
<linearGradient id="paint16_linear_24_141" x1="357.497" y1="315.458" x2="344.148" y2="727.786" gradientUnits="userSpaceOnUse">
<stop stop-color="#2E2594"/>
<stop offset="1" stop-color="#F73B6C"/>
</linearGradient>
<linearGradient id="paint17_linear_24_141" x1="408.958" y1="226.296" x2="405.298" y2="334.599" gradientUnits="userSpaceOnUse">
<stop stop-color="#2E2594"/>
<stop offset="1" stop-color="#F73B6C"/>
</linearGradient>
<linearGradient id="paint18_linear_24_141" x1="299.989" y1="161.748" x2="296.146" y2="383.538" gradientUnits="userSpaceOnUse">
<stop stop-color="#2E2594"/>
<stop offset="1" stop-color="#F73B6C"/>
</linearGradient>
<linearGradient id="paint19_linear_24_141" x1="232.261" y1="248.026" x2="226.61" y2="644.639" gradientUnits="userSpaceOnUse">
<stop stop-color="#2E2594"/>
<stop offset="1" stop-color="#F73B6C"/>
</linearGradient>
<linearGradient id="paint20_linear_24_141" x1="249.481" y1="241.164" x2="247.954" y2="322.996" gradientUnits="userSpaceOnUse">
<stop stop-color="#2E2594"/>
<stop offset="1" stop-color="#F73B6C"/>
</linearGradient>
</defs>
</svg>
