<svg width="243" height="24" viewBox="0 0 243 24" fill="none" xmlns="http://www.w3.org/2000/svg">
<path d="M152.954 5.156H156.05V17H154.304V6.83H152.954V5.156ZM158.878 17C159.646 16.256 160.378 15.524 161.074 14.804C161.77 14.084 162.394 13.388 162.946 12.716C163.51 12.044 163.954 11.396 164.278 10.772C164.602 10.136 164.764 9.524 164.764 8.936C164.764 8.54 164.698 8.204 164.566 7.928C164.434 7.64 164.26 7.406 164.044 7.226C163.84 7.046 163.606 6.914 163.342 6.83C163.078 6.734 162.808 6.686 162.532 6.686C162.136 6.686 161.8 6.752 161.524 6.884C161.248 7.004 161.02 7.166 160.84 7.37C160.672 7.574 160.546 7.79 160.462 8.018C160.39 8.246 160.354 8.474 160.354 8.702C160.354 9.098 160.414 9.458 160.534 9.782C160.654 10.094 160.828 10.37 161.056 10.61L159.976 11.564C159.7 11.384 159.46 11.132 159.256 10.808C159.064 10.484 158.914 10.136 158.806 9.764C158.71 9.38 158.662 9.038 158.662 8.738C158.662 8.09 158.818 7.484 159.13 6.92C159.454 6.344 159.922 5.882 160.534 5.534C161.158 5.186 161.914 5.012 162.802 5.012C163.558 5.012 164.218 5.186 164.782 5.534C165.346 5.882 165.784 6.344 166.096 6.92C166.408 7.484 166.564 8.108 166.564 8.792C166.564 9.392 166.444 9.98 166.204 10.556C165.964 11.132 165.64 11.702 165.232 12.266C164.836 12.83 164.392 13.388 163.9 13.94C163.42 14.48 162.94 15.026 162.46 15.578L161.704 15.326H166.96V17H158.878ZM172.142 17.144C171.506 17.144 170.894 17.03 170.306 16.802C169.73 16.574 169.262 16.28 168.902 15.92L169.838 14.57C170.078 14.846 170.396 15.068 170.792 15.236C171.2 15.404 171.602 15.488 171.998 15.488C172.442 15.488 172.832 15.392 173.168 15.2C173.516 14.996 173.786 14.726 173.978 14.39C174.17 14.042 174.266 13.646 174.266 13.202C174.266 12.722 174.176 12.296 173.996 11.924C173.828 11.552 173.57 11.264 173.222 11.06C172.886 10.844 172.46 10.736 171.944 10.736C171.524 10.736 171.134 10.796 170.774 10.916C170.414 11.024 170.042 11.192 169.658 11.42H169.64V5.156H175.31V6.83H171.152V9.854L170.918 9.494C171.122 9.422 171.35 9.368 171.602 9.332C171.866 9.284 172.118 9.26 172.358 9.26C173.162 9.26 173.834 9.44 174.374 9.8C174.926 10.148 175.34 10.616 175.616 11.204C175.904 11.792 176.048 12.44 176.048 13.148C176.048 13.892 175.88 14.57 175.544 15.182C175.208 15.782 174.746 16.262 174.158 16.622C173.57 16.97 172.898 17.144 172.142 17.144ZM181.24 9.512H182.77V12.068H185.272V13.526H182.77V16.082H181.24V13.526H178.72V12.068H181.24V9.512ZM192.379 3.986C193.039 3.986 193.645 4.076 194.197 4.256C194.761 4.424 195.247 4.682 195.655 5.03C196.075 5.366 196.399 5.786 196.627 6.29C196.867 6.782 196.987 7.358 196.987 8.018C196.987 8.534 196.909 9.038 196.753 9.53C196.609 10.022 196.363 10.472 196.015 10.88C195.667 11.276 195.211 11.6 194.647 11.852C194.095 12.092 193.411 12.212 192.595 12.212H190.669V17H188.923V3.986H192.379ZM192.559 10.538C193.075 10.538 193.501 10.46 193.837 10.304C194.185 10.148 194.455 9.95 194.647 9.71C194.839 9.458 194.977 9.188 195.061 8.9C195.145 8.612 195.187 8.342 195.187 8.09C195.187 7.826 195.139 7.556 195.043 7.28C194.959 6.992 194.815 6.728 194.611 6.488C194.419 6.248 194.161 6.05 193.837 5.894C193.525 5.738 193.141 5.66 192.685 5.66H190.669V10.538H192.559ZM194.701 11.528L198.103 17H196.087L192.631 11.582L194.701 11.528ZM203.602 17.18C202.75 17.18 202.018 17.012 201.406 16.676C200.794 16.328 200.32 15.86 199.984 15.272C199.66 14.672 199.498 13.988 199.498 13.22C199.498 12.488 199.684 11.822 200.056 11.222C200.428 10.622 200.926 10.142 201.55 9.782C202.174 9.422 202.87 9.242 203.638 9.242C204.622 9.242 205.438 9.53 206.086 10.106C206.734 10.682 207.172 11.474 207.4 12.482L201.262 14.642L200.866 13.652L205.906 11.816L205.546 12.05C205.402 11.654 205.162 11.312 204.826 11.024C204.49 10.724 204.052 10.574 203.512 10.574C203.056 10.574 202.648 10.688 202.288 10.916C201.928 11.132 201.646 11.432 201.442 11.816C201.238 12.2 201.136 12.638 201.136 13.13C201.136 13.646 201.244 14.102 201.46 14.498C201.676 14.882 201.97 15.188 202.342 15.416C202.726 15.632 203.158 15.74 203.638 15.74C203.962 15.74 204.274 15.68 204.574 15.56C204.886 15.44 205.174 15.284 205.438 15.092L206.212 16.334C205.84 16.586 205.42 16.79 204.952 16.946C204.496 17.102 204.046 17.18 203.602 17.18ZM212.275 17.216L208.135 9.548H210.115L212.923 15.47L211.897 15.434L214.471 9.548H216.343L212.365 17.216H212.275ZM218.146 9.548H219.82V17H218.146V9.548ZM218.02 6.848C218.02 6.584 218.122 6.362 218.326 6.182C218.542 6.002 218.776 5.912 219.028 5.912C219.28 5.912 219.502 6.002 219.694 6.182C219.898 6.362 220 6.584 220 6.848C220 7.124 219.898 7.352 219.694 7.532C219.502 7.7 219.28 7.784 219.028 7.784C218.776 7.784 218.542 7.694 218.326 7.514C218.122 7.334 218.02 7.112 218.02 6.848ZM226.172 17.18C225.32 17.18 224.588 17.012 223.976 16.676C223.364 16.328 222.89 15.86 222.554 15.272C222.23 14.672 222.068 13.988 222.068 13.22C222.068 12.488 222.254 11.822 222.626 11.222C222.998 10.622 223.496 10.142 224.12 9.782C224.744 9.422 225.44 9.242 226.208 9.242C227.192 9.242 228.008 9.53 228.656 10.106C229.304 10.682 229.742 11.474 229.97 12.482L223.832 14.642L223.436 13.652L228.476 11.816L228.116 12.05C227.972 11.654 227.732 11.312 227.396 11.024C227.06 10.724 226.622 10.574 226.082 10.574C225.626 10.574 225.218 10.688 224.858 10.916C224.498 11.132 224.216 11.432 224.012 11.816C223.808 12.2 223.706 12.638 223.706 13.13C223.706 13.646 223.814 14.102 224.03 14.498C224.246 14.882 224.54 15.188 224.912 15.416C225.296 15.632 225.728 15.74 226.208 15.74C226.532 15.74 226.844 15.68 227.144 15.56C227.456 15.44 227.744 15.284 228.008 15.092L228.782 16.334C228.41 16.586 227.99 16.79 227.522 16.946C227.066 17.102 226.616 17.18 226.172 17.18ZM236.644 9.548L238.84 14.57L238.516 14.606L240.568 9.548H242.206L238.786 17.45L236.392 12.338L234.214 17.45L230.758 9.548H232.396L234.718 14.804L234.142 14.696L235.798 10.844L235.204 9.548H236.644Z" fill="#332B5C"/>
<g clip-path="url(#clip0_31_32)">
<path d="M94.515 21.3038C94.0325 21.5513 93.485 21.1175 93.5825 20.5638L94.62 14.6513L90.2163 10.4563C89.805 10.0638 90.0188 9.34627 90.57 9.26877L96.6925 8.39877L99.4225 2.99001C99.6688 2.50251 100.335 2.50251 100.581 2.99001L103.311 8.39877L109.434 9.26877C109.985 9.34627 110.199 10.0638 109.786 10.4563L105.384 14.6513L106.421 20.5638C106.519 21.1175 105.971 21.5513 105.489 21.3038L100 18.4838L94.5138 21.3038H94.515Z" fill="url(#paint0_linear_31_32)"/>
</g>
<g clip-path="url(#clip1_31_32)">
<path d="M64.515 21.3038C64.0325 21.5513 63.485 21.1175 63.5825 20.5638L64.62 14.6513L60.2163 10.4563C59.805 10.0638 60.0188 9.34627 60.57 9.26877L66.6925 8.39877L69.4225 2.99001C69.6688 2.50251 70.335 2.50251 70.5813 2.99001L73.3113 8.39877L79.4338 9.26877C79.985 9.34627 80.1988 10.0638 79.7863 10.4563L75.3838 14.6513L76.4213 20.5638C76.5188 21.1175 75.9713 21.5513 75.4888 21.3038L70 18.4838L64.5138 21.3038H64.515Z" fill="url(#paint1_linear_31_32)"/>
</g>
<g clip-path="url(#clip2_31_32)">
<path d="M34.515 21.3038C34.0325 21.5513 33.485 21.1175 33.5825 20.5638L34.62 14.6513L30.2163 10.4563C29.805 10.0638 30.0188 9.34627 30.57 9.26877L36.6925 8.39877L39.4225 2.99001C39.6688 2.50251 40.335 2.50251 40.5813 2.99001L43.3113 8.39877L49.4338 9.26877C49.985 9.34627 50.1988 10.0638 49.7863 10.4563L45.3838 14.6513L46.4213 20.5638C46.5188 21.1175 45.9713 21.5513 45.4888 21.3038L40 18.4838L34.5138 21.3038H34.515Z" fill="url(#paint2_linear_31_32)"/>
</g>
<g clip-path="url(#clip3_31_32)">
<path d="M4.51503 21.3038C4.03253 21.5513 3.48503 21.1175 3.58253 20.5638L4.62003 14.6513L0.216276 10.4563C-0.194974 10.0638 0.0187758 9.34627 0.570026 9.26877L6.69253 8.39877L9.42253 2.99001C9.66878 2.50251 10.335 2.50251 10.5813 2.99001L13.3113 8.39877L19.4338 9.26877C19.985 9.34627 20.1988 10.0638 19.7863 10.4563L15.3838 14.6513L16.4213 20.5638C16.5188 21.1175 15.9713 21.5513 15.4888 21.3038L10 18.4838L4.51378 21.3038H4.51503Z" fill="url(#paint3_linear_31_32)"/>
</g>
<g clip-path="url(#clip4_31_32)">
<path d="M126.692 8.39875L129.422 2.99C129.475 2.88119 129.557 2.78929 129.659 2.72476C129.761 2.66023 129.879 2.62567 130 2.625C130.229 2.625 130.457 2.74625 130.581 2.99L133.311 8.39875L139.434 9.26875C139.586 9.29274 139.726 9.36864 139.829 9.48363C139.932 9.59863 139.993 9.74569 140 9.9C140.009 10.0027 139.994 10.1061 139.957 10.2024C139.921 10.2987 139.862 10.3855 139.787 10.4562L135.384 14.6513L136.421 20.5637C136.519 21.1175 135.971 21.5513 135.489 21.3037L130 18.4838L124.514 21.3037C124.456 21.3335 124.395 21.3546 124.331 21.3662C123.904 21.4412 123.496 21.0487 123.581 20.5637L124.619 14.6513L120.216 10.4562C120.148 10.3915 120.093 10.3134 120.056 10.2267C120.019 10.1401 120.001 10.0467 120.001 9.9525C120.001 9.8193 120.038 9.68868 120.107 9.575C120.157 9.49259 120.224 9.42228 120.304 9.36928C120.384 9.31627 120.475 9.28192 120.57 9.26875L126.692 8.39875ZM130 17.0338C130.101 17.0333 130.2 17.0574 130.29 17.1038L134.897 19.4713L134.03 14.525C134.01 14.4112 134.017 14.2942 134.053 14.1841C134.088 14.0741 134.15 13.9744 134.232 13.8938L137.866 10.4312L132.801 9.71125C132.696 9.69541 132.597 9.65439 132.511 9.59169C132.426 9.52899 132.357 9.44649 132.31 9.35125L130.001 4.77875L130 4.7825V17.0325V17.0338Z" fill="url(#paint4_linear_31_32)"/>
</g>
<defs>
<linearGradient id="paint0_linear_31_32" x1="101.079" y1="0.480093" x2="99.9132" y2="51.4233" gradientUnits="userSpaceOnUse">
<stop stop-color="#2E2594"/>
<stop offset="1" stop-color="#F73B6C"/>
</linearGradient>
<linearGradient id="paint1_linear_31_32" x1="71.0793" y1="0.480093" x2="69.9132" y2="51.4233" gradientUnits="userSpaceOnUse">
<stop stop-color="#2E2594"/>
<stop offset="1" stop-color="#F73B6C"/>
</linearGradient>
<linearGradient id="paint2_linear_31_32" x1="41.0793" y1="0.480093" x2="39.9132" y2="51.4233" gradientUnits="userSpaceOnUse">
<stop stop-color="#2E2594"/>
<stop offset="1" stop-color="#F73B6C"/>
</linearGradient>
<linearGradient id="paint3_linear_31_32" x1="11.0793" y1="0.480093" x2="9.91324" y2="51.4233" gradientUnits="userSpaceOnUse">
<stop stop-color="#2E2594"/>
<stop offset="1" stop-color="#F73B6C"/>
</linearGradient>
<linearGradient id="paint4_linear_31_32" x1="131.079" y1="0.480721" x2="129.913" y2="51.4236" gradientUnits="userSpaceOnUse">
<stop stop-color="#2E2594"/>
<stop offset="1" stop-color="#F73B6C"/>
</linearGradient>
<clipPath id="clip0_31_32">
<rect width="20" height="20" fill="white" transform="translate(90 2)"/>
</clipPath>
<clipPath id="clip1_31_32">
<rect width="20" height="20" fill="white" transform="translate(60 2)"/>
</clipPath>
<clipPath id="clip2_31_32">
<rect width="20" height="20" fill="white" transform="translate(30 2)"/>
</clipPath>
<clipPath id="clip3_31_32">
<rect width="20" height="20" fill="white" transform="translate(0 2)"/>
</clipPath>
<clipPath id="clip4_31_32">
<rect width="20" height="20" fill="white" transform="translate(120 2)"/>
</clipPath>
</defs>
</svg>
