<svg width="719" height="694" viewBox="0 0 719 694" fill="none" xmlns="http://www.w3.org/2000/svg">
<path d="M263.498 523.06C263.498 523.06 251.865 577.158 205.333 575.343C158.802 573.545 223.836 520.355 223.836 520.355C223.836 520.355 261.164 518.556 263.498 523.06Z" fill="url(#paint0_linear_8_401)"/>
<path opacity="0.2" d="M262.299 522.056C258.345 534.904 243.715 571.422 205.334 569.948C195.775 569.575 191.173 567.032 189.861 563.24C188.16 569.932 191.74 574.841 205.334 575.359C251.865 577.158 263.498 523.076 263.498 523.076C263.303 522.688 262.882 522.347 262.299 522.056Z" fill="url(#paint1_linear_8_401)"/>
<path d="M442.306 646.684C442.306 646.684 429.798 695.587 379.751 693.96C329.704 692.334 399.647 644.237 399.647 644.237C399.647 644.237 439.811 642.611 442.306 646.684Z" fill="url(#paint2_linear_8_401)"/>
<path opacity="0.2" d="M441.01 645.766C436.765 657.387 421.017 690.416 379.751 689.067C369.479 688.734 364.522 686.44 363.112 682.993C361.281 689.04 365.137 693.474 379.751 693.946C429.798 695.573 442.306 646.67 442.306 646.67C442.095 646.336 441.642 646.044 441.01 645.766Z" fill="url(#paint3_linear_8_401)"/>
<path d="M223.927 519.96C223.927 519.96 174.48 392.687 173.575 382.589C172.67 372.505 208.414 372.338 267.233 393.887C326.052 415.436 418.126 422.94 418.126 422.94C418.126 422.94 494.558 534.689 494.558 542.458C494.558 550.213 441.508 648 441.508 648H395.649C395.649 648 436.046 554.676 436.935 546.14C437.84 537.604 374.303 484.115 353.506 470.99C332.709 457.865 248.181 440.793 248.181 440.793L263.468 522.275C263.484 522.289 248.197 535.484 223.927 519.96Z" fill="url(#paint4_linear_8_401)"/>
<path d="M267.166 397.492L285.943 227.504C285.943 227.504 362.577 213.117 404.945 255.468L418.473 431.24C418.457 431.24 355.676 445.773 267.166 397.492Z" fill="url(#paint5_linear_8_401)"/>
<path d="M329.704 220.602C329.704 220.602 313.859 247.011 342.358 251.272C368.41 255.177 366.093 215.45 357.992 212.469C349.875 209.488 337.319 210.217 329.704 220.602Z" fill="url(#paint6_linear_8_401)"/>
<path opacity="0.3" d="M384.51 245.925C384.51 245.925 301.721 241.051 302.286 288.117C302.851 335.167 332.492 346.759 332.492 346.759C332.492 346.759 304.209 343.343 292.64 325.614C292.64 325.614 295.005 362.513 354.884 385.309C354.884 385.309 326.097 389.972 286.534 360.456C286.534 360.456 286.611 401.985 346.504 416.961C406.398 431.954 416.686 406.729 416.686 406.729L420.547 444.226C420.547 444.226 297.463 451.415 255.29 393.339L284.214 228.309C284.199 228.309 345.909 207.148 384.51 245.925Z" fill="url(#paint7_linear_8_401)"/>
<path d="M282.185 333.593L371.942 347.056C371.942 347.056 390.444 346.57 390.444 363.695C390.444 380.821 392.713 401.219 376.171 396.423C354.46 390.104 356.097 364.019 356.097 364.019L288.325 353.748C288.325 353.748 278.426 380.756 254.383 375.652C230.339 370.549 258.611 332.199 268.948 331.794C279.285 331.389 282.185 333.593 282.185 333.593Z" fill="url(#paint8_linear_8_401)"/>
<path opacity="0.2" d="M298.808 333.641C298.808 333.641 288.892 339.944 321.344 344.756C353.796 349.568 348.061 339.344 348.061 339.344L298.808 333.641Z" fill="url(#paint9_linear_8_401)"/>
<path d="M344.521 197.975H343.356C337.452 197.975 332.666 202.841 332.666 208.843V233.273C332.666 239.275 337.452 244.141 343.356 244.141H344.521C350.425 244.141 355.212 239.275 355.212 233.273V208.843C355.212 202.841 350.425 197.975 344.521 197.975Z" fill="url(#paint10_linear_8_401)"/>
<path d="M348.417 79.0642C348.417 79.0642 347.704 79.0318 346.457 79.0318C316.225 79.2263 292.311 104.728 293.672 134.944C294.709 157.804 296.702 192.525 299.472 199.265C303.684 209.488 330.061 225.155 348.417 225.155C366.774 225.155 393.166 209.488 397.363 199.265C400.133 192.525 402.126 157.804 403.163 134.944C404.524 104.744 380.626 79.2263 350.378 79.0318C349.13 79.0156 348.417 79.0642 348.417 79.0642Z" fill="url(#paint11_linear_8_401)"/>
<path opacity="0.3" d="M348.417 225.155C348.417 225.155 311.267 219.306 309.225 189.641C307.184 159.959 319.125 150.238 337.189 155.358C337.189 155.358 333.771 146.155 324.568 146.658C324.568 146.658 327.128 136.418 334.808 137.957C342.487 139.497 379.897 145.831 400.068 134.215C420.256 122.614 379.314 86.7924 330.709 86.7924C282.104 86.7924 292.343 176.841 292.343 192.184C292.343 207.544 319.562 232.008 348.417 225.155Z" fill="url(#paint12_linear_8_401)"/>
<path d="M316.743 200.642C316.743 200.642 326.707 188.555 340.219 194.777C351.253 199.88 349.389 208.678 349.389 208.678L316.743 200.642Z" fill="url(#paint13_linear_8_401)"/>
<path d="M324.892 203.428C324.892 203.428 334.808 190.904 348.482 197.547C359.645 202.975 357.863 212.161 357.863 212.161L324.892 203.428Z" fill="url(#paint14_linear_8_401)"/>
<path d="M341.645 183.808C344.01 184.278 346.684 184.391 348.79 183.598C349.827 183.209 350.653 182.561 351.171 181.734C351.739 180.94 351.803 179.806 351.884 178.737L351.933 179.174C350.847 174.363 349.892 169.551 349.098 164.69C348.693 162.26 348.336 159.83 348.061 157.367C347.802 154.904 347.575 152.442 347.607 149.93C347.623 149.477 347.98 149.12 348.433 149.137C348.871 149.137 349.211 149.493 349.227 149.914V149.93C349.292 152.312 349.632 154.71 350.005 157.108C350.378 159.506 350.847 161.887 351.366 164.269C352.387 169.016 353.569 173.763 354.849 178.445L354.865 178.51C354.898 178.64 354.914 178.769 354.898 178.883C354.671 180.357 354.412 181.945 353.359 183.257C352.387 184.57 350.928 185.428 349.487 185.817C348.045 186.222 346.619 186.255 345.242 186.141C343.848 186.028 342.552 185.785 341.207 185.363C340.786 185.234 340.543 184.78 340.673 184.359C340.802 183.954 341.191 183.727 341.596 183.792L341.645 183.808Z" fill="url(#paint15_linear_8_401)"/>
<path d="M325.103 173.569C327.725 173.569 329.85 169.993 329.85 165.581C329.85 161.17 327.725 157.594 325.103 157.594C322.481 157.594 320.356 161.17 320.356 165.581C320.356 169.993 322.481 173.569 325.103 173.569Z" fill="url(#paint16_linear_8_401)"/>
<path d="M369.706 173.569C372.328 173.569 374.453 169.993 374.453 165.581C374.453 161.17 372.328 157.594 369.706 157.594C367.085 157.594 364.959 161.17 364.959 165.581C364.959 169.993 367.085 173.569 369.706 173.569Z" fill="url(#paint17_linear_8_401)"/>
<path d="M312.838 153.236C312.838 153.236 321.555 142.089 334.468 151.34" stroke="url(#paint18_linear_8_401)" stroke-width="1.8618" stroke-miterlimit="10" stroke-linecap="round" stroke-linejoin="round"/>
<path d="M381.193 153.236C381.193 153.236 372.477 142.089 359.564 151.34" stroke="url(#paint19_linear_8_401)" stroke-width="1.8618" stroke-miterlimit="10" stroke-linecap="round" stroke-linejoin="round"/>
<path d="M286.851 189.641H282.541C268.494 189.641 257.105 178.251 257.105 164.204V161.434C257.105 147.387 268.494 135.997 282.541 135.997H286.851V189.641Z" fill="url(#paint20_linear_8_401)"/>
<path d="M292.068 194.777H291.549C288.957 194.777 286.851 192.67 286.851 190.078V134.215C286.851 131.623 288.957 129.516 291.549 129.516H292.068C294.66 129.516 296.766 131.623 296.766 134.215V190.078C296.766 192.67 294.66 194.777 292.068 194.777Z" fill="url(#paint21_linear_8_401)"/>
<path d="M409.984 189.641H414.293C428.34 189.641 439.73 178.251 439.73 164.204V161.434C439.73 147.387 428.34 135.997 414.293 135.997H409.984V189.641Z" fill="url(#paint22_linear_8_401)"/>
<path d="M404.767 194.777H405.285C407.877 194.777 409.984 192.67 409.984 190.078V134.215C409.984 131.623 407.877 129.516 405.285 129.516H404.767C402.174 129.516 400.068 131.623 400.068 134.215V190.078C400.068 192.67 402.174 194.777 404.767 194.777Z" fill="url(#paint23_linear_8_401)"/>
<path d="M400.068 173.909C400.068 173.909 384.417 135.884 380.788 107.79L413.597 126.438L400.068 173.909Z" fill="url(#paint24_linear_8_401)"/>
<path opacity="0.3" d="M409.984 135.997C409.984 135.997 384.498 134.134 400.068 173.893C415.638 213.668 374.648 128.739 374.648 128.739L402.855 111.856L424.857 116.458L409.984 135.997Z" fill="url(#paint25_linear_8_401)"/>
<path d="M267.166 92.5764L296.296 171.786C296.296 171.786 308.918 152.361 318.169 122.469C318.169 122.469 379.443 149.218 413.597 126.454C447.75 103.691 432.536 54.5835 419.737 39.7427C419.737 39.7427 402.92 70.2343 342.812 64.1263C291.809 58.9255 267.166 92.5764 267.166 92.5764Z" fill="url(#paint26_linear_8_401)"/>
<path opacity="0.8" d="M296.296 171.786C296.296 171.786 282.104 123.635 313.827 103.675C344.108 84.6214 424.857 104.193 419.737 39.7265C414.617 -24.74 248.858 18.5023 254.48 79.7771C260.118 141.036 296.296 171.786 296.296 171.786Z" fill="url(#paint27_linear_8_401)"/>
<path d="M267.603 253.654L174.735 324.358C169.907 328.036 171.56 335.667 177.473 337.011L239.218 351.172C239.218 351.172 246.735 372.055 268.964 372.655C291.193 373.254 292.408 348.919 283.983 351.172C275.574 353.424 250.932 332.993 268.964 331.794L282.185 333.593C282.185 333.593 267.376 319.173 244.435 331.195L215.272 324.05C212.242 323.305 211.448 319.384 213.959 317.521L275.736 271.702L267.603 253.654Z" fill="url(#paint28_linear_8_401)"/>
<path d="M420.742 282.071L472.182 386.848C474.855 392.291 469.962 398.383 464.081 396.941L402.515 381.987C402.515 381.987 386.459 397.314 366.304 387.901C346.149 378.488 355.951 356.178 362.48 361.962C368.993 367.746 400.182 360.487 384.579 351.35L371.942 347.056C371.942 347.056 391.643 340.77 406.792 361.784L436.068 368.426C439.098 369.123 441.577 365.947 440.167 363.177L405.399 294.563L420.742 282.071Z" fill="url(#paint29_linear_8_401)"/>
<path d="M230.67 263.302L262.832 291.381C262.832 291.381 289.936 270.471 293.356 255.52C296.776 240.586 285.761 228.037 285.761 228.037L230.67 263.302Z" fill="url(#paint30_linear_8_401)"/>
<path d="M404.624 255.951C404.624 255.951 389.313 274.08 393.521 291.342C397.729 308.605 413.266 324.664 413.266 324.664L447.545 307.402L404.624 255.951Z" fill="url(#paint31_linear_8_401)"/>
<path d="M0 652.004L17.5788 669.567L67.7554 619.374L117.948 669.567L135.511 652.004L85.3343 601.812L135.511 551.619L117.948 534.056L67.7554 584.249L17.5788 534.056L0 551.619L50.1928 601.812L0 652.004Z" fill="url(#paint32_linear_8_401)"/>
<path opacity="0.2" d="M468.812 119.131L486.553 136.872L537.232 86.1768L587.927 136.872L605.668 119.131L554.989 68.4359L605.668 17.7408L587.927 0L537.232 50.6951L486.553 0L468.812 17.7408L519.491 68.4359L468.812 119.131Z" fill="url(#paint33_linear_8_401)"/>
<path opacity="0.2" d="M681.231 367.008C702.009 346.23 702.009 312.542 681.231 291.763C660.452 270.985 626.764 270.985 605.986 291.763C585.208 312.542 585.208 346.23 605.986 367.008C626.764 387.786 660.452 387.786 681.231 367.008Z" stroke="url(#paint34_linear_8_401)" stroke-width="5" stroke-miterlimit="10"/>
<defs>
<linearGradient id="paint0_linear_8_401" x1="228.246" y1="504.951" x2="219.908" y2="651.695" gradientUnits="userSpaceOnUse">
<stop stop-color="#F73B6C"/>
<stop offset="1" stop-color="#842774"/>
</linearGradient>
<linearGradient id="paint1_linear_8_401" x1="228.65" y1="506.376" x2="220.475" y2="650.251" gradientUnits="userSpaceOnUse">
<stop stop-color="white"/>
<stop offset="1" stop-color="#6DE4E3"/>
</linearGradient>
<linearGradient id="paint2_linear_8_401" x1="404.345" y1="630.267" x2="397.865" y2="763.195" gradientUnits="userSpaceOnUse">
<stop stop-color="#F73B6C"/>
<stop offset="1" stop-color="#842774"/>
</linearGradient>
<linearGradient id="paint3_linear_8_401" x1="404.781" y1="631.541" x2="398.426" y2="761.903" gradientUnits="userSpaceOnUse">
<stop stop-color="white"/>
<stop offset="1" stop-color="#6DE4E3"/>
</linearGradient>
<linearGradient id="paint4_linear_8_401" x1="334.057" y1="637.54" x2="334.057" y2="402.343" gradientUnits="userSpaceOnUse">
<stop stop-color="#16164F"/>
<stop offset="1" stop-color="#0C0723"/>
</linearGradient>
<linearGradient id="paint5_linear_8_401" x1="342.818" y1="232.914" x2="342.818" y2="421.325" gradientUnits="userSpaceOnUse">
<stop stop-color="#F73B6C"/>
<stop offset="1" stop-color="#842774"/>
</linearGradient>
<linearGradient id="paint6_linear_8_401" x1="346.459" y1="206.299" x2="343.596" y2="316.588" gradientUnits="userSpaceOnUse">
<stop stop-color="#2E2594"/>
<stop offset="1" stop-color="#F73B6C"/>
</linearGradient>
<linearGradient id="paint7_linear_8_401" x1="339.31" y1="236.705" x2="335.915" y2="627.21" gradientUnits="userSpaceOnUse">
<stop stop-color="#2F2EA6"/>
<stop offset="1" stop-color="#2B187A"/>
</linearGradient>
<linearGradient id="paint8_linear_8_401" x1="317.755" y1="331.747" x2="317.755" y2="397.136" gradientUnits="userSpaceOnUse">
<stop stop-color="#16164F"/>
<stop offset="1" stop-color="#0C0723"/>
</linearGradient>
<linearGradient id="paint9_linear_8_401" x1="323.248" y1="332.499" x2="321.745" y2="358.943" gradientUnits="userSpaceOnUse">
<stop stop-color="white"/>
<stop offset="1" stop-color="#6DE4E3"/>
</linearGradient>
<linearGradient id="paint10_linear_8_401" x1="332.673" y1="221.059" x2="355.207" y2="221.059" gradientUnits="userSpaceOnUse">
<stop stop-color="#FA9791"/>
<stop offset="1" stop-color="#FCC0A2"/>
</linearGradient>
<linearGradient id="paint11_linear_8_401" x1="348.417" y1="234.266" x2="348.417" y2="84.1621" gradientUnits="userSpaceOnUse">
<stop stop-color="#FA9791"/>
<stop offset="1" stop-color="#FCC0A2"/>
</linearGradient>
<linearGradient id="paint12_linear_8_401" x1="348.393" y1="235.044" x2="348.393" y2="91.697" gradientUnits="userSpaceOnUse">
<stop stop-color="#2F2EA6"/>
<stop offset="1" stop-color="#2B187A"/>
</linearGradient>
<linearGradient id="paint13_linear_8_401" x1="347.773" y1="198.857" x2="318.139" y2="206.251" gradientUnits="userSpaceOnUse">
<stop stop-color="#16164F"/>
<stop offset="1" stop-color="#0C0723"/>
</linearGradient>
<linearGradient id="paint14_linear_8_401" x1="324.276" y1="200.692" x2="367.547" y2="206.101" gradientUnits="userSpaceOnUse">
<stop stop-color="#F73B6C"/>
<stop offset="1" stop-color="#842774"/>
</linearGradient>
<linearGradient id="paint15_linear_8_401" x1="347.768" y1="148.425" x2="347.768" y2="186.676" gradientUnits="userSpaceOnUse">
<stop stop-color="#16164F"/>
<stop offset="1" stop-color="#0C0723"/>
</linearGradient>
<linearGradient id="paint16_linear_8_401" x1="325.107" y1="159.591" x2="325.107" y2="178.085" gradientUnits="userSpaceOnUse">
<stop stop-color="#16164F"/>
<stop offset="1" stop-color="#0C0723"/>
</linearGradient>
<linearGradient id="paint17_linear_8_401" x1="369.711" y1="159.591" x2="369.711" y2="178.085" gradientUnits="userSpaceOnUse">
<stop stop-color="#16164F"/>
<stop offset="1" stop-color="#0C0723"/>
</linearGradient>
<linearGradient id="paint18_linear_8_401" x1="313.749" y1="147.561" x2="333.755" y2="156.586" gradientUnits="userSpaceOnUse">
<stop stop-color="#16164F"/>
<stop offset="1" stop-color="#0C0723"/>
</linearGradient>
<linearGradient id="paint19_linear_8_401" x1="380.293" y1="147.561" x2="360.287" y2="156.586" gradientUnits="userSpaceOnUse">
<stop stop-color="#16164F"/>
<stop offset="1" stop-color="#0C0723"/>
</linearGradient>
<linearGradient id="paint20_linear_8_401" x1="271.972" y1="130.144" x2="271.972" y2="201.385" gradientUnits="userSpaceOnUse">
<stop stop-color="#F73B6C"/>
<stop offset="1" stop-color="#842774"/>
</linearGradient>
<linearGradient id="paint21_linear_8_401" x1="292.343" y1="122.053" x2="264.555" y2="294.986" gradientUnits="userSpaceOnUse">
<stop stop-color="#2E2594"/>
<stop offset="1" stop-color="#F73B6C"/>
</linearGradient>
<linearGradient id="paint22_linear_8_401" x1="424.862" y1="130.144" x2="424.862" y2="201.385" gradientUnits="userSpaceOnUse">
<stop stop-color="#F73B6C"/>
<stop offset="1" stop-color="#842774"/>
</linearGradient>
<linearGradient id="paint23_linear_8_401" x1="405.56" y1="122.053" x2="377.773" y2="294.986" gradientUnits="userSpaceOnUse">
<stop stop-color="#2E2594"/>
<stop offset="1" stop-color="#F73B6C"/>
</linearGradient>
<linearGradient id="paint24_linear_8_401" x1="397.194" y1="112.377" x2="397.194" y2="166.004" gradientUnits="userSpaceOnUse">
<stop stop-color="#2F2EA6"/>
<stop offset="1" stop-color="#2B187A"/>
</linearGradient>
<linearGradient id="paint25_linear_8_401" x1="399.753" y1="116.902" x2="399.753" y2="175.826" gradientUnits="userSpaceOnUse">
<stop stop-color="#2F2EA6"/>
<stop offset="1" stop-color="#2B187A"/>
</linearGradient>
<linearGradient id="paint26_linear_8_401" x1="350.802" y1="66.4316" x2="350.802" y2="161.789" gradientUnits="userSpaceOnUse">
<stop stop-color="#2F2EA6"/>
<stop offset="1" stop-color="#2B187A"/>
</linearGradient>
<linearGradient id="paint27_linear_8_401" x1="337.157" y1="40.9431" x2="337.157" y2="159.371" gradientUnits="userSpaceOnUse">
<stop stop-color="#2F2EA6"/>
<stop offset="1" stop-color="#2B187A"/>
</linearGradient>
<linearGradient id="paint28_linear_8_401" x1="206.798" y1="383.258" x2="279.819" y2="262.458" gradientUnits="userSpaceOnUse">
<stop stop-color="#FA9791"/>
<stop offset="1" stop-color="#FCC0A2"/>
</linearGradient>
<linearGradient id="paint29_linear_8_401" x1="429.328" y1="424.317" x2="383.352" y2="299.011" gradientUnits="userSpaceOnUse">
<stop stop-color="#FA9791"/>
<stop offset="1" stop-color="#FCC0A2"/>
</linearGradient>
<linearGradient id="paint30_linear_8_401" x1="265.755" y1="220.793" x2="261.554" y2="392.88" gradientUnits="userSpaceOnUse">
<stop stop-color="#2E2594"/>
<stop offset="1" stop-color="#F73B6C"/>
</linearGradient>
<linearGradient id="paint31_linear_8_401" x1="423.117" y1="248.093" x2="417.4" y2="434.701" gradientUnits="userSpaceOnUse">
<stop stop-color="#2E2594"/>
<stop offset="1" stop-color="#F73B6C"/>
</linearGradient>
<linearGradient id="paint32_linear_8_401" x1="67.7618" y1="661.858" x2="67.7618" y2="475.618" gradientUnits="userSpaceOnUse">
<stop stop-color="white" stop-opacity="0"/>
<stop offset="0.9899" stop-color="white"/>
</linearGradient>
<linearGradient id="paint33_linear_8_401" x1="537.239" y1="138.231" x2="537.239" y2="15.1996" gradientUnits="userSpaceOnUse">
<stop stop-color="white" stop-opacity="0"/>
<stop offset="0.9899" stop-color="white"/>
</linearGradient>
<linearGradient id="paint34_linear_8_401" x1="684.099" y1="369.868" x2="603.122" y2="288.891" gradientUnits="userSpaceOnUse">
<stop stop-color="white" stop-opacity="0"/>
<stop offset="0.9899" stop-color="white"/>
</linearGradient>
</defs>
</svg>
