<svg width="33" height="14" viewBox="0 0 33 14" fill="none" xmlns="http://www.w3.org/2000/svg">
<path fill-rule="evenodd" clip-rule="evenodd" d="M-2.99056e-05 7C-2.98824e-05 6.73483 0.105305 6.48052 0.292809 6.29302C0.480313 6.10551 0.73462 6.00018 0.999789 6.00018L28.9565 6.00018L24.6633 1.70895C24.5703 1.61599 24.4966 1.50564 24.4463 1.38418C24.396 1.26272 24.3701 1.13254 24.3701 1.00108C24.3701 0.869617 24.396 0.73944 24.4463 0.617983C24.4966 0.496526 24.5703 0.386168 24.6633 0.293208C24.7563 0.20025 24.8666 0.12651 24.9881 0.0762008C25.1095 0.0258916 25.2397 -6.23498e-07 25.3712 -6.12005e-07C25.5026 -6.00512e-07 25.6328 0.0258917 25.7543 0.0762009C25.8757 0.12651 25.9861 0.20025 26.0791 0.293209L32.078 6.29213C32.1711 6.385 32.245 6.49533 32.2954 6.6168C32.3458 6.73827 32.3717 6.86849 32.3717 7C32.3717 7.13151 32.3458 7.26173 32.2954 7.3832C32.245 7.50467 32.1711 7.615 32.078 7.70787L26.0791 13.7068C25.8913 13.8945 25.6367 14 25.3712 14C25.1057 14 24.851 13.8945 24.6633 13.7068C24.4756 13.519 24.3701 13.2644 24.3701 12.9989C24.3701 12.7334 24.4756 12.4788 24.6633 12.291L28.9565 7.99982L0.999789 7.99982C0.73462 7.99982 0.480313 7.89448 0.292809 7.70698C0.105305 7.51947 -2.99288e-05 7.26516 -2.99056e-05 7Z" fill="white"/>
</svg>
