<svg width="321" height="92" viewBox="0 0 321 92" fill="none" xmlns="http://www.w3.org/2000/svg">
<g filter="url(#filter0_d_1_37)">
<g clip-path="url(#clip0_1_37)">
<path d="M46 77.5C65.6061 77.5 81.5 61.6061 81.5 42C81.5 22.3939 65.6061 6.5 46 6.5C26.3939 6.5 10.5 22.3939 10.5 42C10.5 61.6061 26.3939 77.5 46 77.5Z" fill="white" stroke="#DCDDEB"/>
<path d="M57.0856 59.3845C57.0732 59.3845 57.0609 59.3845 57.0485 59.3845C51.11 59.19 44.1529 53.4336 39.3595 48.6371C34.5599 43.8407 28.8035 36.8805 28.6183 30.9698C28.5504 28.8956 33.6402 25.2072 33.6926 25.1701C35.0137 24.2504 36.4798 24.5775 37.0817 25.4109C37.4891 25.9757 41.3473 31.8216 41.767 32.4853C42.2022 33.1736 42.1374 34.1983 41.5942 35.2261C41.2948 35.7971 40.3009 37.5441 39.8349 38.359C40.338 39.075 41.6683 40.8313 44.4153 43.5783C47.1654 46.3253 48.9186 47.6587 49.6377 48.1618C50.4526 47.6957 52.1996 46.7019 52.7706 46.4025C53.7829 45.8654 54.8015 45.7975 55.496 46.2235C56.2059 46.6587 62.0364 50.5354 62.5734 50.9088C63.0241 51.2268 63.3142 51.77 63.3728 52.4027C63.4284 53.0416 63.2309 53.7176 62.8204 54.3071C62.7864 54.3565 59.1412 59.3845 57.0856 59.3845Z" fill="#0075FF"/>
</g>
</g>
<path d="M106.188 22.3828H107.688C107.609 23.1016 107.404 23.7448 107.07 24.3125C106.737 24.8802 106.266 25.3307 105.656 25.6641C105.047 25.9922 104.286 26.1562 103.375 26.1562C102.708 26.1562 102.102 26.0312 101.555 25.7812C101.013 25.5312 100.547 25.1771 100.156 24.7188C99.7656 24.2552 99.4635 23.7005 99.25 23.0547C99.0417 22.4036 98.9375 21.6797 98.9375 20.8828V19.75C98.9375 18.9531 99.0417 18.2318 99.25 17.5859C99.4635 16.9349 99.7682 16.3776 100.164 15.9141C100.565 15.4505 101.047 15.0938 101.609 14.8438C102.172 14.5938 102.805 14.4688 103.508 14.4688C104.367 14.4688 105.094 14.6302 105.688 14.9531C106.281 15.276 106.742 15.724 107.07 16.2969C107.404 16.8646 107.609 17.5234 107.688 18.2734H106.188C106.115 17.7422 105.979 17.2865 105.781 16.9062C105.583 16.5208 105.302 16.224 104.938 16.0156C104.573 15.8073 104.096 15.7031 103.508 15.7031C103.003 15.7031 102.557 15.7995 102.172 15.9922C101.792 16.1849 101.471 16.4583 101.211 16.8125C100.956 17.1667 100.763 17.5911 100.633 18.0859C100.503 18.5807 100.438 19.1302 100.438 19.7344V20.8828C100.438 21.4401 100.495 21.9635 100.609 22.4531C100.729 22.9427 100.909 23.3724 101.148 23.7422C101.388 24.112 101.693 24.4036 102.062 24.6172C102.432 24.8255 102.87 24.9297 103.375 24.9297C104.016 24.9297 104.526 24.8281 104.906 24.625C105.286 24.4219 105.573 24.1302 105.766 23.75C105.964 23.3698 106.104 22.9141 106.188 22.3828ZM115.553 15.6328L111.788 26H110.248L114.584 14.625H115.577L115.553 15.6328ZM118.709 26L114.936 15.6328L114.913 14.625H115.905L120.256 26H118.709ZM118.514 21.7891V23.0234H112.123V21.7891H118.514ZM130.278 24.7734V26H124.591V24.7734H130.278ZM124.888 14.625V26H123.38V14.625H124.888ZM140.503 24.7734V26H134.816V24.7734H140.503ZM135.112 14.625V26H133.605V14.625H135.112ZM155.906 14.625H157.406V22.3203C157.406 23.1745 157.216 23.8854 156.836 24.4531C156.456 25.0208 155.951 25.4479 155.32 25.7344C154.695 26.0156 154.016 26.1562 153.281 26.1562C152.51 26.1562 151.812 26.0156 151.188 25.7344C150.568 25.4479 150.076 25.0208 149.711 24.4531C149.352 23.8854 149.172 23.1745 149.172 22.3203V14.625H150.664V22.3203C150.664 22.9141 150.773 23.4036 150.992 23.7891C151.211 24.1745 151.516 24.4609 151.906 24.6484C152.302 24.8359 152.76 24.9297 153.281 24.9297C153.807 24.9297 154.266 24.8359 154.656 24.6484C155.052 24.4609 155.359 24.1745 155.578 23.7891C155.797 23.4036 155.906 22.9141 155.906 22.3203V14.625ZM167.436 23.125C167.436 22.8594 167.394 22.625 167.311 22.4219C167.233 22.2135 167.092 22.026 166.889 21.8594C166.691 21.6927 166.415 21.5339 166.061 21.3828C165.712 21.2318 165.269 21.0781 164.733 20.9219C164.17 20.7552 163.662 20.5703 163.209 20.3672C162.756 20.1589 162.368 19.9219 162.045 19.6562C161.722 19.3906 161.475 19.0859 161.303 18.7422C161.131 18.3984 161.045 18.0052 161.045 17.5625C161.045 17.1198 161.136 16.7109 161.319 16.3359C161.501 15.9609 161.761 15.6354 162.1 15.3594C162.444 15.0781 162.853 14.8594 163.327 14.7031C163.801 14.5469 164.329 14.4688 164.912 14.4688C165.767 14.4688 166.491 14.6328 167.084 14.9609C167.683 15.2839 168.139 15.7083 168.452 16.2344C168.764 16.7552 168.92 17.3125 168.92 17.9062H167.42C167.42 17.4792 167.329 17.1016 167.147 16.7734C166.965 16.4401 166.689 16.1797 166.319 15.9922C165.949 15.7995 165.48 15.7031 164.912 15.7031C164.376 15.7031 163.933 15.7839 163.584 15.9453C163.235 16.1068 162.975 16.3255 162.803 16.6016C162.636 16.8776 162.553 17.1927 162.553 17.5469C162.553 17.7865 162.603 18.0052 162.702 18.2031C162.806 18.3958 162.965 18.5755 163.178 18.7422C163.397 18.9089 163.673 19.0625 164.006 19.2031C164.345 19.3438 164.748 19.4792 165.217 19.6094C165.863 19.7917 166.42 19.9948 166.889 20.2188C167.358 20.4427 167.743 20.6953 168.045 20.9766C168.353 21.2526 168.579 21.5677 168.725 21.9219C168.876 22.2708 168.952 22.6667 168.952 23.1094C168.952 23.5729 168.858 23.9922 168.67 24.3672C168.483 24.7422 168.215 25.0625 167.866 25.3281C167.517 25.5938 167.097 25.7995 166.608 25.9453C166.123 26.0859 165.582 26.1562 164.983 26.1562C164.457 26.1562 163.939 26.0833 163.428 25.9375C162.923 25.7917 162.462 25.5729 162.045 25.2812C161.634 24.9896 161.303 24.6302 161.053 24.2031C160.808 23.7708 160.686 23.2708 160.686 22.7031H162.186C162.186 23.0938 162.261 23.4297 162.412 23.7109C162.564 23.987 162.769 24.2161 163.03 24.3984C163.295 24.5807 163.595 24.7161 163.928 24.8047C164.267 24.888 164.618 24.9297 164.983 24.9297C165.509 24.9297 165.954 24.8568 166.319 24.7109C166.683 24.5651 166.959 24.3568 167.147 24.0859C167.34 23.8151 167.436 23.4948 167.436 23.125ZM186.792 14.625V26H185.277L179.55 17.2266V26H178.042V14.625H179.55L185.3 23.4219V14.625H186.792ZM199.822 19.9531V20.6719C199.822 21.526 199.715 22.2917 199.502 22.9688C199.288 23.6458 198.981 24.2214 198.58 24.6953C198.179 25.1693 197.697 25.5312 197.134 25.7812C196.577 26.0312 195.952 26.1562 195.259 26.1562C194.588 26.1562 193.97 26.0312 193.408 25.7812C192.851 25.5312 192.366 25.1693 191.955 24.6953C191.548 24.2214 191.233 23.6458 191.009 22.9688C190.785 22.2917 190.673 21.526 190.673 20.6719V19.9531C190.673 19.099 190.783 18.3359 191.002 17.6641C191.226 16.987 191.541 16.4115 191.947 15.9375C192.353 15.4583 192.835 15.0938 193.392 14.8438C193.955 14.5938 194.572 14.4688 195.244 14.4688C195.936 14.4688 196.561 14.5938 197.119 14.8438C197.681 15.0938 198.163 15.4583 198.564 15.9375C198.97 16.4115 199.28 16.987 199.494 17.6641C199.713 18.3359 199.822 19.099 199.822 19.9531ZM198.33 20.6719V19.9375C198.33 19.2604 198.259 18.6615 198.119 18.1406C197.983 17.6198 197.783 17.1823 197.517 16.8281C197.252 16.474 196.926 16.2057 196.541 16.0234C196.16 15.8411 195.728 15.75 195.244 15.75C194.775 15.75 194.351 15.8411 193.97 16.0234C193.595 16.2057 193.272 16.474 193.002 16.8281C192.736 17.1823 192.53 17.6198 192.384 18.1406C192.239 18.6615 192.166 19.2604 192.166 19.9375V20.6719C192.166 21.3542 192.239 21.9583 192.384 22.4844C192.53 23.0052 192.739 23.4453 193.009 23.8047C193.285 24.1589 193.611 24.4271 193.986 24.6094C194.366 24.7917 194.791 24.8828 195.259 24.8828C195.749 24.8828 196.184 24.7917 196.564 24.6094C196.944 24.4271 197.265 24.1589 197.525 23.8047C197.791 23.4453 197.991 23.0052 198.127 22.4844C198.262 21.9583 198.33 21.3542 198.33 20.6719ZM206.672 22.5625L208.93 14.625H210.023L209.391 17.7109L206.961 26H205.875L206.672 22.5625ZM204.336 14.625L206.133 22.4062L206.672 26H205.594L202.836 14.625H204.336ZM212.945 22.3984L214.703 14.625H216.211L213.461 26H212.383L212.945 22.3984ZM210.188 14.625L212.383 22.5625L213.18 26H212.094L209.75 17.7109L209.109 14.625H210.188Z" fill="#6E7191"/>
<path d="M99.709 54.207V53.9062C99.709 51.9831 99.9095 50.2376 100.311 48.6699C100.721 47.1022 101.258 45.7259 101.924 44.541C102.598 43.347 103.332 42.3581 104.125 41.5742C104.918 40.7904 105.706 40.2253 106.49 39.8789L107.242 41.957C106.723 42.3398 106.212 42.8685 105.711 43.543C105.21 44.2083 104.754 45.0286 104.344 46.0039C103.943 46.9701 103.619 48.1094 103.373 49.4219C103.127 50.7253 103.004 52.2109 103.004 53.8789V54.2344C103.004 55.9023 103.127 57.3926 103.373 58.7051C103.619 60.0085 103.943 61.1478 104.344 62.123C104.754 63.1074 105.21 63.9368 105.711 64.6113C106.212 65.2858 106.723 65.819 107.242 66.2109L106.49 68.2344C105.706 67.888 104.918 67.3229 104.125 66.5391C103.332 65.7643 102.598 64.7799 101.924 63.5859C101.258 62.401 100.721 61.0247 100.311 59.457C99.9095 57.8802 99.709 56.1302 99.709 54.207ZM123.102 54.5625V57.6523H108.76L108.568 55.2598L116.867 42.0938H119.998L116.607 47.7676L112.479 54.5625H123.102ZM120.846 42.0938V62H116.908V42.0938H120.846ZM134.832 42.0527V62H130.895V46.5918L126.164 48.0957V44.9922L134.408 42.0527H134.832ZM155.258 54.5625V57.6523H140.916L140.725 55.2598L149.023 42.0938H152.154L148.764 47.7676L144.635 54.5625H155.258ZM153.002 42.0938V62H149.064V42.0938H153.002ZM164.322 53.9062V54.207C164.322 56.0664 164.113 57.7799 163.693 59.3477C163.274 60.9062 162.718 62.2871 162.025 63.4902C161.342 64.7025 160.59 65.7096 159.77 66.5117C158.958 67.3138 158.147 67.888 157.336 68.2344L156.57 66.2109C157.09 65.8281 157.596 65.2995 158.088 64.625C158.589 63.9505 159.045 63.1211 159.455 62.1367C159.865 61.1615 160.189 60.0176 160.426 58.7051C160.672 57.3926 160.795 55.9023 160.795 54.2344V53.8789C160.795 52.2109 160.672 50.7207 160.426 49.4082C160.18 48.0957 159.847 46.9518 159.428 45.9766C159.018 44.9922 158.562 44.1673 158.061 43.502C157.568 42.8275 157.072 42.2988 156.57 41.916L157.336 39.8789C158.147 40.2253 158.958 40.804 159.77 41.6152C160.59 42.4173 161.342 43.4199 162.025 44.623C162.718 45.8262 163.274 47.2116 163.693 48.7793C164.113 50.3379 164.322 52.0469 164.322 53.9062ZM177.912 52.9355L174.768 52.1836L175.902 42.0938H187.086V45.2793H179.143L178.65 49.6953C178.915 49.5404 179.316 49.3763 179.854 49.2031C180.391 49.0208 180.993 48.9297 181.658 48.9297C182.624 48.9297 183.481 49.0801 184.229 49.3809C184.976 49.6816 185.609 50.1191 186.129 50.6934C186.658 51.2676 187.059 51.9694 187.332 52.7988C187.605 53.6283 187.742 54.5671 187.742 55.6152C187.742 56.4993 187.605 57.3424 187.332 58.1445C187.059 58.9375 186.644 59.6484 186.088 60.2773C185.532 60.8971 184.835 61.3848 183.996 61.7402C183.158 62.0957 182.164 62.2734 181.016 62.2734C180.159 62.2734 179.329 62.1458 178.527 61.8906C177.734 61.6354 177.019 61.2572 176.381 60.7559C175.752 60.2546 175.246 59.6484 174.863 58.9375C174.49 58.2174 174.294 57.3971 174.275 56.4766H178.186C178.24 57.0417 178.386 57.5293 178.623 57.9395C178.869 58.3405 179.193 58.6504 179.594 58.8691C179.995 59.0879 180.464 59.1973 181.002 59.1973C181.503 59.1973 181.932 59.1016 182.287 58.9102C182.643 58.7188 182.93 58.4544 183.148 58.1172C183.367 57.7708 183.527 57.3698 183.627 56.9141C183.736 56.4492 183.791 55.9479 183.791 55.4102C183.791 54.8724 183.727 54.3848 183.6 53.9473C183.472 53.5098 183.276 53.1315 183.012 52.8125C182.747 52.4935 182.41 52.2474 182 52.0742C181.599 51.901 181.13 51.8145 180.592 51.8145C179.863 51.8145 179.298 51.9284 178.896 52.1562C178.505 52.3841 178.176 52.6439 177.912 52.9355ZM200.443 41.8887H201.018V45.0332H200.785C199.746 45.0332 198.821 45.1882 198.01 45.498C197.199 45.8079 196.51 46.25 195.945 46.8242C195.389 47.3893 194.961 48.0729 194.66 48.875C194.368 49.6771 194.223 50.5749 194.223 51.5684V54.877C194.223 55.5879 194.291 56.2168 194.428 56.7637C194.574 57.3014 194.779 57.7526 195.043 58.1172C195.316 58.4727 195.635 58.7415 196 58.9238C196.365 59.097 196.775 59.1836 197.23 59.1836C197.659 59.1836 198.046 59.0924 198.393 58.9102C198.748 58.7279 199.049 58.4727 199.295 58.1445C199.55 57.8073 199.742 57.4154 199.869 56.9688C200.006 56.513 200.074 56.0163 200.074 55.4785C200.074 54.9408 200.006 54.444 199.869 53.9883C199.742 53.5326 199.55 53.1406 199.295 52.8125C199.04 52.4753 198.73 52.2155 198.365 52.0332C198.001 51.8509 197.59 51.7598 197.135 51.7598C196.515 51.7598 195.968 51.9056 195.494 52.1973C195.029 52.4798 194.665 52.8444 194.4 53.291C194.136 53.7376 193.995 54.207 193.977 54.6992L192.787 53.9336C192.814 53.2318 192.96 52.5664 193.225 51.9375C193.498 51.3086 193.872 50.7526 194.346 50.2695C194.829 49.7773 195.408 49.3945 196.082 49.1211C196.757 48.8385 197.518 48.6973 198.365 48.6973C199.295 48.6973 200.111 48.875 200.812 49.2305C201.523 49.5859 202.116 50.0736 202.59 50.6934C203.064 51.3132 203.419 52.0286 203.656 52.8398C203.893 53.651 204.012 54.5169 204.012 55.4375C204.012 56.4036 203.852 57.3014 203.533 58.1309C203.223 58.9603 202.772 59.6849 202.18 60.3047C201.596 60.9245 200.895 61.4076 200.074 61.7539C199.254 62.1003 198.333 62.2734 197.312 62.2734C196.255 62.2734 195.294 62.082 194.428 61.6992C193.571 61.3073 192.833 60.7604 192.213 60.0586C191.593 59.3568 191.115 58.5228 190.777 57.5566C190.449 56.5905 190.285 55.5332 190.285 54.3848V52.8535C190.285 51.2493 190.518 49.7819 190.982 48.4512C191.456 47.1113 192.135 45.9538 193.02 44.9785C193.904 43.9941 194.97 43.2331 196.219 42.6953C197.467 42.1576 198.876 41.8887 200.443 41.8887ZM219.885 42.0938V44.2129L212.188 62H208.031L215.729 45.1699H205.816V42.0938H219.885ZM237.344 51.9102V55H229.619V51.9102H237.344ZM261.051 58.9238V62H247.434V59.375L253.873 52.4707C254.52 51.7507 255.031 51.1172 255.404 50.5703C255.778 50.0143 256.047 49.5176 256.211 49.0801C256.384 48.6335 256.471 48.2096 256.471 47.8086C256.471 47.207 256.37 46.6921 256.17 46.2637C255.969 45.8262 255.673 45.4889 255.281 45.252C254.898 45.015 254.424 44.8965 253.859 44.8965C253.258 44.8965 252.738 45.0423 252.301 45.334C251.872 45.6257 251.544 46.0312 251.316 46.5508C251.098 47.0703 250.988 47.6582 250.988 48.3145H247.037C247.037 47.1296 247.32 46.0449 247.885 45.0605C248.45 44.0671 249.247 43.2786 250.277 42.6953C251.307 42.1029 252.529 41.8066 253.941 41.8066C255.336 41.8066 256.512 42.0345 257.469 42.4902C258.435 42.9368 259.164 43.584 259.656 44.4316C260.158 45.2702 260.408 46.2728 260.408 47.4395C260.408 48.0957 260.303 48.7383 260.094 49.3672C259.884 49.987 259.583 50.6068 259.191 51.2266C258.809 51.8372 258.344 52.457 257.797 53.0859C257.25 53.7148 256.644 54.3665 255.979 55.041L252.52 58.9238H261.051ZM273.109 42.0527V62H269.172V46.5918L264.441 48.0957V44.9922L272.686 42.0527H273.109ZM292.988 50.2969V53.7422C292.988 55.237 292.829 56.5267 292.51 57.6113C292.191 58.6868 291.73 59.571 291.129 60.2637C290.536 60.9473 289.83 61.4531 289.01 61.7812C288.189 62.1094 287.278 62.2734 286.275 62.2734C285.473 62.2734 284.726 62.1732 284.033 61.9727C283.34 61.763 282.716 61.4395 282.16 61.002C281.613 60.5645 281.139 60.013 280.738 59.3477C280.346 58.6732 280.046 57.8711 279.836 56.9414C279.626 56.0117 279.521 54.9453 279.521 53.7422V50.2969C279.521 48.8021 279.681 47.5215 280 46.4551C280.328 45.3796 280.788 44.5 281.381 43.8164C281.982 43.1328 282.693 42.6315 283.514 42.3125C284.334 41.9844 285.245 41.8203 286.248 41.8203C287.05 41.8203 287.793 41.9251 288.477 42.1348C289.169 42.3353 289.794 42.6497 290.35 43.0781C290.906 43.5065 291.38 44.0579 291.771 44.7324C292.163 45.3978 292.464 46.1953 292.674 47.125C292.883 48.0456 292.988 49.1029 292.988 50.2969ZM289.037 54.2617V49.7637C289.037 49.0436 288.996 48.4147 288.914 47.877C288.841 47.3392 288.727 46.8835 288.572 46.5098C288.417 46.127 288.226 45.8171 287.998 45.5801C287.77 45.3431 287.51 45.1699 287.219 45.0605C286.927 44.9512 286.604 44.8965 286.248 44.8965C285.801 44.8965 285.405 44.9831 285.059 45.1562C284.721 45.3294 284.434 45.6074 284.197 45.9902C283.96 46.3639 283.778 46.8652 283.65 47.4941C283.532 48.1139 283.473 48.8704 283.473 49.7637V54.2617C283.473 54.9818 283.509 55.6152 283.582 56.1621C283.664 56.709 283.783 57.1784 283.938 57.5703C284.102 57.9531 284.293 58.2676 284.512 58.5137C284.74 58.7507 284.999 58.9238 285.291 59.0332C285.592 59.1426 285.92 59.1973 286.275 59.1973C286.713 59.1973 287.1 59.1107 287.438 58.9375C287.784 58.7552 288.076 58.4727 288.312 58.0898C288.559 57.6979 288.741 57.1875 288.859 56.5586C288.978 55.9297 289.037 55.1641 289.037 54.2617ZM298.457 59.0059H298.717C299.811 59.0059 300.749 58.8737 301.533 58.6094C302.326 58.3359 302.978 57.944 303.488 57.4336C303.999 56.9232 304.377 56.2988 304.623 55.5605C304.869 54.8132 304.992 53.9655 304.992 53.0176V49.2441C304.992 48.5241 304.919 47.8906 304.773 47.3438C304.637 46.7969 304.436 46.3457 304.172 45.9902C303.917 45.6257 303.616 45.3522 303.27 45.1699C302.932 44.9876 302.559 44.8965 302.148 44.8965C301.711 44.8965 301.324 45.0059 300.986 45.2246C300.649 45.4342 300.362 45.7214 300.125 46.0859C299.897 46.4505 299.719 46.8698 299.592 47.3438C299.473 47.8086 299.414 48.2962 299.414 48.8066C299.414 49.3171 299.473 49.8047 299.592 50.2695C299.71 50.7253 299.888 51.1309 300.125 51.4863C300.362 51.8327 300.658 52.1107 301.014 52.3203C301.369 52.5208 301.788 52.6211 302.271 52.6211C302.736 52.6211 303.151 52.5345 303.516 52.3613C303.889 52.179 304.204 51.9421 304.459 51.6504C304.723 51.3587 304.924 51.0352 305.061 50.6797C305.206 50.3242 305.279 49.9642 305.279 49.5996L306.578 50.3105C306.578 50.9486 306.441 51.5775 306.168 52.1973C305.895 52.8171 305.512 53.3822 305.02 53.8926C304.536 54.3939 303.976 54.7949 303.338 55.0957C302.7 55.3965 302.016 55.5469 301.287 55.5469C300.357 55.5469 299.533 55.3783 298.812 55.041C298.092 54.6947 297.482 54.2207 296.98 53.6191C296.488 53.0085 296.115 52.2975 295.859 51.4863C295.604 50.6751 295.477 49.7956 295.477 48.8477C295.477 47.8815 295.632 46.9746 295.941 46.127C296.26 45.2793 296.712 44.5319 297.295 43.8848C297.887 43.2376 298.594 42.7318 299.414 42.3672C300.243 41.9935 301.164 41.8066 302.176 41.8066C303.188 41.8066 304.108 42.0026 304.938 42.3945C305.767 42.7865 306.478 43.3424 307.07 44.0625C307.663 44.7734 308.118 45.6257 308.438 46.6191C308.766 47.6126 308.93 48.7155 308.93 49.9277V51.2949C308.93 52.5892 308.788 53.7923 308.506 54.9043C308.232 56.0163 307.818 57.0234 307.262 57.9258C306.715 58.819 306.031 59.5846 305.211 60.2227C304.4 60.8607 303.456 61.3483 302.381 61.6855C301.305 62.0228 300.102 62.1914 298.771 62.1914H298.457V59.0059Z" fill="#211F54"/>
<defs>
<filter id="filter0_d_1_37" x="0" y="0" width="92" height="92" filterUnits="userSpaceOnUse" color-interpolation-filters="sRGB">
<feFlood flood-opacity="0" result="BackgroundImageFix"/>
<feColorMatrix in="SourceAlpha" type="matrix" values="0 0 0 0 0 0 0 0 0 0 0 0 0 0 0 0 0 0 127 0" result="hardAlpha"/>
<feOffset dy="4"/>
<feGaussianBlur stdDeviation="5"/>
<feColorMatrix type="matrix" values="0 0 0 0 0.0784314 0 0 0 0 0.0784314 0 0 0 0 0.168627 0 0 0 0.04 0"/>
<feBlend mode="normal" in2="BackgroundImageFix" result="effect1_dropShadow_1_37"/>
<feBlend mode="normal" in="SourceGraphic" in2="effect1_dropShadow_1_37" result="shape"/>
</filter>
<clipPath id="clip0_1_37">
<rect width="72" height="72" fill="white" transform="translate(10 6)"/>
</clipPath>
</defs>
</svg>
