<svg width="438" height="51" viewBox="0 0 438 51" fill="none" xmlns="http://www.w3.org/2000/svg">
<rect x="388" y="0.4375" width="50" height="50" fill="#0075FF"/>
<path d="M6.31934 26.5088V17.6406H8.94727V26.5088C8.94727 27.3643 8.75977 28.0996 8.38477 28.7148C8.00977 29.3242 7.49707 29.793 6.84668 30.1211C6.20215 30.4492 5.47559 30.6133 4.66699 30.6133C3.8291 30.6133 3.08789 30.4727 2.44336 30.1914C1.79883 29.9102 1.29199 29.4795 0.922852 28.8994C0.553711 28.3135 0.369141 27.5723 0.369141 26.6758H3.01465C3.01465 27.1445 3.0791 27.5166 3.20801 27.792C3.34277 28.0674 3.5332 28.2637 3.7793 28.3809C4.02539 28.498 4.32129 28.5566 4.66699 28.5566C5.00098 28.5566 5.29102 28.4775 5.53711 28.3193C5.7832 28.1611 5.97363 27.9297 6.1084 27.625C6.24902 27.3203 6.31934 26.9482 6.31934 26.5088ZM16.1719 28.293V24.0566C16.1719 23.752 16.1221 23.4912 16.0225 23.2744C15.9229 23.0518 15.7676 22.8789 15.5566 22.7559C15.3516 22.6328 15.085 22.5713 14.7568 22.5713C14.4756 22.5713 14.2324 22.6211 14.0273 22.7207C13.8223 22.8145 13.6641 22.9521 13.5527 23.1338C13.4414 23.3096 13.3857 23.5176 13.3857 23.7578H10.8545C10.8545 23.3535 10.9482 22.9697 11.1357 22.6064C11.3232 22.2432 11.5957 21.9238 11.9531 21.6484C12.3105 21.3672 12.7354 21.1475 13.2275 20.9893C13.7256 20.8311 14.2822 20.752 14.8975 20.752C15.6357 20.752 16.292 20.875 16.8662 21.1211C17.4404 21.3672 17.8916 21.7363 18.2197 22.2285C18.5537 22.7207 18.7207 23.3359 18.7207 24.0742V28.1436C18.7207 28.665 18.7529 29.0928 18.8174 29.4268C18.8818 29.7549 18.9756 30.042 19.0986 30.2881V30.4375H16.541C16.418 30.1797 16.3242 29.8574 16.2598 29.4707C16.2012 29.0781 16.1719 28.6855 16.1719 28.293ZM16.5059 24.6455L16.5234 26.0781H15.1084C14.7744 26.0781 14.4844 26.1162 14.2383 26.1924C13.9922 26.2686 13.79 26.377 13.6318 26.5176C13.4736 26.6523 13.3564 26.8105 13.2803 26.9922C13.21 27.1738 13.1748 27.373 13.1748 27.5898C13.1748 27.8066 13.2246 28.0029 13.3242 28.1787C13.4238 28.3486 13.5674 28.4834 13.7549 28.583C13.9424 28.6768 14.1621 28.7236 14.4141 28.7236C14.7949 28.7236 15.126 28.6475 15.4072 28.4951C15.6885 28.3428 15.9053 28.1553 16.0576 27.9326C16.2158 27.71 16.2979 27.499 16.3037 27.2998L16.9717 28.3721C16.8779 28.6123 16.749 28.8613 16.585 29.1191C16.4268 29.377 16.2246 29.6201 15.9785 29.8486C15.7324 30.0713 15.4365 30.2559 15.0908 30.4023C14.7451 30.543 14.335 30.6133 13.8604 30.6133C13.2568 30.6133 12.709 30.4932 12.2168 30.2529C11.7305 30.0068 11.3438 29.6699 11.0566 29.2422C10.7754 28.8086 10.6348 28.3164 10.6348 27.7656C10.6348 27.2676 10.7285 26.8252 10.916 26.4385C11.1035 26.0518 11.3789 25.7266 11.7422 25.4629C12.1113 25.1934 12.5713 24.9912 13.1221 24.8564C13.6729 24.7158 14.3115 24.6455 15.0381 24.6455H16.5059ZM23.1504 22.958V30.4375H20.6191V20.9277H22.9922L23.1504 22.958ZM22.7812 25.3486H22.0957C22.0957 24.6455 22.1865 24.0127 22.3682 23.4502C22.5498 22.8818 22.8047 22.3984 23.1328 22C23.4609 21.5957 23.8506 21.2881 24.3018 21.0771C24.7588 20.8604 25.2686 20.752 25.8311 20.752C26.2764 20.752 26.6836 20.8164 27.0527 20.9453C27.4219 21.0742 27.7383 21.2793 28.002 21.5605C28.2715 21.8418 28.4766 22.2139 28.6172 22.6768C28.7637 23.1396 28.8369 23.7051 28.8369 24.373V30.4375H26.2881V24.3643C26.2881 23.9424 26.2295 23.6143 26.1123 23.3799C25.9951 23.1455 25.8223 22.9814 25.5938 22.8877C25.3711 22.7881 25.0957 22.7383 24.7676 22.7383C24.4277 22.7383 24.1318 22.8057 23.8799 22.9404C23.6338 23.0752 23.4287 23.2627 23.2646 23.5029C23.1064 23.7373 22.9863 24.0127 22.9043 24.3291C22.8223 24.6455 22.7812 24.9854 22.7812 25.3486ZM43.8926 28.46V30.4375H35.1387V28.75L39.2783 24.3115C39.6943 23.8486 40.0225 23.4414 40.2627 23.0898C40.5029 22.7324 40.6758 22.4131 40.7812 22.1318C40.8926 21.8447 40.9482 21.5723 40.9482 21.3145C40.9482 20.9277 40.8838 20.5967 40.7549 20.3213C40.626 20.04 40.4355 19.8232 40.1836 19.6709C39.9375 19.5186 39.6328 19.4424 39.2695 19.4424C38.8828 19.4424 38.5488 19.5361 38.2676 19.7236C37.9922 19.9111 37.7812 20.1719 37.6348 20.5059C37.4941 20.8398 37.4238 21.2178 37.4238 21.6396H34.8838C34.8838 20.8779 35.0654 20.1807 35.4287 19.5479C35.792 18.9092 36.3047 18.4023 36.9668 18.0273C37.6289 17.6465 38.4141 17.4561 39.3223 17.4561C40.2188 17.4561 40.9746 17.6025 41.5898 17.8955C42.2109 18.1826 42.6797 18.5986 42.9961 19.1436C43.3184 19.6826 43.4795 20.3271 43.4795 21.0771C43.4795 21.499 43.4121 21.9121 43.2773 22.3164C43.1426 22.7148 42.9492 23.1133 42.6973 23.5117C42.4512 23.9043 42.1523 24.3027 41.8008 24.707C41.4492 25.1113 41.0596 25.5303 40.6318 25.9639L38.4082 28.46H43.8926ZM54.0967 26.9307C54.0967 27.7334 53.9092 28.4102 53.5342 28.9609C53.1592 29.5059 52.6436 29.9189 51.9873 30.2002C51.3369 30.4756 50.5986 30.6133 49.7725 30.6133C48.9463 30.6133 48.2051 30.4756 47.5488 30.2002C46.8926 29.9189 46.374 29.5059 45.9932 28.9609C45.6123 28.4102 45.4219 27.7334 45.4219 26.9307C45.4219 26.3916 45.5303 25.9053 45.7471 25.4717C45.9639 25.0322 46.2656 24.6572 46.6523 24.3467C47.0449 24.0303 47.5049 23.79 48.0322 23.626C48.5596 23.4561 49.1338 23.3711 49.7549 23.3711C50.5869 23.3711 51.3311 23.5176 51.9873 23.8105C52.6436 24.1035 53.1592 24.5166 53.5342 25.0498C53.9092 25.583 54.0967 26.21 54.0967 26.9307ZM51.5479 26.7637C51.5479 26.3711 51.4717 26.0342 51.3193 25.7529C51.1729 25.4658 50.9648 25.2461 50.6953 25.0938C50.4258 24.9414 50.1123 24.8652 49.7549 24.8652C49.3975 24.8652 49.084 24.9414 48.8145 25.0938C48.5449 25.2461 48.334 25.4658 48.1816 25.7529C48.0352 26.0342 47.9619 26.3711 47.9619 26.7637C47.9619 27.1504 48.0352 27.4844 48.1816 27.7656C48.334 28.0469 48.5449 28.2637 48.8145 28.416C49.0898 28.5625 49.4092 28.6357 49.7725 28.6357C50.1357 28.6357 50.4492 28.5625 50.7129 28.416C50.9824 28.2637 51.1875 28.0469 51.3281 27.7656C51.4746 27.4844 51.5479 27.1504 51.5479 26.7637ZM53.8242 21.0332C53.8242 21.6836 53.6514 22.2607 53.3057 22.7646C52.96 23.2627 52.4795 23.6523 51.8643 23.9336C51.2549 24.2148 50.5576 24.3555 49.7725 24.3555C48.9814 24.3555 48.2783 24.2148 47.6631 23.9336C47.0479 23.6523 46.5674 23.2627 46.2217 22.7646C45.876 22.2607 45.7031 21.6836 45.7031 21.0332C45.7031 20.2598 45.876 19.6094 46.2217 19.082C46.5732 18.5488 47.0537 18.1445 47.6631 17.8691C48.2783 17.5938 48.9756 17.4561 49.7549 17.4561C50.5459 17.4561 51.2461 17.5938 51.8555 17.8691C52.4707 18.1445 52.9512 18.5488 53.2969 19.082C53.6484 19.6094 53.8242 20.2598 53.8242 21.0332ZM51.293 21.1475C51.293 20.8018 51.2314 20.5029 51.1084 20.251C50.9854 19.9932 50.8096 19.7939 50.5811 19.6533C50.3584 19.5127 50.083 19.4424 49.7549 19.4424C49.4385 19.4424 49.166 19.5098 48.9375 19.6445C48.7148 19.7793 48.542 19.9756 48.4189 20.2334C48.3018 20.4854 48.2432 20.79 48.2432 21.1475C48.2432 21.4932 48.3018 21.7979 48.4189 22.0615C48.542 22.3193 48.7178 22.5215 48.9463 22.668C49.1748 22.8145 49.4502 22.8877 49.7725 22.8877C50.0947 22.8877 50.3672 22.8145 50.5898 22.668C50.8184 22.5215 50.9912 22.3193 51.1084 22.0615C51.2314 21.7979 51.293 21.4932 51.293 21.1475ZM58.3154 28.3018L58.3066 29.998C58.3066 30.6484 58.1426 31.3047 57.8145 31.9668C57.4922 32.6289 57.082 33.1709 56.584 33.5928L55.2656 32.916C55.4121 32.6465 55.5557 32.377 55.6963 32.1074C55.8369 31.8379 55.9541 31.542 56.0479 31.2197C56.1416 30.8975 56.1885 30.5312 56.1885 30.1211V28.3018H58.3154ZM73.4766 28.46V30.4375H64.7227V28.75L68.8623 24.3115C69.2783 23.8486 69.6064 23.4414 69.8467 23.0898C70.0869 22.7324 70.2598 22.4131 70.3652 22.1318C70.4766 21.8447 70.5322 21.5723 70.5322 21.3145C70.5322 20.9277 70.4678 20.5967 70.3389 20.3213C70.21 20.04 70.0195 19.8232 69.7676 19.6709C69.5215 19.5186 69.2168 19.4424 68.8535 19.4424C68.4668 19.4424 68.1328 19.5361 67.8516 19.7236C67.5762 19.9111 67.3652 20.1719 67.2188 20.5059C67.0781 20.8398 67.0078 21.2178 67.0078 21.6396H64.4678C64.4678 20.8779 64.6494 20.1807 65.0127 19.5479C65.376 18.9092 65.8887 18.4023 66.5508 18.0273C67.2129 17.6465 67.998 17.4561 68.9062 17.4561C69.8027 17.4561 70.5586 17.6025 71.1738 17.8955C71.7949 18.1826 72.2637 18.5986 72.5801 19.1436C72.9023 19.6826 73.0635 20.3271 73.0635 21.0771C73.0635 21.499 72.9961 21.9121 72.8613 22.3164C72.7266 22.7148 72.5332 23.1133 72.2812 23.5117C72.0352 23.9043 71.7363 24.3027 71.3848 24.707C71.0332 25.1113 70.6436 25.5303 70.2158 25.9639L67.9922 28.46H73.4766ZM83.6719 22.9141V25.1289C83.6719 26.0898 83.5693 26.9189 83.3643 27.6162C83.1592 28.3076 82.8633 28.876 82.4766 29.3213C82.0957 29.7607 81.6416 30.0859 81.1143 30.2969C80.5869 30.5078 80.001 30.6133 79.3564 30.6133C78.8408 30.6133 78.3604 30.5488 77.915 30.4199C77.4697 30.2852 77.0684 30.0771 76.7109 29.7959C76.3594 29.5146 76.0547 29.1602 75.7969 28.7324C75.5449 28.2988 75.3516 27.7832 75.2168 27.1855C75.082 26.5879 75.0146 25.9023 75.0146 25.1289V22.9141C75.0146 21.9531 75.1172 21.1299 75.3223 20.4443C75.5332 19.7529 75.8291 19.1875 76.21 18.748C76.5967 18.3086 77.0537 17.9863 77.5811 17.7812C78.1084 17.5703 78.6943 17.4648 79.3389 17.4648C79.8545 17.4648 80.332 17.5322 80.7715 17.667C81.2168 17.7959 81.6182 17.998 81.9756 18.2734C82.333 18.5488 82.6377 18.9033 82.8896 19.3369C83.1416 19.7646 83.335 20.2773 83.4697 20.875C83.6045 21.4668 83.6719 22.1465 83.6719 22.9141ZM81.1318 25.4629V22.5713C81.1318 22.1084 81.1055 21.7041 81.0527 21.3584C81.0059 21.0127 80.9326 20.7197 80.833 20.4795C80.7334 20.2334 80.6104 20.0342 80.4639 19.8818C80.3174 19.7295 80.1504 19.6182 79.9629 19.5479C79.7754 19.4775 79.5674 19.4424 79.3389 19.4424C79.0518 19.4424 78.7969 19.498 78.5742 19.6094C78.3574 19.7207 78.1729 19.8994 78.0205 20.1455C77.8682 20.3857 77.751 20.708 77.6689 21.1123C77.5928 21.5107 77.5547 21.9971 77.5547 22.5713V25.4629C77.5547 25.9258 77.5781 26.333 77.625 26.6846C77.6777 27.0361 77.7539 27.3379 77.8535 27.5898C77.959 27.8359 78.082 28.0381 78.2227 28.1963C78.3691 28.3486 78.5361 28.46 78.7236 28.5303C78.917 28.6006 79.1279 28.6357 79.3564 28.6357C79.6377 28.6357 79.8867 28.5801 80.1035 28.4688C80.3262 28.3516 80.5137 28.1699 80.666 27.9238C80.8242 27.6719 80.9414 27.3438 81.0176 26.9395C81.0938 26.5352 81.1318 26.043 81.1318 25.4629ZM94.1484 28.46V30.4375H85.3945V28.75L89.5342 24.3115C89.9502 23.8486 90.2783 23.4414 90.5186 23.0898C90.7588 22.7324 90.9316 22.4131 91.0371 22.1318C91.1484 21.8447 91.2041 21.5723 91.2041 21.3145C91.2041 20.9277 91.1396 20.5967 91.0107 20.3213C90.8818 20.04 90.6914 19.8232 90.4395 19.6709C90.1934 19.5186 89.8887 19.4424 89.5254 19.4424C89.1387 19.4424 88.8047 19.5361 88.5234 19.7236C88.248 19.9111 88.0371 20.1719 87.8906 20.5059C87.75 20.8398 87.6797 21.2178 87.6797 21.6396H85.1396C85.1396 20.8779 85.3213 20.1807 85.6846 19.5479C86.0479 18.9092 86.5605 18.4023 87.2227 18.0273C87.8848 17.6465 88.6699 17.4561 89.5781 17.4561C90.4746 17.4561 91.2305 17.6025 91.8457 17.8955C92.4668 18.1826 92.9355 18.5986 93.252 19.1436C93.5742 19.6826 93.7354 20.3271 93.7354 21.0771C93.7354 21.499 93.668 21.9121 93.5332 22.3164C93.3984 22.7148 93.2051 23.1133 92.9531 23.5117C92.707 23.9043 92.4082 24.3027 92.0566 24.707C91.7051 25.1113 91.3154 25.5303 90.8877 25.9639L88.6641 28.46H94.1484ZM104.484 28.46V30.4375H95.7305V28.75L99.8701 24.3115C100.286 23.8486 100.614 23.4414 100.854 23.0898C101.095 22.7324 101.268 22.4131 101.373 22.1318C101.484 21.8447 101.54 21.5723 101.54 21.3145C101.54 20.9277 101.476 20.5967 101.347 20.3213C101.218 20.04 101.027 19.8232 100.775 19.6709C100.529 19.5186 100.225 19.4424 99.8613 19.4424C99.4746 19.4424 99.1406 19.5361 98.8594 19.7236C98.584 19.9111 98.373 20.1719 98.2266 20.5059C98.0859 20.8398 98.0156 21.2178 98.0156 21.6396H95.4756C95.4756 20.8779 95.6572 20.1807 96.0205 19.5479C96.3838 18.9092 96.8965 18.4023 97.5586 18.0273C98.2207 17.6465 99.0059 17.4561 99.9141 17.4561C100.811 17.4561 101.566 17.6025 102.182 17.8955C102.803 18.1826 103.271 18.5986 103.588 19.1436C103.91 19.6826 104.071 20.3271 104.071 21.0771C104.071 21.499 104.004 21.9121 103.869 22.3164C103.734 22.7148 103.541 23.1133 103.289 23.5117C103.043 23.9043 102.744 24.3027 102.393 24.707C102.041 25.1113 101.651 25.5303 101.224 25.9639L99 28.46H104.484Z" fill="#211F54"/>
</svg>
