<svg width="161" height="71" viewBox="0 0 161 71" fill="none" xmlns="http://www.w3.org/2000/svg">
<path d="M1.71339 59.56V57.272C2.09472 57.272 2.39806 57.1745 2.62339 56.9795C2.84872 56.7845 3.01989 56.5267 3.13689 56.206C3.25389 55.881 3.34056 55.5235 3.39689 55.1335C3.45756 54.7435 3.50739 54.3513 3.54639 53.957C3.61139 53.3677 3.66339 52.8 3.70239 52.254C3.74139 51.708 3.77389 51.1447 3.79989 50.564C3.83022 49.979 3.86272 49.3377 3.89739 48.64H9.55889V57.272H10.2219V59.56H9.46789V58H2.46089V59.56H1.71339ZM3.33189 57.272H8.81139V49.368H4.61239C4.58639 49.9183 4.55822 50.46 4.52789 50.993C4.50189 51.5217 4.46939 52.0547 4.43039 52.592C4.39139 53.125 4.34372 53.6753 4.28739 54.243C4.23539 54.75 4.17472 55.2007 4.10539 55.595C4.04039 55.985 3.94722 56.3208 3.82589 56.6025C3.70456 56.8798 3.53989 57.103 3.33189 57.272ZM11.0071 58V57.324C11.2714 57.3717 11.4707 57.3587 11.6051 57.285C11.7394 57.207 11.8369 57.0813 11.8976 56.908C11.9626 56.7303 12.0146 56.5158 12.0536 56.2645C12.1272 55.8312 12.1922 55.3588 12.2486 54.8475C12.3049 54.3318 12.3569 53.7577 12.4046 53.125C12.4522 52.488 12.4999 51.773 12.5476 50.98H17.1951V58H16.4411V51.708H13.2756C13.2409 52.228 13.2019 52.7328 13.1586 53.2225C13.1196 53.7122 13.0762 54.178 13.0286 54.62C12.9852 55.0577 12.9376 55.4585 12.8856 55.8225C12.8379 56.1822 12.7859 56.4942 12.7296 56.7585C12.6646 57.1052 12.5757 57.3847 12.4631 57.597C12.3547 57.805 12.1879 57.9437 11.9626 58.013C11.7372 58.0823 11.4187 58.078 11.0071 58ZM23.4924 58V55.257H21.7179C21.5229 55.257 21.33 55.2483 21.1394 55.231C20.953 55.2093 20.7775 55.1833 20.6129 55.153C20.1362 55.062 19.7267 54.854 19.3844 54.529C19.0464 54.1997 18.8774 53.7382 18.8774 53.1445C18.8774 52.5725 19.0334 52.1132 19.3454 51.7665C19.6617 51.4198 20.0322 51.1923 20.4569 51.084C20.6605 51.032 20.8642 51.0017 21.0679 50.993C21.2759 50.9843 21.4579 50.98 21.6139 50.98H24.2399L24.2529 58H23.4924ZM18.6304 58L20.6844 54.9645H21.5489L19.4819 58H18.6304ZM21.7114 54.5745H23.4924V51.6625H21.7114C21.5944 51.6625 21.4319 51.6668 21.2239 51.6755C21.0159 51.6842 20.823 51.7167 20.6454 51.773C20.4937 51.8163 20.342 51.8943 20.1904 52.007C20.0387 52.1153 19.913 52.2627 19.8134 52.449C19.7137 52.6353 19.6639 52.8628 19.6639 53.1315C19.6639 53.5085 19.7657 53.8097 19.9694 54.035C20.173 54.256 20.4309 54.4055 20.7429 54.4835C20.9205 54.5268 21.0939 54.5528 21.2629 54.5615C21.4362 54.5702 21.5857 54.5745 21.7114 54.5745ZM28.6815 58V50.98H29.4355V54.36L32.757 50.98H33.8035L30.326 54.49L34.2975 58H33.134L29.4355 54.62V58H28.6815ZM36.981 58.195C36.4393 58.195 35.9886 58.0997 35.629 57.909C35.2736 57.7183 35.0071 57.467 34.8295 57.155C34.6518 56.8387 34.563 56.4963 34.563 56.128C34.563 55.7293 34.6453 55.3957 34.81 55.127C34.979 54.8583 35.2021 54.6417 35.4795 54.477C35.7611 54.3123 36.071 54.1888 36.409 54.1065C36.7946 54.0198 37.2106 53.9462 37.657 53.8855C38.1033 53.8205 38.528 53.7642 38.931 53.7165C39.3383 53.6688 39.6698 53.6277 39.9255 53.593L39.6525 53.7555C39.6698 52.9972 39.5268 52.4338 39.2235 52.0655C38.9245 51.6928 38.3958 51.5065 37.6375 51.5065C37.1045 51.5065 36.6646 51.6278 36.318 51.8705C35.9756 52.1088 35.7351 52.4793 35.5965 52.982L34.8295 52.7675C34.9898 52.1305 35.3126 51.6408 35.798 51.2985C36.2833 50.9562 36.9051 50.785 37.6635 50.785C38.3091 50.785 38.8508 50.9107 39.2885 51.162C39.7305 51.4133 40.0381 51.7665 40.2115 52.2215C40.2851 52.4078 40.335 52.6267 40.361 52.878C40.387 53.125 40.4 53.3742 40.4 53.6255V58H39.7175V56.154L39.971 56.219C39.7586 56.8517 39.3881 57.3392 38.8595 57.6815C38.3308 58.0238 37.7046 58.195 36.981 58.195ZM37.02 57.506C37.4966 57.506 37.9148 57.4215 38.2745 57.2525C38.6341 57.0792 38.9245 56.8387 39.1455 56.531C39.3708 56.219 39.5138 55.8528 39.5745 55.4325C39.6178 55.1985 39.6416 54.945 39.646 54.672C39.6503 54.399 39.6525 54.1975 39.6525 54.0675L39.9775 54.2755C39.6958 54.3102 39.3578 54.347 38.9635 54.386C38.5735 54.425 38.1748 54.4727 37.7675 54.529C37.3601 54.5853 36.9918 54.6568 36.6625 54.7435C36.4588 54.7998 36.253 54.8822 36.045 54.9905C35.8413 55.0945 35.6701 55.2397 35.5315 55.426C35.3971 55.6123 35.33 55.8485 35.33 56.1345C35.33 56.3468 35.382 56.5592 35.486 56.7715C35.5943 56.9838 35.772 57.1593 36.019 57.298C36.266 57.4367 36.5996 57.506 37.02 57.506ZM46.4492 58V55.3025C46.2196 55.4195 45.9271 55.5257 45.5717 55.621C45.2207 55.712 44.8394 55.7575 44.4277 55.7575C43.7214 55.7575 43.1451 55.6015 42.6987 55.2895C42.2524 54.9732 41.9599 54.5203 41.8212 53.931C41.7822 53.749 41.7541 53.5583 41.7367 53.359C41.7194 53.1597 41.7086 52.9798 41.7042 52.8195C41.6999 52.6548 41.6977 52.54 41.6977 52.475V50.98H42.4517V52.475C42.4517 52.6353 42.4561 52.8065 42.4647 52.9885C42.4734 53.1705 42.4929 53.3438 42.5232 53.5085C42.6099 54.0242 42.8201 54.4185 43.1537 54.6915C43.4917 54.9602 43.9619 55.0945 44.5642 55.0945C44.9239 55.0945 45.2706 55.049 45.6042 54.958C45.9379 54.867 46.2196 54.7413 46.4492 54.581V50.98H47.2032V58H46.4492ZM51.9119 58.195C51.2402 58.195 50.6595 58.0455 50.1699 57.7465C49.6802 57.4432 49.301 57.0163 49.0324 56.466C48.7637 55.9113 48.6294 55.257 48.6294 54.503C48.6294 53.736 48.7615 53.0752 49.0259 52.5205C49.2945 51.9615 49.6715 51.5325 50.1569 51.2335C50.6465 50.9345 51.2272 50.785 51.8989 50.785C52.5792 50.785 53.1599 50.941 53.6409 51.253C54.1262 51.5607 54.4945 52.007 54.7459 52.592C55.0015 53.177 55.1229 53.8812 55.1099 54.7045H54.3299V54.4445C54.3082 53.4825 54.0915 52.7502 53.6799 52.2475C53.2682 51.7448 52.6789 51.4935 51.9119 51.4935C51.1189 51.4935 50.5057 51.7557 50.0724 52.28C49.6434 52.8 49.4289 53.5367 49.4289 54.49C49.4289 55.4347 49.6434 56.167 50.0724 56.687C50.5057 57.207 51.1145 57.467 51.8989 57.467C52.4405 57.467 52.9129 57.3413 53.3159 57.09C53.7232 56.8343 54.046 56.4703 54.2844 55.998L54.9604 56.297C54.6787 56.9037 54.2714 57.3717 53.7384 57.701C53.2054 58.0303 52.5965 58.195 51.9119 58.195ZM49.1429 54.7045V54.0285H54.6874V54.7045H49.1429ZM59.4142 58.195C58.7122 58.195 58.1207 58.039 57.6397 57.727C57.1587 57.4107 56.7925 56.9752 56.5412 56.4205C56.2942 55.8615 56.1664 55.218 56.1577 54.49C56.1664 53.749 56.2964 53.1012 56.5477 52.5465C56.8034 51.9875 57.1717 51.5542 57.6527 51.2465C58.1337 50.9388 58.723 50.785 59.4207 50.785C60.101 50.785 60.699 50.9497 61.2147 51.279C61.7347 51.604 62.0944 52.0525 62.2937 52.6245L61.5657 52.891C61.388 52.4533 61.1085 52.1153 60.7272 51.877C60.3459 51.6343 59.9082 51.513 59.4142 51.513C58.8595 51.513 58.4024 51.6408 58.0427 51.8965C57.683 52.1478 57.4144 52.4967 57.2367 52.943C57.059 53.3893 56.9659 53.905 56.9572 54.49C56.9702 55.387 57.1804 56.1085 57.5877 56.6545C57.9994 57.1962 58.6082 57.467 59.4142 57.467C59.9125 57.467 60.3437 57.3522 60.7077 57.1225C61.076 56.8928 61.3577 56.5592 61.5527 56.1215L62.2937 56.375C62.0207 56.9687 61.6394 57.4215 61.1497 57.7335C60.66 58.0412 60.0815 58.195 59.4142 58.195ZM65.3978 58V51.695H62.8563V50.98H68.6868V51.695H66.1453V58H65.3978ZM69.9159 58V50.98H72.7044C72.8257 50.98 72.9925 50.9887 73.2049 51.006C73.4215 51.019 73.6274 51.0515 73.8224 51.1035C74.234 51.2075 74.5547 51.4242 74.7844 51.7535C75.0184 52.0828 75.1354 52.4663 75.1354 52.904C75.1354 53.138 75.1007 53.3547 75.0314 53.554C74.9664 53.749 74.8667 53.9223 74.7324 54.074C74.6717 54.1477 74.6024 54.2148 74.5244 54.2755C74.4464 54.3318 74.3705 54.3773 74.2969 54.412C74.4269 54.438 74.5742 54.5052 74.7389 54.6135C74.9902 54.7695 75.1765 54.9753 75.2979 55.231C75.4192 55.4867 75.4799 55.7813 75.4799 56.115C75.4799 56.596 75.3629 56.986 75.1289 57.285C74.8992 57.584 74.6002 57.7855 74.2319 57.8895C74.0542 57.9415 73.8657 57.974 73.6664 57.987C73.467 57.9957 73.285 58 73.1204 58H69.9159ZM70.6699 57.324H73.1009C73.1919 57.324 73.311 57.3175 73.4584 57.3045C73.6057 57.2872 73.7357 57.2655 73.8484 57.2395C74.143 57.1702 74.3554 57.0293 74.4854 56.817C74.6197 56.6003 74.6869 56.362 74.6869 56.102C74.6869 55.7597 74.585 55.4802 74.3814 55.2635C74.1777 55.0425 73.9004 54.9103 73.5494 54.867C73.4497 54.8497 73.3435 54.841 73.2309 54.841C73.1225 54.8367 73.0207 54.8345 72.9254 54.8345H70.6699V57.324ZM70.6699 54.152H72.8539C72.9579 54.152 73.0814 54.1455 73.2244 54.1325C73.3674 54.1152 73.4952 54.087 73.6079 54.048C73.8592 53.9613 74.0455 53.814 74.1669 53.606C74.2882 53.3937 74.3489 53.1662 74.3489 52.9235C74.3489 52.6505 74.2839 52.4143 74.1539 52.215C74.0239 52.0113 73.8354 51.8662 73.5884 51.7795C73.415 51.7232 73.233 51.6907 73.0424 51.682C72.856 51.669 72.739 51.6625 72.6914 51.6625H70.6699V54.152ZM79.6765 58.195C79.0049 58.195 78.4242 58.0455 77.9345 57.7465C77.4449 57.4432 77.0657 57.0163 76.797 56.466C76.5284 55.9113 76.394 55.257 76.394 54.503C76.394 53.736 76.5262 53.0752 76.7905 52.5205C77.0592 51.9615 77.4362 51.5325 77.9215 51.2335C78.4112 50.9345 78.9919 50.785 79.6635 50.785C80.3439 50.785 80.9245 50.941 81.4055 51.253C81.8909 51.5607 82.2592 52.007 82.5105 52.592C82.7662 53.177 82.8875 53.8812 82.8745 54.7045H82.0945V54.4445C82.0729 53.4825 81.8562 52.7502 81.4445 52.2475C81.0329 51.7448 80.4435 51.4935 79.6765 51.4935C78.8835 51.4935 78.2704 51.7557 77.837 52.28C77.408 52.8 77.1935 53.5367 77.1935 54.49C77.1935 55.4347 77.408 56.167 77.837 56.687C78.2704 57.207 78.8792 57.467 79.6635 57.467C80.2052 57.467 80.6775 57.3413 81.0805 57.09C81.4879 56.8343 81.8107 56.4703 82.049 55.998L82.725 56.297C82.4434 56.9037 82.036 57.3717 81.503 57.701C80.97 58.0303 80.3612 58.195 79.6765 58.195ZM76.9075 54.7045V54.0285H82.452V54.7045H76.9075ZM84.3123 58V50.98H85.0598V54.126H89.2913V50.98H90.0388V58H89.2913V54.854H85.0598V58H84.3123ZM91.8534 58V50.98H92.6009V54.126H96.8324V50.98H97.5799V58H96.8324V54.854H92.6009V58H91.8534ZM102.274 58.195C101.576 58.195 100.985 58.0368 100.499 57.7205C100.014 57.4042 99.6435 56.9665 99.3879 56.4075C99.1322 55.8485 99.0044 55.205 99.0044 54.477C99.0044 53.7447 99.1344 53.1012 99.3944 52.5465C99.6544 51.9875 100.027 51.5542 100.512 51.2465C101.002 50.9388 101.589 50.785 102.274 50.785C102.972 50.785 103.563 50.9432 104.048 51.2595C104.538 51.5715 104.909 52.0048 105.16 52.5595C105.416 53.1142 105.543 53.7533 105.543 54.477C105.543 55.218 105.416 55.868 105.16 56.427C104.904 56.9817 104.532 57.415 104.042 57.727C103.552 58.039 102.963 58.195 102.274 58.195ZM102.274 57.467C103.102 57.467 103.719 57.1897 104.126 56.635C104.538 56.0803 104.744 55.361 104.744 54.477C104.744 53.5757 104.538 52.8563 104.126 52.319C103.715 51.7817 103.097 51.513 102.274 51.513C101.715 51.513 101.253 51.6408 100.889 51.8965C100.525 52.1478 100.252 52.4967 100.07 52.943C99.8927 53.385 99.8039 53.8963 99.8039 54.477C99.8039 55.3783 100.012 56.102 100.428 56.648C100.848 57.194 101.464 57.467 102.274 57.467ZM109.775 50.135C109.485 50.135 109.218 50.0635 108.975 49.9205C108.737 49.7775 108.546 49.5868 108.403 49.3485C108.265 49.1102 108.195 48.8458 108.195 48.5555H108.845C108.845 48.8068 108.936 49.0257 109.118 49.212C109.305 49.394 109.524 49.485 109.775 49.485C110.035 49.485 110.254 49.394 110.431 49.212C110.613 49.0257 110.704 48.8068 110.704 48.5555H111.354C111.354 48.8458 111.283 49.1102 111.14 49.3485C111.001 49.5868 110.811 49.7775 110.568 49.9205C110.33 50.0635 110.065 50.135 109.775 50.135ZM112.381 50.98V58H111.647V52.2345L107.63 58H106.973V50.98H107.708V56.7195L111.725 50.98H112.381ZM117.827 61.12L119.192 57.4475L119.205 58.5395L116.13 50.98H116.93L119.569 57.545H119.153L121.551 50.98H122.338L118.607 61.12H117.827ZM126.297 58.195C125.643 58.195 125.082 58.0563 124.614 57.779C124.146 57.5017 123.784 57.0792 123.528 56.5115C123.273 55.9395 123.141 55.2137 123.132 54.334C123.123 53.9657 123.136 53.567 123.171 53.138C123.206 52.709 123.253 52.3038 123.314 51.9225C123.379 51.5412 123.448 51.2378 123.522 51.0125C123.626 50.6832 123.782 50.3777 123.99 50.096C124.202 49.81 124.451 49.576 124.737 49.394C124.997 49.2207 125.299 49.0842 125.641 48.9845C125.983 48.8848 126.341 48.8068 126.713 48.7505C127.086 48.6898 127.45 48.64 127.805 48.601C128.161 48.5577 128.484 48.5057 128.774 48.445L128.865 49.1405C128.631 49.1838 128.349 49.2272 128.02 49.2705C127.691 49.3095 127.346 49.3593 126.986 49.42C126.627 49.4763 126.282 49.5522 125.953 49.6475C125.624 49.7428 125.342 49.8642 125.108 50.0115C124.744 50.2325 124.464 50.5705 124.269 51.0255C124.074 51.4805 123.953 52.0113 123.905 52.618C124.174 52.189 124.538 51.8597 124.997 51.63C125.457 51.4003 125.964 51.2855 126.518 51.2855C127.151 51.2855 127.697 51.4307 128.156 51.721C128.62 52.0113 128.975 52.4165 129.222 52.9365C129.474 53.4522 129.599 54.0545 129.599 54.7435C129.599 55.4412 129.467 56.05 129.203 56.57C128.939 57.0857 128.559 57.4865 128.065 57.7725C127.571 58.0585 126.982 58.1993 126.297 58.195ZM126.362 57.467C127.16 57.467 127.764 57.22 128.176 56.726C128.592 56.2277 128.8 55.5668 128.8 54.7435C128.8 53.8985 128.585 53.2333 128.156 52.748C127.727 52.2627 127.125 52.02 126.349 52.02C125.574 52.02 124.976 52.2627 124.555 52.748C124.139 53.2333 123.931 53.8985 123.931 54.7435C123.931 55.5842 124.139 56.2493 124.555 56.739C124.971 57.2243 125.574 57.467 126.362 57.467ZM133.911 58.195C133.213 58.195 132.621 58.0368 132.136 57.7205C131.651 57.4042 131.28 56.9665 131.025 56.4075C130.769 55.8485 130.641 55.205 130.641 54.477C130.641 53.7447 130.771 53.1012 131.031 52.5465C131.291 51.9875 131.664 51.5542 132.149 51.2465C132.639 50.9388 133.226 50.785 133.911 50.785C134.608 50.785 135.2 50.9432 135.685 51.2595C136.175 51.5715 136.545 52.0048 136.797 52.5595C137.052 53.1142 137.18 53.7533 137.18 54.477C137.18 55.218 137.052 55.868 136.797 56.427C136.541 56.9817 136.168 57.415 135.679 57.727C135.189 58.039 134.6 58.195 133.911 58.195ZM133.911 57.467C134.738 57.467 135.356 57.1897 135.763 56.635C136.175 56.0803 136.381 55.361 136.381 54.477C136.381 53.5757 136.175 52.8563 135.763 52.319C135.351 51.7817 134.734 51.513 133.911 51.513C133.352 51.513 132.89 51.6408 132.526 51.8965C132.162 52.1478 131.889 52.4967 131.707 52.943C131.529 53.385 131.441 53.8963 131.441 54.477C131.441 55.3783 131.649 56.102 132.065 56.648C132.485 57.194 133.1 57.467 133.911 57.467ZM141.685 58.195C141.052 58.195 140.517 58.0303 140.079 57.701C139.642 57.3717 139.308 56.9275 139.078 56.3685C138.849 55.8095 138.734 55.179 138.734 54.477C138.734 53.7707 138.849 53.1402 139.078 52.5855C139.308 52.0265 139.648 51.5867 140.099 51.266C140.549 50.9453 141.102 50.785 141.756 50.785C142.393 50.785 142.937 50.9475 143.388 51.2725C143.838 51.5975 144.181 52.0395 144.415 52.5985C144.653 53.1575 144.772 53.7837 144.772 54.477C144.772 55.179 144.651 55.8117 144.408 56.375C144.17 56.934 143.821 57.3782 143.362 57.7075C142.907 58.0325 142.348 58.195 141.685 58.195ZM138.61 61.12V50.98H139.293V56.388H139.358V61.12H138.61ZM141.639 57.48C142.155 57.48 142.584 57.3478 142.926 57.0835C143.273 56.8192 143.533 56.4617 143.706 56.011C143.884 55.556 143.973 55.0447 143.973 54.477C143.973 53.9137 143.886 53.4088 143.713 52.9625C143.544 52.5118 143.286 52.1565 142.939 51.8965C142.597 51.6322 142.159 51.5 141.626 51.5C141.111 51.5 140.679 51.6278 140.333 51.8835C139.986 52.1348 139.726 52.4858 139.553 52.9365C139.379 53.3872 139.293 53.9007 139.293 54.477C139.293 55.049 139.377 55.5625 139.546 56.0175C139.72 56.4682 139.98 56.8257 140.326 57.09C140.677 57.35 141.115 57.48 141.639 57.48ZM146.202 58V50.98H146.956V54.36L150.277 50.98H151.324L147.846 54.49L151.818 58H150.654L146.956 54.62V58H146.202ZM157.881 50.98V58H157.147V52.2345L153.13 58H152.473V50.98H153.208V56.7195L157.225 50.98H157.881Z" fill="#419456"/>
<path d="M49.0835 68.5278L51.7403 70.6338L49.0835 68.5278Z" fill="#419456"/>
<path d="M15.5258 28.0521C15.5451 29.261 15.4677 30.4695 15.2944 31.6661C15.1533 32.5241 14.8633 33.3509 14.4373 34.1096C13.8441 35.2627 12.9268 36.2186 11.7976 36.8607C10.6053 37.5277 9.25651 37.8668 7.88947 37.8432C6.80543 37.8538 5.7288 37.664 4.71411 37.2836C3.79209 36.9321 2.94567 36.4087 2.2201 35.7414C1.51322 35.0814 0.955226 34.2791 0.58314 33.3877C0.188758 32.4402 -0.00947426 31.4231 0.000347934 30.3974C-0.00670289 29.6181 0.0957079 28.8416 0.3046 28.0906C0.485136 27.4334 0.774828 26.8111 1.16165 26.2494C1.50888 25.7447 1.96404 25.3231 2.49436 25.0148C3.01733 24.7227 3.60911 24.5753 4.20845 24.5877C4.57117 24.5786 4.93204 24.642 5.26983 24.7741C5.60762 24.9061 5.9155 25.1042 6.17537 25.3566C6.43499 25.6067 6.63954 25.9078 6.77603 26.241C6.91251 26.5742 6.97794 26.932 6.96814 27.2917C6.97414 27.5751 6.90935 27.8555 6.77959 28.1077C6.65532 28.3426 6.51819 28.458 6.35107 28.458C6.25679 28.458 6.13252 28.3811 5.97825 28.223C5.7743 28.0343 5.555 27.8629 5.32261 27.7104C5.13858 27.6006 4.92856 27.5416 4.71411 27.5395C4.38762 27.5517 4.07037 27.6509 3.79531 27.8267C3.52026 28.0025 3.29744 28.2485 3.15 28.5391C2.70821 29.2778 2.48811 30.1273 2.51578 30.9869C2.46619 32.4011 2.95098 33.7823 3.8742 34.8572C4.29386 35.3528 4.81972 35.7482 5.41302 36.0144C6.00633 36.2805 6.65197 36.4106 7.30239 36.395C8.85793 36.395 9.96781 35.8055 10.6192 34.6265C11.2705 33.4475 11.6048 31.4696 11.6048 28.7014V11.0502C11.6048 10.3069 11.6048 9.7131 11.5576 9.27737C11.5432 8.92169 11.4557 8.57274 11.3005 8.25213C11.1728 8.00768 10.9659 7.81348 10.7134 7.70106C10.3664 7.56308 10.0059 7.46143 9.63784 7.39776C9.23503 7.30378 9.02934 7.103 9.02934 6.79116C9.02934 6.32553 9.27788 6.09058 9.77926 6.09058H16.2842C17.0642 6.09058 17.4541 6.32553 17.4541 6.79116C17.461 6.86999 17.4499 6.94935 17.4217 7.02332C17.3935 7.09729 17.3489 7.16396 17.2913 7.21834C17.0368 7.38014 16.7615 7.50661 16.4728 7.59427C16.2858 7.6951 16.1129 7.82006 15.9586 7.96592C15.8173 8.11115 15.7168 8.29089 15.6672 8.48708C15.5935 8.79361 15.5547 9.10743 15.5515 9.42261C15.5515 9.81135 15.5258 10.3453 15.5258 11.0288V28.0521Z" fill="#419456"/>
<path d="M25.5618 17.6544C26.8121 17.6549 28.0423 17.9677 29.14 18.5643C30.2861 19.1839 31.3039 20.0145 32.1397 21.0121C33.0329 22.0695 33.7295 23.2774 34.1966 24.579C34.7024 25.9597 34.9564 27.4195 34.9465 28.8893C34.9634 30.0904 34.7556 31.2842 34.3337 32.4093C33.9466 33.4489 33.365 34.4057 32.6196 35.2288C31.8787 36.022 30.9873 36.6609 29.997 37.1084C29.0024 37.5741 27.9163 37.8134 26.8174 37.809C25.5668 37.8107 24.3334 37.518 23.2178 36.9546C22.0935 36.394 21.0916 35.6173 20.2695 34.6691C19.403 33.6605 18.7291 32.5023 18.2812 31.2517C17.7975 29.9121 17.5566 28.4975 17.5699 27.0738C17.5582 25.8038 17.764 24.5412 18.1784 23.3402C18.5481 22.2476 19.1192 21.2335 19.8625 20.3499C20.56 19.5252 21.4188 18.8507 22.3865 18.3678C23.374 17.8846 24.4618 17.6402 25.5618 17.6544ZM24.7048 18.9146C24.1335 18.914 23.5716 19.0593 23.0727 19.3368C22.5739 19.6142 22.1546 20.0145 21.8551 20.4994C21.0707 21.7371 20.6863 23.185 20.7538 24.6474C20.7536 26.1658 20.951 27.6778 21.3409 29.1457C21.6986 30.5467 22.2572 31.8891 22.9992 33.1313C24.2762 35.2473 25.8361 36.3038 27.6787 36.301C28.2577 36.3187 28.8314 36.1863 29.3437 35.9167C29.856 35.6472 30.2893 35.2497 30.6013 34.7631C31.2983 33.7379 31.6483 32.3239 31.6511 30.5212C31.6552 29.0562 31.4592 27.5975 31.0683 26.1853C30.7203 24.8869 30.2015 23.6401 29.5257 22.4773C28.9507 21.4925 28.1965 20.6232 27.3016 19.9142C26.5819 19.2964 25.6713 18.9435 24.7219 18.9146H24.7048Z" fill="#419456"/>
<path d="M72.9266 36.5361C72.9266 36.9718 72.678 37.1897 72.1809 37.1897H66.7044C66.4512 37.2111 66.1966 37.17 65.9631 37.07C65.8345 36.9974 65.7745 36.8308 65.7745 36.583C65.7685 36.468 65.8023 36.3544 65.8701 36.2611C65.9379 36.1678 66.0358 36.1005 66.1473 36.0704C66.5551 35.9213 66.9294 35.6934 67.2486 35.3997C67.4471 35.0885 67.536 34.7203 67.5015 34.3531C67.5015 34.1652 67.5015 33.8747 67.48 33.4646C67.4586 33.0545 67.4415 32.7341 67.4072 32.4906L66.4216 24.3229C66.233 22.6426 65.9216 21.4764 65.4874 20.8242C65.2521 20.4931 64.9343 20.2287 64.5654 20.0572C64.1965 19.8856 63.7891 19.8128 63.3834 19.846C62.4363 19.884 61.5358 20.2652 60.8508 20.9182C59.9817 21.6718 59.296 22.6125 58.8453 23.6693V32.5291C58.8453 33.1827 58.8453 33.7081 58.8839 34.1097C58.9063 34.4495 58.9711 34.7853 59.0767 35.1093C59.1466 35.3413 59.2749 35.5516 59.4495 35.7201C59.6408 35.8817 59.8643 36.001 60.1051 36.0704C60.2383 36.0928 60.359 36.162 60.4455 36.2654C60.5319 36.3689 60.5784 36.4997 60.5765 36.6343C60.5765 37.0017 60.3023 37.1897 59.7752 37.1897H48.4922C47.9651 37.1897 47.6994 36.9846 47.6994 36.583C47.6899 36.4556 47.7315 36.3297 47.8151 36.2328C47.9905 36.1079 48.1907 36.022 48.4022 35.9807C49.1192 35.7273 49.4778 35.1662 49.4778 34.2976C49.4778 34.1396 49.4778 33.943 49.4778 33.691C49.4778 33.439 49.4349 33.2254 49.4049 33.0374L48.2822 23.7163C47.9965 21.1531 47.0137 19.8716 45.3339 19.8716C44.4027 19.9219 43.518 20.2934 42.8314 20.9225C41.9344 21.6566 41.2102 22.5783 40.7102 23.6223V32.5291C40.7102 33.1827 40.7102 33.7081 40.7616 34.1097C40.7774 34.4496 40.8394 34.7859 40.9459 35.1093C41.019 35.3398 41.1469 35.5494 41.3187 35.7201C41.5106 35.8807 41.7339 36 41.9743 36.0704C42.1071 36.0929 42.2273 36.1623 42.313 36.2658C42.3988 36.3693 42.4443 36.5001 42.4414 36.6343C42.4414 37.0017 42.18 37.1897 41.6486 37.1897H36.5663C36.035 37.1897 35.7736 37.0017 35.7736 36.6343C35.7706 36.5001 35.8162 36.3693 35.9019 36.2658C35.9877 36.1623 36.1079 36.0929 36.2407 36.0704C36.4815 36.001 36.705 35.8817 36.8963 35.7201C37.0756 35.5531 37.2084 35.3426 37.282 35.1093C37.3833 34.788 37.4409 34.4547 37.4534 34.1182C37.4834 33.7166 37.5005 33.1912 37.5005 32.5376V11.4774C37.5005 11.0716 37.5005 10.7512 37.4791 10.5205C37.4766 10.326 37.4297 10.1347 37.342 9.96091C37.2614 9.81857 37.1484 9.69711 37.012 9.60635C36.8086 9.48453 36.5966 9.37746 36.3778 9.28596C36.2909 9.23102 36.2199 9.15445 36.1718 9.0638C36.1237 8.97315 36.1002 8.87156 36.1035 8.76906C36.1035 8.52557 36.3178 8.27353 36.7592 8.02576L39.1418 6.44091C39.5146 6.19314 39.7631 6.03936 39.8874 5.97101C40.0215 5.90903 40.1681 5.87835 40.3159 5.8813C40.5045 5.8813 40.6245 5.93683 40.6673 6.04363C40.7225 6.35083 40.7369 6.66394 40.7102 6.97489V21.5718C42.7099 18.8293 44.6969 17.458 46.6709 17.458C47.4029 17.4656 48.1219 17.6517 48.7651 18.0002C49.4083 18.3487 49.956 18.849 50.3605 19.4572C50.6432 19.9026 50.857 20.3879 50.9947 20.8968C51.1147 21.3753 51.2604 22.1485 51.4233 23.2036L52.6103 33.2638C52.6703 33.8277 52.7217 34.2592 52.7731 34.571C52.8032 34.8359 52.891 35.091 53.0302 35.3186C53.1573 35.5008 53.3207 35.6549 53.5102 35.7714C53.757 35.9328 54.0463 36.0175 54.3415 36.0149C54.4689 36.0152 54.5948 35.9883 54.7109 35.936C54.8269 35.8836 54.9304 35.8071 55.0143 35.7116C55.1888 35.5423 55.3184 35.3323 55.3914 35.1007C55.4958 34.7768 55.5577 34.4408 55.5756 34.1011C55.6056 33.6996 55.6271 33.1741 55.6271 32.5205V23.4856C55.6271 22.8918 55.6271 22.4347 55.6014 22.1058C55.5959 21.8467 55.5556 21.5895 55.4814 21.3411C55.4355 21.1744 55.3285 21.0311 55.1814 20.9396C55.0357 20.8669 54.8257 20.7644 54.5515 20.6405C54.3929 20.5807 54.3158 20.4056 54.3158 20.1236C54.3359 19.9684 54.3925 19.8201 54.4812 19.6909C54.5698 19.5617 54.6879 19.4553 54.8257 19.3803L57.5854 17.6075C57.812 17.4132 58.0877 17.2847 58.3825 17.2359C58.6953 17.2359 58.8539 17.6374 58.8539 18.4448V21.5718C59.6763 20.3736 60.6895 19.3174 61.8535 18.4448C62.7279 17.8179 63.7762 17.4776 64.8532 17.4708C65.6088 17.4752 66.3492 17.6833 66.9958 18.0731C67.6402 18.439 68.1733 18.9719 68.5385 19.6153C68.9413 20.2689 69.2541 21.4778 69.4684 23.2506L70.5911 32.9007C70.6897 33.5543 70.7754 34.0755 70.8525 34.4642C70.9023 34.7722 71.0037 35.0697 71.1525 35.3442C71.2684 35.5341 71.4406 35.6834 71.6453 35.7714C71.9078 35.8818 72.1826 35.9607 72.4638 36.0063C72.7852 36.1473 72.9266 36.3225 72.9266 36.5361Z" fill="#419456"/>
<path d="M4.96998 29.6788C6.27467 29.4211 7.14062 28.2478 6.90413 27.0583C6.66764 25.8687 5.41827 25.1134 4.11358 25.3712C2.80888 25.6289 1.94293 26.8022 2.17942 27.9917C2.41591 29.1813 3.66528 29.9366 4.96998 29.6788Z" fill="#419456"/>
<path d="M23.8956 13.5533C25.0656 13.2778 25.8033 12.1647 25.5433 11.0672C25.2832 9.96964 24.1239 9.30326 22.9538 9.57878C21.7837 9.85429 21.046 10.9674 21.3061 12.0649C21.5661 13.1624 22.7255 13.8288 23.8956 13.5533Z" fill="#419456"/>
<path d="M30.4037 9.25385C31.2046 8.01975 30.8149 6.34925 29.5332 5.52269C28.2515 4.69612 26.5632 5.02649 25.7624 6.26059C24.9615 7.49468 25.3513 9.16518 26.6329 9.99175C27.9146 10.8183 29.6029 10.4879 30.4037 9.25385Z" fill="#419456"/>
<path d="M27.5437 15.9233C28.355 15.4996 28.6975 14.5564 28.3087 13.8166C27.9199 13.0768 26.9471 12.8206 26.1357 13.2443C25.3244 13.668 24.9819 14.6112 25.3707 15.351C25.7595 16.0908 26.7324 16.3471 27.5437 15.9233Z" fill="#419456"/>
<path d="M140.257 31.4689C140.265 32.2928 140.105 33.1097 139.786 33.8697C139.482 34.595 139.033 35.2506 138.466 35.7958C137.898 36.341 137.224 36.7643 136.486 37.0394C135.219 37.4653 133.889 37.6734 132.552 37.6546C130.898 37.6546 128.952 37.5307 127.251 36.9027C125.207 36.1338 124.093 34.9377 122.443 33.2076C121.92 32.1268 121.642 31.785 121.363 30.7513C121.085 29.7175 120.618 26.9066 120.618 26.9066C121.646 26.2131 122.626 25.4494 123.549 24.6212C123.93 27.368 124.23 28.5085 124.903 30.2472C126.081 33.2375 127.324 34.4635 129.445 35.5015C130.148 35.8433 132.175 36.1594 133.615 35.9629C134.563 35.9014 135.458 35.501 136.135 34.8351C136.456 34.5064 136.705 34.1143 136.866 33.684C137.027 33.2536 137.096 32.7945 137.069 32.3361C137.07 31.815 136.961 31.2996 136.747 30.8239C136.554 30.3814 136.261 29.9895 135.89 29.679C135.447 29.33 134.951 29.0545 134.42 28.8631C133.808 28.6282 132.835 28.2949 131.494 27.8635C130.491 27.5556 129.508 27.189 128.55 26.7656C127.876 26.4701 127.245 26.0865 126.673 25.625C126.238 25.2628 125.902 24.797 125.696 24.2709C125.5 23.7227 125.404 23.144 125.413 22.5621C125.412 21.8495 125.557 21.1443 125.841 20.4903C126.109 19.8479 126.484 19.2556 126.951 18.7388C127.415 18.246 127.941 17.8152 128.515 17.4573C129.304 17.0036 130.18 16.7239 131.087 16.6371C131.43 16.6054 131.775 16.5925 132.119 16.5986C132.853 16.6131 133.579 16.7578 134.262 17.0258C135.547 17.6025 136.092 17.8247 137.077 18.7346C137.228 18.8778 137.371 19.0289 137.506 19.1874C138.144 19.888 138.749 21.3233 138.029 22.2973C137.631 22.7555 137.075 23.0476 136.471 23.1152C135.867 23.1828 135.259 23.021 134.769 22.6622C134.28 22.3033 133.943 21.7736 133.828 21.1787C133.712 20.5838 133.826 19.9674 134.146 19.4522C134.351 19.1743 134.624 18.9537 134.939 18.8115C134.878 18.7767 134.815 18.7454 134.75 18.7175C133.605 18.1645 132.319 17.9694 131.061 18.1579C130.236 18.3195 129.481 18.726 128.892 19.3241C128.628 19.576 128.419 19.8801 128.279 20.2169C128.139 20.5537 128.07 20.916 128.078 21.2806C128.065 21.571 128.114 21.8608 128.223 22.1306C128.331 22.4003 128.497 22.6437 128.708 22.8441C129.346 23.339 130.089 23.6811 130.881 23.8437C132.381 24.2851 133.713 24.7208 134.879 25.1509C135.777 25.4625 136.646 25.8527 137.476 26.3171C138.333 26.8611 139.035 27.6177 139.511 28.5128C140.001 29.4217 140.257 30.4373 140.257 31.4689Z" fill="#419456"/>
<path d="M89.1769 35.1042C89.1078 35.4212 89.0147 35.7325 88.8983 36.0355C88.8221 36.2248 88.7016 36.3932 88.5469 36.5268C88.3813 36.6441 88.1878 36.7163 87.9856 36.7361C87.6826 36.7704 87.3777 36.7861 87.0728 36.7831C86.6218 36.8371 86.1661 36.7296 85.7872 36.4798C85.5687 36.279 85.3373 35.7407 85.0887 34.8693L77.7524 9.60131C77.5982 9.13568 77.4567 8.74694 77.3239 8.4351C77.2213 8.16635 77.0767 7.91548 76.8954 7.6918C76.7442 7.51659 76.5609 7.37162 76.3554 7.26462C76.1095 7.13722 75.851 7.03558 75.5841 6.96131C75.4251 6.93809 75.2806 6.85635 75.1791 6.73221C75.0776 6.60807 75.0264 6.45054 75.0356 6.29064C75.0297 6.2073 75.0461 6.12391 75.0829 6.04889C75.1198 5.97388 75.1759 5.90991 75.2456 5.86345C75.5069 5.76674 75.7861 5.7274 76.064 5.74811H82.749C83.3404 5.74811 83.6361 5.95316 83.6361 6.35471C83.6361 6.66655 83.4346 6.86733 83.0275 6.96131C82.6247 7.02524 82.2461 7.19478 81.9305 7.45257C81.8184 7.58294 81.7336 7.73444 81.6814 7.89809C81.6291 8.06174 81.6104 8.23419 81.6263 8.4052C81.6634 9.10787 81.8079 9.80077 82.0548 10.46L88.5555 32.7718L93.8392 13.7023L93.0336 10.6735C92.5365 8.62306 91.8966 7.44261 91.1138 7.13219C90.8419 7.02349 90.5771 6.89794 90.321 6.75626C90.2267 6.69646 90.1796 6.55549 90.1796 6.32908C90.1673 6.23085 90.1853 6.13121 90.2312 6.04344C90.2772 5.95567 90.3489 5.88395 90.4367 5.83782C90.7787 5.73849 91.1354 5.69946 91.4909 5.72248H97.4902C98.1116 5.72248 98.4244 5.94034 98.4244 6.37607C98.4244 6.68792 98.223 6.88869 97.8159 6.98267C97.6491 6.99174 97.4859 7.03424 97.3359 7.10762C97.186 7.18101 97.0524 7.28378 96.9432 7.40979C96.834 7.5358 96.7514 7.68246 96.7003 7.84101C96.6493 7.99956 96.6308 8.16675 96.646 8.33258C96.643 8.55261 96.6675 8.77216 96.7189 8.98617C96.766 9.17413 96.8646 9.56287 97.0231 10.1524L103.451 32.4856L109.39 11.7842C109.533 11.3168 109.651 10.8419 109.742 10.3617C109.79 10.045 109.813 9.72507 109.81 9.40481C109.845 8.86224 109.723 8.32101 109.459 7.84559C109.155 7.4371 108.717 7.14825 108.22 7.02966C107.689 6.90578 107.423 6.65374 107.423 6.28209C107.417 6.19581 107.436 6.10958 107.478 6.03379C107.52 5.958 107.583 5.89587 107.659 5.85491C107.944 5.75799 108.246 5.71878 108.546 5.73957H113.436C113.701 5.71605 113.967 5.76478 114.207 5.88054C114.283 5.94083 114.343 6.01953 114.381 6.10921C114.418 6.19889 114.432 6.29661 114.421 6.39316C114.421 6.705 114.233 6.90578 113.86 6.99976C113.496 7.09573 113.142 7.22886 112.806 7.39704C112.517 7.55761 112.275 7.79018 112.103 8.07199C111.859 8.47518 111.664 8.90526 111.52 9.35355C111.332 9.91316 111.092 10.6607 110.817 11.592L104.132 34.66C103.974 35.1854 103.85 35.5912 103.755 35.8689C103.687 36.1077 103.558 36.3252 103.382 36.5011C103.219 36.6427 103.012 36.7241 102.795 36.7318C102.564 36.7489 102.23 36.7574 101.793 36.7574C101.599 36.7755 101.403 36.7537 101.218 36.6935C101.033 36.6332 100.863 36.5358 100.717 36.4071C100.401 35.9668 100.177 35.4668 100.061 34.9376L94.542 15.9407L89.1769 35.1042Z" fill="#419456"/>
<path d="M123.236 22.4212C123.154 21.7195 123.011 21.0262 122.807 20.3494C122.658 19.8758 122.437 19.4278 122.152 19.0208C121.189 17.6852 119.709 17.0159 117.712 17.013C115.996 16.9887 114.314 17.4929 112.896 18.4569C112.311 18.8305 111.784 19.2866 111.332 19.8111C111.005 20.1366 110.798 20.5626 110.744 21.02C110.739 21.1599 110.772 21.2985 110.839 21.4216C110.866 21.4726 110.906 21.515 110.956 21.5438C111.007 21.5725 111.064 21.5864 111.122 21.5839C111.215 21.5681 111.303 21.5267 111.374 21.4643L111.679 21.255L112.261 20.5373C112.373 20.3987 112.492 20.266 112.617 20.14C112.707 20.0461 112.78 19.9734 112.827 19.9307C112.891 19.868 112.961 19.8122 113.037 19.7641C113.468 19.3858 113.968 19.0955 114.511 18.9097C115.029 18.7263 115.573 18.631 116.122 18.6278C118.368 18.6278 119.653 19.9094 119.979 22.4725L120.489 25.9198C119.899 25.49 119.255 25.1382 118.574 24.8732C118.002 24.6665 117.399 24.5624 116.791 24.5657C116.01 24.5796 115.236 24.724 114.503 24.9929C113.689 25.2743 112.919 25.6668 112.214 26.1591C111.354 26.7276 110.633 27.4826 110.106 28.3676C109.611 29.2093 109.353 30.1687 109.36 31.1443C109.353 31.9872 109.527 32.8218 109.87 33.5921C110.572 35.1388 111.86 36.3448 113.453 36.9455C114.294 37.2791 115.192 37.4459 116.097 37.4367C118.33 37.4806 120.498 36.6879 122.173 35.2154C122.773 34.6857 123.36 34.0919 123.36 34.0919L124.466 31.2938L123.236 22.4212ZM117.207 35.8476C116.593 35.8498 115.986 35.714 115.433 35.4503C114.87 35.1905 114.367 34.8183 113.954 34.3567C113.529 33.883 113.19 33.3396 112.951 32.7505C112.59 31.8331 112.489 30.8344 112.658 29.8634C112.827 28.8924 113.261 27.9864 113.911 27.2441C114.327 26.7871 114.837 26.4242 115.405 26.1796C115.973 25.9349 116.588 25.8143 117.207 25.8259C117.829 25.813 118.446 25.9477 119.006 26.2189C119.663 26.6003 120.244 27.0984 120.72 27.6884L121.47 33.3315C120.405 35.0089 118.984 35.8476 117.207 35.8476Z" fill="#419456"/>
<path d="M146.012 21.2123C148.012 18.4755 149.991 17.107 151.951 17.107C152.68 17.1103 153.396 17.2954 154.034 17.6453C154.689 17.987 155.244 18.4918 155.645 19.1105C155.916 19.553 156.12 20.0322 156.254 20.5331C156.376 21.0144 156.519 21.7847 156.682 22.8441L157.899 32.9129C157.963 33.4725 158.015 33.9082 158.062 34.2201C158.093 34.4833 158.181 34.7368 158.319 34.9634C158.437 35.1515 158.609 35.3002 158.812 35.3905C159.077 35.5064 159.35 35.6007 159.63 35.6725C159.782 35.6995 159.918 35.781 160.012 35.9015C160.107 36.0221 160.154 36.1732 160.145 36.3261C160.145 36.6678 159.849 36.8387 159.258 36.8387H153.777C153.245 36.8387 152.98 36.6336 152.98 36.2321C152.97 36.1047 153.012 35.9787 153.095 35.8818C153.272 35.7586 153.472 35.6715 153.682 35.6255C154.397 35.3777 154.755 34.8181 154.758 33.9467C154.758 33.7929 154.758 33.5921 154.732 33.3401C154.721 33.1211 154.698 32.903 154.664 32.6865L153.541 23.3653C153.262 20.8022 152.277 19.5206 150.597 19.5206C149.666 19.5665 148.78 19.9369 148.094 20.5672C147.211 21.2982 146.5 22.2141 146.012 23.25V32.1738C146.012 32.8274 146.012 33.3571 146.059 33.7587C146.077 34.1001 146.141 34.4377 146.248 34.7626C146.317 34.9936 146.445 35.2027 146.62 35.3692C146.812 35.53 147.035 35.6493 147.276 35.7195C147.408 35.7419 147.528 35.8106 147.613 35.9132C147.699 36.0158 147.745 36.1456 147.743 36.2791C147.743 36.6507 147.477 36.8387 146.946 36.8387H141.851C141.32 36.8387 141.054 36.6507 141.054 36.2791C141.051 36.1454 141.097 36.0151 141.183 35.9123C141.268 35.8095 141.389 35.741 141.521 35.7195C141.761 35.6493 141.985 35.53 142.177 35.3692C142.349 35.2005 142.477 34.9922 142.549 34.7626C142.656 34.4377 142.72 34.1001 142.738 33.7587C142.768 33.3571 142.785 32.8274 142.785 32.1738V11.0923C142.785 10.6907 142.785 10.3703 142.759 10.1354C142.756 9.94234 142.709 9.7525 142.622 9.58005C142.541 9.43897 142.428 9.31894 142.292 9.22976C142.092 9.1027 141.881 8.99266 141.662 8.90082C141.574 8.84796 141.501 8.77265 141.451 8.68259C141.402 8.59254 141.377 8.49095 141.38 8.3882C141.38 8.14044 141.598 7.89267 142.035 7.6449L144.422 6.06005C144.663 5.89011 144.914 5.73325 145.172 5.59014C145.306 5.52666 145.452 5.49591 145.6 5.50044C145.785 5.50044 145.905 5.5517 145.952 5.66277C146.015 5.97754 146.038 6.29909 146.02 6.61966L146.012 21.2123Z" fill="#419456"/>
</svg>
