<svg width="59" height="22" viewBox="0 0 59 22" fill="none" xmlns="http://www.w3.org/2000/svg">
<path d="M2.75 19.7083L2.87381 18.9124C3.08239 17.5716 3.95679 16.4218 5.25648 16.0316C6.71006 15.5952 8.7892 15.125 11 15.125C13.2108 15.125 15.2899 15.5952 16.7435 16.0316C18.0432 16.4218 18.9176 17.5716 19.1262 18.9124L19.25 19.7083" stroke="#419456" stroke-width="1.7" stroke-linecap="round" stroke-linejoin="round"/>
<path d="M11.0001 10.9999C13.5314 10.9999 15.5834 8.94789 15.5834 6.41659C15.5834 3.88528 13.5314 1.83325 11.0001 1.83325C8.46878 1.83325 6.41675 3.88528 6.41675 6.41659C6.41675 8.94789 8.46878 10.9999 11.0001 10.9999Z" stroke="#419456" stroke-width="1.7" stroke-linecap="round" stroke-linejoin="round"/>
<path d="M37.9167 1.83325H39.9791C40.9165 1.83325 41.7281 2.48432 41.9314 3.39939L42.5001 5.95825M42.5001 5.95825L43.4377 11.1149C43.9564 13.9678 46.4412 16.0416 49.3409 16.0416H51.0024C53.8038 16.0416 56.2323 14.103 56.8532 11.3713L57.667 7.79068C57.8803 6.85204 57.1668 5.95825 56.2043 5.95825H42.5001Z" stroke="#419456" stroke-width="1.7" stroke-linecap="round"/>
<ellipse cx="44.7917" cy="19.2499" rx="0.916667" ry="0.916666" stroke="#419456" stroke-width="1.7"/>
<ellipse cx="55.7917" cy="19.2499" rx="0.916667" ry="0.916666" stroke="#419456" stroke-width="1.7"/>
</svg>
