<svg width="30" height="30" viewBox="0 0 30 30" fill="none" xmlns="http://www.w3.org/2000/svg">
<mask id="mask0_198_1392" style="mask-type:alpha" maskUnits="userSpaceOnUse" x="0" y="0" width="30" height="30">
<rect width="30" height="30" fill="#D9D9D9"/>
</mask>
<g mask="url(#mask0_198_1392)">
<path d="M3.91398 18.2083C3.39735 17.5723 3.10616 16.8374 2.96995 16.0352C2.99579 15.774 3.02005 15.5121 3.04823 15.2509C3.25097 13.4605 5.35429 13.0794 6.23961 13.8981C6.50732 14.146 6.72023 14.4557 6.93941 14.7514C7.02943 14.8729 7.09597 14.9082 7.24783 14.8651C8.71475 14.4346 10.1848 14.0158 11.6525 13.5907C12.541 13.3335 13.4208 13.0096 14.3562 13.3076C14.9519 12.6159 15.7237 12.3399 16.5848 12.263C16.811 12.2426 16.9112 12.1979 16.8407 11.9211C16.4494 10.3667 16.5543 8.85551 17.3535 7.44153C18.3178 5.73425 19.7973 4.72102 21.737 4.53986C23.9812 4.32655 25.7754 5.19705 27.002 7.12784C27.2564 7.52858 27.4411 7.97324 27.6579 8.39751V8.39281L27.7182 8.58259C27.7362 8.67748 27.7456 8.77395 27.7722 8.86649C28.0697 9.84706 28.1525 10.8804 28.0149 11.896C27.9671 12.2309 27.8959 12.5626 27.8348 12.8959C27.8102 12.9369 27.7885 12.9796 27.7699 13.0237C27.3613 14.2425 26.6569 15.3404 25.7198 16.2187C25.5155 16.4085 25.4137 16.6108 25.4302 16.8837C25.4748 17.6523 25.5139 18.4216 25.5554 19.1902C25.5032 19.6654 25.451 20.1406 25.3988 20.6159L25.4615 20.6692C25.4987 20.6018 25.5395 20.5363 25.5836 20.4732C26.4861 19.2905 27.2579 18.035 27.8262 16.6524C28.5321 14.9398 28.9274 13.1148 28.9934 11.2631C29.0184 10.5887 28.9331 9.90168 28.8297 9.23194C28.5174 7.24469 27.7104 5.49977 26.2231 4.11638C25.539 3.47958 24.7617 2.98708 23.8396 2.76122C23.4122 2.6828 22.9879 2.54634 22.5581 2.52595C20.8321 2.44753 19.2173 2.86944 17.7135 3.7125C16.7862 4.21804 15.9628 4.895 15.2869 5.70759C14.8251 6.27459 14.3711 6.84787 13.8975 7.40467C13.6627 7.67837 13.413 7.69092 13.1844 7.4878C12.9558 7.28468 12.9441 7.00393 13.1617 6.73572C13.4991 6.31929 13.8302 5.89659 14.173 5.48565C14.2991 5.33429 14.3093 5.21823 14.1457 5.09824C13.503 4.6277 12.8932 4.10461 12.2122 3.69289C11.0662 2.99649 9.7848 2.65299 8.45408 2.53379C7.70888 2.46792 6.95663 2.4836 6.22787 2.71024C4.16995 3.34155 2.83923 4.76572 1.94139 6.65338C1.29325 8.01638 1.02397 9.46799 0.997357 10.9706C0.991095 11.3455 0.832975 11.5478 0.53552 11.5666C0.212233 11.587 0.000100583 11.376 0.000100583 11.0176C-0.00511668 9.77382 0.192664 8.53751 0.585617 7.35762C1.20792 5.49977 2.23101 3.9313 3.8357 2.7722C5.32298 1.69858 6.99499 1.35117 8.80085 1.55585C11.1398 1.82092 13.1614 2.76488 14.8658 4.38772C14.9083 4.42365 14.9527 4.45716 14.9989 4.4881C15.0772 4.42693 15.1507 4.37047 15.2204 4.30616C17.3237 2.36283 19.8043 1.40841 22.6623 1.52291C24.3311 1.58957 25.7511 2.29068 26.9573 3.42547C28.5714 4.94374 29.4364 6.85414 29.8239 9.00765C29.8888 9.3684 29.9421 9.73071 30 10.0922V12.2058C29.9444 12.5273 29.8826 12.8488 29.8348 13.1719C29.4912 15.4776 28.6646 17.6036 27.4231 19.5666C25.1382 23.1796 21.9108 25.6734 18.0572 27.4042C17.1867 27.7963 16.2865 28.1234 15.3863 28.4418C15.1392 28.5194 14.8742 28.5194 14.6271 28.4418C12.5945 27.7779 10.6511 26.866 8.84078 25.7267C5.67445 23.745 3.19774 21.1374 1.60479 17.7338C1.22984 16.9316 0.951957 16.0869 0.643543 15.2502C0.522995 14.9239 0.65685 14.6408 0.930822 14.5561C1.23845 14.4604 1.48268 14.5969 1.59383 14.9576C2.10082 16.6141 2.85168 18.1855 3.82161 19.6199C4.88693 21.1939 6.20555 22.5799 7.72375 23.7215C7.79025 23.7645 7.85926 23.8035 7.93041 23.8383C7.91475 23.6164 7.90223 23.4336 7.8897 23.2517C7.92649 22.8549 7.94685 22.4549 8.00164 22.0604C8.16759 20.8527 8.76876 19.8434 9.47248 18.8835C9.54293 18.7878 9.60711 18.6882 9.69948 18.5534C9.62965 18.5482 9.55953 18.5482 9.4897 18.5534C8.72884 18.7102 7.97033 18.8812 7.20869 19.0349C6.3719 19.2051 5.53824 19.2341 4.76251 18.8067C4.46193 18.6435 4.19343 18.4106 3.91398 18.2083ZM9.0443 24.359C9.04978 24.6178 9.17737 24.7825 9.40751 24.9017C9.68304 25.0437 9.93275 25.2382 10.2114 25.3723C11.3355 25.9212 12.4666 26.4537 13.5946 26.9925C14.0228 27.1533 14.4502 27.3164 14.8807 27.4701C14.9519 27.4953 15.0294 27.4967 15.1014 27.474C15.5969 27.2984 16.0893 27.1141 16.5824 26.9321C16.6206 26.9284 16.6584 26.9211 16.6952 26.9102C18.6687 26.1177 20.5268 25.0626 22.2192 23.7732C22.8368 23.3082 23.4419 22.8361 23.7002 22.0581C23.7549 21.9119 23.8184 21.7692 23.8904 21.6307C24.4259 20.4849 24.7045 19.2921 24.4908 18.0232C24.3828 17.3825 24.1182 16.8312 23.4427 16.5967C23.3159 16.5515 23.1868 16.513 23.056 16.4814C21.6908 16.2242 20.3244 15.9703 18.9566 15.7199C18.7828 15.6878 18.7218 15.6187 18.7601 15.4462C18.8126 15.2109 18.8548 14.9757 18.9065 14.7082C19.0247 14.72 19.1304 14.7224 19.2321 14.7412C19.7292 14.8314 20.227 14.9184 20.7194 15.0212C21.8216 15.2502 22.9221 15.4878 24.0227 15.7215L24.5167 16.0532C24.6967 15.8446 24.8548 15.6336 25.0395 15.4509C26.6137 13.895 27.3628 12.0591 26.9519 9.82717C26.717 8.55358 26.2129 7.42114 25.218 6.55299C24.735 6.13108 24.1926 5.81268 23.5523 5.69034C23.0042 5.50485 22.4212 5.44666 21.8474 5.52016C18.7272 5.86836 16.8047 9.07352 17.9335 12.0215C18.0063 12.212 18.1182 12.2834 18.3139 12.3187C18.7836 12.4034 19.2494 12.5053 19.7104 12.6269C20.0407 12.7132 20.1801 12.9743 20.0963 13.2731C20.0243 13.5343 19.7495 13.6495 19.4302 13.5868C18.7335 13.455 18.0376 13.2974 17.3331 13.23C16.7006 13.1704 16.0681 13.2637 15.5014 13.6095C15.3513 13.693 15.228 13.8176 15.1459 13.9687C15.0638 14.1198 15.0264 14.2912 15.038 14.4628C15.0482 14.9106 15.2259 15.2988 15.4576 15.665C15.8975 16.3575 16.4822 16.9198 17.1147 17.4303C18.1323 18.2585 19.2595 18.9204 20.422 19.5289C20.5453 19.5854 20.6556 19.6669 20.746 19.7681C20.9026 19.9705 20.8814 20.1955 20.7131 20.3838C20.5206 20.5986 20.2717 20.5955 20.0439 20.4622C19.1358 19.9289 18.2323 19.3883 17.3331 18.8404C17.0983 18.6961 16.8783 18.5196 16.6247 18.3393C16.6067 18.424 16.595 18.4687 16.5871 18.5134C16.582 18.5718 16.5737 18.6299 16.5621 18.6875C16.0924 20.3187 14.9832 21.4425 13.6408 22.3734C13.3503 22.5741 12.9926 22.3851 12.9175 22.044C12.8642 21.8009 12.9958 21.6448 13.1687 21.495C13.6321 21.0927 14.1081 20.699 14.5347 20.2598C14.9934 19.7893 15.3691 19.2458 15.5429 18.5981C15.6995 18.0083 15.759 17.4852 15.2134 16.9668C14.5042 16.294 14.0462 15.4305 14.011 14.4008C14.011 14.331 13.8678 14.2087 13.7926 14.2095C13.4834 14.2142 13.1664 14.2095 12.8682 14.2934C11.038 14.8031 9.21338 15.3341 7.38873 15.8619C6.72806 16.0524 6.52767 15.974 6.15116 15.3866C6.02953 15.1868 5.89704 14.9939 5.75429 14.8086C5.47719 14.4683 5.11085 14.44 4.71554 14.5498C4.54789 14.59 4.39611 14.6796 4.27986 14.8071C4.16361 14.9346 4.08823 15.0941 4.06349 15.2651C3.72533 17.0139 5.09676 18.5479 7.00047 18.0758C8.08618 17.8068 9.19224 17.6287 10.2936 17.4248C10.5355 17.3801 10.7249 17.3088 10.8783 17.1002C11.0764 16.8456 11.2886 16.6023 11.514 16.3716C11.7707 16.0932 12.0517 16.0579 12.2811 16.2587C12.5104 16.4594 12.4846 16.77 12.2396 17.0602C11.6799 17.7252 11.1014 18.3769 10.584 19.0741C10.1378 19.6756 9.69478 20.2991 9.37541 20.9719C8.86504 22.0471 8.79616 23.1968 9.04117 24.359H9.0443Z" fill="white"/>
<path d="M0.657765 13.5641C0.592343 13.5652 0.527402 13.5528 0.466934 13.5277C0.406467 13.5027 0.35175 13.4655 0.306148 13.4185C0.260546 13.3715 0.225022 13.3157 0.20176 13.2544C0.178498 13.1931 0.167988 13.1277 0.170878 13.0622C0.173943 12.9301 0.228461 12.8043 0.322795 12.7119C0.417128 12.6194 0.543801 12.5676 0.675769 12.5674C0.807597 12.5742 0.931871 12.6311 1.02323 12.7266C1.11458 12.822 1.16613 12.9488 1.16735 13.0811C1.16679 13.1467 1.15302 13.2115 1.12686 13.2717C1.10071 13.3318 1.0627 13.3861 1.01513 13.4312C0.967549 13.4763 0.911377 13.5113 0.849973 13.5342C0.788568 13.557 0.723195 13.5672 0.657765 13.5641Z" fill="white"/>
<path d="M24.1988 13.0817C23.964 13.0033 23.7143 12.9476 23.4943 12.841C23.2548 12.7257 23.1812 12.4143 23.2924 12.1822C23.3495 12.0726 23.445 11.988 23.5606 11.9445C23.6761 11.9011 23.8036 11.902 23.9186 11.9469C23.9714 11.9717 24.0255 11.9937 24.0806 12.0128C24.3374 12.0724 24.5456 12.0026 24.6716 11.7595C24.7977 11.5164 24.7296 11.3258 24.5425 11.1556C24.5073 11.1235 24.4642 11.1015 24.4243 11.0709C24.1894 10.8741 24.1409 10.6004 24.3045 10.3714C24.4681 10.1424 24.7272 10.0953 25.0004 10.2538C25.2833 10.4214 25.5029 10.6783 25.6247 10.9842C25.7465 11.2901 25.7637 11.6278 25.6736 11.9446C25.4896 12.601 24.9073 13.037 24.1988 13.0817Z" fill="white"/>
</g>
</svg>
