<svg width="30" height="30" viewBox="0 0 30 30" fill="none" xmlns="http://www.w3.org/2000/svg">
<path d="M2.11379 17.5158C1.9087 17.5158 1.70362 17.5018 1.49932 17.5088C1.20812 17.519 1.02965 17.6911 1.00539 17.9831C0.996777 18.0699 1.00539 18.1584 1.00539 18.246V24.2472C1.00931 24.3447 1.00775 24.4425 1.00069 24.5399C0.987879 24.6623 0.931532 24.7761 0.841894 24.8606C0.752257 24.945 0.635282 24.9945 0.512242 25C0.389114 24.9964 0.271252 24.9493 0.17955 24.8671C0.0878478 24.7848 0.0282308 24.6728 0.0112685 24.5508C0.00735838 24.4924 0.00735838 24.4339 0.0112685 24.3755C0.0112685 22.2577 0.0112685 20.1402 0.0112685 18.023C0.0112685 17.3069 0.447272 16.7324 1.12202 16.5524C1.25455 16.521 1.39051 16.5062 1.52671 16.5086C2.34706 16.5047 3.17053 16.5086 3.98618 16.5047C4.29044 16.4976 4.58948 16.5845 4.84253 16.7536C4.8893 16.7802 4.93766 16.804 4.98734 16.8248V13.9995H4.59283C3.93921 13.9995 3.28482 13.9941 2.6312 13.9995C2.38776 13.9995 2.18737 13.944 2.06056 13.7233C1.93375 13.5026 2.02534 13.3116 2.14354 13.123C2.87412 11.9574 3.60288 10.7921 4.32981 9.62703C5.20887 8.21832 6.0934 6.81977 6.96071 5.40793C7.14544 5.1074 7.3701 4.9814 7.72234 4.98218C10.4065 4.99157 13.0906 4.98766 15.7747 4.98766C16.2679 4.98766 16.354 5.04792 16.5191 5.50497C16.3743 5.92133 16.2843 5.98472 15.8373 5.98472C13.4551 5.98472 11.0731 5.98472 8.69141 5.98472C8.61314 5.98472 8.52938 5.99567 8.42527 6.0035C8.46206 6.08176 8.47772 6.12559 8.50355 6.1655C9.87966 8.36571 11.2539 10.5654 12.6264 12.7646C12.6682 12.8442 12.7326 12.9097 12.8116 12.9528C12.8906 12.9958 12.9806 13.0145 13.0702 13.0064C17.1605 13.0001 21.2507 12.9986 25.3409 13.0017C25.4286 13.0017 25.5163 12.997 25.604 12.9939H26.5675C26.5002 12.8639 26.4595 12.7677 26.4039 12.6808C25.7433 11.6248 25.0811 10.5698 24.4173 9.5159C24.1887 9.15355 24.1887 9.02128 24.4345 8.67145C24.8775 8.53684 25.0208 8.59319 25.2595 8.97198C25.807 9.84695 26.3549 10.7217 26.9034 11.5961C27.2392 12.133 27.582 12.6659 27.903 13.2114C28.1378 13.6027 27.9084 13.9847 27.4513 13.9995C27.3049 14.0042 27.1585 13.9995 27.0122 13.9995H26.0259V20.3341C26.5464 20.1619 27.0435 19.9905 27.5421 19.8347C28.6176 19.5006 29.6556 20.0828 29.9452 21.173C29.9589 21.2063 29.9774 21.2374 30 21.2654V22.0269C29.9914 22.0308 29.9765 22.0339 29.975 22.0402C29.7746 22.725 29.2705 23.1194 28.6842 23.4731C25.73 25.2549 22.7815 27.0479 19.8389 28.8521C19.0827 29.3138 18.2655 29.5071 17.3888 29.5064C13.4071 29.5064 9.42513 29.5064 5.44291 29.5064C5.23157 29.5064 5.05701 29.5338 4.88636 29.6895C4.64783 29.8957 4.34054 30.0049 4.02532 29.9955C3.16427 29.9955 2.30714 30.0057 1.44922 29.9955C0.682886 29.9791 0.0214445 29.3193 0.000309716 28.575C-0.00830076 28.2424 0.163126 28.0272 0.451968 28.0014C0.752552 27.9779 0.948245 28.1509 0.999908 28.4819C1.05079 28.8333 1.23474 28.9961 1.58307 28.9969C1.75841 28.9969 1.93375 28.9906 2.10909 28.9867H3.39753C3.59244 28.9914 3.78892 29.0024 3.98226 28.9969C4.10069 29.0018 4.21686 28.9635 4.30906 28.889C4.40126 28.8145 4.46317 28.7091 4.48324 28.5923C4.50364 28.4874 4.51231 28.3805 4.50907 28.2737C4.50907 24.9163 4.50907 21.5589 4.50907 18.2014C4.50907 18.1333 4.50907 18.0652 4.50907 17.9964C4.50437 17.771 4.24371 17.4736 3.9854 17.5072C3.79092 17.5232 3.59565 17.5274 3.40067 17.5198L2.11379 17.5158ZM4.32512 12.9915C4.54899 12.9915 4.77365 12.9915 4.99674 13.004C5.16503 13.0134 5.25975 12.9438 5.34742 12.8021C6.09835 11.5896 6.85321 10.3799 7.61197 9.17311C7.82802 8.82798 8.04876 8.48597 8.26011 8.13692C8.31333 8.04927 8.39553 7.90214 8.36108 7.85048C8.23114 7.64465 8.1834 7.37152 7.92978 7.25569C7.89612 6.94264 7.66129 6.73916 7.49925 6.4402C6.12706 8.65032 4.76895 10.8002 3.40849 12.9915H4.32512ZM6.14663 13.4611C5.99555 13.5613 5.99007 13.7147 5.99007 13.8751C5.99007 14.79 5.99007 15.7049 5.99007 16.6197C5.99007 16.8874 6.02217 17.1551 6.04173 17.4611L7.02411 17.5041C7.08764 17.5282 7.15277 17.5478 7.21902 17.5628C8.0691 17.6951 8.86977 18.0475 9.5415 18.5849C10.3548 19.222 11.2855 19.4998 12.3086 19.5006C12.9348 19.5006 13.5571 19.5006 14.1818 19.5006C14.2749 19.5006 14.3681 19.492 14.4565 19.4873V14.0011C13.8624 14.0011 13.2878 13.9807 12.7156 14.0081C12.3282 14.0269 12.0855 13.8751 11.9282 13.5386C11.8905 13.4704 11.8492 13.4043 11.8045 13.3406C11.1506 12.2929 10.4983 11.245 9.84757 10.1968C9.57047 9.75382 9.28945 9.3132 9.00452 8.86632C8.96069 8.92424 8.92624 8.96102 8.90354 9.00172C8.20166 10.123 7.50056 11.2447 6.80024 12.367C6.57558 12.727 6.36424 13.0987 6.14663 13.4658V13.4611ZM24.0275 20.9742C24.2686 20.9007 24.5065 20.8177 24.7515 20.7582C24.9597 20.7089 25.02 20.6017 25.0192 20.3912C25.0106 18.3564 25.0138 16.3169 25.013 14.2789C25.013 14.1944 25.0028 14.1099 24.9965 14.0066H24.022C23.9734 14.0027 23.9249 13.9964 23.8764 13.9964C21.1628 13.9964 18.4492 13.9964 15.7356 13.9964C15.6674 14.0001 15.5994 14.0077 15.532 14.0191V19.5757C17.0702 20.1963 17.8874 21.2395 17.5806 23.0137C17.8804 22.9637 18.1449 22.9511 18.3884 22.8729C19.6205 22.4745 20.8478 22.0613 22.0752 21.6489C22.7257 21.4336 23.3754 21.2035 24.0314 20.9782L24.0275 20.9742ZM15.5281 22.9731C15.7872 22.9856 16.0471 23.0036 16.3062 23.0075C16.3342 23.0062 16.3616 22.9984 16.3862 22.9849C16.4107 22.9713 16.4318 22.9523 16.4479 22.9292C16.5336 22.7776 16.5971 22.6144 16.6365 22.4448C16.797 21.3663 15.6682 20.4718 14.8221 20.518C13.9148 20.5125 13.0068 20.5101 12.0996 20.5023C10.988 20.5085 9.9066 20.1404 9.02957 19.4575C8.38926 18.9598 7.68868 18.6193 6.88478 18.5379C6.43547 18.4926 5.97833 18.5301 5.52667 18.5301V28.4819H5.8343C9.72937 28.4819 13.6242 28.4819 17.5187 28.4819C17.7136 28.4819 17.9101 28.4616 18.1019 28.4506C18.1308 28.4533 18.1599 28.4533 18.1888 28.4506C18.8103 28.341 19.323 27.9967 19.8467 27.6782C22.5942 26.0086 25.3407 24.3356 28.0861 22.6592C28.2984 22.5402 28.501 22.4046 28.692 22.2538C29.0599 21.9408 29.1006 21.5111 28.8313 21.0987C28.6145 20.7661 28.1824 20.6557 27.7707 20.8263C27.6392 20.8639 27.5069 20.896 27.3793 20.939C24.4877 21.9024 21.6048 22.8729 18.7085 23.8238C18.3473 23.9376 17.971 23.9967 17.5923 23.9991C16.1966 24.0194 14.8009 24.0139 13.4053 24.0053C12.6608 23.9965 11.9288 24.1961 11.2918 24.5813C11.1164 24.6862 10.9521 24.8106 10.7751 24.9132C10.5121 25.065 10.2413 25.0008 10.0863 24.7621C10.0152 24.6549 9.9893 24.5239 10.0144 24.3976C10.0395 24.2714 10.1134 24.1602 10.2202 24.0883C11.0812 23.4575 12.0205 23.038 13.1015 23.0153C13.9094 22.9981 14.7164 22.9864 15.5281 22.9731Z" fill="white"/>
<path d="M22.6772 0C22.9527 0.16435 23.0044 0.427311 23.0193 0.723141C23.0686 1.66229 23.3065 2.55212 23.8169 3.34961C24.494 4.40693 25.485 4.92425 26.7273 4.98372C26.8347 4.98252 26.9421 4.98723 27.049 4.99781C27.3284 5.04242 27.4881 5.2326 27.4897 5.49556C27.4912 5.75852 27.3433 5.94165 27.0513 5.98626C26.6388 6.04965 26.2122 6.0567 25.8114 6.16157C24.9504 6.38775 24.2615 6.87532 23.8185 7.67046C23.4936 8.08916 23.341 8.58143 23.2103 9.08387C23.168 9.27327 23.1124 9.46109 23.0858 9.65205C23.0443 9.95023 23.0349 10.2531 22.988 10.5505C22.9752 10.673 22.9181 10.7867 22.8275 10.8701C22.7368 10.9536 22.6188 11.0011 22.4956 11.0036C22.2412 11.0036 22.0361 10.8095 21.9899 10.5247C21.9839 10.4764 21.981 10.4278 21.9813 10.3791C21.9625 9.68675 21.816 9.00382 21.5492 8.36464C21.2275 7.56794 20.7242 6.9121 19.961 6.47931C19.4235 6.17904 18.8185 6.02041 18.2029 6.01835C17.7332 6.00896 17.6025 5.90878 17.4741 5.50495C17.5915 5.09955 17.7199 4.99233 18.134 4.98764C19.9391 4.96885 21.1273 3.90606 21.6416 2.39951C21.8342 1.83368 21.9727 1.25767 21.979 0.658183C21.979 0.371745 22.076 0.14948 22.325 0L22.6772 0ZM22.4964 2.99352C22.0377 4.11423 21.3066 4.90781 20.2843 5.5026C21.3167 6.07078 22.0236 6.88471 22.4987 7.98977C22.9684 6.87767 23.6815 6.06844 24.7116 5.50104C23.7024 4.95019 22.9185 4.06282 22.4964 2.99352Z" fill="white"/>
<path d="M1.0032 26.4918C1.00519 26.5576 0.994006 26.6231 0.970318 26.6845C0.946631 26.7459 0.910914 26.8019 0.865265 26.8493C0.819616 26.8967 0.764956 26.9345 0.704496 26.9605C0.644035 26.9865 0.578992 27.0001 0.513188 27.0006C0.381137 26.9966 0.255484 26.9428 0.161416 26.8501C0.0673472 26.7573 0.0118158 26.6324 0.00595259 26.5004C0.00466865 26.4349 0.01666 26.3697 0.041205 26.3089C0.0657501 26.2481 0.102342 26.1929 0.148778 26.1466C0.195214 26.1004 0.250534 26.0639 0.311411 26.0396C0.372288 26.0152 0.437462 26.0034 0.503012 26.0049C0.568399 26.0018 0.633731 26.0122 0.694948 26.0354C0.756166 26.0585 0.811962 26.0941 0.85887 26.1397C0.905779 26.1854 0.942797 26.2402 0.967626 26.3008C0.992456 26.3613 1.00457 26.4264 1.0032 26.4918Z" fill="white"/>
<path d="M23.9446 16.2409C23.9681 16.4718 24.0088 16.7034 24.0119 16.9351C24.0205 17.6661 24.019 18.3978 24.0119 19.1264C24.0119 19.3291 23.9744 19.531 23.9548 19.7337C23.8022 19.8308 23.6605 19.9623 23.4945 20.0202C22.6217 20.3246 21.7435 20.6111 20.8668 20.9014C20.7656 20.9382 20.6605 20.9632 20.5537 20.9758C20.2578 21.0008 20.0542 20.8474 19.9987 20.5712C19.9786 20.454 20.0022 20.3336 20.0649 20.2326C20.1277 20.1317 20.2252 20.0572 20.3392 20.0233C20.9082 19.8238 21.4812 19.6367 22.0527 19.445C22.2836 19.3667 22.5106 19.2783 22.7454 19.218C22.9286 19.171 22.9912 19.0826 22.9881 18.8924C22.9771 18.1802 22.9826 17.4681 22.9881 16.7567C22.9861 16.6497 22.9939 16.5428 23.0116 16.4374C23.0977 15.9881 23.5188 15.848 23.8648 16.1517C23.893 16.1822 23.918 16.2127 23.9446 16.2409Z" fill="white"/>
</svg>
