<svg width="30" height="30" viewBox="0 0 30 30" fill="none" xmlns="http://www.w3.org/2000/svg">
<path d="M6.31591 6.27154C6.28304 5.91363 6.2499 5.5565 6.21651 5.20016L6.16093 5.17355C5.94881 5.45607 5.72025 5.73154 5.51752 6.02502C4.96966 6.80829 4.53022 7.66201 4.21113 8.56299C4.19075 8.62795 4.1667 8.6917 4.13912 8.75395C4.00527 9.02786 3.71174 9.14525 3.45657 9.03099C3.2014 8.91673 3.10434 8.6749 3.22175 8.37047C3.6815 7.15696 4.30967 6.01412 5.0878 4.97555C6.69632 2.84844 8.76667 1.36776 11.3098 0.566374C12.7242 0.113643 14.211 -0.0703065 15.6931 0.0240315C18.9657 0.241595 21.764 1.51802 24.0363 3.88539C25.7756 5.69711 26.8589 7.8563 27.3066 10.334C27.4765 11.2731 27.5062 12.2123 27.4788 13.16C27.4788 13.2664 27.4788 13.3729 27.4788 13.5129C27.5876 13.5192 27.6909 13.5239 27.7919 13.5317C28.2294 13.563 28.6686 13.581 29.103 13.6327C29.2999 13.6472 29.4873 13.7229 29.639 13.8492C29.7908 13.9755 29.8992 14.146 29.9491 14.337C30.0767 14.7518 29.9601 15.1063 29.647 15.3974C29.021 15.9719 28.4507 16.6041 27.9437 17.2859C27.1649 18.3455 26.5802 19.5092 26.0652 20.7144C25.504 22.0316 24.9748 23.3635 24.358 24.6541C23.4759 26.5002 22.1593 27.9817 20.3903 29.0366C19.5672 29.5273 18.6491 29.837 17.6969 29.9452C17.6536 29.9575 17.6122 29.976 17.574 30H16.054C16.0071 29.9731 15.9572 29.9521 15.9052 29.9374C15.0943 29.8216 14.3101 29.5641 13.5883 29.1767C13.258 28.9944 12.9426 28.7854 12.6123 28.5804C12.5661 28.6187 12.5207 28.6539 12.4776 28.6923C11.8201 29.2936 11.0118 29.7055 10.1388 29.8842L9.60889 30H8.49584C8.4483 29.9737 8.39787 29.9529 8.34555 29.9382C7.59572 29.8071 6.88307 29.5156 6.25642 29.0836C5.13163 28.3143 4.31915 27.2836 3.75166 26.062C3.29611 25.0837 2.89535 24.0804 2.45232 23.0967C2.01701 22.1048 1.40095 21.2025 0.635583 20.4358C0.400762 20.205 0.138545 20.0031 0 19.6924V19.2228C0.156548 19.0037 0.281003 18.7532 0.571399 18.6789C0.750488 18.6303 0.934084 18.6001 1.11932 18.5889C1.98033 18.5615 2.83429 18.5466 3.69218 18.5279C3.78767 18.5279 3.88395 18.5279 4.02014 18.5279C3.98915 18.4395 3.95362 18.3527 3.91369 18.268C3.28908 17.0966 2.86573 15.8287 2.66131 14.517C2.56425 13.8909 2.54546 13.257 2.51259 12.6255C2.49224 12.2185 2.67775 12.0103 3.00728 12.0127C3.32037 12.0127 3.48397 12.2428 3.51215 12.6388C3.55833 13.2891 3.59042 13.9442 3.69765 14.5851C3.93746 15.9709 4.44242 17.2974 5.18486 18.4919C5.22332 18.5645 5.2792 18.6265 5.3475 18.6722C5.41581 18.718 5.49439 18.7461 5.57623 18.754C5.8267 18.7845 6.07561 18.8323 6.32452 18.8698L6.49986 18.9145C6.49986 18.5482 6.50925 18.2101 6.49986 17.8666C6.46284 16.8675 6.74046 15.8821 7.29355 15.0492C7.63639 14.5217 7.92757 13.9575 7.95731 13.3275C7.99958 12.4533 7.98158 11.5768 7.97375 10.7011C7.96671 9.94428 7.68649 9.28064 7.24267 8.67569C6.90999 8.22984 6.66411 7.72543 6.51786 7.18875C6.4388 6.8804 6.38245 6.57284 6.31591 6.27154ZM11.1861 1.70428H11.19C10.7673 1.87019 10.329 2.01262 9.92355 2.20749C8.93773 2.67702 8.03177 3.29841 7.23876 4.04895C7.16268 4.1169 7.11515 4.21113 7.1057 4.31269C7.12197 4.5055 7.15179 4.69692 7.19493 4.88555C7.23641 5.23302 7.2912 5.57893 7.31625 5.92797C7.358 6.72967 7.63154 7.50203 8.10369 8.15134C8.74318 9.0216 9.01401 10.0116 9.01479 11.0822C9.01479 11.6003 9.0101 12.1176 9.01479 12.6349C9.02871 13.6241 8.75694 14.5963 8.23206 15.435C8.00394 15.8064 7.81582 16.201 7.67083 16.612C7.39061 17.4119 7.52524 18.2555 7.51429 19.0772C7.51429 19.1265 7.5996 19.1993 7.65987 19.2228C8.38547 19.5022 9.1142 19.7753 9.84215 20.0492L10.6077 20.4546C10.7572 20.1768 10.8879 19.9185 11.0327 19.672C11.466 18.9096 12.0304 18.2295 12.6999 17.6631C13.5742 16.9298 14.5542 16.3546 15.5812 15.8631C15.6665 15.8216 15.744 15.7645 15.8254 15.7144L15.9976 15.6471C16.2661 15.5375 16.5314 15.4123 16.8054 15.3239C16.9533 15.2738 17.0026 15.201 17.0003 15.0515C16.994 14.546 17.0003 14.0404 16.9964 13.5349C17.0002 13.4671 16.9899 13.3992 16.966 13.3356C16.9422 13.272 16.9053 13.2141 16.8578 13.1656C16.8103 13.117 16.7532 13.079 16.6901 13.0537C16.627 13.0285 16.5594 13.0167 16.4915 13.0191C16.3076 13.0191 16.1228 13.0254 15.9381 13.0293C15.6125 12.9902 15.2751 12.9925 14.9644 12.9025C14.5409 12.7804 14.1378 12.5895 13.7261 12.4251C13.5187 12.2506 13.2925 12.0949 13.1077 11.8984C12.3727 11.1158 11.9735 10.201 12.0119 9.11003C12.0303 8.22867 12.3779 7.38609 12.9864 6.74814C13.1977 6.52275 13.4373 6.32319 13.6635 6.11267C13.7279 6.09127 13.7907 6.06511 13.8513 6.03441C14.4339 5.67653 15.1082 5.49622 15.7917 5.51554C15.996 5.52024 16.2003 5.50928 16.4038 5.50459C16.6074 5.49989 16.7952 5.5265 16.987 5.51398C17.275 5.49598 17.5161 5.2385 17.5059 4.98259C17.4958 4.72668 17.2578 4.5279 16.9619 4.52242C16.7772 4.52242 16.5925 4.52634 16.4078 4.52868L15.0286 4.5146C14.5918 4.51903 14.1656 4.38068 13.8148 4.12059C13.4639 3.86051 13.2077 3.49294 13.085 3.07383C13.0317 2.86731 13.0054 2.65476 13.0068 2.44149C12.995 2.04471 13.0068 1.64793 13.0068 1.21593C12.4025 1.31767 11.8467 1.4335 11.3137 1.64402L11.1861 1.70428ZM25.4836 13.5302C25.6975 13.5396 25.9117 13.538 26.1254 13.5255C26.4456 13.4926 26.4785 13.4472 26.4808 13.1201C26.4879 12.3719 26.4879 11.6269 26.3759 10.8811C26.2148 9.74697 25.8836 8.64363 25.3936 7.60822C25.3153 7.43996 25.2206 7.2764 25.1126 7.07135L24.6155 8.15604L22.0286 13.851L25.4836 13.5302ZM10.019 28.877C10.7131 28.7351 11.3516 28.3966 11.8585 27.9018C11.8189 27.8305 11.7734 27.7627 11.7223 27.6992C11.1958 27.162 10.7876 26.5206 10.5239 25.8162C10.3509 25.3607 10.0355 25.0547 9.70439 24.7464C9.51262 24.5687 9.29267 24.4232 9.08524 24.2628C8.54906 23.9333 8.02228 23.5882 7.47358 23.2814C7.16049 23.1068 6.81452 22.9988 6.48498 22.8556C6.10379 22.6882 6.04117 22.2296 6.36523 21.9838C6.52804 21.8617 6.7018 21.8703 6.88809 21.9345C7.61682 22.1857 8.29702 22.541 8.96157 22.9229L10.0292 23.6774C9.98823 22.963 10.0606 22.2467 10.2437 21.555C10.2468 21.5149 10.2396 21.4748 10.2227 21.4383C10.2059 21.4019 10.1799 21.3704 10.1474 21.3468C9.62063 21.101 9.08759 20.871 8.55611 20.6354C8.36356 20.5736 8.16004 20.5352 7.98158 20.446C7.37574 20.1431 6.72137 19.996 6.067 19.8739C5.34454 19.7393 4.61268 19.6391 3.88003 19.5758C3.27263 19.5233 2.65818 19.5491 2.04686 19.5405L1.20385 19.5844C2.22141 20.5712 2.93292 21.6825 3.47379 22.9057C3.81507 23.6805 4.12894 24.4709 4.46709 25.2441C5.00248 26.472 5.73669 27.5473 6.88105 28.2963C7.32486 28.5858 7.79137 28.8222 8.32442 28.8958C8.88643 29.0484 9.45078 29.0124 10.019 28.877ZM18.9219 1.72071C17.34 1.13219 15.7127 0.891936 14.0094 1.07506C14.0094 1.62289 14.0094 2.1441 14.0094 2.66766C14.0148 2.70636 14.0251 2.74422 14.04 2.78035C14.177 3.23739 14.5558 3.5113 15.081 3.516C15.744 3.52226 16.4078 3.50817 17.0707 3.52148C18.1846 3.54495 18.871 4.80025 18.2918 5.75267C17.9897 6.25041 17.5396 6.49614 16.9612 6.5118C16.3827 6.52745 15.8058 6.49223 15.2391 6.57597C14.04 6.75518 13.0968 7.78039 13.0138 9.0529C12.9721 9.68626 13.1491 10.3147 13.5153 10.8332C13.8815 11.3518 14.4145 11.7289 15.0254 11.9016C15.5334 12.0385 16.05 12.0041 16.5651 12.0158C16.9392 12.0266 17.2951 12.18 17.5599 12.4444C17.8247 12.7089 17.9784 13.0645 17.9897 13.4386C17.9975 13.7696 17.9897 14.1015 17.9897 14.4333V14.8684L19.7978 14.3456C20.0225 14.2861 20.25 14.238 20.4796 14.2016C20.7261 14.1742 20.8459 14.0412 20.9422 13.826C21.6967 12.1473 22.4615 10.4725 23.2223 8.79621L24.4793 6.02658C24.094 5.42906 23.6421 4.87719 23.1323 4.38155C22.3451 3.58 21.437 2.90687 20.4412 2.3867C19.9512 2.13158 19.4291 1.93827 18.9219 1.72071ZM18.6292 28.7056C19.1606 28.5905 19.6326 28.3401 20.0851 28.0521C21.4652 27.1846 22.5797 25.9536 23.306 24.4944C23.868 23.3729 24.3478 22.2092 24.841 21.0549C25.3959 19.7534 25.9853 18.4723 26.7336 17.2679C27.226 16.4701 27.8263 15.7443 28.5175 15.111C28.674 14.9701 28.8118 14.8152 28.9582 14.6673L28.9245 14.6015L28.0048 14.5382C27.8122 14.5087 27.618 14.4911 27.4232 14.4857C26.4597 14.5108 25.4946 14.5288 24.5318 14.5851C23.1487 14.6673 21.7922 14.9138 20.4436 15.2347C18.453 15.7042 16.5408 16.3827 14.7687 17.4259C13.687 18.0614 12.7336 18.8346 12.0549 19.9099C11.0014 21.5776 10.6852 23.3455 11.3669 25.2379C11.4971 25.6287 11.6904 25.9957 11.9391 26.3241C12.1011 25.9469 12.2389 25.5947 12.4001 25.2527C13.2854 23.3745 14.6184 21.8688 16.2763 20.6424C17.5052 19.7338 18.8311 18.999 20.2862 18.5091C20.5993 18.4034 20.8678 18.5169 20.9609 18.7799C21.0627 19.0655 20.9265 19.3277 20.6134 19.4521C20.2792 19.5859 19.9403 19.7104 19.6131 19.8606C17.4856 20.8389 15.6532 22.1943 14.2576 24.0961C13.5514 25.0546 13.0289 26.1356 12.7164 27.2844C13.1287 27.7204 13.6156 28.0793 14.1543 28.344C14.8334 28.6886 15.5718 28.901 16.3303 28.9701C17.1067 29.0482 17.8908 28.958 18.6292 28.7056Z" fill="white"/>
<path d="M3.68819 10.5204C3.68167 10.6524 3.62525 10.7769 3.53037 10.8689C3.43548 10.9609 3.3092 11.0134 3.17706 11.0158C3.11143 11.0151 3.04662 11.0011 2.98645 10.9749C2.92628 10.9486 2.87198 10.9106 2.82675 10.8631C2.78152 10.8155 2.74627 10.7593 2.72309 10.6979C2.6999 10.6365 2.68925 10.5711 2.69177 10.5055C2.69027 10.4396 2.70241 10.3741 2.72741 10.313C2.75241 10.252 2.78974 10.1968 2.83706 10.1509C2.88438 10.105 2.94067 10.0693 3.00241 10.0462C3.06415 10.023 3.13 10.0128 3.19585 10.0163C3.26175 10.0154 3.32715 10.0279 3.38806 10.0531C3.44897 10.0782 3.50413 10.1155 3.55018 10.1627C3.59624 10.2098 3.63222 10.2659 3.65594 10.3273C3.67967 10.3888 3.69064 10.4545 3.68819 10.5204Z" fill="white"/>
</svg>
