<svg width="19" height="21" viewBox="0 0 19 21" fill="none" xmlns="http://www.w3.org/2000/svg">
<g clip-path="url(#clip0_78_732)">
<path d="M2.11111 13.65H4.22222V18.9H16.8889V2.1H4.22222V7.35H2.11111V1.05C2.11111 0.771523 2.22232 0.504451 2.42028 0.307538C2.61823 0.110625 2.88672 0 3.16667 0H17.9444C18.2244 0 18.4929 0.110625 18.6908 0.307538C18.8888 0.504451 19 0.771523 19 1.05V19.95C19 20.2285 18.8888 20.4955 18.6908 20.6925C18.4929 20.8894 18.2244 21 17.9444 21H3.16667C2.88672 21 2.61823 20.8894 2.42028 20.6925C2.22232 20.4955 2.11111 20.2285 2.11111 19.95V13.65ZM8.44444 9.45V6.3L13.7222 10.5L8.44444 14.7V11.55H0V9.45H8.44444Z" fill="url(#paint0_linear_78_732)"/>
</g>
<defs>
<linearGradient id="paint0_linear_78_732" x1="0.35804" y1="10.2766" x2="19" y2="10.2766" gradientUnits="userSpaceOnUse">
<stop stop-color="#C1AD64"/>
<stop offset="0.34375" stop-color="#A98343"/>
<stop offset="0.536458" stop-color="#A27C3D"/>
<stop offset="0.875" stop-color="#C4B067"/>
</linearGradient>
<clipPath id="clip0_78_732">
<rect width="19" height="21" fill="white"/>
</clipPath>
</defs>
</svg>
