<svg width="50" height="50" viewBox="0 0 50 50" fill="none" xmlns="http://www.w3.org/2000/svg">
<path d="M24.6558 1.15576L30.0866 4.30263H36.3804L39.5273 9.78427L45.0089 12.9311V19.2249L48.1558 24.6558L45.0089 30.0866V36.3804L39.5273 39.5273L36.3804 45.0089H30.0866L24.6558 48.1558L19.2249 45.0089H12.9311L9.78427 39.5273L4.30263 36.3804V30.0866L1.15576 24.6558L4.30263 19.2249V12.9311L9.78427 9.78427L12.9311 4.30263H19.2249L24.6558 1.15576Z" fill="black" stroke="white" stroke-width="2"/>
<path d="M24.6569 41.8632C15.1656 41.8632 7.45068 34.1483 7.45068 24.6569C7.45068 15.1656 15.1656 7.45068 24.6569 7.45068C34.1483 7.45068 41.8632 15.1656 41.8632 24.6569C41.8632 34.1483 34.1483 41.8632 24.6569 41.8632ZM24.6569 8.92261C15.9777 8.92261 8.92261 15.9777 8.92261 24.6569C8.92261 33.3362 15.9777 40.3913 24.6569 40.3913C33.3362 40.3913 40.3913 33.3362 40.3913 24.6569C40.3913 15.9777 33.3362 8.92261 24.6569 8.92261Z" fill="white" stroke="white" stroke-width="2"/>
<path d="M22.7797 31.0512L15.3185 25.1128C14.7095 24.6052 14.6079 23.7424 15.1155 23.1333C15.6231 22.5242 16.4859 22.4227 17.095 22.9303L23.4902 28.0566L32.0172 18.5145C32.5248 17.9562 33.4384 17.9054 33.9967 18.413C34.555 18.9206 34.6058 19.8342 34.0982 20.3925L24.7084 30.899C24.2008 31.4573 23.338 31.508 22.7797 31.0512Z" fill="white" stroke="white" stroke-width="2"/>
</svg>
