<svg width="26" height="32" viewBox="0 0 26 32" fill="none" xmlns="http://www.w3.org/2000/svg">
<g clip-path="url(#clip0_1_319)">
<path d="M7.5312 22.0624C3.3786 22.0624 0 18.6838 0 14.5312C0 10.3786 3.3786 7 7.5312 7C11.6838 7 15.0624 10.3786 15.0624 14.5312C15.0624 18.6838 11.6838 22.0624 7.5312 22.0624ZM7.5312 9.3175C4.6557 9.3175 2.3175 11.6566 2.3175 14.5312C2.3175 17.4058 4.6566 19.7449 7.5312 19.7449C10.4058 19.7449 12.7449 17.4058 12.7449 14.5312C12.7449 11.6566 10.4058 9.3175 7.5312 9.3175Z" fill="#333333"/>
<path d="M16.8418 25C16.5457 25 16.2487 24.8866 16.0228 24.6607L11.926 20.5648C11.4733 20.1121 11.4733 19.3786 11.926 18.9268C12.3787 18.4741 13.1122 18.4741 13.564 18.9268L17.6607 23.0227C18.1135 23.4754 18.1135 24.2089 17.6607 24.6607C17.4339 24.8866 17.1379 25 16.8418 25Z" fill="#333333"/>
</g>
<defs>
<clipPath id="clip0_1_319">
<path d="M0 0H24C25.1046 0 26 0.895431 26 2V30C26 31.1046 25.1046 32 24 32H0V0Z" fill="white"/>
</clipPath>
</defs>
</svg>
