<svg width="185" height="32" viewBox="0 0 185 32" fill="none" xmlns="http://www.w3.org/2000/svg">
<path d="M0.4 24L4.8 9.6H8.86L13.26 24H10.46L6.54 11.3H7.06L3.2 24H0.4ZM3.04 21V18.46H10.64V21H3.04ZM13.8523 24L18.6923 16.72L13.9923 9.6H17.3323L20.3923 14.4L23.4123 9.6H26.7723L22.0723 16.72L26.8923 24H23.5523L20.3923 19.04L17.2123 24H13.8523ZM32.6306 24V12.14H28.0906V9.6H39.8906V12.14H35.3506V24H32.6306ZM49.2116 24V11.29H44.3016V9.6H55.9016V11.29H50.9916V24H49.2116ZM56.4977 24V13.2H58.0877V15.81L57.8277 15.47C57.9543 15.1367 58.1177 14.83 58.3177 14.55C58.5243 14.27 58.7543 14.04 59.0077 13.86C59.2877 13.6333 59.6043 13.46 59.9577 13.34C60.311 13.22 60.671 13.15 61.0377 13.13C61.4043 13.1033 61.7477 13.1267 62.0677 13.2V14.87C61.6943 14.77 61.2843 14.7433 60.8377 14.79C60.391 14.8367 59.9777 15 59.5977 15.28C59.251 15.5267 58.981 15.8267 58.7877 16.18C58.601 16.5333 58.471 16.9167 58.3977 17.33C58.3243 17.7367 58.2877 18.1533 58.2877 18.58V24H56.4977ZM66.677 24.3C65.8704 24.3 65.1937 24.1533 64.647 23.86C64.107 23.56 63.697 23.1667 63.417 22.68C63.1437 22.1933 63.007 21.66 63.007 21.08C63.007 20.5133 63.1137 20.0233 63.327 19.61C63.547 19.19 63.8537 18.8433 64.247 18.57C64.6404 18.29 65.1104 18.07 65.657 17.91C66.1704 17.77 66.7437 17.65 67.377 17.55C68.017 17.4433 68.6637 17.3467 69.317 17.26C69.9704 17.1733 70.5804 17.09 71.147 17.01L70.507 17.38C70.527 16.42 70.3337 15.71 69.927 15.25C69.527 14.79 68.8337 14.56 67.847 14.56C67.1937 14.56 66.6204 14.71 66.127 15.01C65.6404 15.3033 65.297 15.7833 65.097 16.45L63.407 15.94C63.667 14.9933 64.1704 14.25 64.917 13.71C65.6637 13.17 66.647 12.9 67.867 12.9C68.847 12.9 69.687 13.0767 70.387 13.43C71.0937 13.7767 71.6004 14.3033 71.907 15.01C72.0604 15.3433 72.157 15.7067 72.197 16.1C72.237 16.4867 72.257 16.8933 72.257 17.32V24H70.677V21.41L71.047 21.65C70.6404 22.5233 70.0704 23.1833 69.337 23.63C68.6104 24.0767 67.7237 24.3 66.677 24.3ZM66.947 22.81C67.587 22.81 68.1404 22.6967 68.607 22.47C69.0804 22.2367 69.4604 21.9333 69.747 21.56C70.0337 21.18 70.2204 20.7667 70.307 20.32C70.407 19.9867 70.4604 19.6167 70.467 19.21C70.4804 18.7967 70.487 18.48 70.487 18.26L71.107 18.53C70.527 18.61 69.957 18.6867 69.397 18.76C68.837 18.8333 68.307 18.9133 67.807 19C67.307 19.08 66.857 19.1767 66.457 19.29C66.1637 19.3833 65.887 19.5033 65.627 19.65C65.3737 19.7967 65.167 19.9867 65.007 20.22C64.8537 20.4467 64.777 20.73 64.777 21.07C64.777 21.3633 64.8504 21.6433 64.997 21.91C65.1504 22.1767 65.3837 22.3933 65.697 22.56C66.017 22.7267 66.4337 22.81 66.947 22.81ZM82.547 24V18.59C82.547 18.0767 82.5004 17.5833 82.407 17.11C82.3204 16.6367 82.1637 16.2133 81.937 15.84C81.717 15.46 81.417 15.16 81.037 14.94C80.6637 14.72 80.1904 14.61 79.617 14.61C79.1704 14.61 78.7637 14.6867 78.397 14.84C78.037 14.9867 77.727 15.2133 77.467 15.52C77.207 15.8267 77.0037 16.2133 76.857 16.68C76.717 17.14 76.647 17.6833 76.647 18.31L75.477 17.95C75.477 16.9033 75.6637 16.0067 76.037 15.26C76.417 14.5067 76.947 13.93 77.627 13.53C78.3137 13.1233 79.1204 12.92 80.047 12.92C80.747 12.92 81.3437 13.03 81.837 13.25C82.3304 13.47 82.7404 13.7633 83.067 14.13C83.3937 14.49 83.6504 14.8967 83.837 15.35C84.0237 15.7967 84.1537 16.2533 84.227 16.72C84.307 17.18 84.347 17.6167 84.347 18.03V24H82.547ZM74.847 24V13.2H76.447V16.09H76.647V24H74.847ZM91.0269 24.29C89.7402 24.29 88.6835 24.01 87.8569 23.45C87.0369 22.8833 86.5335 22.0933 86.3469 21.08L88.1669 20.79C88.3135 21.3767 88.6502 21.8433 89.1769 22.19C89.7035 22.53 90.3569 22.7 91.1369 22.7C91.8769 22.7 92.4569 22.5467 92.8769 22.24C93.2969 21.9333 93.5069 21.5167 93.5069 20.99C93.5069 20.6833 93.4369 20.4367 93.2969 20.25C93.1569 20.0567 92.8669 19.8767 92.4269 19.71C91.9935 19.5433 91.3369 19.3433 90.4569 19.11C89.5035 18.8567 88.7535 18.5933 88.2069 18.32C87.6602 18.0467 87.2702 17.73 87.0369 17.37C86.8035 17.01 86.6869 16.5733 86.6869 16.06C86.6869 15.4267 86.8602 14.8733 87.2069 14.4C87.5535 13.92 88.0369 13.55 88.6569 13.29C89.2835 13.03 90.0102 12.9 90.8369 12.9C91.6569 12.9 92.3902 13.03 93.0369 13.29C93.6835 13.55 94.2035 13.92 94.5969 14.4C94.9969 14.8733 95.2335 15.4267 95.3069 16.06L93.4869 16.39C93.4002 15.81 93.1202 15.3533 92.6469 15.02C92.1802 14.6867 91.5769 14.51 90.8369 14.49C90.1369 14.4633 89.5669 14.5867 89.1269 14.86C88.6935 15.1333 88.4769 15.5033 88.4769 15.97C88.4769 16.23 88.5569 16.4533 88.7169 16.64C88.8835 16.8267 89.1869 17.0033 89.6269 17.17C90.0735 17.3367 90.7202 17.5267 91.5669 17.74C92.5202 17.98 93.2702 18.2433 93.8169 18.53C94.3702 18.81 94.7635 19.1433 94.9969 19.53C95.2302 19.91 95.3469 20.38 95.3469 20.94C95.3469 21.98 94.9635 22.8 94.1969 23.4C93.4302 23.9933 92.3735 24.29 91.0269 24.29ZM102.512 24.3C101.499 24.3 100.646 24.05 99.9523 23.55C99.259 23.0433 98.7323 22.36 98.3723 21.5C98.019 20.6333 97.8423 19.6633 97.8423 18.59C97.8423 17.5033 98.019 16.53 98.3723 15.67C98.7323 14.81 99.259 14.1333 99.9523 13.64C100.652 13.1467 101.509 12.9 102.522 12.9C103.522 12.9 104.382 13.15 105.102 13.65C105.829 14.1433 106.386 14.82 106.772 15.68C107.159 16.54 107.352 17.51 107.352 18.59C107.352 19.67 107.159 20.64 106.772 21.5C106.386 22.36 105.829 23.0433 105.102 23.55C104.382 24.05 103.519 24.3 102.512 24.3ZM97.5423 28.8V13.2H99.1323V21.15H99.3323V28.8H97.5423ZM102.292 22.67C103.006 22.67 103.596 22.49 104.062 22.13C104.529 21.77 104.879 21.2833 105.112 20.67C105.346 20.05 105.462 19.3567 105.462 18.59C105.462 17.83 105.346 17.1433 105.112 16.53C104.886 15.9167 104.532 15.43 104.052 15.07C103.579 14.71 102.976 14.53 102.242 14.53C101.542 14.53 100.962 14.7033 100.502 15.05C100.042 15.39 99.699 15.8667 99.4723 16.48C99.2457 17.0867 99.1323 17.79 99.1323 18.59C99.1323 19.3767 99.2423 20.08 99.4623 20.7C99.689 21.3133 100.036 21.7967 100.502 22.15C100.969 22.4967 101.566 22.67 102.292 22.67ZM114.145 24.3C113.071 24.3 112.145 24.0567 111.365 23.57C110.591 23.0833 109.995 22.41 109.575 21.55C109.155 20.69 108.945 19.7033 108.945 18.59C108.945 17.4567 109.158 16.4633 109.585 15.61C110.011 14.7567 110.615 14.0933 111.395 13.62C112.175 13.14 113.091 12.9 114.145 12.9C115.225 12.9 116.155 13.1433 116.935 13.63C117.715 14.11 118.311 14.78 118.725 15.64C119.145 16.4933 119.355 17.4767 119.355 18.59C119.355 19.7167 119.145 20.71 118.725 21.57C118.305 22.4233 117.705 23.0933 116.925 23.58C116.145 24.06 115.218 24.3 114.145 24.3ZM114.145 22.61C115.265 22.61 116.098 22.2367 116.645 21.49C117.191 20.7433 117.465 19.7767 117.465 18.59C117.465 17.37 117.188 16.4 116.635 15.68C116.081 14.9533 115.251 14.59 114.145 14.59C113.391 14.59 112.771 14.76 112.285 15.1C111.798 15.44 111.435 15.91 111.195 16.51C110.955 17.11 110.835 17.8033 110.835 18.59C110.835 19.8033 111.115 20.7767 111.675 21.51C112.235 22.2433 113.058 22.61 114.145 22.61ZM121.556 24V13.2H123.146V15.81L122.886 15.47C123.013 15.1367 123.176 14.83 123.376 14.55C123.583 14.27 123.813 14.04 124.066 13.86C124.346 13.6333 124.663 13.46 125.016 13.34C125.37 13.22 125.73 13.15 126.096 13.13C126.463 13.1033 126.806 13.1267 127.126 13.2V14.87C126.753 14.77 126.343 14.7433 125.896 14.79C125.45 14.8367 125.036 15 124.656 15.28C124.31 15.5267 124.04 15.8267 123.846 16.18C123.66 16.5333 123.53 16.9167 123.456 17.33C123.383 17.7367 123.346 18.1533 123.346 18.58V24H121.556ZM135.047 24C134.407 24.1267 133.774 24.1767 133.147 24.15C132.527 24.13 131.974 24.0067 131.487 23.78C131.001 23.5467 130.631 23.1867 130.377 22.7C130.164 22.2733 130.047 21.8433 130.027 21.41C130.014 20.97 130.007 20.4733 130.007 19.92V10.2H131.787V19.84C131.787 20.28 131.791 20.6567 131.797 20.97C131.811 21.2833 131.881 21.5533 132.007 21.78C132.247 22.2067 132.627 22.4567 133.147 22.53C133.674 22.6033 134.307 22.5833 135.047 22.47V24ZM127.817 14.67V13.2H135.047V14.67H127.817ZM140.31 24.3C139.503 24.3 138.827 24.1533 138.28 23.86C137.74 23.56 137.33 23.1667 137.05 22.68C136.777 22.1933 136.64 21.66 136.64 21.08C136.64 20.5133 136.747 20.0233 136.96 19.61C137.18 19.19 137.487 18.8433 137.88 18.57C138.273 18.29 138.743 18.07 139.29 17.91C139.803 17.77 140.377 17.65 141.01 17.55C141.65 17.4433 142.297 17.3467 142.95 17.26C143.603 17.1733 144.213 17.09 144.78 17.01L144.14 17.38C144.16 16.42 143.967 15.71 143.56 15.25C143.16 14.79 142.467 14.56 141.48 14.56C140.827 14.56 140.253 14.71 139.76 15.01C139.273 15.3033 138.93 15.7833 138.73 16.45L137.04 15.94C137.3 14.9933 137.803 14.25 138.55 13.71C139.297 13.17 140.28 12.9 141.5 12.9C142.48 12.9 143.32 13.0767 144.02 13.43C144.727 13.7767 145.233 14.3033 145.54 15.01C145.693 15.3433 145.79 15.7067 145.83 16.1C145.87 16.4867 145.89 16.8933 145.89 17.32V24H144.31V21.41L144.68 21.65C144.273 22.5233 143.703 23.1833 142.97 23.63C142.243 24.0767 141.357 24.3 140.31 24.3ZM140.58 22.81C141.22 22.81 141.773 22.6967 142.24 22.47C142.713 22.2367 143.093 21.9333 143.38 21.56C143.667 21.18 143.853 20.7667 143.94 20.32C144.04 19.9867 144.093 19.6167 144.1 19.21C144.113 18.7967 144.12 18.48 144.12 18.26L144.74 18.53C144.16 18.61 143.59 18.6867 143.03 18.76C142.47 18.8333 141.94 18.9133 141.44 19C140.94 19.08 140.49 19.1767 140.09 19.29C139.797 19.3833 139.52 19.5033 139.26 19.65C139.007 19.7967 138.8 19.9867 138.64 20.22C138.487 20.4467 138.41 20.73 138.41 21.07C138.41 21.3633 138.483 21.6433 138.63 21.91C138.783 22.1767 139.017 22.3933 139.33 22.56C139.65 22.7267 140.067 22.81 140.58 22.81ZM154.52 24C153.88 24.1267 153.247 24.1767 152.62 24.15C152 24.13 151.447 24.0067 150.96 23.78C150.473 23.5467 150.103 23.1867 149.85 22.7C149.637 22.2733 149.52 21.8433 149.5 21.41C149.487 20.97 149.48 20.4733 149.48 19.92V10.2H151.26V19.84C151.26 20.28 151.263 20.6567 151.27 20.97C151.283 21.2833 151.353 21.5533 151.48 21.78C151.72 22.2067 152.1 22.4567 152.62 22.53C153.147 22.6033 153.78 22.5833 154.52 22.47V24ZM147.29 14.67V13.2H154.52V14.67H147.29ZM156.913 11.29V9.45H158.693V11.29H156.913ZM156.913 24V13.2H158.693V24H156.913ZM166.293 24.3C165.22 24.3 164.293 24.0567 163.513 23.57C162.74 23.0833 162.143 22.41 161.723 21.55C161.303 20.69 161.093 19.7033 161.093 18.59C161.093 17.4567 161.306 16.4633 161.733 15.61C162.16 14.7567 162.763 14.0933 163.543 13.62C164.323 13.14 165.24 12.9 166.293 12.9C167.373 12.9 168.303 13.1433 169.083 13.63C169.863 14.11 170.46 14.78 170.873 15.64C171.293 16.4933 171.503 17.4767 171.503 18.59C171.503 19.7167 171.293 20.71 170.873 21.57C170.453 22.4233 169.853 23.0933 169.073 23.58C168.293 24.06 167.366 24.3 166.293 24.3ZM166.293 22.61C167.413 22.61 168.246 22.2367 168.793 21.49C169.34 20.7433 169.613 19.7767 169.613 18.59C169.613 17.37 169.336 16.4 168.783 15.68C168.23 14.9533 167.4 14.59 166.293 14.59C165.54 14.59 164.92 14.76 164.433 15.1C163.946 15.44 163.583 15.91 163.343 16.51C163.103 17.11 162.983 17.8033 162.983 18.59C162.983 19.8033 163.263 20.7767 163.823 21.51C164.383 22.2433 165.206 22.61 166.293 22.61ZM181.395 24V18.59C181.395 18.0767 181.348 17.5833 181.255 17.11C181.168 16.6367 181.011 16.2133 180.785 15.84C180.565 15.46 180.265 15.16 179.885 14.94C179.511 14.72 179.038 14.61 178.465 14.61C178.018 14.61 177.611 14.6867 177.245 14.84C176.885 14.9867 176.575 15.2133 176.315 15.52C176.055 15.8267 175.851 16.2133 175.705 16.68C175.565 17.14 175.495 17.6833 175.495 18.31L174.325 17.95C174.325 16.9033 174.511 16.0067 174.885 15.26C175.265 14.5067 175.795 13.93 176.475 13.53C177.161 13.1233 177.968 12.92 178.895 12.92C179.595 12.92 180.191 13.03 180.685 13.25C181.178 13.47 181.588 13.7633 181.915 14.13C182.241 14.49 182.498 14.8967 182.685 15.35C182.871 15.7967 183.001 16.2533 183.075 16.72C183.155 17.18 183.195 17.6167 183.195 18.03V24H181.395ZM173.695 24V13.2H175.295V16.09H175.495V24H173.695Z" fill="#0C0C0C"/>
</svg>
