<svg width="50" height="20" viewBox="0 0 50 20" fill="none" xmlns="http://www.w3.org/2000/svg">
<path d="M14.8139 1.98V14.67H11.2859V7.668L8.89194 14.67H5.93994L3.52794 7.614V14.67H-5.66095e-05V1.98H4.26594L7.45194 10.224L10.5659 1.98H14.8139ZM18.6042 3.636C17.9802 3.636 17.4762 3.468 17.0922 3.132C16.7202 2.784 16.5342 2.352 16.5342 1.836C16.5342 1.308 16.7202 0.869998 17.0922 0.521998C17.4762 0.173997 17.9802 -2.86102e-06 18.6042 -2.86102e-06C19.2162 -2.86102e-06 19.7082 0.173997 20.0802 0.521998C20.4642 0.869998 20.6562 1.308 20.6562 1.836C20.6562 2.352 20.4642 2.784 20.0802 3.132C19.7082 3.468 19.2162 3.636 18.6042 3.636ZM20.3502 4.572V14.67H16.8222V4.572H20.3502ZM25.8873 1.35V14.67H22.3593V1.35H25.8873ZM31.4244 1.35V14.67H27.8964V1.35H31.4244ZM35.2155 3.636C34.5915 3.636 34.0875 3.468 33.7035 3.132C33.3315 2.784 33.1455 2.352 33.1455 1.836C33.1455 1.308 33.3315 0.869998 33.7035 0.521998C34.0875 0.173997 34.5915 -2.86102e-06 35.2155 -2.86102e-06C35.8275 -2.86102e-06 36.3195 0.173997 36.6915 0.521998C37.0755 0.869998 37.2675 1.308 37.2675 1.836C37.2675 2.352 37.0755 2.784 36.6915 3.132C36.3195 3.468 35.8275 3.636 35.2155 3.636ZM36.9615 4.572V14.67H33.4335V4.572H36.9615ZM49.8426 4.572L43.4346 19.476H39.6006L42.0126 14.238L37.8726 4.572H41.7966L43.9206 10.296L45.9726 4.572H49.8426Z" fill="#00D3FD"/>
</svg>
