<svg width="26" height="24" viewBox="0 0 26 24" fill="none" xmlns="http://www.w3.org/2000/svg">
<path d="M0 1.08333C0 0.482986 0.482986 0 1.08333 0H3.13715C4.13021 0 5.01042 0.577778 5.42118 1.44444H23.9733C25.1604 1.44444 26.0271 2.57292 25.7156 3.71944L23.8649 10.5941C23.4813 12.0115 22.1948 13 20.7278 13H7.70521L7.94896 14.2865C8.04826 14.7965 8.49514 15.1667 9.01424 15.1667H22.0278C22.6281 15.1667 23.1111 15.6497 23.1111 16.25C23.1111 16.8503 22.6281 17.3333 22.0278 17.3333H9.01424C7.45243 17.3333 6.11181 16.2229 5.82292 14.6927L3.49375 2.46007C3.46215 2.28854 3.31319 2.16667 3.13715 2.16667H1.08333C0.482986 2.16667 0 1.68368 0 1.08333ZM5.77778 20.9444C5.77778 20.6599 5.83382 20.3782 5.94271 20.1153C6.05159 19.8524 6.21119 19.6136 6.41238 19.4124C6.61357 19.2112 6.85242 19.0516 7.1153 18.9427C7.37817 18.8338 7.65991 18.7778 7.94444 18.7778C8.22898 18.7778 8.51072 18.8338 8.77359 18.9427C9.03646 19.0516 9.27532 19.2112 9.47651 19.4124C9.6777 19.6136 9.8373 19.8524 9.94618 20.1153C10.0551 20.3782 10.1111 20.6599 10.1111 20.9444C10.1111 21.229 10.0551 21.5107 9.94618 21.7736C9.8373 22.0365 9.6777 22.2753 9.47651 22.4765C9.27532 22.6777 9.03646 22.8373 8.77359 22.9462C8.51072 23.0551 8.22898 23.1111 7.94444 23.1111C7.65991 23.1111 7.37817 23.0551 7.1153 22.9462C6.85242 22.8373 6.61357 22.6777 6.41238 22.4765C6.21119 22.2753 6.05159 22.0365 5.94271 21.7736C5.83382 21.5107 5.77778 21.229 5.77778 20.9444ZM20.9444 18.7778C21.5191 18.7778 22.0702 19.0061 22.4765 19.4124C22.8828 19.8187 23.1111 20.3698 23.1111 20.9444C23.1111 21.5191 22.8828 22.0702 22.4765 22.4765C22.0702 22.8828 21.5191 23.1111 20.9444 23.1111C20.3698 23.1111 19.8187 22.8828 19.4124 22.4765C19.0061 22.0702 18.7778 21.5191 18.7778 20.9444C18.7778 20.3698 19.0061 19.8187 19.4124 19.4124C19.8187 19.0061 20.3698 18.7778 20.9444 18.7778ZM11.375 7.22222C11.375 7.71875 11.7812 8.125 12.2778 8.125H14.2639V10.1111C14.2639 10.6076 14.6701 11.0139 15.1667 11.0139C15.6632 11.0139 16.0694 10.6076 16.0694 10.1111V8.125H18.0556C18.5521 8.125 18.9583 7.71875 18.9583 7.22222C18.9583 6.72569 18.5521 6.31944 18.0556 6.31944H16.0694V4.33333C16.0694 3.83681 15.6632 3.43056 15.1667 3.43056C14.6701 3.43056 14.2639 3.83681 14.2639 4.33333V6.31944H12.2778C11.7812 6.31944 11.375 6.72569 11.375 7.22222Z" fill="black"/>
</svg>
