<svg width="37" height="37" viewBox="0 0 37 37" fill="none" xmlns="http://www.w3.org/2000/svg">
<g clip-path="url(#clip0_334_465)">
<path fill-rule="evenodd" clip-rule="evenodd" d="M0 31.2225H36.6333V4.58008H0V31.2225ZM4.99545 26.227H31.6379V9.57553H4.99545V26.227Z" fill="white"/>
<path fill-rule="evenodd" clip-rule="evenodd" d="M4.99487 13.7409H9.16014V9.57568H4.99487V13.7409Z" fill="white"/>
<path fill-rule="evenodd" clip-rule="evenodd" d="M27.4822 26.227H31.6379V22.0713H27.4822V26.227Z" fill="white"/>
<path fill-rule="evenodd" clip-rule="evenodd" d="M18.3158 20.3988C16.9388 20.3988 15.8181 19.2781 15.8181 17.901C15.8181 16.524 16.9388 15.4033 18.3158 15.4033C19.6929 15.4033 20.8136 16.524 20.8136 17.901C20.8136 19.2781 19.6929 20.3988 18.3158 20.3988Z" fill="white"/>
<path fill-rule="evenodd" clip-rule="evenodd" d="M18.316 13.6689C15.9785 13.6689 14.084 15.5635 14.084 17.901C14.084 20.2385 15.9785 22.1331 18.316 22.1331C20.6536 22.1331 22.5481 20.2385 22.5481 17.901C22.5481 15.5635 20.6536 13.6689 18.316 13.6689Z" fill="white"/>
</g>
<defs>
<clipPath id="clip0_334_465">
<rect width="36.6429" height="36.6429" fill="white"/>
</clipPath>
</defs>
</svg>
