<svg width="16" height="16" viewBox="0 0 16 16" fill="none" xmlns="http://www.w3.org/2000/svg">
<rect width="16" height="16" fill="white" style="mix-blend-mode:multiply"/>
<path d="M14.5 13.793L10.724 10.0169C11.6313 8.92758 12.0838 7.53039 11.9872 6.11596C11.8907 4.70154 11.2525 3.37879 10.2055 2.42289C9.15856 1.46699 7.78336 0.951523 6.36601 0.983731C4.94866 1.01594 3.59829 1.59334 2.59581 2.59581C1.59334 3.59829 1.01594 4.94866 0.983731 6.36601C0.951523 7.78336 1.46699 9.15856 2.42289 10.2055C3.37879 11.2525 4.70154 11.8907 6.11596 11.9872C7.53039 12.0838 8.92758 11.6313 10.0169 10.724L13.793 14.5L14.5 13.793ZM2 6.5C2 5.60999 2.26392 4.73996 2.75839 3.99994C3.25286 3.25992 3.95566 2.68314 4.77793 2.34255C5.6002 2.00195 6.505 1.91284 7.37791 2.08647C8.25082 2.2601 9.05265 2.68869 9.68198 3.31802C10.3113 3.94736 10.7399 4.74918 10.9135 5.6221C11.0872 6.49501 10.9981 7.39981 10.6575 8.22208C10.3169 9.04435 9.74009 9.74715 9.00007 10.2416C8.26005 10.7361 7.39002 11 6.5 11C5.30694 10.9987 4.16311 10.5241 3.31948 9.68052C2.47586 8.8369 2.00133 7.69307 2 6.5Z" fill="#2A254B"/>
</svg>
