<svg width="60" height="60" viewBox="0 0 60 60" fill="none" xmlns="http://www.w3.org/2000/svg">
<mask id="mask0_198_1094" style="mask-type:alpha" maskUnits="userSpaceOnUse" x="0" y="0" width="60" height="60">
<rect width="60" height="60" fill="#959595"/>
</mask>
<g mask="url(#mask0_198_1094)">
<path d="M15.4532 38.4801C15.4065 37.4827 15.4532 36.5654 16.1865 35.8374C16.9199 35.1094 17.8265 35.0267 18.8532 35.0801V34.4254C18.8532 25.4094 18.8772 16.3921 18.8332 7.37475C18.8225 5.60675 19.9892 4.26675 21.8332 4.41075C22.2785 4.44675 22.7305 4.41075 23.1799 4.42008C23.8268 4.43505 24.4435 4.697 24.9034 5.1522C25.3633 5.60741 25.6316 6.22135 25.6532 6.86808C25.6625 7.08408 25.6599 7.30008 25.6599 7.51742V34.9707L27.9599 35.3521C27.9973 35.279 28.0303 35.2038 28.0585 35.1267C28.5875 33.6165 29.5738 32.3086 30.8805 31.3848C32.1871 30.461 33.749 29.9672 35.3492 29.9721C36.0786 29.9721 36.8079 29.9721 37.6026 29.9721V29.3547C37.6026 24.4801 37.6026 19.6054 37.6026 14.7308C37.6026 12.9414 38.7625 11.5601 40.4505 11.2867C40.9318 11.203 41.4255 11.2249 41.8974 11.351C42.3694 11.477 42.8083 11.7042 43.1837 12.0167C43.5591 12.3292 43.8621 12.7196 44.0716 13.1609C44.2812 13.6021 44.3923 14.0836 44.3972 14.5721C44.4225 17.5161 44.4052 20.4614 44.4065 23.4054V29.9707C45.0985 29.9707 45.7759 29.9254 46.4452 29.9814C47.3012 30.0547 48.1785 30.1027 48.9959 30.3494C52.0932 31.2827 54.1719 34.0614 54.3839 37.3081C54.6839 41.8881 55.0305 46.4654 55.3559 51.0414C55.3985 51.6387 55.4559 52.2414 55.4732 52.8334C55.5186 54.3601 54.4065 55.5001 52.8812 55.5214H7.16255C5.69588 55.5214 4.65455 54.7414 4.43055 53.4147C4.37111 52.9884 4.39832 52.5544 4.51055 52.1388C5.25588 49.1401 6.04521 46.1534 6.77721 43.1534C6.92388 42.5508 6.91855 41.9041 6.92921 41.2774C6.95721 39.5187 7.97455 38.4774 9.72921 38.4774C11.4425 38.4774 13.1572 38.4774 14.8705 38.4774L15.4532 38.4801ZM33.3305 53.8241C34.7346 53.8241 36.0639 53.8241 37.3932 53.8241C38.2319 53.8241 38.5772 53.3761 38.3706 52.5614C37.6479 49.7121 36.9172 46.8654 36.1999 44.0161C36.1226 43.7094 35.9932 43.5961 35.6665 43.5961C26.7332 43.6068 17.7999 43.6068 8.86655 43.5961C8.53855 43.5961 8.41321 43.7054 8.33321 44.0241C7.61588 46.8907 6.87588 49.7574 6.14921 52.6174C5.96121 53.3574 6.31588 53.8174 7.08255 53.8174C8.34655 53.8268 9.61588 53.8174 10.8745 53.8174C10.977 53.809 11.0787 53.7925 11.1785 53.7681V49.8667C11.1785 48.9334 11.1785 48.0001 11.1785 47.0667C11.1785 46.6908 11.3252 46.3387 11.7119 46.2508C11.9705 46.1894 12.3625 46.2041 12.5292 46.3614C12.7442 46.6003 12.8646 46.9094 12.8679 47.2308C12.8959 49.2428 12.8825 51.2561 12.8825 53.2681V53.8014H16.2959V53.1921C16.2959 51.2623 16.2959 49.333 16.2959 47.4041C16.2893 47.2049 16.3036 47.0056 16.3385 46.8094C16.3808 46.6264 16.4839 46.4632 16.6309 46.3463C16.7778 46.2294 16.9601 46.1658 17.1479 46.1658C17.3357 46.1658 17.5179 46.2294 17.6649 46.3463C17.8119 46.4632 17.9149 46.6264 17.9572 46.8094C17.9938 47.005 18.009 47.2039 18.0025 47.4027C18.0025 49.3316 18.0025 51.2614 18.0025 53.1921V53.7987H21.4145V53.2281C21.4145 51.2983 21.4145 49.369 21.4145 47.4401C21.4094 47.2738 21.413 47.1073 21.4252 46.9414C21.4389 46.7404 21.5248 46.5512 21.6671 46.4086C21.8094 46.266 21.9984 46.1797 22.1994 46.1655C22.4003 46.1514 22.5996 46.2104 22.7605 46.3317C22.9213 46.453 23.0329 46.6283 23.0745 46.8254C23.1084 47.0047 23.1222 47.1871 23.1159 47.3694C23.1159 49.3321 23.1159 51.2948 23.1159 53.2574C23.1159 53.4347 23.1305 53.6121 23.1385 53.7907H26.5306C26.5306 52.9747 26.5306 52.1908 26.5306 51.4161C26.5306 49.9494 26.5239 48.4827 26.5306 47.0241C26.5273 46.9114 26.5468 46.7991 26.5877 46.694C26.6285 46.5889 26.6901 46.4931 26.7686 46.4122C26.8472 46.3313 26.9412 46.2669 27.045 46.2229C27.1488 46.1789 27.2604 46.1562 27.3732 46.1561C27.5916 46.1627 27.7996 46.2508 27.9563 46.403C28.113 46.5553 28.207 46.7607 28.2199 46.9787C28.2266 47.112 28.2266 47.2455 28.2199 47.3787C28.2199 49.3414 28.2199 51.3041 28.2199 53.2668V53.7907H31.6199C31.6199 51.5907 31.6199 49.4294 31.6199 47.2681C31.6199 46.5667 31.9452 46.1534 32.4812 46.1587C33.0172 46.1641 33.3186 46.5668 33.3199 47.2854C33.3199 48.3174 33.3199 49.349 33.3199 50.3801L33.3305 53.8241ZM50.4172 53.7987C50.3639 52.9801 50.3185 52.1881 50.2625 51.3987C49.9399 46.8654 49.6039 42.3428 49.2945 37.8134C49.1745 36.0561 48.1719 35.0761 46.4065 35.0761C42.8465 35.0761 39.2852 35.1201 35.7265 35.0561C33.9439 35.0254 32.4865 36.1507 32.7492 38.4814C33.4159 38.4814 34.0959 38.4814 34.7719 38.4814C36.5479 38.4814 37.5879 39.5347 37.6079 41.3041C37.6159 41.9147 37.5932 42.5467 37.7412 43.1334C38.4239 45.9401 39.1745 48.7334 39.8639 51.5334C40.0412 52.2574 40.0879 53.0134 40.1999 53.7934L50.4172 53.7987ZM23.9559 35.0507V7.35208C23.9559 7.23475 23.9559 7.11875 23.9559 7.00275C23.9279 6.45742 23.6252 6.14275 23.0785 6.12142C22.6305 6.10408 22.1799 6.12142 21.7319 6.12142C20.8212 6.12142 20.5545 6.38808 20.5545 7.32142V35.0547L23.9559 35.0507ZM52.1425 53.8241H52.6252C53.5199 53.8241 53.8252 53.4907 53.7599 52.6081C53.7212 52.1267 53.6905 51.6467 53.6559 51.1654C53.3305 46.6054 52.9892 42.0481 52.6892 37.4867C52.4719 34.1454 49.9412 31.6854 46.5946 31.6747C42.8705 31.6614 39.1452 31.6547 35.4212 31.6867C34.7246 31.6912 34.0329 31.8031 33.3706 32.0187C30.7132 32.9067 29.1972 35.3334 29.3039 38.4468H30.9639C30.9865 38.1161 31.0119 37.8041 31.0306 37.4921C31.1639 35.2054 32.9239 33.4121 35.1866 33.3881C39.0599 33.3467 42.9359 33.3534 46.8092 33.3881C47.7502 33.3987 48.66 33.7269 49.3911 34.3193C50.1222 34.9118 50.6318 35.7338 50.8372 36.6521C50.9639 37.1974 50.9799 37.7707 51.0212 38.3334C51.3154 42.3947 51.607 46.4565 51.8959 50.5188C51.9745 51.6068 52.0585 52.6961 52.1425 53.8241ZM42.7052 29.9481V25.3747C42.7052 21.8485 42.7052 18.3214 42.7052 14.7934C42.7052 13.8827 42.2452 13.2214 41.4812 13.0041C40.3465 12.6841 39.3092 13.4921 39.3079 14.7227C39.3025 19.7005 39.3025 24.6747 39.3079 29.6454C39.3079 29.7401 39.3199 29.8347 39.3292 29.9481H42.7052ZM35.8385 41.8587C36.0585 40.5854 35.7345 40.1854 34.5172 40.1854H9.96388C9.74788 40.1854 9.49455 40.1387 9.32655 40.2334C9.07455 40.3774 8.78388 40.5921 8.69321 40.8428C8.58388 41.1441 8.66655 41.5161 8.66655 41.8574L35.8385 41.8587ZM17.1505 38.4507H27.3372C27.3479 38.2934 27.3625 38.1641 27.3639 38.0361C27.3785 37.0227 27.1319 36.7774 26.1039 36.7761H23.9119C22.0185 36.7761 20.1239 36.7761 18.2305 36.7761C17.4452 36.7761 17.1545 37.0787 17.1505 37.8681C17.1492 38.0507 17.1505 38.2307 17.1505 38.4507Z" fill="#4D5153"/>
</g>
</svg>
