<svg width="118" height="38" viewBox="0 0 118 38" fill="none" xmlns="http://www.w3.org/2000/svg">
<rect width="72" height="38" rx="6" fill="#E6E5E5"/>
<path fill-rule="evenodd" clip-rule="evenodd" d="M9.53125 19C9.53125 18.6376 9.82506 18.3438 10.1875 18.3438H19.8125C20.1749 18.3438 20.4688 18.6376 20.4688 19C20.4688 19.3624 20.1749 19.6562 19.8125 19.6562H10.1875C9.82506 19.6562 9.53125 19.3624 9.53125 19Z" fill="#8047F8"/>
<path d="M37.1953 13.0625V24.5H35.75V14.8672L32.8359 15.9297V14.625L36.9688 13.0625H37.1953Z" fill="#272221"/>
<path fill-rule="evenodd" clip-rule="evenodd" d="M51.5312 19C51.5312 18.6376 51.8251 18.3438 52.1875 18.3438H61.8125C62.1749 18.3438 62.4688 18.6376 62.4688 19C62.4688 19.3624 62.1749 19.6562 61.8125 19.6562H52.1875C51.8251 19.6562 51.5312 19.3624 51.5312 19Z" fill="#8047F8"/>
<path fill-rule="evenodd" clip-rule="evenodd" d="M57 13.5312C57.3624 13.5312 57.6562 13.8251 57.6562 14.1875V23.8125C57.6562 24.1749 57.3624 24.4688 57 24.4688C56.6376 24.4688 56.3438 24.1749 56.3438 23.8125V14.1875C56.3438 13.8251 56.6376 13.5312 57 13.5312Z" fill="#8047F8"/>
<rect x="80" width="38" height="38" rx="6" fill="#4B2995"/>
<path d="M96.25 26.5625C96.25 26.8344 96.1694 27.1003 96.0183 27.3264C95.8672 27.5525 95.6524 27.7288 95.4012 27.8328C95.1499 27.9369 94.8735 27.9641 94.6068 27.9111C94.34 27.858 94.095 27.7271 93.9027 27.5348C93.7104 27.3425 93.5795 27.0975 93.5264 26.8307C93.4734 26.564 93.5006 26.2876 93.6047 26.0363C93.7087 25.7851 93.885 25.5703 94.1111 25.4192C94.3372 25.2681 94.6031 25.1875 94.875 25.1875C95.2397 25.1875 95.5894 25.3324 95.8473 25.5902C96.1051 25.8481 96.25 26.1978 96.25 26.5625ZM103.812 25.1875C103.541 25.1875 103.275 25.2681 103.049 25.4192C102.822 25.5703 102.646 25.7851 102.542 26.0363C102.438 26.2876 102.411 26.564 102.464 26.8307C102.517 27.0975 102.648 27.3425 102.84 27.5348C103.033 27.7271 103.278 27.858 103.544 27.9111C103.811 27.9641 104.087 27.9369 104.339 27.8328C104.59 27.7288 104.805 27.5525 104.956 27.3264C105.107 27.1003 105.188 26.8344 105.188 26.5625C105.188 26.1978 105.043 25.8481 104.785 25.5902C104.527 25.3324 104.177 25.1875 103.812 25.1875ZM107.602 13.775C107.538 13.6901 107.455 13.6212 107.359 13.5735C107.264 13.5258 107.159 13.5007 107.052 13.5H92.1508L91.4547 11.0594C91.3712 10.7726 91.1972 10.5206 90.9587 10.3409C90.7201 10.1613 90.4299 10.0636 90.1312 10.0625H88.6875C88.5052 10.0625 88.3303 10.1349 88.2014 10.2639C88.0724 10.3928 88 10.5677 88 10.75C88 10.9323 88.0724 11.1072 88.2014 11.2361C88.3303 11.3651 88.5052 11.4375 88.6875 11.4375H90.1312L90.9734 14.368V14.3852L93.2422 22.3172C93.3668 22.7476 93.6276 23.1261 93.9855 23.3957C94.3435 23.6653 94.7792 23.8116 95.2273 23.8125H103.46C103.908 23.8116 104.344 23.6653 104.702 23.3957C105.06 23.1261 105.321 22.7476 105.445 22.3172L107.714 14.3766C107.743 14.2745 107.748 14.167 107.729 14.0627C107.709 13.9583 107.666 13.8598 107.602 13.775Z" fill="#F3F2F2"/>
</svg>
