<svg width="173" height="67" viewBox="0 0 173 67" fill="none" xmlns="http://www.w3.org/2000/svg">
<g clip-path="url(#clip0_12_591)">
<path d="M-25.5735 22.516C-25.4067 22.5079 -25.2399 22.493 -25.073 22.493C-19.4093 22.4917 -13.746 22.4917 -8.08228 22.4921C-7.48276 22.4921 -7.4819 22.493 -7.48147 23.0818C-7.48062 23.7897 -7.48957 24.4976 -7.47763 25.2056C-7.47293 25.4902 -7.5634 25.6156 -7.86637 25.6446C-8.69717 25.7244 -9.52243 25.8584 -10.3537 25.9339C-11.4324 26.0321 -11.982 26.5685 -12.0204 27.7193C-12.0579 28.8377 -12.0255 29.9587 -12.034 31.0784C-12.0362 31.3553 -11.8843 31.3911 -11.6645 31.3899C-10.9566 31.3856 -10.2487 31.3886 -9.54078 31.3886C-5.94958 31.3886 -2.35839 31.389 1.2328 31.3882C1.74698 31.3882 1.7487 31.386 1.74912 30.8778C1.74955 29.8354 1.75595 28.7925 1.74528 27.75C1.73376 26.6009 1.18842 26.0428 0.0384369 25.9314C-0.83077 25.8473 -1.69614 25.7227 -2.56449 25.6271C-2.77998 25.6032 -2.85594 25.4863 -2.85637 25.2964C-2.85893 24.4597 -2.85765 23.6233 -2.85679 22.7865C-2.85637 22.58 -2.75353 22.4802 -2.54358 22.4917C-2.45398 22.4968 -2.36351 22.4908 -2.27347 22.4908C3.36422 22.4908 9.00233 22.4908 14.64 22.4908C15.2297 22.4908 15.2302 22.4917 15.2306 23.0878C15.231 23.7829 15.2225 24.478 15.2344 25.1731C15.2391 25.4612 15.1764 25.6122 14.8414 25.6459C13.8835 25.7419 12.9268 25.8597 11.9757 26.0082C11.2874 26.1157 10.8824 26.5484 10.7663 27.2371C10.713 27.5529 10.6742 27.8712 10.6746 28.1959C10.6797 31.9032 10.6797 35.61 10.6746 39.3173C10.6742 39.642 10.7122 39.9608 10.7681 40.2757C10.9093 41.0728 11.4534 41.4867 12.3618 41.5733C13.2182 41.6548 14.0704 41.7811 14.9255 41.8741C15.158 41.8993 15.2323 42.0107 15.231 42.2257C15.2268 43.0497 15.2263 43.8733 15.2306 44.6972C15.2319 44.9281 15.1282 45.0271 14.9029 45.016C14.8128 45.0117 14.7228 45.0168 14.6328 45.0168C8.99508 45.0168 3.35696 45.0168 -2.28074 45.0168C-2.85978 45.0168 -2.86106 45.016 -2.86234 44.4442C-2.86362 43.7491 -2.85722 43.054 -2.86447 42.3589C-2.86789 42.0619 -2.80174 41.8955 -2.44629 41.8622C-1.52631 41.776 -0.606747 41.6646 0.305559 41.517C1.15898 41.3787 1.63519 40.8453 1.6578 39.9889C1.68938 38.8057 1.66677 37.6207 1.67402 36.4366C1.6753 36.2023 1.57331 36.1127 1.34801 36.1191C1.0907 36.1263 0.833403 36.1195 0.575668 36.1195C-3.44053 36.1195 -7.4563 36.1195 -11.4725 36.1195C-12.0323 36.1195 -12.0328 36.1204 -12.0332 36.661C-12.0336 37.6262 -12.0293 38.5919 -12.0357 39.5571C-12.0375 39.8434 -11.9935 40.1229 -11.9282 40.3969C-11.7575 41.1112 -11.2408 41.4837 -10.3933 41.5707C-9.53736 41.6582 -8.68564 41.7824 -7.82966 41.8694C-7.56126 41.8967 -7.47934 42.0158 -7.48147 42.2646C-7.4883 43.0497 -7.49257 43.8349 -7.47976 44.62C-7.47464 44.9238 -7.59541 45.0254 -7.89154 45.0207C-8.70229 45.0079 -9.51347 45.0168 -10.3242 45.0168C-15.2156 45.0168 -20.107 45.0173 -24.9979 45.016C-25.1904 45.016 -25.3832 45.0011 -25.5757 44.9929C-25.5757 43.9629 -25.5757 42.9332 -25.5757 41.9031C-24.5059 41.7734 -23.4349 41.6544 -22.3672 41.5097C-21.6393 41.4107 -21.2429 40.9567 -21.1038 40.2462C-21.0538 39.9911 -21.0406 39.7376 -21.0406 39.4803C-21.0406 36.7165 -21.0402 33.9527 -21.0406 31.1893C-21.0406 30.0325 -21.0291 28.8753 -21.047 27.7189C-21.0637 26.6444 -21.5731 26.0718 -22.593 25.9476C-23.5864 25.8268 -24.5814 25.7189 -25.5757 25.6054C-25.5736 24.5757 -25.5735 23.5457 -25.5735 22.516Z" fill="#5F5F5F"/>
<path d="M31.8167 45.6881C31.128 45.6185 30.438 45.5601 29.7506 45.4773C26.7649 45.1171 23.8714 44.4421 21.2688 42.8539C18.3216 41.0553 16.5221 38.4673 16.1453 35.0084C15.7724 31.5857 16.6809 28.5531 19.2083 26.1162C20.7483 24.6308 22.6138 23.6873 24.6318 23.0328C26.6091 22.391 28.6433 22.0526 30.7119 21.8593C32.5498 21.6878 34.3893 21.6728 36.2255 21.7373C39.5572 21.8542 42.8369 22.3065 45.9237 23.6664C48.4187 24.7652 50.4801 26.3726 51.7231 28.8659C52.6273 30.6798 52.9572 32.6077 52.7908 34.6312C52.4144 39.2017 49.8093 42.0717 45.7731 43.8361C43.6349 44.7711 41.3724 45.2426 39.0588 45.485C38.3957 45.5545 37.7322 45.6206 37.0691 45.6885C35.3183 45.6881 33.5675 45.6881 31.8167 45.6881ZM42.3756 33.6979C42.4042 33.022 42.3321 32.2808 42.2177 31.5435C41.8158 28.9444 40.4554 27.1539 37.8384 26.4981C35.6605 25.9523 33.4599 25.951 31.2709 26.455C28.7653 27.0319 27.2718 28.6184 26.7653 31.1232C26.4022 32.9196 26.4111 34.7238 26.793 36.5198C27.2995 38.9 28.7192 40.4319 31.0891 41.0143C33.3481 41.5695 35.6268 41.5707 37.8815 40.9968C40.1452 40.4208 41.5414 38.958 42.0722 36.6755C42.295 35.7188 42.3931 34.7506 42.3756 33.6979Z" fill="#5F5F5F"/>
<path d="M172.164 44.9157C172.01 44.9238 171.856 44.9396 171.703 44.9396C165.614 44.9409 159.526 44.9409 153.437 44.9405C152.831 44.9405 152.83 44.9396 152.83 44.323C152.83 43.6151 152.838 42.9072 152.827 42.1993C152.823 41.9236 152.924 41.8208 153.203 41.7931C154.034 41.7111 154.862 41.5976 155.69 41.4965C155.91 41.4696 156.119 41.4073 156.315 41.3088C156.878 41.0263 157.054 40.5688 156.785 39.997C156.494 39.377 156.059 38.8449 155.686 38.274C155.556 38.0743 155.341 38.134 155.155 38.1336C152.015 38.1306 148.874 38.1315 145.733 38.1315C144.562 38.1315 143.39 38.1383 142.219 38.1268C141.945 38.1242 141.763 38.2032 141.622 38.4481C141.32 38.9717 140.986 39.4769 140.678 39.9975C140.312 40.6158 140.489 41.1453 141.148 41.4496C141.691 41.7005 142.286 41.6194 142.853 41.718C143.118 41.7641 143.389 41.7705 143.658 41.7961C144.225 41.8503 144.225 41.8507 144.226 42.4327C144.226 43.089 144.227 43.7457 144.225 44.402C144.225 44.9379 144.223 44.9401 143.694 44.9401C140.245 44.9409 136.795 44.9405 133.345 44.9405C132.315 44.9405 131.285 44.9298 130.256 44.9465C129.92 44.952 129.8 44.8423 129.809 44.5031C129.828 43.744 129.823 42.9844 129.811 42.2249C129.806 41.9377 129.9 41.8195 130.202 41.7909C131.059 41.7099 131.912 41.5942 132.766 41.4884C133.503 41.3971 134.002 40.9691 134.38 40.3572C135.716 38.1882 137.058 36.0218 138.398 33.855C139.596 31.9177 140.796 29.9813 141.992 28.0432C142.154 27.7816 142.325 27.5252 142.335 27.1962C142.356 26.5629 141.944 26.0837 141.312 26.0176C140.098 25.8909 138.886 25.7509 137.671 25.6378C137.385 25.6114 137.297 25.4992 137.301 25.2286C137.311 24.4695 137.319 23.7095 137.298 22.9504C137.288 22.5979 137.406 22.4832 137.761 22.4849C140.181 22.4972 142.601 22.4913 145.02 22.4913C148.058 22.4913 151.096 22.5135 154.134 22.4793C155.226 22.467 155.998 22.8958 156.582 23.791C159.162 27.7471 161.754 31.6958 164.341 35.6472C165.356 37.1978 166.374 38.7459 167.382 40.3017C167.914 41.1236 168.664 41.5174 169.634 41.5776C170.479 41.6301 171.321 41.7406 172.165 41.8255C172.164 42.856 172.164 43.8861 172.164 44.9157ZM148.577 34.0764C149.876 34.0764 151.175 34.0773 152.475 34.0743C152.571 34.0739 152.702 34.1238 152.757 34.0154C152.811 33.9109 152.703 33.8277 152.65 33.7457C151.309 31.7022 149.965 29.6617 148.628 27.6156C148.474 27.3792 148.395 27.3293 148.224 27.6114C146.98 29.6553 145.722 31.6903 144.471 33.7287C144.274 34.0496 144.288 34.0752 144.679 34.0756C145.978 34.0777 147.277 34.0764 148.577 34.0764Z" fill="#5F5F5F"/>
<path d="M83.3111 38.9925C83.3111 35.9488 83.3184 33.0143 83.3069 30.0803C83.3035 29.194 83.3837 28.3043 83.2497 27.421C83.1029 26.4511 82.6425 26.0364 81.673 25.9374C80.817 25.8499 79.9649 25.7253 79.1085 25.6387C78.8405 25.6113 78.7496 25.4991 78.7654 25.2457C78.8179 24.3991 78.8657 23.552 78.9096 22.7046C78.9194 22.5168 78.995 22.4161 79.1896 22.4191C79.2924 22.4204 79.3957 22.4161 79.4985 22.4161C83.9137 22.4161 88.3288 22.4157 92.744 22.4161C93.3205 22.4161 93.3213 22.4174 93.3218 22.9888C93.3226 23.7095 93.3145 24.4306 93.3252 25.1514C93.329 25.4193 93.2428 25.538 92.9578 25.567C92.1786 25.6459 91.4046 25.7769 90.625 25.852C89.2983 25.9796 88.8072 26.4887 88.7709 27.8273C88.7671 27.9689 88.7696 28.1106 88.7696 28.2518C88.7696 33.6194 88.7696 38.987 88.7696 44.3546C88.7696 44.9392 88.7688 44.9405 88.1735 44.9405C84.6723 44.9405 81.1712 44.9277 77.67 44.9473C76.6459 44.9533 75.8958 44.5782 75.2715 43.7504C71.5284 38.7873 67.7559 33.8469 63.9927 28.8991C63.9099 28.7903 63.8203 28.6871 63.7243 28.5697C63.6343 28.7122 63.6731 28.8432 63.6731 28.9657C63.6705 32.338 63.6688 35.7107 63.6744 39.083C63.6748 39.4551 63.7021 39.8293 63.7482 40.1989C63.8506 41.0139 64.4075 41.4777 65.3164 41.5707C66.1723 41.6582 67.024 41.7832 67.88 41.8694C68.1518 41.8967 68.2252 42.0192 68.2227 42.2663C68.215 43.0386 68.206 43.8114 68.2265 44.5829C68.2355 44.9272 68.107 45.0237 67.7763 45.022C65.5754 45.0113 63.374 45.0164 61.173 45.0164C58.856 45.0164 56.5389 45.01 54.2223 45.0228C53.8618 45.0249 53.7154 44.9255 53.7278 44.5453C53.7517 43.7994 53.7423 43.0523 53.7312 42.306C53.7269 42.0252 53.8089 41.8937 54.1161 41.8647C54.9469 41.7862 55.773 41.6556 56.6034 41.5741C57.7418 41.4623 58.2739 40.8756 58.282 39.6365C58.2931 37.9117 58.2855 36.1869 58.2855 34.4617C58.2855 32.3508 58.2855 30.2399 58.2855 28.1285C58.2855 27.9996 58.2893 27.8708 58.2816 27.7423C58.2125 26.545 57.6975 26.0355 56.5146 25.9284C55.6834 25.8533 54.8573 25.7253 54.0273 25.6306C53.817 25.6067 53.7354 25.5051 53.7359 25.305C53.738 24.4682 53.738 23.6318 53.7367 22.7951C53.7363 22.5873 53.8315 22.4861 54.0418 22.4925C54.1447 22.4959 54.2479 22.4912 54.3508 22.4912C59.2421 22.4912 64.1335 22.4912 69.0249 22.4912C69.231 22.4912 69.4371 22.4887 69.6428 22.4964C70.4309 22.5245 71.0577 22.8138 71.554 23.4727C75.3551 28.5207 79.1759 33.5541 82.9907 38.5919C83.0739 38.7028 83.1635 38.8086 83.3111 38.9925Z" fill="#5F5F5F"/>
<path d="M107.47 44.9405C102.792 44.9405 98.9307 44.9409 95.0685 44.94C94.5159 44.94 94.5151 44.9383 94.5142 44.3857C94.5134 43.665 94.5228 42.9439 94.51 42.2232C94.5048 41.9347 94.6013 41.8221 94.9021 41.7905C95.8601 41.6902 96.8176 41.5763 97.7683 41.4244C98.4643 41.3134 98.8684 40.8803 98.9785 40.1954C99.0335 39.8541 99.063 39.5046 99.0638 39.1585C99.0698 35.4509 99.0659 31.7436 99.0706 28.0359C99.0711 27.7116 99.0374 27.392 98.9823 27.0767C98.8872 26.5335 98.5611 26.1789 98.0303 26.0193C97.3224 25.8064 96.5829 25.8119 95.8588 25.7112C94.5829 25.5341 94.8509 25.7987 94.8227 24.5962C94.8091 24.0172 94.8283 23.4377 94.8176 22.8582C94.8129 22.5988 94.9017 22.4673 95.1735 22.4917C95.2375 22.4976 95.3019 22.4917 95.3664 22.4917C102.781 22.4921 110.197 22.4767 117.612 22.5023C120.267 22.5117 122.867 22.9192 125.329 23.9749C127.913 25.0831 129.922 26.804 130.968 29.4867C131.643 31.2196 131.821 33.0199 131.653 34.8692C131.506 36.4852 131.072 38.0013 130.221 39.3868C129.172 41.0958 127.679 42.3111 125.895 43.1773C123.735 44.2253 121.431 44.7361 119.047 44.8568C114.918 45.0655 110.785 44.8722 107.47 44.9405ZM107.844 33.7526C107.844 35.8498 107.844 37.9471 107.844 40.0448C107.844 40.5876 107.845 40.5897 108.367 40.5897C110.658 40.5906 112.948 40.594 115.239 40.5867C115.778 40.585 116.316 40.5782 116.855 40.5044C119.103 40.198 120.424 39.0531 120.939 36.8449C121.388 34.9175 121.358 32.9674 121.031 31.0237C120.848 29.9369 120.447 28.9431 119.616 28.1729C118.677 27.302 117.511 26.976 116.284 26.9525C113.634 26.9026 110.983 26.9324 108.332 26.9098C107.933 26.9064 107.834 27.0395 107.837 27.4215C107.853 29.532 107.844 31.6425 107.844 33.7526Z" fill="#5F5F5F"/>
</g>
<defs>
<clipPath id="clip0_12_591">
<rect width="272.104" height="66.54" fill="white" transform="translate(-99.9399)"/>
</clipPath>
</defs>
</svg>
