<svg width="210" height="48" viewBox="0 0 210 48" fill="none" xmlns="http://www.w3.org/2000/svg">
<path d="M10.0002 10.0001C12.3013 10.0001 14.1668 8.1346 14.1668 5.83341C14.1668 3.53223 12.3013 1.66675 10.0002 1.66675C7.69898 1.66675 5.8335 3.53223 5.8335 5.83341C5.8335 8.1346 7.69898 10.0001 10.0002 10.0001Z" stroke="#959595" stroke-width="1.25" stroke-linecap="round" stroke-linejoin="round"/>
<path d="M17.1585 18.3333C17.1585 15.1083 13.9501 12.5 10.0001 12.5C6.05013 12.5 2.8418 15.1083 2.8418 18.3333" stroke="#959595" stroke-width="1.25" stroke-linecap="round" stroke-linejoin="round"/>
<path d="M24.48 12.068V11.24L28.692 5.408H30V11.12H31.2V12.068H30V14H28.92V12.068H24.48ZM28.968 6.548L25.74 11.12H28.968V6.548ZM41.2621 8.084C41.2621 8.78 41.0221 9.36 40.5421 9.824C40.0701 10.28 39.3461 10.508 38.3701 10.508H36.7621V14H35.6701V5.636H38.3701C39.3141 5.636 40.0301 5.864 40.5181 6.32C41.0141 6.776 41.2621 7.364 41.2621 8.084ZM38.3701 9.608C38.9781 9.608 39.4261 9.476 39.7141 9.212C40.0021 8.948 40.1461 8.572 40.1461 8.084C40.1461 7.052 39.5541 6.536 38.3701 6.536H36.7621V9.608H38.3701ZM42.2113 10.688C42.2113 10.016 42.3473 9.428 42.6193 8.924C42.8913 8.412 43.2633 8.016 43.7353 7.736C44.2153 7.456 44.7473 7.316 45.3313 7.316C45.9073 7.316 46.4073 7.44 46.8313 7.688C47.2553 7.936 47.5713 8.248 47.7793 8.624V7.424H48.8833V14H47.7793V12.776C47.5633 13.16 47.2393 13.48 46.8073 13.736C46.3833 13.984 45.8873 14.108 45.3193 14.108C44.7353 14.108 44.2073 13.964 43.7353 13.676C43.2633 13.388 42.8913 12.984 42.6193 12.464C42.3473 11.944 42.2113 11.352 42.2113 10.688ZM47.7793 10.7C47.7793 10.204 47.6793 9.772 47.4793 9.404C47.2793 9.036 47.0073 8.756 46.6633 8.564C46.3273 8.364 45.9553 8.264 45.5473 8.264C45.1393 8.264 44.7673 8.36 44.4313 8.552C44.0953 8.744 43.8273 9.024 43.6273 9.392C43.4273 9.76 43.3273 10.192 43.3273 10.688C43.3273 11.192 43.4273 11.632 43.6273 12.008C43.8273 12.376 44.0953 12.66 44.4313 12.86C44.7673 13.052 45.1393 13.148 45.5473 13.148C45.9553 13.148 46.3273 13.052 46.6633 12.86C47.0073 12.66 47.2793 12.376 47.4793 12.008C47.6793 11.632 47.7793 11.196 47.7793 10.7ZM53.0567 14.108C52.5527 14.108 52.1007 14.024 51.7007 13.856C51.3007 13.68 50.9847 13.44 50.7527 13.136C50.5207 12.824 50.3927 12.468 50.3687 12.068H51.4967C51.5287 12.396 51.6807 12.664 51.9527 12.872C52.2327 13.08 52.5967 13.184 53.0447 13.184C53.4607 13.184 53.7887 13.092 54.0287 12.908C54.2687 12.724 54.3887 12.492 54.3887 12.212C54.3887 11.924 54.2607 11.712 54.0047 11.576C53.7487 11.432 53.3527 11.292 52.8167 11.156C52.3287 11.028 51.9287 10.9 51.6167 10.772C51.3127 10.636 51.0487 10.44 50.8247 10.184C50.6087 9.92 50.5007 9.576 50.5007 9.152C50.5007 8.816 50.6007 8.508 50.8007 8.228C51.0007 7.948 51.2847 7.728 51.6527 7.568C52.0207 7.4 52.4407 7.316 52.9127 7.316C53.6407 7.316 54.2287 7.5 54.6767 7.868C55.1247 8.236 55.3647 8.74 55.3967 9.38H54.3047C54.2807 9.036 54.1407 8.76 53.8847 8.552C53.6367 8.344 53.3007 8.24 52.8767 8.24C52.4847 8.24 52.1727 8.324 51.9407 8.492C51.7087 8.66 51.5927 8.88 51.5927 9.152C51.5927 9.368 51.6607 9.548 51.7967 9.692C51.9407 9.828 52.1167 9.94 52.3247 10.028C52.5407 10.108 52.8367 10.2 53.2127 10.304C53.6847 10.432 54.0687 10.56 54.3647 10.688C54.6607 10.808 54.9127 10.992 55.1207 11.24C55.3367 11.488 55.4487 11.812 55.4567 12.212C55.4567 12.572 55.3567 12.896 55.1567 13.184C54.9567 13.472 54.6727 13.7 54.3047 13.868C53.9447 14.028 53.5287 14.108 53.0567 14.108ZM59.3262 14.108C58.8222 14.108 58.3702 14.024 57.9702 13.856C57.5702 13.68 57.2542 13.44 57.0222 13.136C56.7902 12.824 56.6622 12.468 56.6382 12.068H57.7662C57.7982 12.396 57.9502 12.664 58.2222 12.872C58.5022 13.08 58.8662 13.184 59.3142 13.184C59.7302 13.184 60.0582 13.092 60.2982 12.908C60.5382 12.724 60.6582 12.492 60.6582 12.212C60.6582 11.924 60.5302 11.712 60.2742 11.576C60.0182 11.432 59.6222 11.292 59.0862 11.156C58.5982 11.028 58.1982 10.9 57.8862 10.772C57.5822 10.636 57.3182 10.44 57.0942 10.184C56.8782 9.92 56.7702 9.576 56.7702 9.152C56.7702 8.816 56.8702 8.508 57.0702 8.228C57.2702 7.948 57.5542 7.728 57.9222 7.568C58.2902 7.4 58.7102 7.316 59.1822 7.316C59.9102 7.316 60.4982 7.5 60.9462 7.868C61.3942 8.236 61.6342 8.74 61.6662 9.38H60.5742C60.5502 9.036 60.4102 8.76 60.1542 8.552C59.9062 8.344 59.5702 8.24 59.1462 8.24C58.7542 8.24 58.4422 8.324 58.2102 8.492C57.9782 8.66 57.8622 8.88 57.8622 9.152C57.8622 9.368 57.9302 9.548 58.0662 9.692C58.2102 9.828 58.3862 9.94 58.5942 10.028C58.8102 10.108 59.1062 10.2 59.4822 10.304C59.9542 10.432 60.3382 10.56 60.6342 10.688C60.9302 10.808 61.1822 10.992 61.3902 11.24C61.6062 11.488 61.7182 11.812 61.7262 12.212C61.7262 12.572 61.6262 12.896 61.4262 13.184C61.2262 13.472 60.9422 13.7 60.5742 13.868C60.2142 14.028 59.7982 14.108 59.3262 14.108ZM62.8598 10.688C62.8598 10.016 62.9958 9.428 63.2678 8.924C63.5398 8.412 63.9118 8.016 64.3838 7.736C64.8638 7.456 65.3958 7.316 65.9798 7.316C66.5558 7.316 67.0558 7.44 67.4798 7.688C67.9038 7.936 68.2198 8.248 68.4278 8.624V7.424H69.5318V14H68.4278V12.776C68.2118 13.16 67.8878 13.48 67.4558 13.736C67.0318 13.984 66.5358 14.108 65.9678 14.108C65.3838 14.108 64.8558 13.964 64.3838 13.676C63.9118 13.388 63.5398 12.984 63.2678 12.464C62.9958 11.944 62.8598 11.352 62.8598 10.688ZM68.4278 10.7C68.4278 10.204 68.3278 9.772 68.1278 9.404C67.9278 9.036 67.6558 8.756 67.3118 8.564C66.9758 8.364 66.6038 8.264 66.1958 8.264C65.7878 8.264 65.4158 8.36 65.0798 8.552C64.7438 8.744 64.4758 9.024 64.2758 9.392C64.0758 9.76 63.9758 10.192 63.9758 10.688C63.9758 11.192 64.0758 11.632 64.2758 12.008C64.4758 12.376 64.7438 12.66 65.0798 12.86C65.4158 13.052 65.7878 13.148 66.1958 13.148C66.6038 13.148 66.9758 13.052 67.3118 12.86C67.6558 12.66 67.9278 12.376 68.1278 12.008C68.3278 11.632 68.4278 11.196 68.4278 10.7ZM74.0891 7.316C74.6571 7.316 75.1531 7.44 75.5771 7.688C76.0091 7.936 76.3291 8.248 76.5371 8.624V7.424H77.6411V14.144C77.6411 14.744 77.5131 15.276 77.2571 15.74C77.0011 16.212 76.6331 16.58 76.1531 16.844C75.6811 17.108 75.1291 17.24 74.4971 17.24C73.6331 17.24 72.9131 17.036 72.3371 16.628C71.7611 16.22 71.4211 15.664 71.3171 14.96H72.3971C72.5171 15.36 72.7651 15.68 73.1411 15.92C73.5171 16.168 73.9691 16.292 74.4971 16.292C75.0971 16.292 75.5851 16.104 75.9611 15.728C76.3451 15.352 76.5371 14.824 76.5371 14.144V12.764C76.3211 13.148 76.0011 13.468 75.5771 13.724C75.1531 13.98 74.6571 14.108 74.0891 14.108C73.5051 14.108 72.9731 13.964 72.4931 13.676C72.0211 13.388 71.6491 12.984 71.3771 12.464C71.1051 11.944 70.9691 11.352 70.9691 10.688C70.9691 10.016 71.1051 9.428 71.3771 8.924C71.6491 8.412 72.0211 8.016 72.4931 7.736C72.9731 7.456 73.5051 7.316 74.0891 7.316ZM76.5371 10.7C76.5371 10.204 76.4371 9.772 76.2371 9.404C76.0371 9.036 75.7651 8.756 75.4211 8.564C75.0851 8.364 74.7131 8.264 74.3051 8.264C73.8971 8.264 73.5251 8.36 73.1891 8.552C72.8531 8.744 72.5851 9.024 72.3851 9.392C72.1851 9.76 72.0851 10.192 72.0851 10.688C72.0851 11.192 72.1851 11.632 72.3851 12.008C72.5851 12.376 72.8531 12.66 73.1891 12.86C73.5251 13.052 73.8971 13.148 74.3051 13.148C74.7131 13.148 75.0851 13.052 75.4211 12.86C75.7651 12.66 76.0371 12.376 76.2371 12.008C76.4371 11.632 76.5371 11.196 76.5371 10.7ZM85.4865 10.46C85.4865 10.668 85.4745 10.888 85.4505 11.12H80.1945C80.2345 11.768 80.4545 12.276 80.8545 12.644C81.2625 13.004 81.7545 13.184 82.3305 13.184C82.8025 13.184 83.1945 13.076 83.5065 12.86C83.8265 12.636 84.0505 12.34 84.1785 11.972H85.3545C85.1785 12.604 84.8265 13.12 84.2985 13.52C83.7705 13.912 83.1145 14.108 82.3305 14.108C81.7065 14.108 81.1465 13.968 80.6505 13.688C80.1625 13.408 79.7785 13.012 79.4985 12.5C79.2185 11.98 79.0785 11.38 79.0785 10.7C79.0785 10.02 79.2145 9.424 79.4865 8.912C79.7585 8.4 80.1385 8.008 80.6265 7.736C81.1225 7.456 81.6905 7.316 82.3305 7.316C82.9545 7.316 83.5065 7.452 83.9865 7.724C84.4665 7.996 84.8345 8.372 85.0905 8.852C85.3545 9.324 85.4865 9.86 85.4865 10.46ZM84.3585 10.232C84.3585 9.816 84.2665 9.46 84.0825 9.164C83.8985 8.86 83.6465 8.632 83.3265 8.48C83.0145 8.32 82.6665 8.24 82.2825 8.24C81.7305 8.24 81.2585 8.416 80.8665 8.768C80.4825 9.12 80.2625 9.608 80.2065 10.232H84.3585ZM88.0199 8.492C88.2119 8.116 88.4839 7.824 88.8359 7.616C89.1959 7.408 89.6319 7.304 90.1439 7.304V8.432H89.8559C88.6319 8.432 88.0199 9.096 88.0199 10.424V14H86.9279V7.424H88.0199V8.492ZM93.7325 14.108C93.2285 14.108 92.7765 14.024 92.3765 13.856C91.9765 13.68 91.6605 13.44 91.4285 13.136C91.1965 12.824 91.0685 12.468 91.0445 12.068H92.1725C92.2045 12.396 92.3565 12.664 92.6285 12.872C92.9085 13.08 93.2725 13.184 93.7205 13.184C94.1365 13.184 94.4645 13.092 94.7045 12.908C94.9445 12.724 95.0645 12.492 95.0645 12.212C95.0645 11.924 94.9365 11.712 94.6805 11.576C94.4245 11.432 94.0285 11.292 93.4925 11.156C93.0045 11.028 92.6045 10.9 92.2925 10.772C91.9885 10.636 91.7245 10.44 91.5005 10.184C91.2845 9.92 91.1765 9.576 91.1765 9.152C91.1765 8.816 91.2765 8.508 91.4765 8.228C91.6765 7.948 91.9605 7.728 92.3285 7.568C92.6965 7.4 93.1165 7.316 93.5885 7.316C94.3165 7.316 94.9045 7.5 95.3525 7.868C95.8005 8.236 96.0405 8.74 96.0725 9.38H94.9805C94.9565 9.036 94.8165 8.76 94.5605 8.552C94.3125 8.344 93.9765 8.24 93.5525 8.24C93.1605 8.24 92.8485 8.324 92.6165 8.492C92.3845 8.66 92.2685 8.88 92.2685 9.152C92.2685 9.368 92.3365 9.548 92.4725 9.692C92.6165 9.828 92.7925 9.94 93.0005 10.028C93.2165 10.108 93.5125 10.2 93.8885 10.304C94.3605 10.432 94.7445 10.56 95.0405 10.688C95.3365 10.808 95.5885 10.992 95.7965 11.24C96.0125 11.488 96.1245 11.812 96.1325 12.212C96.1325 12.572 96.0325 12.896 95.8325 13.184C95.6325 13.472 95.3485 13.7 94.9805 13.868C94.6205 14.028 94.2045 14.108 93.7325 14.108Z" fill="#959595"/>
<path d="M147.77 3.33325C147.924 3.33325 148.078 3.33325 148.233 3.33325C148.276 3.34171 148.318 3.35033 148.361 3.35833C149.376 3.54865 150.07 4.50779 149.913 5.52709C149.803 6.23853 149.396 6.73487 148.736 7.02427C148.675 7.05135 148.653 7.08397 148.653 7.14997C148.655 7.97034 148.654 8.7907 148.654 9.61091C148.654 9.71092 148.657 9.71323 148.76 9.71323C150.009 9.71323 151.259 9.71292 152.509 9.71369C152.586 9.71369 152.663 9.70492 152.738 9.68984C153.347 9.56799 153.76 9.02826 153.756 8.4653C153.754 8.03465 153.754 7.60401 153.758 7.17336C153.759 7.08812 153.731 7.04674 153.653 7.01412C152.939 6.71702 152.419 5.97251 152.485 5.11953C152.533 4.50579 152.814 4.02391 153.313 3.66681C153.575 3.47911 153.872 3.37879 154.19 3.33325C154.339 3.33325 154.488 3.33325 154.637 3.33325C154.647 3.33602 154.657 3.34018 154.667 3.34156C155.198 3.41726 155.627 3.66804 155.954 4.0913C156.168 4.36732 156.285 4.68319 156.335 5.02568C156.335 5.17953 156.335 5.33339 156.335 5.48725C156.332 5.49709 156.328 5.50679 156.327 5.51694C156.204 6.24007 155.802 6.74318 155.128 7.03197C155.073 7.05551 155.059 7.08905 155.059 7.14397C155.061 7.46953 155.062 7.79525 155.059 8.12081C155.057 8.32298 155.069 8.5253 155.046 8.72762C154.982 9.29766 154.753 9.79292 154.358 10.207C153.847 10.7433 153.213 11.0115 152.472 11.0142C151.242 11.0187 150.013 11.0155 148.784 11.0155C148.655 11.0155 148.655 11.0156 148.655 11.1478C148.655 11.9477 148.656 12.7476 148.653 13.5475C148.652 13.638 148.68 13.6807 148.765 13.7169C149.547 14.0489 150.019 14.8533 149.922 15.6755C149.839 16.3729 149.478 16.8797 148.857 17.205C148.657 17.3097 148.44 17.3627 148.218 17.3958C148.074 17.3958 147.93 17.3958 147.786 17.3958C147.743 17.3879 147.7 17.3799 147.657 17.3724C146.64 17.1936 145.929 16.2204 146.088 15.2082C146.2 14.5003 146.598 14.0015 147.254 13.7107C147.327 13.6781 147.351 13.6401 147.35 13.562C147.347 12.7542 147.349 11.9465 147.349 11.1387C147.349 11.0156 147.348 11.0155 147.225 11.0155C145.607 11.0155 143.99 11.0155 142.372 11.0155C142.246 11.0155 142.246 11.0156 142.246 11.1378C142.246 11.9429 142.247 12.7482 142.244 13.5533C142.244 13.637 142.269 13.6798 142.348 13.7141C143.142 14.0571 143.605 14.8308 143.511 15.6846C143.442 16.318 143.119 16.8025 142.574 17.1365C142.34 17.2796 142.082 17.3545 141.813 17.3958C141.664 17.3958 141.515 17.3958 141.366 17.3958C141.353 17.3927 141.341 17.3884 141.329 17.3865C140.801 17.3085 140.374 17.059 140.049 16.6377C139.835 16.3617 139.717 16.0463 139.668 15.7033C139.668 15.5495 139.668 15.3956 139.668 15.2418C139.671 15.2293 139.675 15.2171 139.677 15.2045C139.8 14.488 140.2 13.9883 140.866 13.7003C140.932 13.672 140.944 13.633 140.944 13.5706C140.943 11.4332 140.943 9.29566 140.945 7.15828C140.945 7.08443 140.92 7.05074 140.852 7.02289C140.447 6.85488 140.134 6.58086 139.912 6.20299C139.782 5.98097 139.709 5.73957 139.668 5.48725C139.668 5.33339 139.668 5.17953 139.668 5.02568C139.671 5.00814 139.675 4.99075 139.678 4.97321C139.772 4.39271 140.066 3.94129 140.561 3.62096C140.806 3.46203 141.078 3.37695 141.365 3.33325C141.515 3.33325 141.664 3.33325 141.813 3.33325C141.858 3.34156 141.904 3.34987 141.949 3.35833C142.928 3.5405 143.635 4.44656 143.509 5.47217C143.419 6.20176 143.014 6.71641 142.341 7.01689C142.268 7.04951 142.243 7.08828 142.244 7.16613C142.246 7.97618 142.245 8.78624 142.245 9.5963C142.245 9.71153 142.247 9.71338 142.361 9.71338C143.986 9.71338 145.611 9.71338 147.236 9.71338C147.348 9.71338 147.348 9.71307 147.348 9.6023C147.348 8.79224 147.347 7.98219 147.35 7.17213C147.351 7.08659 147.322 7.04704 147.244 7.01443C146.461 6.68764 145.988 5.8905 146.081 5.05229C146.154 4.39794 146.486 3.90806 147.051 3.57342C147.273 3.44218 147.517 3.37402 147.77 3.33325Z" fill="#959595"/>
<path d="M168.868 12.14H165.22L164.548 14H163.396L166.42 5.684H167.68L170.692 14H169.54L168.868 12.14ZM168.556 11.252L167.044 7.028L165.532 11.252H168.556ZM177.842 7.424V14H176.75V13.028C176.542 13.364 176.25 13.628 175.874 13.82C175.506 14.004 175.098 14.096 174.65 14.096C174.138 14.096 173.678 13.992 173.27 13.784C172.862 13.568 172.538 13.248 172.298 12.824C172.066 12.4 171.95 11.884 171.95 11.276V7.424H173.03V11.132C173.03 11.78 173.194 12.28 173.522 12.632C173.85 12.976 174.298 13.148 174.866 13.148C175.45 13.148 175.91 12.968 176.246 12.608C176.582 12.248 176.75 11.724 176.75 11.036V7.424H177.842ZM181.018 8.324V12.2C181.018 12.52 181.086 12.748 181.222 12.884C181.358 13.012 181.594 13.076 181.93 13.076H182.734V14H181.75C181.142 14 180.686 13.86 180.382 13.58C180.078 13.3 179.926 12.84 179.926 12.2V8.324H179.074V7.424H179.926V5.768H181.018V7.424H182.734V8.324H181.018ZM186.925 14.108C186.309 14.108 185.749 13.968 185.245 13.688C184.749 13.408 184.357 13.012 184.069 12.5C183.789 11.98 183.649 11.38 183.649 10.7C183.649 10.028 183.793 9.436 184.081 8.924C184.377 8.404 184.777 8.008 185.281 7.736C185.785 7.456 186.349 7.316 186.973 7.316C187.597 7.316 188.161 7.456 188.665 7.736C189.169 8.008 189.565 8.4 189.853 8.912C190.149 9.424 190.297 10.02 190.297 10.7C190.297 11.38 190.145 11.98 189.841 12.5C189.545 13.012 189.141 13.408 188.629 13.688C188.117 13.968 187.549 14.108 186.925 14.108ZM186.925 13.148C187.317 13.148 187.685 13.056 188.029 12.872C188.373 12.688 188.649 12.412 188.857 12.044C189.073 11.676 189.181 11.228 189.181 10.7C189.181 10.172 189.077 9.724 188.869 9.356C188.661 8.988 188.389 8.716 188.053 8.54C187.717 8.356 187.353 8.264 186.961 8.264C186.561 8.264 186.193 8.356 185.857 8.54C185.529 8.716 185.265 8.988 185.065 9.356C184.865 9.724 184.765 10.172 184.765 10.7C184.765 11.236 184.861 11.688 185.053 12.056C185.253 12.424 185.517 12.7 185.845 12.884C186.173 13.06 186.533 13.148 186.925 13.148Z" fill="#959595"/>
<path d="M9.42147 32.0215C9.42147 31.9806 9.42147 31.9542 9.42147 31.9278C9.42147 31.2977 9.42027 30.6676 9.42214 30.0376C9.42308 29.7216 9.66958 29.4661 9.97828 29.4543C10.3038 29.4419 10.5778 29.7044 10.5784 30.0333C10.5798 30.6566 10.5788 31.28 10.5788 31.9034C10.5788 31.9935 10.5798 31.9945 10.6543 31.9502C11.0698 31.7023 11.4849 31.4535 11.9006 31.2059C12.2585 30.9927 12.698 31.1871 12.7787 31.5936C12.8264 31.8338 12.7123 32.0743 12.4844 32.2109C12.0579 32.4664 11.6308 32.7213 11.2041 32.9766C11.0147 33.0901 10.8261 33.2048 10.6358 33.3166C10.5943 33.341 10.5779 33.3693 10.5779 33.4181C10.5791 34.513 10.5787 35.6077 10.579 36.7025C10.579 36.775 10.5851 36.7781 10.6489 36.7413C11.5654 36.2103 12.4804 35.6768 13.3999 35.1515C13.5081 35.0897 13.5475 35.0268 13.546 34.9035C13.542 34.5596 13.5524 34.2156 13.5587 33.8718C13.565 33.5302 13.5731 33.1886 13.5805 32.847C13.5872 32.5349 13.8361 32.2842 14.1432 32.2803C14.4619 32.2763 14.7322 32.5174 14.7345 32.8312C14.7376 33.2419 14.7221 33.6528 14.7149 34.0637C14.7134 34.1509 14.7145 34.238 14.7114 34.325C14.7095 34.3788 14.7272 34.3808 14.7686 34.3565C15.0363 34.2002 15.3047 34.0452 15.573 33.89C15.8567 33.7259 16.14 33.5609 16.4246 33.3984C16.6513 33.269 16.9599 33.3281 17.1374 33.532C17.3141 33.735 17.3216 34.0433 17.1577 34.2635C17.0972 34.3448 17.0166 34.3985 16.9313 34.4478C16.3965 34.7568 15.8616 35.0657 15.3269 35.3748C15.3177 35.3802 15.3094 35.387 15.2919 35.3995C15.3809 35.4497 15.4635 35.4964 15.5461 35.5428C15.9174 35.7515 16.2888 35.9598 16.6599 36.1688C16.9425 36.3281 17.04 36.6706 16.8867 36.9639C16.7507 37.2243 16.4008 37.34 16.1281 37.1973C15.8003 37.0259 15.481 36.8381 15.1584 36.6568C14.8279 36.4713 14.4974 36.2856 14.1675 36.0989C14.1314 36.0783 14.1025 36.0821 14.0683 36.1019C13.185 36.6146 12.3014 37.1265 11.4179 37.6386C11.3503 37.6778 11.2837 37.7185 11.2148 37.7551C11.1683 37.7798 11.1718 37.7946 11.2152 37.8195C11.4358 37.9459 11.6551 38.0745 11.875 38.202C12.2648 38.4276 12.6548 38.6531 13.0447 38.8784C13.3805 39.0727 13.7168 39.2661 14.0518 39.4617C14.0933 39.486 14.1247 39.4876 14.1677 39.4633C14.8055 39.1011 15.4442 38.7401 16.0834 38.3803C16.3514 38.2294 16.7037 38.3329 16.8613 38.6056C17.019 38.8785 16.9242 39.2325 16.6424 39.3968C16.3535 39.5653 16.0604 39.7265 15.7692 39.891C15.6236 39.9731 15.4784 40.0561 15.3321 40.1371C15.29 40.1604 15.2837 40.1754 15.3304 40.2024C15.7692 40.4547 16.2074 40.7079 16.6454 40.9617C16.7766 41.0377 16.9095 41.1114 17.0361 41.1944C17.2262 41.3191 17.3147 41.5723 17.258 41.8037C17.2017 42.0332 17.0082 42.2057 16.7827 42.2363C16.6362 42.2561 16.5045 42.2229 16.3793 42.1504C15.8698 41.8553 15.3605 41.5602 14.8506 41.266C14.8228 41.2499 14.7922 41.2136 14.763 41.2299C14.7326 41.2469 14.7503 41.2916 14.7507 41.3238C14.7555 41.699 14.7603 42.0742 14.7684 42.4494C14.771 42.5744 14.7879 42.6996 14.7686 42.8239C14.7221 43.1235 14.4591 43.3466 14.1784 43.3286C13.8564 43.308 13.6201 43.0652 13.6135 42.7434C13.6055 42.3481 13.6018 41.9528 13.5943 41.5576C13.5881 41.2315 13.5781 40.9056 13.5725 40.5796C13.5717 40.5307 13.5464 40.5084 13.5097 40.4872C13.0173 40.203 12.5252 39.9182 12.0329 39.6337C11.5714 39.3672 11.1098 39.1008 10.6481 38.8346C10.5823 38.7966 10.5794 38.798 10.5794 38.8725C10.5791 39.9651 10.5795 41.0577 10.5782 42.1502C10.5782 42.199 10.5953 42.2278 10.6362 42.2522C11.1764 42.5741 11.716 42.8972 12.2555 43.2201C12.3417 43.2716 12.4277 43.3234 12.5128 43.3765C12.7853 43.5468 12.8688 43.8979 12.7034 44.175C12.5435 44.4428 12.1867 44.5311 11.9123 44.3682C11.4925 44.1189 11.074 43.8672 10.6545 43.6171C10.6343 43.605 10.6135 43.5781 10.5901 43.5914C10.5667 43.6046 10.5794 43.6365 10.5794 43.6599C10.5787 44.2876 10.58 44.9156 10.5782 45.5434C10.5772 45.871 10.2994 46.1344 9.97534 46.12C9.6657 46.1061 9.42268 45.8514 9.42187 45.5341C9.42027 44.9331 9.42161 44.332 9.4208 43.731C9.4208 43.6965 9.43873 43.6477 9.4093 43.6305C9.38041 43.6136 9.34617 43.6522 9.31661 43.6699C8.9183 43.9076 8.52038 44.146 8.12287 44.3848C7.90258 44.5173 7.68162 44.521 7.46842 44.3768C7.12615 44.1453 7.13805 43.6321 7.4921 43.4106C7.79264 43.2227 8.09946 43.0448 8.40362 42.8625C8.7269 42.6688 9.04964 42.4742 9.37412 42.2824C9.42308 42.2535 9.42161 42.2134 9.42161 42.1681C9.42134 41.1113 9.42134 40.0544 9.42134 38.9976C9.42134 38.9551 9.42174 38.9127 9.42121 38.8702C9.4204 38.7996 9.41599 38.7965 9.35593 38.831C9.20506 38.9174 9.05446 39.0046 8.90399 39.0917C8.42154 39.3709 7.9391 39.6503 7.45679 39.9296C7.14421 40.1105 6.83189 40.2919 6.51851 40.4717C6.4824 40.4923 6.4713 40.5179 6.46956 40.5578C6.45712 40.8369 6.46046 41.1161 6.45565 41.3952C6.44789 41.8485 6.44067 42.3019 6.42984 42.7551C6.42261 43.0571 6.17624 43.3082 5.88239 43.3198C5.56673 43.3321 5.29642 43.112 5.2785 42.7992C5.26325 42.5324 5.2805 42.2638 5.28385 41.9959C5.28706 41.7391 5.29187 41.4822 5.29334 41.2254C5.29374 41.1666 5.25736 41.2051 5.24158 41.2141C5.08429 41.3029 4.92793 41.3932 4.77157 41.4837C4.38958 41.7049 4.00544 41.9227 3.62639 42.1492C3.28532 42.3529 2.91268 42.1951 2.78121 41.916C2.64906 41.6356 2.757 41.3065 3.02597 41.1518C3.55363 40.8483 4.07967 40.5419 4.60599 40.2362C4.68062 40.1927 4.67942 40.1798 4.60291 40.1368C4.1832 39.9006 3.76215 39.6667 3.3443 39.4271C2.99374 39.2263 2.94532 38.7604 3.24212 38.487C3.42255 38.3206 3.70089 38.2954 3.92773 38.4232C4.55329 38.7756 5.17952 39.1267 5.80428 39.4803C5.85096 39.5067 5.88399 39.4995 5.92626 39.475C6.84808 38.9399 7.77043 38.4059 8.69279 37.8718C8.83871 37.7873 8.83978 37.7858 8.69359 37.7011C8.00463 37.3023 7.31514 36.9045 6.62592 36.5063C6.40777 36.3802 6.18935 36.2546 5.9724 36.1263C5.93 36.1013 5.8983 36.1037 5.85644 36.1274C5.21456 36.4916 4.57228 36.8553 3.92893 37.2169C3.65394 37.3715 3.29963 37.2676 3.14608 36.9922C2.98999 36.7122 3.0875 36.362 3.36798 36.2025C3.80401 35.9545 4.24098 35.7078 4.67728 35.4602C4.696 35.4496 4.72623 35.4445 4.72663 35.4204C4.72717 35.3921 4.69467 35.3867 4.67447 35.3751C4.1206 35.0545 3.56513 34.7366 3.01287 34.4133C2.75151 34.2603 2.65655 33.9514 2.77492 33.6743C2.90733 33.3642 3.30097 33.2375 3.59308 33.4074C4.12702 33.7179 4.66243 34.0258 5.19744 34.3345C5.26151 34.3715 5.26338 34.3708 5.26204 34.2948C5.25348 33.8125 5.24171 33.3302 5.2365 32.8478C5.23422 32.6316 5.33547 32.4649 5.51925 32.3548C5.90058 32.126 6.38302 32.3975 6.39238 32.8442C6.39854 33.1323 6.40188 33.4204 6.40736 33.7085C6.41552 34.1372 6.42582 34.5659 6.43171 34.9946C6.43251 35.0562 6.47157 35.074 6.51129 35.097C6.91442 35.3308 7.31768 35.5644 7.72108 35.7978C8.25957 36.1093 8.79819 36.4207 9.33667 36.7321C9.35018 36.7399 9.36383 36.7477 9.37733 36.7553C9.4101 36.7738 9.42214 36.7602 9.42147 36.7266C9.42121 36.7132 9.42161 36.6998 9.42161 36.6864C9.42161 35.6117 9.42107 34.5371 9.42294 33.4623C9.42308 33.3981 9.40194 33.3634 9.34657 33.3307C8.9413 33.0917 8.53857 32.8485 8.13478 32.6069C7.93575 32.4879 7.73726 32.3679 7.53704 32.2509C7.20386 32.0561 7.11826 31.6543 7.34925 31.3614C7.52406 31.1397 7.85269 31.0843 8.10522 31.2352C8.51677 31.4812 8.92779 31.728 9.33908 31.9743C9.36182 31.988 9.38496 32.0007 9.42147 32.0215Z" fill="#959595"/>
<path d="M29.868 40.14H26.22L25.548 42H24.396L27.42 33.684H28.68L31.692 42H30.54L29.868 40.14ZM29.556 39.252L28.044 35.028L26.532 39.252H29.556ZM33.5739 34.356C33.3659 34.356 33.1899 34.284 33.0459 34.14C32.9019 33.996 32.8299 33.82 32.8299 33.612C32.8299 33.404 32.9019 33.228 33.0459 33.084C33.1899 32.94 33.3659 32.868 33.5739 32.868C33.7739 32.868 33.9419 32.94 34.0779 33.084C34.2219 33.228 34.2939 33.404 34.2939 33.612C34.2939 33.82 34.2219 33.996 34.0779 34.14C33.9419 34.284 33.7739 34.356 33.5739 34.356ZM34.1019 35.424V42H33.0099V35.424H34.1019ZM37.0551 36.492C37.2471 36.116 37.5191 35.824 37.8711 35.616C38.2311 35.408 38.6671 35.304 39.1791 35.304V36.432H38.8911C37.6671 36.432 37.0551 37.096 37.0551 38.424V42H35.9631V35.424H37.0551V36.492ZM43.2308 37.812C43.2308 36.996 43.4148 36.264 43.7828 35.616C44.1508 34.96 44.6508 34.448 45.2828 34.08C45.9228 33.712 46.6308 33.528 47.4068 33.528C48.3188 33.528 49.1148 33.748 49.7948 34.188C50.4748 34.628 50.9708 35.252 51.2828 36.06H49.9748C49.7428 35.556 49.4068 35.168 48.9668 34.896C48.5348 34.624 48.0148 34.488 47.4068 34.488C46.8228 34.488 46.2988 34.624 45.8348 34.896C45.3708 35.168 45.0068 35.556 44.7428 36.06C44.4788 36.556 44.3468 37.14 44.3468 37.812C44.3468 38.476 44.4788 39.06 44.7428 39.564C45.0068 40.06 45.3708 40.444 45.8348 40.716C46.2988 40.988 46.8228 41.124 47.4068 41.124C48.0148 41.124 48.5348 40.992 48.9668 40.728C49.4068 40.456 49.7428 40.068 49.9748 39.564H51.2828C50.9708 40.364 50.4748 40.984 49.7948 41.424C49.1148 41.856 48.3188 42.072 47.4068 42.072C46.6308 42.072 45.9228 41.892 45.2828 41.532C44.6508 41.164 44.1508 40.656 43.7828 40.008C43.4148 39.36 43.2308 38.628 43.2308 37.812ZM55.7764 42.108C55.1604 42.108 54.6004 41.968 54.0964 41.688C53.6004 41.408 53.2084 41.012 52.9204 40.5C52.6404 39.98 52.5004 39.38 52.5004 38.7C52.5004 38.028 52.6444 37.436 52.9324 36.924C53.2284 36.404 53.6284 36.008 54.1324 35.736C54.6364 35.456 55.2004 35.316 55.8244 35.316C56.4484 35.316 57.0124 35.456 57.5164 35.736C58.0204 36.008 58.4164 36.4 58.7044 36.912C59.0004 37.424 59.1484 38.02 59.1484 38.7C59.1484 39.38 58.9964 39.98 58.6924 40.5C58.3964 41.012 57.9924 41.408 57.4804 41.688C56.9684 41.968 56.4004 42.108 55.7764 42.108ZM55.7764 41.148C56.1684 41.148 56.5364 41.056 56.8804 40.872C57.2244 40.688 57.5004 40.412 57.7084 40.044C57.9244 39.676 58.0324 39.228 58.0324 38.7C58.0324 38.172 57.9284 37.724 57.7204 37.356C57.5124 36.988 57.2404 36.716 56.9044 36.54C56.5684 36.356 56.2044 36.264 55.8124 36.264C55.4124 36.264 55.0444 36.356 54.7084 36.54C54.3804 36.716 54.1164 36.988 53.9164 37.356C53.7164 37.724 53.6164 38.172 53.6164 38.7C53.6164 39.236 53.7124 39.688 53.9044 40.056C54.1044 40.424 54.3684 40.7 54.6964 40.884C55.0244 41.06 55.3844 41.148 55.7764 41.148ZM63.7882 35.304C64.5882 35.304 65.2362 35.548 65.7322 36.036C66.2282 36.516 66.4762 37.212 66.4762 38.124V42H65.3962V38.28C65.3962 37.624 65.2322 37.124 64.9042 36.78C64.5762 36.428 64.1282 36.252 63.5602 36.252C62.9842 36.252 62.5242 36.432 62.1802 36.792C61.8442 37.152 61.6762 37.676 61.6762 38.364V42H60.5842V35.424H61.6762V36.36C61.8922 36.024 62.1842 35.764 62.5522 35.58C62.9282 35.396 63.3402 35.304 63.7882 35.304ZM67.8519 38.688C67.8519 38.016 67.9879 37.428 68.2599 36.924C68.5319 36.412 68.9039 36.016 69.3759 35.736C69.8559 35.456 70.3919 35.316 70.9839 35.316C71.4959 35.316 71.9719 35.436 72.4119 35.676C72.8519 35.908 73.1879 36.216 73.4199 36.6V33.12H74.5239V42H73.4199V40.764C73.2039 41.156 72.8839 41.48 72.4599 41.736C72.0359 41.984 71.5399 42.108 70.9719 42.108C70.3879 42.108 69.8559 41.964 69.3759 41.676C68.9039 41.388 68.5319 40.984 68.2599 40.464C67.9879 39.944 67.8519 39.352 67.8519 38.688ZM73.4199 38.7C73.4199 38.204 73.3199 37.772 73.1199 37.404C72.9199 37.036 72.6479 36.756 72.3039 36.564C71.9679 36.364 71.5959 36.264 71.1879 36.264C70.7799 36.264 70.4079 36.36 70.0719 36.552C69.7359 36.744 69.4679 37.024 69.2679 37.392C69.0679 37.76 68.9679 38.192 68.9679 38.688C68.9679 39.192 69.0679 39.632 69.2679 40.008C69.4679 40.376 69.7359 40.66 70.0719 40.86C70.4079 41.052 70.7799 41.148 71.1879 41.148C71.5959 41.148 71.9679 41.052 72.3039 40.86C72.6479 40.66 72.9199 40.376 73.1199 40.008C73.3199 39.632 73.4199 39.196 73.4199 38.7ZM76.9333 34.356C76.7253 34.356 76.5493 34.284 76.4053 34.14C76.2613 33.996 76.1893 33.82 76.1893 33.612C76.1893 33.404 76.2613 33.228 76.4053 33.084C76.5493 32.94 76.7253 32.868 76.9333 32.868C77.1333 32.868 77.3013 32.94 77.4373 33.084C77.5813 33.228 77.6533 33.404 77.6533 33.612C77.6533 33.82 77.5813 33.996 77.4373 34.14C77.3013 34.284 77.1333 34.356 76.9333 34.356ZM77.4613 35.424V42H76.3693V35.424H77.4613ZM80.6544 36.324V40.2C80.6544 40.52 80.7224 40.748 80.8584 40.884C80.9944 41.012 81.2304 41.076 81.5664 41.076H82.3704V42H81.3864C80.7784 42 80.3224 41.86 80.0184 41.58C79.7144 41.3 79.5624 40.84 79.5624 40.2V36.324H78.7104V35.424H79.5624V33.768H80.6544V35.424H82.3704V36.324H80.6544ZM84.2575 34.356C84.0495 34.356 83.8735 34.284 83.7295 34.14C83.5855 33.996 83.5135 33.82 83.5135 33.612C83.5135 33.404 83.5855 33.228 83.7295 33.084C83.8735 32.94 84.0495 32.868 84.2575 32.868C84.4575 32.868 84.6255 32.94 84.7615 33.084C84.9055 33.228 84.9775 33.404 84.9775 33.612C84.9775 33.82 84.9055 33.996 84.7615 34.14C84.6255 34.284 84.4575 34.356 84.2575 34.356ZM84.7855 35.424V42H83.6935V35.424H84.7855ZM89.5147 42.108C88.8987 42.108 88.3387 41.968 87.8347 41.688C87.3387 41.408 86.9467 41.012 86.6587 40.5C86.3787 39.98 86.2387 39.38 86.2387 38.7C86.2387 38.028 86.3827 37.436 86.6707 36.924C86.9667 36.404 87.3667 36.008 87.8707 35.736C88.3747 35.456 88.9387 35.316 89.5627 35.316C90.1867 35.316 90.7507 35.456 91.2547 35.736C91.7587 36.008 92.1547 36.4 92.4427 36.912C92.7387 37.424 92.8867 38.02 92.8867 38.7C92.8867 39.38 92.7347 39.98 92.4307 40.5C92.1347 41.012 91.7307 41.408 91.2187 41.688C90.7067 41.968 90.1387 42.108 89.5147 42.108ZM89.5147 41.148C89.9067 41.148 90.2747 41.056 90.6187 40.872C90.9627 40.688 91.2387 40.412 91.4467 40.044C91.6627 39.676 91.7707 39.228 91.7707 38.7C91.7707 38.172 91.6667 37.724 91.4587 37.356C91.2507 36.988 90.9787 36.716 90.6427 36.54C90.3067 36.356 89.9427 36.264 89.5507 36.264C89.1507 36.264 88.7827 36.356 88.4467 36.54C88.1187 36.716 87.8547 36.988 87.6547 37.356C87.4547 37.724 87.3547 38.172 87.3547 38.7C87.3547 39.236 87.4507 39.688 87.6427 40.056C87.8427 40.424 88.1067 40.7 88.4347 40.884C88.7627 41.06 89.1227 41.148 89.5147 41.148ZM97.5264 35.304C98.3264 35.304 98.9744 35.548 99.4704 36.036C99.9664 36.516 100.214 37.212 100.214 38.124V42H99.1344V38.28C99.1344 37.624 98.9704 37.124 98.6424 36.78C98.3144 36.428 97.8664 36.252 97.2984 36.252C96.7224 36.252 96.2624 36.432 95.9184 36.792C95.5824 37.152 95.4144 37.676 95.4144 38.364V42H94.3224V35.424H95.4144V36.36C95.6304 36.024 95.9224 35.764 96.2904 35.58C96.6664 35.396 97.0784 35.304 97.5264 35.304ZM102.562 34.356C102.354 34.356 102.178 34.284 102.034 34.14C101.89 33.996 101.818 33.82 101.818 33.612C101.818 33.404 101.89 33.228 102.034 33.084C102.178 32.94 102.354 32.868 102.562 32.868C102.762 32.868 102.93 32.94 103.066 33.084C103.21 33.228 103.282 33.404 103.282 33.612C103.282 33.82 103.21 33.996 103.066 34.14C102.93 34.284 102.762 34.356 102.562 34.356ZM103.09 35.424V42H101.998V35.424H103.09ZM108.155 35.304C108.955 35.304 109.603 35.548 110.099 36.036C110.595 36.516 110.843 37.212 110.843 38.124V42H109.763V38.28C109.763 37.624 109.599 37.124 109.271 36.78C108.943 36.428 108.495 36.252 107.927 36.252C107.351 36.252 106.891 36.432 106.547 36.792C106.211 37.152 106.043 37.676 106.043 38.364V42H104.951V35.424H106.043V36.36C106.259 36.024 106.551 35.764 106.919 35.58C107.295 35.396 107.707 35.304 108.155 35.304ZM115.339 35.316C115.907 35.316 116.403 35.44 116.827 35.688C117.259 35.936 117.579 36.248 117.787 36.624V35.424H118.891V42.144C118.891 42.744 118.763 43.276 118.507 43.74C118.251 44.212 117.883 44.58 117.403 44.844C116.931 45.108 116.379 45.24 115.747 45.24C114.883 45.24 114.163 45.036 113.587 44.628C113.011 44.22 112.671 43.664 112.567 42.96H113.647C113.767 43.36 114.015 43.68 114.391 43.92C114.767 44.168 115.219 44.292 115.747 44.292C116.347 44.292 116.835 44.104 117.211 43.728C117.595 43.352 117.787 42.824 117.787 42.144V40.764C117.571 41.148 117.251 41.468 116.827 41.724C116.403 41.98 115.907 42.108 115.339 42.108C114.755 42.108 114.223 41.964 113.743 41.676C113.271 41.388 112.899 40.984 112.627 40.464C112.355 39.944 112.219 39.352 112.219 38.688C112.219 38.016 112.355 37.428 112.627 36.924C112.899 36.412 113.271 36.016 113.743 35.736C114.223 35.456 114.755 35.316 115.339 35.316ZM117.787 38.7C117.787 38.204 117.687 37.772 117.487 37.404C117.287 37.036 117.015 36.756 116.671 36.564C116.335 36.364 115.963 36.264 115.555 36.264C115.147 36.264 114.775 36.36 114.439 36.552C114.103 36.744 113.835 37.024 113.635 37.392C113.435 37.76 113.335 38.192 113.335 38.688C113.335 39.192 113.435 39.632 113.635 40.008C113.835 40.376 114.103 40.66 114.439 40.86C114.775 41.052 115.147 41.148 115.555 41.148C115.963 41.148 116.335 41.052 116.671 40.86C117.015 40.66 117.287 40.376 117.487 40.008C117.687 39.632 117.787 39.196 117.787 38.7Z" fill="#959595"/>
<path d="M148.417 45.6328C146.194 45.6328 143.972 45.633 141.749 45.6326C141.515 45.6326 141.283 45.6123 141.067 45.5141C140.811 45.3978 140.669 45.2129 140.67 44.9144C140.674 42.5894 140.678 40.2646 140.668 37.9397C140.666 37.418 140.821 36.9572 141.082 36.521C141.301 36.1555 141.59 35.8474 141.886 35.5447C143.042 34.3628 144.375 33.4222 145.835 32.6556C146.729 32.1864 147.657 31.7989 148.615 31.481C149.686 31.1253 150.781 30.8641 151.895 30.6813C152.583 30.5686 153.274 30.4876 153.969 30.4335C154.872 30.3632 155.777 30.3498 156.682 30.3684C157.093 30.3769 157.377 30.7328 157.33 31.1433C157.274 31.6254 157.234 32.1092 157.186 32.5922C157.14 33.0578 157.093 33.5232 157.047 33.9889C157.001 34.4651 156.957 34.9413 156.911 35.4175C156.867 35.8761 156.822 36.3348 156.776 36.7934C156.737 37.1889 156.698 37.5844 156.659 37.98C156.612 38.4596 156.565 38.9392 156.518 39.4188C156.473 39.8774 156.429 40.3361 156.384 40.7945C156.338 41.2671 156.29 41.7395 156.244 42.2121C156.205 42.6006 156.17 42.9895 156.13 43.378C156.075 43.9062 156.044 44.4376 155.961 44.962C155.89 45.4022 155.594 45.6333 155.149 45.6331C152.905 45.6326 150.661 45.6328 148.417 45.6328ZM143.049 37.8701C143.074 37.9037 143.111 37.9039 143.143 37.9107C143.412 37.9686 143.681 38.0014 143.959 37.9809C144.552 37.9371 145.042 37.6949 145.436 37.2548C145.492 37.1925 145.548 37.1722 145.628 37.1722C147.864 37.1735 150.101 37.1733 152.337 37.173C153.411 37.173 154.486 37.1718 155.56 37.1749C155.664 37.1752 155.698 37.1468 155.704 37.0397C155.717 36.7905 155.747 36.5423 155.77 36.2936C155.81 35.8486 155.85 35.4039 155.89 34.959C155.921 34.6052 155.952 34.2512 155.982 33.8973C156.022 33.4349 156.062 32.9724 156.1 32.5098C156.126 32.1766 156.146 31.8429 156.175 31.5102C156.19 31.3403 156.186 31.3284 156.015 31.3261C155.42 31.3177 154.826 31.3386 154.232 31.383C153.681 31.4242 153.132 31.484 152.586 31.5654C151.761 31.6882 150.944 31.8547 150.136 32.0682C148.911 32.3924 147.724 32.8209 146.589 33.3886C145.683 33.8424 144.829 34.3805 144.039 35.0169C143.874 35.1495 143.715 35.2892 143.557 35.4289C143.462 35.513 143.465 35.5153 143.569 35.5787C143.614 35.6062 143.659 35.6337 143.701 35.6654C144.172 36.0182 144.399 36.4984 144.44 37.0773C144.447 37.1821 144.397 37.2493 144.327 37.3132C144.079 37.5383 143.79 37.6858 143.469 37.7727C143.332 37.8097 143.191 37.8374 143.049 37.8701ZM148.4 44.5261C148.4 44.5264 148.4 44.5264 148.4 44.5266C150.563 44.5266 152.725 44.5266 154.887 44.5261C154.933 44.5261 154.98 44.5266 155.024 44.5164C155.121 44.4942 155.196 44.4086 155.189 44.3366C155.181 44.2493 155.106 44.1958 154.987 44.1935C154.913 44.192 154.839 44.1926 154.765 44.1926C153.547 44.1926 152.328 44.193 151.11 44.193C148.053 44.193 144.996 44.1928 141.94 44.1928C141.894 44.1928 141.848 44.1913 141.803 44.1964C141.715 44.2061 141.661 44.256 141.652 44.3456C141.644 44.4372 141.695 44.4934 141.778 44.5164C141.821 44.5285 141.869 44.5259 141.914 44.5259C144.076 44.5264 146.238 44.5261 148.4 44.5261ZM153.769 38.5528C153.769 38.5526 153.769 38.5526 153.769 38.5524C153.445 38.5524 153.121 38.5513 152.798 38.5526C152.554 38.5537 152.378 38.7162 152.372 38.9417C152.366 39.1569 152.54 39.3408 152.778 39.3431C153.432 39.3494 154.087 39.3492 154.741 39.3429C154.987 39.3406 155.154 39.1609 155.148 38.9354C155.142 38.7124 154.964 38.5532 154.718 38.5528C154.402 38.5524 154.085 38.5528 153.769 38.5528Z" fill="#959595"/>
<path d="M164.48 40.068V39.24L168.692 33.408H170V39.12H171.2V40.068H170V42H168.92V40.068H164.48ZM168.968 34.548L165.74 39.12H168.968V34.548ZM178.274 33.636C179.186 33.636 179.974 33.808 180.638 34.152C181.31 34.488 181.822 34.972 182.174 35.604C182.534 36.236 182.714 36.98 182.714 37.836C182.714 38.692 182.534 39.436 182.174 40.068C181.822 40.692 181.31 41.172 180.638 41.508C179.974 41.836 179.186 42 178.274 42H175.67V33.636H178.274ZM178.274 41.1C179.354 41.1 180.178 40.816 180.746 40.248C181.314 39.672 181.598 38.868 181.598 37.836C181.598 36.796 181.31 35.984 180.734 35.4C180.166 34.816 179.346 34.524 178.274 34.524H176.762V41.1H178.274ZM187.022 42.108C186.406 42.108 185.846 41.968 185.342 41.688C184.846 41.408 184.454 41.012 184.166 40.5C183.886 39.98 183.746 39.38 183.746 38.7C183.746 38.028 183.89 37.436 184.178 36.924C184.474 36.404 184.874 36.008 185.378 35.736C185.882 35.456 186.446 35.316 187.07 35.316C187.694 35.316 188.258 35.456 188.762 35.736C189.266 36.008 189.662 36.4 189.95 36.912C190.246 37.424 190.394 38.02 190.394 38.7C190.394 39.38 190.242 39.98 189.938 40.5C189.642 41.012 189.238 41.408 188.726 41.688C188.214 41.968 187.646 42.108 187.022 42.108ZM187.022 41.148C187.414 41.148 187.782 41.056 188.126 40.872C188.47 40.688 188.746 40.412 188.954 40.044C189.17 39.676 189.278 39.228 189.278 38.7C189.278 38.172 189.174 37.724 188.966 37.356C188.758 36.988 188.486 36.716 188.15 36.54C187.814 36.356 187.45 36.264 187.058 36.264C186.658 36.264 186.29 36.356 185.954 36.54C185.626 36.716 185.362 36.988 185.162 37.356C184.962 37.724 184.862 38.172 184.862 38.7C184.862 39.236 184.958 39.688 185.15 40.056C185.35 40.424 185.614 40.7 185.942 40.884C186.27 41.06 186.63 41.148 187.022 41.148ZM194.698 42.108C194.082 42.108 193.522 41.968 193.018 41.688C192.522 41.408 192.13 41.012 191.842 40.5C191.562 39.98 191.422 39.38 191.422 38.7C191.422 38.028 191.566 37.436 191.854 36.924C192.15 36.404 192.55 36.008 193.054 35.736C193.558 35.456 194.122 35.316 194.746 35.316C195.37 35.316 195.934 35.456 196.438 35.736C196.942 36.008 197.338 36.4 197.626 36.912C197.922 37.424 198.07 38.02 198.07 38.7C198.07 39.38 197.918 39.98 197.614 40.5C197.318 41.012 196.914 41.408 196.402 41.688C195.89 41.968 195.322 42.108 194.698 42.108ZM194.698 41.148C195.09 41.148 195.458 41.056 195.802 40.872C196.146 40.688 196.422 40.412 196.63 40.044C196.846 39.676 196.954 39.228 196.954 38.7C196.954 38.172 196.85 37.724 196.642 37.356C196.434 36.988 196.162 36.716 195.826 36.54C195.49 36.356 195.126 36.264 194.734 36.264C194.334 36.264 193.966 36.356 193.63 36.54C193.302 36.716 193.038 36.988 192.838 37.356C192.638 37.724 192.538 38.172 192.538 38.7C192.538 39.236 192.634 39.688 192.826 40.056C193.026 40.424 193.29 40.7 193.618 40.884C193.946 41.06 194.306 41.148 194.698 41.148ZM200.598 36.492C200.79 36.116 201.062 35.824 201.414 35.616C201.774 35.408 202.21 35.304 202.722 35.304V36.432H202.434C201.21 36.432 200.598 37.096 200.598 38.424V42H199.506V35.424H200.598V36.492ZM206.311 42.108C205.807 42.108 205.355 42.024 204.955 41.856C204.555 41.68 204.239 41.44 204.007 41.136C203.775 40.824 203.647 40.468 203.623 40.068H204.751C204.783 40.396 204.935 40.664 205.207 40.872C205.487 41.08 205.851 41.184 206.299 41.184C206.715 41.184 207.043 41.092 207.283 40.908C207.523 40.724 207.643 40.492 207.643 40.212C207.643 39.924 207.515 39.712 207.259 39.576C207.003 39.432 206.607 39.292 206.071 39.156C205.583 39.028 205.183 38.9 204.871 38.772C204.567 38.636 204.303 38.44 204.079 38.184C203.863 37.92 203.755 37.576 203.755 37.152C203.755 36.816 203.855 36.508 204.055 36.228C204.255 35.948 204.539 35.728 204.907 35.568C205.275 35.4 205.695 35.316 206.167 35.316C206.895 35.316 207.483 35.5 207.931 35.868C208.379 36.236 208.619 36.74 208.651 37.38H207.559C207.535 37.036 207.395 36.76 207.139 36.552C206.891 36.344 206.555 36.24 206.131 36.24C205.739 36.24 205.427 36.324 205.195 36.492C204.963 36.66 204.847 36.88 204.847 37.152C204.847 37.368 204.915 37.548 205.051 37.692C205.195 37.828 205.371 37.94 205.579 38.028C205.795 38.108 206.091 38.2 206.467 38.304C206.939 38.432 207.323 38.56 207.619 38.688C207.915 38.808 208.167 38.992 208.375 39.24C208.591 39.488 208.703 39.812 208.711 40.212C208.711 40.572 208.611 40.896 208.411 41.184C208.211 41.472 207.927 41.7 207.559 41.868C207.199 42.028 206.783 42.108 206.311 42.108Z" fill="#959595"/>
</svg>
