<svg width="225" height="67" viewBox="0 0 225 67" fill="none" xmlns="http://www.w3.org/2000/svg">
<rect width="224.133" height="66.5394" fill="white"/>
<path d="M213.78 35.7581L215.088 35.6526C215.624 35.6104 216.159 35.5471 216.652 35.4838C217.938 35.294 219.031 34.9565 219.932 34.4924C220.275 34.3236 220.446 34.1971 220.832 33.9228C221.968 33.1212 222.547 32.0454 222.632 30.5687C222.654 30.2734 222.632 30.0414 222.611 29.7882C222.547 28.8601 222.332 28.0796 221.946 27.4678C221.496 26.7295 220.853 26.1599 219.996 25.738C219.139 25.3161 218.046 24.9997 216.781 24.8099C216.781 24.8099 214.916 24.5145 212.151 24.5145H191.018V42.0443H197.662V35.8847H206.686L216.845 42.0654H224.133L213.78 35.7581ZM210.758 26.5607C210.801 26.5607 210.822 26.5607 210.865 26.5607C211.615 26.5818 212.258 26.6029 212.816 26.6662C213.523 26.7506 214.123 26.8982 214.595 27.1514C215.088 27.4045 215.473 27.7842 215.666 28.2483C215.859 28.6491 215.945 29.1554 215.966 29.7671C215.966 29.8093 215.988 30.6531 215.945 31.075C215.924 31.4969 215.816 31.961 215.666 32.2774C215.516 32.6149 215.302 32.8892 215.002 33.1212C214.916 33.1845 214.83 33.2478 214.745 33.29C214.316 33.522 213.78 33.6697 213.094 33.7541C212.473 33.8174 211.68 33.8595 210.737 33.8595H197.619V26.5607H210.758Z" fill="#5F5F5F"/>
<path d="M21.8196 24.5356V32.7837C21.8196 35.2518 20.8979 37.087 19.076 38.2261C17.5114 39.2176 15.2394 39.7239 12.3458 39.7239H0V42.0654H10.2453C13.096 42.0654 15.7109 41.9599 18.0044 41.749C20.2549 41.538 22.1625 41.1161 23.7057 40.4833C25.2061 39.8715 26.385 38.9856 27.1994 37.8464C27.9282 36.8128 28.3354 35.4627 28.4212 33.7962C28.4212 33.6486 28.4426 33.4587 28.4426 33.2478V24.5356H21.8196Z" fill="#5F5F5F"/>
<path d="M97.8887 34.0284V39.724H87.7506C82.435 39.724 79.3485 38.0364 78.5126 34.7456C78.1697 33.3744 78.384 32.0666 78.5126 31.5814C79.3271 28.2484 82.3707 26.6241 87.7506 26.6241H103.612V24.5357H89.8296C86.9361 24.5357 84.3212 24.6412 82.0278 24.831C79.7986 25.0209 77.8696 25.4428 76.3264 26.0545C74.8046 26.6663 73.6471 27.5312 72.8541 28.6703C72.0825 29.7461 71.6967 31.2017 71.6538 32.9947C71.6538 33.0369 71.6538 33.0791 71.6538 33.1424C71.6538 33.2268 71.6538 33.3112 71.6538 33.4166C71.6752 35.273 72.0825 36.7707 72.8755 37.8677C73.69 39.0068 74.8689 39.8928 76.3692 40.5045C77.9125 41.1374 79.8415 41.5593 82.0706 41.7702C84.364 41.9811 86.9575 42.0866 89.8296 42.0866H104.512V34.0284H97.8887Z" fill="#5F5F5F"/>
<path d="M53.6054 24.5357H46.768L31.4429 42.0655H35.4081L38.859 38.1208H58.1279L61.5787 42.0655H68.952L53.6054 24.5357ZM48.4827 27.1093L56.4775 36.2433H40.5094L48.4827 27.1093Z" fill="#5F5F5F"/>
<path d="M162.917 24.5357L147.592 42.0655H151.558L155.008 38.0997H174.256L177.707 42.0655H185.101L169.776 24.5357H162.917ZM172.648 36.2433H156.659L164.654 27.1093L172.648 36.2433Z" fill="#5F5F5F"/>
<path d="M137.969 24.5357V33.4166C137.969 34.1761 137.862 34.8722 137.712 35.505C136.854 38.7325 133.789 40.3779 128.517 40.399H127.852C122.558 40.399 119.472 38.7114 118.636 35.4417C118.486 34.83 118.4 34.155 118.4 33.4377V24.5357H111.755V33.6909C111.755 35.5894 112.163 37.1504 112.977 38.2895C113.491 38.9857 114.135 39.6185 114.906 40.1248C115.378 40.4201 115.892 40.6944 116.471 40.9264C117.05 41.1584 117.671 41.3694 118.357 41.5382C119.493 41.8335 120.779 42.0444 122.194 42.1921C123.973 42.3609 125.987 42.4663 128.174 42.4663C130.381 42.4663 132.375 42.3609 134.154 42.1921C135.547 42.0655 136.833 41.8546 137.969 41.5592C138.655 41.3905 139.276 41.1795 139.855 40.9475C140.434 40.7155 140.948 40.4623 141.42 40.1459C142.213 39.6396 142.856 39.0279 143.349 38.3106C144.163 37.1715 144.57 35.6105 144.57 33.712V24.5357H137.969Z" fill="#5F5F5F"/>
</svg>
