<svg width="144" height="67" viewBox="0 0 144 67" fill="none" xmlns="http://www.w3.org/2000/svg">
<rect width="143.585" height="66.5394" fill="white"/>
<path d="M118.467 58.1213C112.774 58.1213 107.333 56.2511 102.937 52.7625C98.5409 56.2151 93.0999 58.1213 87.4067 58.1213C81.7136 58.1213 76.2726 56.2511 71.8766 52.7625C67.4806 56.2151 62.0396 58.1213 56.3465 58.1213C50.6533 58.1213 45.2123 56.2511 40.8163 52.7625C36.4203 56.2151 30.9794 58.1213 25.2862 58.1213C18.6561 58.1213 12.4225 55.6037 7.70216 51.0003C2.90979 46.3968 0.243364 40.2468 0.135266 33.7013C0.0271672 27.1197 2.4774 20.8978 7.05357 16.1145C11.5937 11.3672 17.7553 8.63388 24.3854 8.41809H24.4935H26.0789C31.4838 8.59791 36.6005 10.4681 40.7803 13.7409C44.9241 10.4681 50.0407 8.59791 55.4456 8.41809L55.5537 11.2233V8.41809H57.1392C62.5441 8.59791 67.6608 10.4681 71.8406 13.7409C76.0204 10.4681 81.101 8.59791 86.542 8.41809H86.6501H88.2355C93.6404 8.59791 98.7571 10.4681 102.937 13.7409C107.081 10.4681 112.197 8.59791 117.638 8.41809L117.746 11.2233V8.41809H119.332C125.926 8.63388 132.087 11.3672 136.664 16.1145C141.24 20.8619 143.69 27.1197 143.582 33.6653C143.474 40.2468 140.807 46.3968 136.087 51.0003C131.295 55.6037 125.061 58.1213 118.467 58.1213ZM107.045 48.6985C110.252 51.0362 114.215 52.4389 118.467 52.4389C128.953 52.4389 137.636 43.9872 137.781 33.6293C137.961 23.2715 129.601 14.5681 119.152 14.1724H117.782C113.783 14.3163 110.107 15.683 107.081 17.8768C110.684 22.3724 112.558 27.9109 112.486 33.7013C112.341 39.2039 110.468 44.4187 107.045 48.6985ZM75.9843 48.6985C79.1913 51.0362 83.1549 52.4389 87.4067 52.4389C91.6586 52.4389 95.5862 51.0362 98.7931 48.6985C95.406 44.4547 93.4963 39.2039 93.3882 33.7013C93.2801 27.9109 95.1898 22.3724 98.7931 17.8768C95.7664 15.683 92.091 14.3163 88.0914 14.1724H86.7221C82.7225 14.3163 79.0471 15.683 76.0204 17.8768C79.6237 22.3724 81.4974 27.9109 81.4253 33.7013C81.2812 39.2039 79.3714 44.4187 75.9843 48.6985ZM44.888 48.6985C48.0949 51.0362 52.0586 52.4389 56.3104 52.4389C60.5623 52.4389 64.4899 51.0362 67.6968 48.6985C64.3097 44.4547 62.4 39.2039 62.2919 33.7013C62.1838 27.9109 64.0935 22.3724 67.6968 17.8768C64.67 15.683 60.9947 14.3163 56.9951 14.1724H55.6258C51.6262 14.3163 47.9508 15.683 44.9241 17.8768C48.5273 22.3724 50.401 27.9109 50.329 33.7013C50.1848 39.2039 48.2751 44.4187 44.888 48.6985ZM24.5295 14.1365C14.08 14.4961 5.72035 23.2355 5.90052 33.5934C6.08068 43.9512 14.7286 52.4029 25.2141 52.4029C29.466 52.4029 33.3936 51.0003 36.6005 48.6626C33.2134 44.4187 31.3037 39.1679 31.1956 33.6653C31.0875 27.875 32.9972 22.3364 36.6005 17.8408C33.5737 15.647 29.8984 14.2803 25.8987 14.1365H24.5295ZM71.8406 21.9408C69.3903 25.2136 67.9851 29.2416 68.0571 33.5934C68.1292 37.6933 69.5345 41.5056 71.8406 44.5986C74.1467 41.5056 75.5519 37.6933 75.624 33.5934C75.6961 29.2416 74.2548 25.2136 71.8406 21.9408ZM40.7443 21.9408C38.294 25.2136 36.8887 29.2416 36.9608 33.5934C37.0329 37.6933 38.4381 41.5056 40.7443 44.5986C43.0504 41.5056 44.4556 37.6933 44.5277 33.5934C44.5998 29.2416 43.1945 25.2136 40.7443 21.9408ZM102.901 21.9408C100.451 25.2136 99.0454 29.2416 99.1174 33.5934C99.1895 37.6933 100.595 41.5056 102.901 44.5986C105.207 41.5056 106.612 37.6933 106.684 33.5934C106.792 29.2416 105.351 25.2136 102.901 21.9408Z" fill="#5F5F5F"/>
</svg>
