<svg width="225" height="67" viewBox="0 0 225 67" fill="none" xmlns="http://www.w3.org/2000/svg">
<rect width="224.133" height="66.5394" fill="white"/>
<g clip-path="url(#clip0_12_523)">
<path d="M3.80046 27.1274L11.5194 40.9347L20.4422 40.958L28.0195 27.1274H31.82V24.6127H20.395V27.1274H23.6998L18.1761 37.186L12.5817 27.1274H16.5946V24.6127H0V27.1274H3.80046Z" fill="#5F5F5F"/>
<path d="M102.069 27.1274V24.636H117.366V27.1274H113.565V38.4201H117.106C120.387 38.4201 122.535 36.278 122.535 33.3908H125.061V40.9581H102.093V38.3968H105.941V27.1041H102.069V27.1274Z" fill="#5F5F5F"/>
<path d="M64.9854 24.2635C57.3137 24.2635 53.23 28.0355 53.23 32.7854C53.23 37.5819 57.1485 41.4237 65.0327 41.4237C72.9168 41.4237 76.7881 37.5819 76.7881 32.7854C76.7881 28.0588 72.6808 24.2635 64.9854 24.2635ZM64.9146 38.8392C62.1056 38.7926 60.8781 35.7424 60.9253 32.6923C60.9725 29.5489 62.5069 26.8014 65.1271 26.848C67.7473 26.8946 69.14 29.6886 69.0928 32.832C69.0456 35.789 67.7945 38.8858 64.9146 38.8392Z" fill="#5F5F5F"/>
<path d="M151.121 27.1274L158.84 40.9347L167.763 40.958L175.34 27.1274H179.141V24.6127H167.716V27.1274H171.021L165.497 37.186L159.902 27.1274H163.915V24.6127H147.321V27.1274H151.121Z" fill="#5F5F5F"/>
<path d="M212.307 24.2635C204.635 24.2635 200.551 28.0355 200.551 32.7854C200.551 37.5819 204.47 41.4237 212.354 41.4237C220.238 41.4237 224.109 37.5819 224.109 32.7854C224.109 28.0588 220.002 24.2635 212.307 24.2635ZM212.236 38.8392C209.427 38.7926 208.199 35.7424 208.247 32.6923C208.294 29.5489 209.828 26.8014 212.448 26.848C215.069 26.8946 216.461 29.6886 216.414 32.832C216.367 35.789 215.116 38.8858 212.236 38.8392Z" fill="#5F5F5F"/>
</g>
<defs>
<clipPath id="clip0_12_523">
<rect width="224.133" height="17.1835" fill="white" transform="translate(0 24.2402)"/>
</clipPath>
</defs>
</svg>
