<svg width="80" height="21" viewBox="0 0 80 21" fill="none" xmlns="http://www.w3.org/2000/svg">
<path d="M5.68398 16.414H12.035V20.764H-2.33874e-05V0.318999H5.68398V16.414ZM24.0471 20.967C22.1331 20.967 20.3738 20.5223 18.7691 19.633C17.1644 18.7243 15.8884 17.4773 14.9411 15.892C14.0131 14.2873 13.5491 12.4797 13.5491 10.469C13.5491 8.45833 14.0131 6.66033 14.9411 5.075C15.8884 3.47033 17.1644 2.22333 18.7691 1.334C20.3738 0.444666 22.1331 -6.55651e-07 24.0471 -6.55651e-07C25.9804 -6.55651e-07 27.7398 0.444666 29.3251 1.334C30.9298 2.22333 32.1961 3.47033 33.1241 5.075C34.0521 6.66033 34.5161 8.45833 34.5161 10.469C34.5161 12.4797 34.0521 14.2873 33.1241 15.892C32.1961 17.4773 30.9298 18.7243 29.3251 19.633C27.7204 20.5223 25.9611 20.967 24.0471 20.967ZM24.0471 15.689C25.4971 15.689 26.6378 15.2153 27.4691 14.268C28.3198 13.3207 28.7451 12.0543 28.7451 10.469C28.7451 8.845 28.3198 7.569 27.4691 6.641C26.6378 5.69367 25.4971 5.22 24.0471 5.22C22.5778 5.22 21.4274 5.69367 20.5961 6.641C19.7648 7.569 19.3491 8.845 19.3491 10.469C19.3491 12.0737 19.7648 13.3497 20.5961 14.297C21.4274 15.225 22.5778 15.689 24.0471 15.689ZM50.1213 7.047C49.7926 6.50567 49.3383 6.09 48.7583 5.8C48.1976 5.51 47.5306 5.365 46.7573 5.365C45.3266 5.365 44.1956 5.829 43.3643 6.757C42.5523 7.685 42.1463 8.932 42.1463 10.498C42.1463 12.2573 42.5813 13.601 43.4513 14.529C44.3406 15.4377 45.6263 15.892 47.3083 15.892C49.2996 15.892 50.7206 14.993 51.5713 13.195H45.8583V9.106H56.4723V14.616C56.0276 15.6987 55.3703 16.7137 54.5003 17.661C53.6496 18.6083 52.5669 19.3913 51.2523 20.01C49.9376 20.6093 48.4393 20.909 46.7573 20.909C44.7079 20.909 42.8906 20.474 41.3053 19.604C39.7393 18.7147 38.5213 17.487 37.6513 15.921C36.8006 14.3357 36.3753 12.528 36.3753 10.498C36.3753 8.48733 36.8006 6.699 37.6513 5.133C38.5213 3.54767 39.7393 2.32 41.3053 1.45C42.8713 0.560666 44.6789 0.116 46.7283 0.116C49.2996 0.116 51.4263 0.734666 53.1083 1.972C54.7903 3.20933 55.8343 4.901 56.2403 7.047H50.1213ZM68.8215 20.967C66.9075 20.967 65.1482 20.5223 63.5435 19.633C61.9388 18.7243 60.6628 17.4773 59.7155 15.892C58.7875 14.2873 58.3235 12.4797 58.3235 10.469C58.3235 8.45833 58.7875 6.66033 59.7155 5.075C60.6628 3.47033 61.9388 2.22333 63.5435 1.334C65.1482 0.444666 66.9075 -6.55651e-07 68.8215 -6.55651e-07C70.7548 -6.55651e-07 72.5142 0.444666 74.0995 1.334C75.7042 2.22333 76.9705 3.47033 77.8985 5.075C78.8265 6.66033 79.2905 8.45833 79.2905 10.469C79.2905 12.4797 78.8265 14.2873 77.8985 15.892C76.9705 17.4773 75.7042 18.7243 74.0995 19.633C72.4948 20.5223 70.7355 20.967 68.8215 20.967ZM68.8215 15.689C70.2715 15.689 71.4122 15.2153 72.2435 14.268C73.0942 13.3207 73.5195 12.0543 73.5195 10.469C73.5195 8.845 73.0942 7.569 72.2435 6.641C71.4122 5.69367 70.2715 5.22 68.8215 5.22C67.3522 5.22 66.2018 5.69367 65.3705 6.641C64.5392 7.569 64.1235 8.845 64.1235 10.469C64.1235 12.0737 64.5392 13.3497 65.3705 14.297C66.2018 15.225 67.3522 15.689 68.8215 15.689Z" fill="white"/>
</svg>
