<svg width="1320" height="87" viewBox="0 0 1320 87" fill="none" xmlns="http://www.w3.org/2000/svg">
<path d="M78.4091 54.3636H80.0909L84.0455 64.0227H84.1818L88.1364 54.3636H89.8182V66H88.5V57.1591H88.3864L84.75 66H83.4773L79.8409 57.1591H79.7273V66H78.4091V54.3636ZM96.1207 66.1818C95.2798 66.1818 94.5545 65.9962 93.9446 65.625C93.3385 65.25 92.8707 64.7273 92.5412 64.0568C92.2154 63.3826 92.0526 62.5985 92.0526 61.7045C92.0526 60.8106 92.2154 60.0227 92.5412 59.3409C92.8707 58.6553 93.3291 58.1212 93.9162 57.7386C94.5071 57.3523 95.1965 57.1591 95.9844 57.1591C96.4389 57.1591 96.8878 57.2348 97.331 57.3864C97.7741 57.5379 98.1776 57.7841 98.5412 58.125C98.9048 58.4621 99.1946 58.9091 99.4105 59.4659C99.6264 60.0227 99.7344 60.7083 99.7344 61.5227V62.0909H93.0071V60.9318H98.3707C98.3707 60.4394 98.2723 60 98.0753 59.6136C97.8821 59.2273 97.6056 58.9223 97.2457 58.6989C96.8897 58.4754 96.4692 58.3636 95.9844 58.3636C95.4503 58.3636 94.9882 58.4962 94.598 58.7614C94.2116 59.0227 93.9143 59.3636 93.706 59.7841C93.4976 60.2045 93.3935 60.6553 93.3935 61.1364V61.9091C93.3935 62.5682 93.5071 63.1269 93.7344 63.5852C93.9654 64.0398 94.2855 64.3864 94.6946 64.625C95.1037 64.8598 95.5791 64.9773 96.1207 64.9773C96.473 64.9773 96.7912 64.928 97.0753 64.8295C97.3632 64.7273 97.6113 64.5758 97.8196 64.375C98.0279 64.1705 98.1889 63.9167 98.3026 63.6136L99.598 63.9773C99.4616 64.4167 99.2325 64.803 98.9105 65.1364C98.5885 65.4659 98.1908 65.7235 97.7173 65.9091C97.2438 66.0909 96.7116 66.1818 96.1207 66.1818ZM103.115 60.75V66H101.774V57.2727H103.07V58.6364H103.183C103.388 58.1932 103.698 57.8371 104.115 57.5682C104.532 57.2955 105.07 57.1591 105.729 57.1591C106.32 57.1591 106.837 57.2803 107.28 57.5227C107.723 57.7614 108.068 58.125 108.314 58.6136C108.56 59.0985 108.683 59.7121 108.683 60.4545V66H107.342V60.5455C107.342 59.8598 107.164 59.3258 106.808 58.9432C106.452 58.5568 105.964 58.3636 105.342 58.3636C104.914 58.3636 104.532 58.4564 104.195 58.642C103.861 58.8277 103.598 59.0985 103.405 59.4545C103.212 59.8106 103.115 60.2424 103.115 60.75ZM116.634 62.4318V57.2727H117.974V66H116.634V64.5227H116.543C116.338 64.9659 116.02 65.3428 115.588 65.6534C115.156 65.9602 114.611 66.1136 113.952 66.1136C113.406 66.1136 112.921 65.9943 112.497 65.7557C112.073 65.5133 111.74 65.1496 111.497 64.6648C111.255 64.1761 111.134 63.5606 111.134 62.8182V57.2727H112.474V62.7273C112.474 63.3636 112.652 63.8712 113.009 64.25C113.368 64.6288 113.827 64.8182 114.384 64.8182C114.717 64.8182 115.056 64.733 115.401 64.5625C115.749 64.392 116.041 64.1307 116.276 63.7784C116.514 63.4261 116.634 62.9773 116.634 62.4318Z" fill="white"/>
<path d="M153.409 66V54.3636H157.477C158.288 54.3636 158.956 54.5038 159.483 54.7841C160.009 55.0606 160.402 55.4337 160.659 55.9034C160.917 56.3693 161.045 56.8864 161.045 57.4545C161.045 57.9545 160.956 58.3674 160.778 58.6932C160.604 59.0189 160.373 59.2765 160.085 59.4659C159.801 59.6553 159.492 59.7955 159.159 59.8864V60C159.515 60.0227 159.873 60.1477 160.233 60.375C160.593 60.6023 160.894 60.928 161.136 61.3523C161.379 61.7765 161.5 62.2955 161.5 62.9091C161.5 63.4924 161.367 64.017 161.102 64.483C160.837 64.9489 160.419 65.3182 159.847 65.5909C159.275 65.8636 158.53 66 157.614 66H153.409ZM154.818 64.75H157.614C158.534 64.75 159.188 64.572 159.574 64.2159C159.964 63.8561 160.159 63.4205 160.159 62.9091C160.159 62.5152 160.059 62.1515 159.858 61.8182C159.657 61.4811 159.371 61.2121 159 61.0114C158.629 60.8068 158.189 60.7045 157.682 60.7045H154.818V64.75ZM154.818 59.4773H157.432C157.856 59.4773 158.239 59.3939 158.58 59.2273C158.924 59.0606 159.197 58.8258 159.398 58.5227C159.602 58.2197 159.705 57.8636 159.705 57.4545C159.705 56.9432 159.527 56.5095 159.17 56.1534C158.814 55.7936 158.25 55.6136 157.477 55.6136H154.818V59.4773ZM164.974 54.3636V66H163.634V54.3636H164.974ZM170.976 66.1818C170.188 66.1818 169.497 65.9943 168.902 65.6193C168.311 65.2443 167.849 64.7197 167.516 64.0455C167.186 63.3712 167.021 62.5833 167.021 61.6818C167.021 60.7727 167.186 59.9792 167.516 59.3011C167.849 58.6231 168.311 58.0966 168.902 57.7216C169.497 57.3466 170.188 57.1591 170.976 57.1591C171.764 57.1591 172.453 57.3466 173.044 57.7216C173.639 58.0966 174.101 58.6231 174.43 59.3011C174.764 59.9792 174.93 60.7727 174.93 61.6818C174.93 62.5833 174.764 63.3712 174.43 64.0455C174.101 64.7197 173.639 65.2443 173.044 65.6193C172.453 65.9943 171.764 66.1818 170.976 66.1818ZM170.976 64.9773C171.574 64.9773 172.067 64.8239 172.453 64.517C172.839 64.2102 173.125 63.8068 173.311 63.3068C173.497 62.8068 173.589 62.2652 173.589 61.6818C173.589 61.0985 173.497 60.5549 173.311 60.0511C173.125 59.5473 172.839 59.1402 172.453 58.8295C172.067 58.5189 171.574 58.3636 170.976 58.3636C170.377 58.3636 169.885 58.5189 169.499 58.8295C169.112 59.1402 168.826 59.5473 168.641 60.0511C168.455 60.5549 168.362 61.0985 168.362 61.6818C168.362 62.2652 168.455 62.8068 168.641 63.3068C168.826 63.8068 169.112 64.2102 169.499 64.517C169.885 64.8239 170.377 64.9773 170.976 64.9773ZM180.5 69.4545C179.852 69.4545 179.295 69.3712 178.83 69.2045C178.364 69.0417 177.975 68.8258 177.665 68.5568C177.358 68.2917 177.114 68.0076 176.932 67.7045L178 66.9545C178.121 67.1136 178.275 67.2955 178.46 67.5C178.646 67.7083 178.9 67.8883 179.222 68.0398C179.547 68.1951 179.973 68.2727 180.5 68.2727C181.205 68.2727 181.786 68.1023 182.244 67.7614C182.703 67.4205 182.932 66.8864 182.932 66.1591V64.3864H182.818C182.72 64.5455 182.58 64.7424 182.398 64.9773C182.22 65.2083 181.962 65.4148 181.625 65.5966C181.292 65.7746 180.841 65.8636 180.273 65.8636C179.568 65.8636 178.936 65.697 178.375 65.3636C177.818 65.0303 177.377 64.5455 177.051 63.9091C176.729 63.2727 176.568 62.5 176.568 61.5909C176.568 60.697 176.725 59.9186 177.04 59.2557C177.354 58.589 177.792 58.0739 178.352 57.7102C178.913 57.3428 179.561 57.1591 180.295 57.1591C180.864 57.1591 181.314 57.2538 181.648 57.4432C181.985 57.6288 182.242 57.8409 182.42 58.0795C182.602 58.3144 182.742 58.5076 182.841 58.6591H182.977V57.2727H184.273V66.25C184.273 67 184.102 67.6098 183.761 68.0795C183.424 68.553 182.97 68.8996 182.398 69.1193C181.83 69.3428 181.197 69.4545 180.5 69.4545ZM180.455 64.6591C180.992 64.6591 181.447 64.536 181.818 64.2898C182.189 64.0436 182.472 63.6894 182.665 63.2273C182.858 62.7652 182.955 62.2121 182.955 61.5682C182.955 60.9394 182.86 60.3845 182.67 59.9034C182.481 59.4223 182.201 59.0455 181.83 58.7727C181.458 58.5 181 58.3636 180.455 58.3636C179.886 58.3636 179.413 58.5076 179.034 58.7955C178.659 59.0833 178.377 59.4697 178.188 59.9545C178.002 60.4394 177.909 60.9773 177.909 61.5682C177.909 62.1742 178.004 62.7102 178.193 63.1761C178.386 63.6383 178.67 64.0019 179.045 64.267C179.424 64.5284 179.894 64.6591 180.455 64.6591Z" fill="white"/>
<path d="M219.409 66V54.3636H223.341C224.254 54.3636 225 54.5284 225.58 54.858C226.163 55.1837 226.595 55.625 226.875 56.1818C227.155 56.7386 227.295 57.3598 227.295 58.0455C227.295 58.7311 227.155 59.3542 226.875 59.9148C226.598 60.4754 226.17 60.9223 225.591 61.2557C225.011 61.5852 224.269 61.75 223.364 61.75H220.545V60.5H223.318C223.943 60.5 224.445 60.392 224.824 60.1761C225.203 59.9602 225.477 59.6686 225.648 59.3011C225.822 58.9299 225.909 58.5114 225.909 58.0455C225.909 57.5795 225.822 57.1629 225.648 56.7955C225.477 56.428 225.201 56.1402 224.818 55.9318C224.436 55.7197 223.928 55.6136 223.295 55.6136H220.818V66H219.409ZM231.952 66.2045C231.399 66.2045 230.897 66.1004 230.446 65.892C229.995 65.6799 229.637 65.375 229.372 64.9773C229.107 64.5758 228.974 64.0909 228.974 63.5227C228.974 63.0227 229.073 62.6174 229.27 62.3068C229.467 61.9924 229.73 61.7462 230.06 61.5682C230.389 61.3902 230.753 61.2576 231.151 61.1705C231.552 61.0795 231.955 61.0076 232.361 60.9545C232.891 60.8864 233.321 60.8352 233.651 60.8011C233.984 60.7633 234.226 60.7008 234.378 60.6136C234.533 60.5265 234.611 60.375 234.611 60.1591V60.1136C234.611 59.553 234.457 59.1174 234.151 58.8068C233.848 58.4962 233.387 58.3409 232.77 58.3409C232.13 58.3409 231.628 58.4811 231.264 58.7614C230.901 59.0417 230.645 59.3409 230.497 59.6591L229.224 59.2045C229.452 58.6742 229.755 58.2614 230.134 57.9659C230.516 57.6667 230.933 57.4583 231.384 57.3409C231.838 57.2197 232.285 57.1591 232.724 57.1591C233.005 57.1591 233.327 57.1932 233.69 57.2614C234.058 57.3258 234.412 57.4602 234.753 57.6648C235.098 57.8693 235.384 58.178 235.611 58.5909C235.838 59.0038 235.952 59.5568 235.952 60.25V66H234.611V64.8182H234.543C234.452 65.0076 234.3 65.2102 234.088 65.4261C233.876 65.642 233.594 65.8258 233.241 65.9773C232.889 66.1288 232.459 66.2045 231.952 66.2045ZM232.156 65C232.687 65 233.134 64.8958 233.497 64.6875C233.865 64.4792 234.141 64.2102 234.327 63.8807C234.516 63.5511 234.611 63.2045 234.611 62.8409V61.6136C234.554 61.6818 234.429 61.7443 234.236 61.8011C234.046 61.8542 233.827 61.9015 233.577 61.9432C233.33 61.9811 233.09 62.0152 232.855 62.0455C232.624 62.072 232.437 62.0947 232.293 62.1136C231.944 62.1591 231.618 62.233 231.315 62.3352C231.016 62.4337 230.774 62.5833 230.588 62.7841C230.406 62.9811 230.315 63.25 230.315 63.5909C230.315 64.0568 230.488 64.4091 230.832 64.6477C231.181 64.8826 231.622 65 232.156 65ZM241.922 69.4545C241.274 69.4545 240.717 69.3712 240.251 69.2045C239.786 69.0417 239.397 68.8258 239.087 68.5568C238.78 68.2917 238.536 68.0076 238.354 67.7045L239.422 66.9545C239.543 67.1136 239.696 67.2955 239.882 67.5C240.068 67.7083 240.321 67.8883 240.643 68.0398C240.969 68.1951 241.395 68.2727 241.922 68.2727C242.626 68.2727 243.208 68.1023 243.666 67.7614C244.125 67.4205 244.354 66.8864 244.354 66.1591V64.3864H244.24C244.142 64.5455 244.001 64.7424 243.82 64.9773C243.642 65.2083 243.384 65.4148 243.047 65.5966C242.714 65.7746 242.263 65.8636 241.695 65.8636C240.99 65.8636 240.357 65.697 239.797 65.3636C239.24 65.0303 238.799 64.5455 238.473 63.9091C238.151 63.2727 237.99 62.5 237.99 61.5909C237.99 60.697 238.147 59.9186 238.462 59.2557C238.776 58.589 239.214 58.0739 239.774 57.7102C240.335 57.3428 240.982 57.1591 241.717 57.1591C242.286 57.1591 242.736 57.2538 243.07 57.4432C243.407 57.6288 243.664 57.8409 243.842 58.0795C244.024 58.3144 244.164 58.5076 244.263 58.6591H244.399V57.2727H245.695V66.25C245.695 67 245.524 67.6098 245.183 68.0795C244.846 68.553 244.392 68.8996 243.82 69.1193C243.251 69.3428 242.619 69.4545 241.922 69.4545ZM241.876 64.6591C242.414 64.6591 242.869 64.536 243.24 64.2898C243.611 64.0436 243.893 63.6894 244.087 63.2273C244.28 62.7652 244.376 62.2121 244.376 61.5682C244.376 60.9394 244.282 60.3845 244.092 59.9034C243.903 59.4223 243.623 59.0455 243.251 58.7727C242.88 58.5 242.422 58.3636 241.876 58.3636C241.308 58.3636 240.835 58.5076 240.456 58.7955C240.081 59.0833 239.799 59.4697 239.609 59.9545C239.424 60.4394 239.331 60.9773 239.331 61.5682C239.331 62.1742 239.426 62.7102 239.615 63.1761C239.808 63.6383 240.092 64.0019 240.467 64.267C240.846 64.5284 241.316 64.6591 241.876 64.6591ZM251.808 66.1818C250.967 66.1818 250.242 65.9962 249.632 65.625C249.026 65.25 248.558 64.7273 248.229 64.0568C247.903 63.3826 247.74 62.5985 247.74 61.7045C247.74 60.8106 247.903 60.0227 248.229 59.3409C248.558 58.6553 249.017 58.1212 249.604 57.7386C250.195 57.3523 250.884 57.1591 251.672 57.1591C252.126 57.1591 252.575 57.2348 253.018 57.3864C253.462 57.5379 253.865 57.7841 254.229 58.125C254.592 58.4621 254.882 58.9091 255.098 59.4659C255.314 60.0227 255.422 60.7083 255.422 61.5227V62.0909H248.695V60.9318H254.058C254.058 60.4394 253.96 60 253.763 59.6136C253.57 59.2273 253.293 58.9223 252.933 58.6989C252.577 58.4754 252.157 58.3636 251.672 58.3636C251.138 58.3636 250.676 58.4962 250.286 58.7614C249.899 59.0227 249.602 59.3636 249.393 59.7841C249.185 60.2045 249.081 60.6553 249.081 61.1364V61.9091C249.081 62.5682 249.195 63.1269 249.422 63.5852C249.653 64.0398 249.973 64.3864 250.382 64.625C250.791 64.8598 251.267 64.9773 251.808 64.9773C252.161 64.9773 252.479 64.928 252.763 64.8295C253.051 64.7273 253.299 64.5758 253.507 64.375C253.715 64.1705 253.876 63.9167 253.99 63.6136L255.286 63.9773C255.149 64.4167 254.92 64.803 254.598 65.1364C254.276 65.4659 253.878 65.7235 253.405 65.9091C252.931 66.0909 252.399 66.1818 251.808 66.1818ZM263.643 59.2273L262.439 59.5682C262.363 59.3674 262.251 59.1723 262.104 58.983C261.96 58.7898 261.763 58.6307 261.513 58.5057C261.263 58.3807 260.943 58.3182 260.553 58.3182C260.018 58.3182 259.573 58.4413 259.217 58.6875C258.865 58.9299 258.689 59.2386 258.689 59.6136C258.689 59.947 258.81 60.2102 259.053 60.4034C259.295 60.5966 259.674 60.7576 260.189 60.8864L261.484 61.2045C262.265 61.3939 262.846 61.6837 263.229 62.0739C263.611 62.4602 263.803 62.9583 263.803 63.5682C263.803 64.0682 263.659 64.5152 263.371 64.9091C263.087 65.303 262.689 65.6136 262.178 65.8409C261.666 66.0682 261.071 66.1818 260.393 66.1818C259.503 66.1818 258.767 65.9886 258.183 65.6023C257.6 65.2159 257.231 64.6515 257.075 63.9091L258.348 63.5909C258.469 64.0606 258.698 64.4129 259.036 64.6477C259.376 64.8826 259.821 65 260.371 65C260.996 65 261.492 64.8674 261.859 64.6023C262.231 64.3333 262.416 64.0114 262.416 63.6364C262.416 63.3333 262.31 63.0795 262.098 62.875C261.886 62.6667 261.56 62.5114 261.121 62.4091L259.666 62.0682C258.867 61.8788 258.28 61.5852 257.905 61.1875C257.534 60.786 257.348 60.2841 257.348 59.6818C257.348 59.1894 257.486 58.7538 257.763 58.375C258.043 57.9962 258.424 57.6989 258.905 57.483C259.39 57.267 259.939 57.1591 260.553 57.1591C261.416 57.1591 262.094 57.3485 262.587 57.7273C263.083 58.1061 263.435 58.6061 263.643 59.2273Z" fill="white"/>
<path d="M298.886 66H297.409L301.682 54.3636H303.136L307.409 66H305.932L302.455 56.2045H302.364L298.886 66ZM299.432 61.4545H305.386V62.7045H299.432V61.4545ZM309.222 66V54.3636H310.562V58.6591H310.676C310.775 58.5076 310.911 58.3144 311.085 58.0795C311.263 57.8409 311.517 57.6288 311.847 57.4432C312.18 57.2538 312.631 57.1591 313.199 57.1591C313.934 57.1591 314.581 57.3428 315.142 57.7102C315.703 58.0777 316.14 58.5985 316.455 59.2727C316.769 59.947 316.926 60.7424 316.926 61.6591C316.926 62.5833 316.769 63.3845 316.455 64.0625C316.14 64.7367 315.705 65.2595 315.148 65.6307C314.591 65.9981 313.949 66.1818 313.222 66.1818C312.661 66.1818 312.212 66.089 311.875 65.9034C311.538 65.714 311.278 65.5 311.097 65.2614C310.915 65.0189 310.775 64.8182 310.676 64.6591H310.517V66H309.222ZM310.54 61.6364C310.54 62.2955 310.636 62.8769 310.83 63.3807C311.023 63.8807 311.305 64.2727 311.676 64.5568C312.047 64.8371 312.502 64.9773 313.04 64.9773C313.6 64.9773 314.068 64.8295 314.443 64.5341C314.822 64.2348 315.106 63.8333 315.295 63.3295C315.489 62.822 315.585 62.2576 315.585 61.6364C315.585 61.0227 315.491 60.4697 315.301 59.9773C315.116 59.4811 314.833 59.089 314.455 58.8011C314.08 58.5095 313.608 58.3636 313.04 58.3636C312.494 58.3636 312.036 58.5019 311.665 58.7784C311.294 59.0511 311.013 59.4337 310.824 59.9261C310.634 60.4148 310.54 60.9848 310.54 61.6364ZM322.523 66.1818C321.735 66.1818 321.044 65.9943 320.449 65.6193C319.858 65.2443 319.396 64.7197 319.062 64.0455C318.733 63.3712 318.568 62.5833 318.568 61.6818C318.568 60.7727 318.733 59.9792 319.062 59.3011C319.396 58.6231 319.858 58.0966 320.449 57.7216C321.044 57.3466 321.735 57.1591 322.523 57.1591C323.311 57.1591 324 57.3466 324.591 57.7216C325.186 58.0966 325.648 58.6231 325.977 59.3011C326.311 59.9792 326.477 60.7727 326.477 61.6818C326.477 62.5833 326.311 63.3712 325.977 64.0455C325.648 64.7197 325.186 65.2443 324.591 65.6193C324 65.9943 323.311 66.1818 322.523 66.1818ZM322.523 64.9773C323.121 64.9773 323.614 64.8239 324 64.517C324.386 64.2102 324.672 63.8068 324.858 63.3068C325.044 62.8068 325.136 62.2652 325.136 61.6818C325.136 61.0985 325.044 60.5549 324.858 60.0511C324.672 59.5473 324.386 59.1402 324 58.8295C323.614 58.5189 323.121 58.3636 322.523 58.3636C321.924 58.3636 321.432 58.5189 321.045 58.8295C320.659 59.1402 320.373 59.5473 320.188 60.0511C320.002 60.5549 319.909 61.0985 319.909 61.6818C319.909 62.2652 320.002 62.8068 320.188 63.3068C320.373 63.8068 320.659 64.2102 321.045 64.517C321.432 64.8239 321.924 64.9773 322.523 64.9773ZM334.024 62.4318V57.2727H335.365V66H334.024V64.5227H333.933C333.729 64.9659 333.411 65.3428 332.979 65.6534C332.547 65.9602 332.001 66.1136 331.342 66.1136C330.797 66.1136 330.312 65.9943 329.888 65.7557C329.464 65.5133 329.13 65.1496 328.888 64.6648C328.645 64.1761 328.524 63.5606 328.524 62.8182V57.2727H329.865V62.7273C329.865 63.3636 330.043 63.8712 330.399 64.25C330.759 64.6288 331.217 64.8182 331.774 64.8182C332.107 64.8182 332.446 64.733 332.791 64.5625C333.14 64.392 333.431 64.1307 333.666 63.7784C333.905 63.4261 334.024 62.9773 334.024 62.4318ZM341.616 57.2727V58.4091H337.094V57.2727H341.616ZM338.412 55.1818H339.753V63.5C339.753 63.8788 339.808 64.1629 339.918 64.3523C340.031 64.5379 340.175 64.6629 340.349 64.7273C340.527 64.7879 340.715 64.8182 340.912 64.8182C341.06 64.8182 341.181 64.8106 341.276 64.7955C341.37 64.7765 341.446 64.7614 341.503 64.75L341.776 65.9545C341.685 65.9886 341.558 66.0227 341.395 66.0568C341.232 66.0947 341.026 66.1136 340.776 66.1136C340.397 66.1136 340.026 66.0322 339.662 65.8693C339.302 65.7064 339.003 65.4583 338.764 65.125C338.529 64.7917 338.412 64.3712 338.412 63.8636V55.1818Z" fill="white"/>
<path d="M382.773 57.2727C382.705 56.697 382.428 56.25 381.943 55.9318C381.458 55.6136 380.864 55.4545 380.159 55.4545C379.644 55.4545 379.193 55.5379 378.807 55.7045C378.424 55.8712 378.125 56.1004 377.909 56.392C377.697 56.6837 377.591 57.0152 377.591 57.3864C377.591 57.697 377.665 57.964 377.812 58.1875C377.964 58.4072 378.157 58.5909 378.392 58.7386C378.627 58.8826 378.873 59.0019 379.131 59.0966C379.388 59.1875 379.625 59.2614 379.841 59.3182L381.023 59.6364C381.326 59.7159 381.663 59.8258 382.034 59.9659C382.409 60.1061 382.767 60.2973 383.108 60.5398C383.453 60.7784 383.737 61.0852 383.96 61.4602C384.184 61.8352 384.295 62.2955 384.295 62.8409C384.295 63.4697 384.131 64.0379 383.801 64.5455C383.475 65.053 382.998 65.4564 382.369 65.7557C381.744 66.0549 380.985 66.2045 380.091 66.2045C379.258 66.2045 378.536 66.0701 377.926 65.8011C377.32 65.5322 376.843 65.1572 376.494 64.6761C376.15 64.1951 375.955 63.6364 375.909 63H377.364C377.402 63.4394 377.549 63.803 377.807 64.0909C378.068 64.375 378.398 64.5871 378.795 64.7273C379.197 64.8636 379.629 64.9318 380.091 64.9318C380.629 64.9318 381.112 64.8447 381.54 64.6705C381.968 64.4924 382.307 64.2462 382.557 63.9318C382.807 63.6136 382.932 63.2424 382.932 62.8182C382.932 62.4318 382.824 62.1174 382.608 61.875C382.392 61.6326 382.108 61.4356 381.756 61.2841C381.403 61.1326 381.023 61 380.614 60.8864L379.182 60.4773C378.273 60.2159 377.553 59.8428 377.023 59.358C376.492 58.8731 376.227 58.2386 376.227 57.4545C376.227 56.803 376.403 56.2348 376.756 55.75C377.112 55.2614 377.589 54.8826 378.188 54.6136C378.79 54.3409 379.462 54.2045 380.205 54.2045C380.955 54.2045 381.621 54.339 382.205 54.608C382.788 54.8731 383.25 55.2367 383.591 55.6989C383.936 56.161 384.117 56.6856 384.136 57.2727H382.773ZM387.771 60.75V66H386.43V54.3636H387.771V58.6364H387.885C388.089 58.1856 388.396 57.8277 388.805 57.5625C389.218 57.2936 389.768 57.1591 390.453 57.1591C391.048 57.1591 391.569 57.2784 392.016 57.517C392.463 57.7519 392.809 58.1136 393.055 58.6023C393.305 59.0871 393.43 59.7045 393.43 60.4545V66H392.089V60.5455C392.089 59.8523 391.91 59.3163 391.55 58.9375C391.194 58.5549 390.699 58.3636 390.067 58.3636C389.627 58.3636 389.233 58.4564 388.885 58.642C388.54 58.8277 388.268 59.0985 388.067 59.4545C387.87 59.8106 387.771 60.2424 387.771 60.75ZM399.429 66.1818C398.641 66.1818 397.95 65.9943 397.355 65.6193C396.764 65.2443 396.302 64.7197 395.969 64.0455C395.639 63.3712 395.474 62.5833 395.474 61.6818C395.474 60.7727 395.639 59.9792 395.969 59.3011C396.302 58.6231 396.764 58.0966 397.355 57.7216C397.95 57.3466 398.641 57.1591 399.429 57.1591C400.217 57.1591 400.906 57.3466 401.497 57.7216C402.092 58.0966 402.554 58.6231 402.884 59.3011C403.217 59.9792 403.384 60.7727 403.384 61.6818C403.384 62.5833 403.217 63.3712 402.884 64.0455C402.554 64.7197 402.092 65.2443 401.497 65.6193C400.906 65.9943 400.217 66.1818 399.429 66.1818ZM399.429 64.9773C400.027 64.9773 400.52 64.8239 400.906 64.517C401.293 64.2102 401.579 63.8068 401.764 63.3068C401.95 62.8068 402.043 62.2652 402.043 61.6818C402.043 61.0985 401.95 60.5549 401.764 60.0511C401.579 59.5473 401.293 59.1402 400.906 58.8295C400.52 58.5189 400.027 58.3636 399.429 58.3636C398.83 58.3636 398.338 58.5189 397.952 58.8295C397.565 59.1402 397.279 59.5473 397.094 60.0511C396.908 60.5549 396.815 61.0985 396.815 61.6818C396.815 62.2652 396.908 62.8068 397.094 63.3068C397.279 63.8068 397.565 64.2102 397.952 64.517C398.338 64.8239 398.83 64.9773 399.429 64.9773ZM405.43 69.2727V57.2727H406.726V58.6591H406.885C406.983 58.5076 407.12 58.3144 407.294 58.0795C407.472 57.8409 407.726 57.6288 408.055 57.4432C408.389 57.2538 408.839 57.1591 409.408 57.1591C410.143 57.1591 410.79 57.3428 411.351 57.7102C411.911 58.0777 412.349 58.5985 412.663 59.2727C412.978 59.947 413.135 60.7424 413.135 61.6591C413.135 62.5833 412.978 63.3845 412.663 64.0625C412.349 64.7367 411.913 65.2595 411.357 65.6307C410.8 65.9981 410.158 66.1818 409.43 66.1818C408.87 66.1818 408.421 66.089 408.084 65.9034C407.747 65.714 407.487 65.5 407.305 65.2614C407.124 65.0189 406.983 64.8182 406.885 64.6591H406.771V69.2727H405.43ZM406.749 61.6364C406.749 62.2955 406.845 62.8769 407.038 63.3807C407.232 63.8807 407.514 64.2727 407.885 64.5568C408.256 64.8371 408.711 64.9773 409.249 64.9773C409.809 64.9773 410.277 64.8295 410.652 64.5341C411.031 64.2348 411.315 63.8333 411.504 63.3295C411.697 62.822 411.794 62.2576 411.794 61.6364C411.794 61.0227 411.699 60.4697 411.51 59.9773C411.324 59.4811 411.042 59.089 410.663 58.8011C410.288 58.5095 409.817 58.3636 409.249 58.3636C408.703 58.3636 408.245 58.5019 407.874 58.7784C407.502 59.0511 407.222 59.4337 407.033 59.9261C406.843 60.4148 406.749 60.9848 406.749 61.6364Z" fill="white"/>
<path d="M456.773 58H455.364C455.28 57.5947 455.134 57.2386 454.926 56.9318C454.722 56.625 454.472 56.3674 454.176 56.1591C453.884 55.947 453.561 55.7879 453.205 55.6818C452.848 55.5758 452.477 55.5227 452.091 55.5227C451.386 55.5227 450.748 55.7008 450.176 56.0568C449.608 56.4129 449.155 56.9375 448.818 57.6307C448.485 58.3239 448.318 59.1742 448.318 60.1818C448.318 61.1894 448.485 62.0398 448.818 62.733C449.155 63.4261 449.608 63.9508 450.176 64.3068C450.748 64.6629 451.386 64.8409 452.091 64.8409C452.477 64.8409 452.848 64.7879 453.205 64.6818C453.561 64.5758 453.884 64.4186 454.176 64.2102C454.472 63.9981 454.722 63.7386 454.926 63.4318C455.134 63.1212 455.28 62.7652 455.364 62.3636H456.773C456.667 62.9583 456.473 63.4905 456.193 63.9602C455.913 64.4299 455.564 64.8295 455.148 65.1591C454.731 65.4848 454.263 65.733 453.744 65.9034C453.229 66.0739 452.678 66.1591 452.091 66.1591C451.098 66.1591 450.216 65.9167 449.443 65.4318C448.67 64.947 448.063 64.2576 447.619 63.3636C447.176 62.4697 446.955 61.4091 446.955 60.1818C446.955 58.9545 447.176 57.8939 447.619 57C448.063 56.1061 448.67 55.4167 449.443 54.9318C450.216 54.447 451.098 54.2045 452.091 54.2045C452.678 54.2045 453.229 54.2898 453.744 54.4602C454.263 54.6307 454.731 54.8807 455.148 55.2102C455.564 55.536 455.913 55.9337 456.193 56.4034C456.473 56.8693 456.667 57.4015 456.773 58ZM462.413 66.1818C461.625 66.1818 460.934 65.9943 460.339 65.6193C459.749 65.2443 459.286 64.7197 458.953 64.0455C458.624 63.3712 458.459 62.5833 458.459 61.6818C458.459 60.7727 458.624 59.9792 458.953 59.3011C459.286 58.6231 459.749 58.0966 460.339 57.7216C460.934 57.3466 461.625 57.1591 462.413 57.1591C463.201 57.1591 463.891 57.3466 464.482 57.7216C465.076 58.0966 465.538 58.6231 465.868 59.3011C466.201 59.9792 466.368 60.7727 466.368 61.6818C466.368 62.5833 466.201 63.3712 465.868 64.0455C465.538 64.7197 465.076 65.2443 464.482 65.6193C463.891 65.9943 463.201 66.1818 462.413 66.1818ZM462.413 64.9773C463.012 64.9773 463.504 64.8239 463.891 64.517C464.277 64.2102 464.563 63.8068 464.749 63.3068C464.934 62.8068 465.027 62.2652 465.027 61.6818C465.027 61.0985 464.934 60.5549 464.749 60.0511C464.563 59.5473 464.277 59.1402 463.891 58.8295C463.504 58.5189 463.012 58.3636 462.413 58.3636C461.815 58.3636 461.322 58.5189 460.936 58.8295C460.55 59.1402 460.264 59.5473 460.078 60.0511C459.893 60.5549 459.8 61.0985 459.8 61.6818C459.8 62.2652 459.893 62.8068 460.078 63.3068C460.264 63.8068 460.55 64.2102 460.936 64.517C461.322 64.8239 461.815 64.9773 462.413 64.9773ZM469.756 60.75V66H468.415V57.2727H469.71V58.6364H469.824C470.028 58.1932 470.339 57.8371 470.756 57.5682C471.172 57.2955 471.71 57.1591 472.369 57.1591C472.96 57.1591 473.477 57.2803 473.92 57.5227C474.364 57.7614 474.708 58.125 474.955 58.6136C475.201 59.0985 475.324 59.7121 475.324 60.4545V66H473.983V60.5455C473.983 59.8598 473.805 59.3258 473.449 58.9432C473.093 58.5568 472.604 58.3636 471.983 58.3636C471.555 58.3636 471.172 58.4564 470.835 58.642C470.502 58.8277 470.239 59.0985 470.045 59.4545C469.852 59.8106 469.756 60.2424 469.756 60.75ZM481.57 57.2727V58.4091H477.047V57.2727H481.57ZM478.365 55.1818H479.706V63.5C479.706 63.8788 479.761 64.1629 479.871 64.3523C479.984 64.5379 480.128 64.6629 480.303 64.7273C480.481 64.7879 480.668 64.8182 480.865 64.8182C481.013 64.8182 481.134 64.8106 481.229 64.7955C481.323 64.7765 481.399 64.7614 481.456 64.75L481.729 65.9545C481.638 65.9886 481.511 66.0227 481.348 66.0568C481.185 66.0947 480.979 66.1136 480.729 66.1136C480.35 66.1136 479.979 66.0322 479.615 65.8693C479.255 65.7064 478.956 65.4583 478.717 65.125C478.482 64.7917 478.365 64.3712 478.365 63.8636V55.1818ZM486.155 66.2045C485.602 66.2045 485.1 66.1004 484.649 65.892C484.198 65.6799 483.84 65.375 483.575 64.9773C483.31 64.5758 483.178 64.0909 483.178 63.5227C483.178 63.0227 483.276 62.6174 483.473 62.3068C483.67 61.9924 483.933 61.7462 484.263 61.5682C484.592 61.3902 484.956 61.2576 485.354 61.1705C485.755 61.0795 486.159 61.0076 486.564 60.9545C487.094 60.8864 487.524 60.8352 487.854 60.8011C488.187 60.7633 488.429 60.7008 488.581 60.6136C488.736 60.5265 488.814 60.375 488.814 60.1591V60.1136C488.814 59.553 488.661 59.1174 488.354 58.8068C488.051 58.4962 487.59 58.3409 486.973 58.3409C486.333 58.3409 485.831 58.4811 485.467 58.7614C485.104 59.0417 484.848 59.3409 484.7 59.6591L483.428 59.2045C483.655 58.6742 483.958 58.2614 484.337 57.9659C484.719 57.6667 485.136 57.4583 485.587 57.3409C486.041 57.2197 486.488 57.1591 486.928 57.1591C487.208 57.1591 487.53 57.1932 487.893 57.2614C488.261 57.3258 488.615 57.4602 488.956 57.6648C489.301 57.8693 489.587 58.178 489.814 58.5909C490.041 59.0038 490.155 59.5568 490.155 60.25V66H488.814V64.8182H488.746C488.655 65.0076 488.503 65.2102 488.291 65.4261C488.079 65.642 487.797 65.8258 487.445 65.9773C487.092 66.1288 486.662 66.2045 486.155 66.2045ZM486.359 65C486.89 65 487.337 64.8958 487.7 64.6875C488.068 64.4792 488.344 64.2102 488.53 63.8807C488.719 63.5511 488.814 63.2045 488.814 62.8409V61.6136C488.757 61.6818 488.632 61.7443 488.439 61.8011C488.25 61.8542 488.03 61.9015 487.78 61.9432C487.534 61.9811 487.293 62.0152 487.058 62.0455C486.827 62.072 486.64 62.0947 486.496 62.1136C486.147 62.1591 485.821 62.233 485.518 62.3352C485.219 62.4337 484.977 62.5833 484.791 62.7841C484.609 62.9811 484.518 63.25 484.518 63.5909C484.518 64.0568 484.691 64.4091 485.036 64.6477C485.384 64.8826 485.825 65 486.359 65ZM496.148 66.1818C495.33 66.1818 494.625 65.9886 494.034 65.6023C493.443 65.2159 492.989 64.6837 492.67 64.0057C492.352 63.3277 492.193 62.553 492.193 61.6818C492.193 60.7955 492.356 60.0133 492.682 59.3352C493.011 58.6534 493.47 58.1212 494.057 57.7386C494.648 57.3523 495.337 57.1591 496.125 57.1591C496.739 57.1591 497.292 57.2727 497.784 57.5C498.277 57.7273 498.68 58.0455 498.994 58.4545C499.309 58.8636 499.504 59.3409 499.58 59.8864H498.239C498.136 59.4886 497.909 59.1364 497.557 58.8295C497.208 58.5189 496.739 58.3636 496.148 58.3636C495.625 58.3636 495.167 58.5 494.773 58.7727C494.383 59.0417 494.078 59.4223 493.858 59.9148C493.642 60.4034 493.534 60.9773 493.534 61.6364C493.534 62.3106 493.64 62.8977 493.852 63.3977C494.068 63.8977 494.371 64.286 494.761 64.5625C495.155 64.839 495.617 64.9773 496.148 64.9773C496.496 64.9773 496.812 64.9167 497.097 64.7955C497.381 64.6742 497.621 64.5 497.818 64.2727C498.015 64.0455 498.155 63.7727 498.239 63.4545H499.58C499.504 63.9697 499.316 64.4337 499.017 64.8466C498.722 65.2557 498.33 65.5814 497.841 65.8239C497.356 66.0625 496.792 66.1818 496.148 66.1818ZM505.335 57.2727V58.4091H500.812V57.2727H505.335ZM502.131 55.1818H503.472V63.5C503.472 63.8788 503.527 64.1629 503.636 64.3523C503.75 64.5379 503.894 64.6629 504.068 64.7273C504.246 64.7879 504.434 64.8182 504.631 64.8182C504.778 64.8182 504.9 64.8106 504.994 64.7955C505.089 64.7765 505.165 64.7614 505.222 64.75L505.494 65.9545C505.403 65.9886 505.277 66.0227 505.114 66.0568C504.951 66.0947 504.744 66.1136 504.494 66.1136C504.116 66.1136 503.744 66.0322 503.381 65.8693C503.021 65.7064 502.722 65.4583 502.483 65.125C502.248 64.7917 502.131 64.3712 502.131 63.8636V55.1818Z" fill="white"/>
<path d="M353.75 60.5L350 64.25L346.25 60.5" stroke="white" stroke-width="1.5" stroke-linecap="round" stroke-linejoin="round"/>
<rect x="978.5" y="33.5" width="309" height="53" rx="26.5" stroke="#FF9F0D"/>
<path d="M1011.77 56.2727C1011.7 55.697 1011.43 55.25 1010.94 54.9318C1010.46 54.6136 1009.86 54.4545 1009.16 54.4545C1008.64 54.4545 1008.19 54.5379 1007.81 54.7045C1007.42 54.8712 1007.13 55.1004 1006.91 55.392C1006.7 55.6837 1006.59 56.0152 1006.59 56.3864C1006.59 56.697 1006.66 56.964 1006.81 57.1875C1006.96 57.4072 1007.16 57.5909 1007.39 57.7386C1007.63 57.8826 1007.87 58.0019 1008.13 58.0966C1008.39 58.1875 1008.62 58.2614 1008.84 58.3182L1010.02 58.6364C1010.33 58.7159 1010.66 58.8258 1011.03 58.9659C1011.41 59.1061 1011.77 59.2973 1012.11 59.5398C1012.45 59.7784 1012.74 60.0852 1012.96 60.4602C1013.18 60.8352 1013.3 61.2955 1013.3 61.8409C1013.3 62.4697 1013.13 63.0379 1012.8 63.5455C1012.48 64.053 1012 64.4564 1011.37 64.7557C1010.74 65.0549 1009.98 65.2045 1009.09 65.2045C1008.26 65.2045 1007.54 65.0701 1006.93 64.8011C1006.32 64.5322 1005.84 64.1572 1005.49 63.6761C1005.15 63.1951 1004.95 62.6364 1004.91 62H1006.36C1006.4 62.4394 1006.55 62.803 1006.81 63.0909C1007.07 63.375 1007.4 63.5871 1007.8 63.7273C1008.2 63.8636 1008.63 63.9318 1009.09 63.9318C1009.63 63.9318 1010.11 63.8447 1010.54 63.6705C1010.97 63.4924 1011.31 63.2462 1011.56 62.9318C1011.81 62.6136 1011.93 62.2424 1011.93 61.8182C1011.93 61.4318 1011.82 61.1174 1011.61 60.875C1011.39 60.6326 1011.11 60.4356 1010.76 60.2841C1010.4 60.1326 1010.02 60 1009.61 59.8864L1008.18 59.4773C1007.27 59.2159 1006.55 58.8428 1006.02 58.358C1005.49 57.8731 1005.23 57.2386 1005.23 56.4545C1005.23 55.803 1005.4 55.2348 1005.76 54.75C1006.11 54.2614 1006.59 53.8826 1007.19 53.6136C1007.79 53.3409 1008.46 53.2045 1009.2 53.2045C1009.95 53.2045 1010.62 53.339 1011.2 53.608C1011.79 53.8731 1012.25 54.2367 1012.59 54.6989C1012.94 55.161 1013.12 55.6856 1013.14 56.2727H1011.77ZM1019.09 65.1818C1018.25 65.1818 1017.52 64.9962 1016.91 64.625C1016.31 64.25 1015.84 63.7273 1015.51 63.0568C1015.18 62.3826 1015.02 61.5985 1015.02 60.7045C1015.02 59.8106 1015.18 59.0227 1015.51 58.3409C1015.84 57.6553 1016.3 57.1212 1016.88 56.7386C1017.48 56.3523 1018.17 56.1591 1018.95 56.1591C1019.41 56.1591 1019.86 56.2348 1020.3 56.3864C1020.74 56.5379 1021.15 56.7841 1021.51 57.125C1021.87 57.4621 1022.16 57.9091 1022.38 58.4659C1022.6 59.0227 1022.7 59.7083 1022.7 60.5227V61.0909H1015.98V59.9318H1021.34C1021.34 59.4394 1021.24 59 1021.04 58.6136C1020.85 58.2273 1020.57 57.9223 1020.21 57.6989C1019.86 57.4754 1019.44 57.3636 1018.95 57.3636C1018.42 57.3636 1017.96 57.4962 1017.57 57.7614C1017.18 58.0227 1016.88 58.3636 1016.67 58.7841C1016.47 59.2045 1016.36 59.6553 1016.36 60.1364V60.9091C1016.36 61.5682 1016.48 62.1269 1016.7 62.5852C1016.93 63.0398 1017.25 63.3864 1017.66 63.625C1018.07 63.8598 1018.55 63.9773 1019.09 63.9773C1019.44 63.9773 1019.76 63.928 1020.04 63.8295C1020.33 63.7273 1020.58 63.5758 1020.79 63.375C1021 63.1705 1021.16 62.9167 1021.27 62.6136L1022.57 62.9773C1022.43 63.4167 1022.2 63.803 1021.88 64.1364C1021.56 64.4659 1021.16 64.7235 1020.69 64.9091C1020.21 65.0909 1019.68 65.1818 1019.09 65.1818ZM1027.31 65.2045C1026.76 65.2045 1026.26 65.1004 1025.81 64.892C1025.35 64.6799 1025 64.375 1024.73 63.9773C1024.47 63.5758 1024.33 63.0909 1024.33 62.5227C1024.33 62.0227 1024.43 61.6174 1024.63 61.3068C1024.83 60.9924 1025.09 60.7462 1025.42 60.5682C1025.75 60.3902 1026.11 60.2576 1026.51 60.1705C1026.91 60.0795 1027.31 60.0076 1027.72 59.9545C1028.25 59.8864 1028.68 59.8352 1029.01 59.8011C1029.34 59.7633 1029.59 59.7008 1029.74 59.6136C1029.89 59.5265 1029.97 59.375 1029.97 59.1591V59.1136C1029.97 58.553 1029.82 58.1174 1029.51 57.8068C1029.21 57.4962 1028.75 57.3409 1028.13 57.3409C1027.49 57.3409 1026.99 57.4811 1026.62 57.7614C1026.26 58.0417 1026 58.3409 1025.86 58.6591L1024.58 58.2045C1024.81 57.6742 1025.11 57.2614 1025.49 56.9659C1025.88 56.6667 1026.29 56.4583 1026.74 56.3409C1027.2 56.2197 1027.64 56.1591 1028.08 56.1591C1028.36 56.1591 1028.69 56.1932 1029.05 56.2614C1029.42 56.3258 1029.77 56.4602 1030.11 56.6648C1030.46 56.8693 1030.74 57.178 1030.97 57.5909C1031.2 58.0038 1031.31 58.5568 1031.31 59.25V65H1029.97V63.8182H1029.9C1029.81 64.0076 1029.66 64.2102 1029.45 64.4261C1029.24 64.642 1028.95 64.8258 1028.6 64.9773C1028.25 65.1288 1027.82 65.2045 1027.31 65.2045ZM1027.52 64C1028.05 64 1028.49 63.8958 1028.86 63.6875C1029.22 63.4792 1029.5 63.2102 1029.69 62.8807C1029.88 62.5511 1029.97 62.2045 1029.97 61.8409V60.6136C1029.91 60.6818 1029.79 60.7443 1029.6 60.8011C1029.41 60.8542 1029.19 60.9015 1028.94 60.9432C1028.69 60.9811 1028.45 61.0152 1028.21 61.0455C1027.98 61.072 1027.8 61.0947 1027.65 61.1136C1027.3 61.1591 1026.98 61.233 1026.67 61.3352C1026.38 61.4337 1026.13 61.5833 1025.95 61.7841C1025.77 61.9811 1025.67 62.25 1025.67 62.5909C1025.67 63.0568 1025.85 63.4091 1026.19 63.6477C1026.54 63.8826 1026.98 64 1027.52 64ZM1033.76 65V56.2727H1035.05V57.5909H1035.14C1035.3 57.1591 1035.59 56.8087 1036.01 56.5398C1036.43 56.2708 1036.89 56.1364 1037.42 56.1364C1037.52 56.1364 1037.64 56.1383 1037.79 56.142C1037.93 56.1458 1038.05 56.1515 1038.12 56.1591V57.5227C1038.08 57.5114 1037.97 57.4943 1037.81 57.4716C1037.65 57.4451 1037.48 57.4318 1037.3 57.4318C1036.88 57.4318 1036.5 57.5208 1036.17 57.6989C1035.84 57.8731 1035.58 58.1155 1035.38 58.4261C1035.19 58.733 1035.1 59.0833 1035.1 59.4773V65H1033.76ZM1042.99 65.1818C1042.17 65.1818 1041.47 64.9886 1040.88 64.6023C1040.29 64.2159 1039.83 63.6837 1039.51 63.0057C1039.2 62.3277 1039.04 61.553 1039.04 60.6818C1039.04 59.7955 1039.2 59.0133 1039.53 58.3352C1039.86 57.6534 1040.31 57.1212 1040.9 56.7386C1041.49 56.3523 1042.18 56.1591 1042.97 56.1591C1043.58 56.1591 1044.14 56.2727 1044.63 56.5C1045.12 56.7273 1045.52 57.0455 1045.84 57.4545C1046.15 57.8636 1046.35 58.3409 1046.42 58.8864H1045.08C1044.98 58.4886 1044.75 58.1364 1044.4 57.8295C1044.05 57.5189 1043.58 57.3636 1042.99 57.3636C1042.47 57.3636 1042.01 57.5 1041.62 57.7727C1041.23 58.0417 1040.92 58.4223 1040.7 58.9148C1040.49 59.4034 1040.38 59.9773 1040.38 60.6364C1040.38 61.3106 1040.48 61.8977 1040.7 62.3977C1040.91 62.8977 1041.21 63.286 1041.61 63.5625C1042 63.839 1042.46 63.9773 1042.99 63.9773C1043.34 63.9773 1043.66 63.9167 1043.94 63.7955C1044.22 63.6742 1044.46 63.5 1044.66 63.2727C1044.86 63.0455 1045 62.7727 1045.08 62.4545H1046.42C1046.35 62.9697 1046.16 63.4337 1045.86 63.8466C1045.57 64.2557 1045.17 64.5814 1044.68 64.8239C1044.2 65.0625 1043.64 65.1818 1042.99 65.1818ZM1049.72 59.75V65H1048.38V53.3636H1049.72V57.6364H1049.84C1050.04 57.1856 1050.35 56.8277 1050.76 56.5625C1051.17 56.2936 1051.72 56.1591 1052.41 56.1591C1053 56.1591 1053.52 56.2784 1053.97 56.517C1054.42 56.7519 1054.76 57.1136 1055.01 57.6023C1055.26 58.0871 1055.38 58.7045 1055.38 59.4545V65H1054.04V59.5455C1054.04 58.8523 1053.86 58.3163 1053.5 57.9375C1053.15 57.5549 1052.65 57.3636 1052.02 57.3636C1051.58 57.3636 1051.19 57.4564 1050.84 57.642C1050.49 57.8277 1050.22 58.0985 1050.02 58.4545C1049.82 58.8106 1049.72 59.2424 1049.72 59.75ZM1058.81 65.0909C1058.53 65.0909 1058.29 64.9905 1058.09 64.7898C1057.89 64.589 1057.79 64.3485 1057.79 64.0682C1057.79 63.7879 1057.89 63.5473 1058.09 63.3466C1058.29 63.1458 1058.53 63.0455 1058.81 63.0455C1059.09 63.0455 1059.33 63.1458 1059.54 63.3466C1059.74 63.5473 1059.84 63.7879 1059.84 64.0682C1059.84 64.2538 1059.79 64.4242 1059.69 64.5795C1059.6 64.7348 1059.48 64.8598 1059.33 64.9545C1059.17 65.0455 1059 65.0909 1058.81 65.0909ZM1063.22 65.0909C1062.94 65.0909 1062.7 64.9905 1062.5 64.7898C1062.3 64.589 1062.2 64.3485 1062.2 64.0682C1062.2 63.7879 1062.3 63.5473 1062.5 63.3466C1062.7 63.1458 1062.94 63.0455 1063.22 63.0455C1063.5 63.0455 1063.74 63.1458 1063.94 63.3466C1064.14 63.5473 1064.24 63.7879 1064.24 64.0682C1064.24 64.2538 1064.2 64.4242 1064.1 64.5795C1064.01 64.7348 1063.89 64.8598 1063.73 64.9545C1063.58 65.0455 1063.41 65.0909 1063.22 65.0909ZM1067.63 65.0909C1067.35 65.0909 1067.11 64.9905 1066.9 64.7898C1066.7 64.589 1066.6 64.3485 1066.6 64.0682C1066.6 63.7879 1066.7 63.5473 1066.9 63.3466C1067.11 63.1458 1067.35 63.0455 1067.63 63.0455C1067.91 63.0455 1068.15 63.1458 1068.35 63.3466C1068.55 63.5473 1068.65 63.7879 1068.65 64.0682C1068.65 64.2538 1068.6 64.4242 1068.51 64.5795C1068.42 64.7348 1068.29 64.8598 1068.14 64.9545C1067.99 65.0455 1067.82 65.0909 1067.63 65.0909Z" fill="white"/>
<path d="M1262 71L1256.33 65.3234L1262 71ZM1259.47 57.7368C1259.47 60.5844 1258.34 63.3154 1256.33 65.3289C1254.32 67.3425 1251.58 68.4737 1248.74 68.4737C1245.89 68.4737 1243.16 67.3425 1241.14 65.3289C1239.13 63.3154 1238 60.5844 1238 57.7368C1238 54.8893 1239.13 52.1583 1241.14 50.1447C1243.16 48.1312 1245.89 47 1248.74 47C1251.58 47 1254.32 48.1312 1256.33 50.1447C1258.34 52.1583 1259.47 54.8893 1259.47 57.7368V57.7368Z" stroke="white" stroke-width="2.22941" stroke-linecap="round"/>
<path d="M1315.58 53.75H1300.42C1300.24 53.75 1300.06 53.8181 1299.92 53.9412C1299.78 54.0642 1299.7 54.2337 1299.68 54.4172L1298.34 66.4172C1298.33 66.522 1298.34 66.6281 1298.37 66.7286C1298.41 66.829 1298.46 66.9216 1298.53 67.0002C1298.6 67.0788 1298.69 67.1417 1298.78 67.1847C1298.88 67.2278 1298.98 67.25 1299.09 67.25H1316.91C1317.02 67.25 1317.12 67.2278 1317.22 67.1847C1317.31 67.1417 1317.4 67.0788 1317.47 67.0002C1317.54 66.9216 1317.59 66.829 1317.63 66.7286C1317.66 66.6281 1317.67 66.522 1317.66 66.4172L1316.32 54.4172C1316.3 54.2337 1316.22 54.0642 1316.08 53.9412C1315.94 53.8181 1315.76 53.75 1315.58 53.75Z" stroke="white" stroke-width="1.5" stroke-linecap="round" stroke-linejoin="round"/>
<path d="M1304.25 56.75V53.75C1304.25 52.7554 1304.65 51.8016 1305.35 51.0983C1306.05 50.3951 1307.01 50 1308 50C1308.99 50 1309.95 50.3951 1310.65 51.0983C1311.35 51.8016 1311.75 52.7554 1311.75 53.75V56.75" stroke="white" stroke-width="1.5" stroke-linecap="round" stroke-linejoin="round"/>
<path d="M1.40909 66V54.3636H2.81818V59.5455H9.02273V54.3636H10.4318V66H9.02273V60.7955H2.81818V66H1.40909ZM16.6165 66.1818C15.8286 66.1818 15.1373 65.9943 14.5426 65.6193C13.9517 65.2443 13.4896 64.7197 13.1562 64.0455C12.8267 63.3712 12.6619 62.5833 12.6619 61.6818C12.6619 60.7727 12.8267 59.9792 13.1562 59.3011C13.4896 58.6231 13.9517 58.0966 14.5426 57.7216C15.1373 57.3466 15.8286 57.1591 16.6165 57.1591C17.4044 57.1591 18.0938 57.3466 18.6847 57.7216C19.2794 58.0966 19.7415 58.6231 20.071 59.3011C20.4044 59.9792 20.571 60.7727 20.571 61.6818C20.571 62.5833 20.4044 63.3712 20.071 64.0455C19.7415 64.7197 19.2794 65.2443 18.6847 65.6193C18.0938 65.9943 17.4044 66.1818 16.6165 66.1818ZM16.6165 64.9773C17.215 64.9773 17.7074 64.8239 18.0938 64.517C18.4801 64.2102 18.7661 63.8068 18.9517 63.3068C19.1373 62.8068 19.2301 62.2652 19.2301 61.6818C19.2301 61.0985 19.1373 60.5549 18.9517 60.0511C18.7661 59.5473 18.4801 59.1402 18.0938 58.8295C17.7074 58.5189 17.215 58.3636 16.6165 58.3636C16.018 58.3636 15.5256 58.5189 15.1392 58.8295C14.7528 59.1402 14.4669 59.5473 14.2812 60.0511C14.0956 60.5549 14.0028 61.0985 14.0028 61.6818C14.0028 62.2652 14.0956 62.8068 14.2812 63.3068C14.4669 63.8068 14.7528 64.2102 15.1392 64.517C15.5256 64.8239 16.018 64.9773 16.6165 64.9773ZM22.6179 66V57.2727H23.9134V58.6364H24.027C24.2088 58.1705 24.5024 57.8087 24.9077 57.5511C25.313 57.2898 25.7997 57.1591 26.3679 57.1591C26.9437 57.1591 27.4228 57.2898 27.8054 57.5511C28.1918 57.8087 28.4929 58.1705 28.7088 58.6364H28.7997C29.0232 58.1856 29.3584 57.8277 29.8054 57.5625C30.2524 57.2936 30.7884 57.1591 31.4134 57.1591C32.1937 57.1591 32.8319 57.4034 33.3281 57.892C33.8243 58.3769 34.0724 59.1326 34.0724 60.1591V66H32.7315V60.1591C32.7315 59.5152 32.5554 59.0549 32.2031 58.7784C31.8509 58.5019 31.4361 58.3636 30.9588 58.3636C30.3452 58.3636 29.8698 58.5492 29.5327 58.9205C29.1955 59.2879 29.027 59.7538 29.027 60.3182V66H27.6634V60.0227C27.6634 59.5265 27.5024 59.1269 27.1804 58.8239C26.8584 58.517 26.4437 58.3636 25.9361 58.3636C25.5876 58.3636 25.2618 58.4564 24.9588 58.642C24.6596 58.8277 24.4171 59.0852 24.2315 59.4148C24.0497 59.7405 23.9588 60.1174 23.9588 60.5455V66H22.6179ZM40.1832 66.1818C39.3423 66.1818 38.617 65.9962 38.0071 65.625C37.401 65.25 36.9332 64.7273 36.6037 64.0568C36.2779 63.3826 36.1151 62.5985 36.1151 61.7045C36.1151 60.8106 36.2779 60.0227 36.6037 59.3409C36.9332 58.6553 37.3916 58.1212 37.9787 57.7386C38.5696 57.3523 39.259 57.1591 40.0469 57.1591C40.5014 57.1591 40.9503 57.2348 41.3935 57.3864C41.8366 57.5379 42.2401 57.7841 42.6037 58.125C42.9673 58.4621 43.2571 58.9091 43.473 59.4659C43.6889 60.0227 43.7969 60.7083 43.7969 61.5227V62.0909H37.0696V60.9318H42.4332C42.4332 60.4394 42.3348 60 42.1378 59.6136C41.9446 59.2273 41.6681 58.9223 41.3082 58.6989C40.9522 58.4754 40.5317 58.3636 40.0469 58.3636C39.5128 58.3636 39.0507 58.4962 38.6605 58.7614C38.2741 59.0227 37.9768 59.3636 37.7685 59.7841C37.5601 60.2045 37.456 60.6553 37.456 61.1364V61.9091C37.456 62.5682 37.5696 63.1269 37.7969 63.5852C38.0279 64.0398 38.348 64.3864 38.7571 64.625C39.1662 64.8598 39.6416 64.9773 40.1832 64.9773C40.5355 64.9773 40.8537 64.928 41.1378 64.8295C41.4257 64.7273 41.6738 64.5758 41.8821 64.375C42.0904 64.1705 42.2514 63.9167 42.3651 63.6136L43.6605 63.9773C43.5241 64.4167 43.295 64.803 42.973 65.1364C42.651 65.4659 42.2533 65.7235 41.7798 65.9091C41.3063 66.0909 40.7741 66.1818 40.1832 66.1818Z" fill="white"/>
<circle cx="20.5" cy="75.5" r="3.5" fill="#FF9F0D"/>
<path d="M606.828 6.75H619.074V9.78516H610.414V13.7578H617.996V16.7578H610.414V24H606.828V6.75ZM626.961 21.6445C627.938 21.6445 628.688 21.2969 629.211 20.6016C629.734 19.9062 629.996 18.918 629.996 17.6367C629.996 16.3555 629.734 15.3711 629.211 14.6836C628.688 13.9883 627.938 13.6406 626.961 13.6406C625.984 13.6406 625.23 13.9883 624.699 14.6836C624.176 15.3711 623.914 16.3555 623.914 17.6367C623.914 18.918 624.176 19.9062 624.699 20.6016C625.23 21.2969 625.984 21.6445 626.961 21.6445ZM633.5 17.6367C633.5 19.5117 632.961 21.1172 631.883 22.4531C630.805 23.7812 629.168 24.4453 626.973 24.4453C624.777 24.4453 623.141 23.7812 622.062 22.4531C620.984 21.1172 620.445 19.5117 620.445 17.6367C620.445 15.793 620.984 14.1953 622.062 12.8438C623.141 11.4922 624.777 10.8164 626.973 10.8164C629.168 10.8164 630.805 11.4922 631.883 12.8438C632.961 14.1953 633.5 15.793 633.5 17.6367ZM641.633 21.6445C642.609 21.6445 643.359 21.2969 643.883 20.6016C644.406 19.9062 644.668 18.918 644.668 17.6367C644.668 16.3555 644.406 15.3711 643.883 14.6836C643.359 13.9883 642.609 13.6406 641.633 13.6406C640.656 13.6406 639.902 13.9883 639.371 14.6836C638.848 15.3711 638.586 16.3555 638.586 17.6367C638.586 18.918 638.848 19.9062 639.371 20.6016C639.902 21.2969 640.656 21.6445 641.633 21.6445ZM648.172 17.6367C648.172 19.5117 647.633 21.1172 646.555 22.4531C645.477 23.7812 643.84 24.4453 641.645 24.4453C639.449 24.4453 637.812 23.7812 636.734 22.4531C635.656 21.1172 635.117 19.5117 635.117 17.6367C635.117 15.793 635.656 14.1953 636.734 12.8438C637.812 11.4922 639.449 10.8164 641.645 10.8164C643.84 10.8164 645.477 11.4922 646.555 12.8438C647.633 14.1953 648.172 15.793 648.172 17.6367ZM655.285 10.9219C656.059 10.9219 656.746 11.0938 657.348 11.4375C657.949 11.7734 658.438 12.2422 658.812 12.8438V6.75H662.199V24H658.953V22.2305C658.477 22.9883 657.934 23.5391 657.324 23.8828C656.715 24.2266 655.957 24.3984 655.051 24.3984C653.559 24.3984 652.301 23.7969 651.277 22.5938C650.262 21.3828 649.754 19.832 649.754 17.9414C649.754 15.7617 650.254 14.0469 651.254 12.7969C652.262 11.5469 653.605 10.9219 655.285 10.9219ZM656.012 21.5859C656.957 21.5859 657.676 21.2344 658.168 20.5312C658.66 19.8281 658.906 18.918 658.906 17.8008C658.906 16.2383 658.512 15.1211 657.723 14.4492C657.238 14.043 656.676 13.8398 656.035 13.8398C655.059 13.8398 654.34 14.2109 653.879 14.9531C653.426 15.6875 653.199 16.6016 653.199 17.6953C653.199 18.875 653.43 19.8203 653.891 20.5312C654.359 21.2344 655.066 21.5859 656.012 21.5859Z" fill="#FF9F0D"/>
<path d="M663.934 13.7227V11.3438H665.715V7.78125H669.02V11.3438H671.094V13.7227H669.02V20.4727C669.02 20.9961 669.086 21.3242 669.219 21.457C669.352 21.582 669.758 21.6445 670.438 21.6445C670.539 21.6445 670.645 21.6445 670.754 21.6445C670.871 21.6367 670.984 21.6289 671.094 21.6211V24.1172L669.512 24.1758C667.934 24.2305 666.855 23.957 666.277 23.3555C665.902 22.9727 665.715 22.3828 665.715 21.5859V13.7227H663.934ZM676.566 11.2266V18.9258C676.566 19.6523 676.652 20.1992 676.824 20.5664C677.129 21.2148 677.727 21.5391 678.617 21.5391C679.758 21.5391 680.539 21.0781 680.961 20.1562C681.18 19.6562 681.289 18.9961 681.289 18.1758V11.2266H684.676V24H681.43V22.1953C681.398 22.2344 681.32 22.3516 681.195 22.5469C681.07 22.7422 680.922 22.9141 680.75 23.0625C680.227 23.5312 679.719 23.8516 679.227 24.0234C678.742 24.1953 678.172 24.2812 677.516 24.2812C675.625 24.2812 674.352 23.6016 673.695 22.2422C673.328 21.4922 673.145 20.3867 673.145 18.9258V11.2266H676.566ZM695.539 15.8086C695.477 15.332 695.316 14.9023 695.059 14.5195C694.684 14.0039 694.102 13.7461 693.312 13.7461C692.188 13.7461 691.418 14.3047 691.004 15.4219C690.785 16.0156 690.676 16.8047 690.676 17.7891C690.676 18.7266 690.785 19.4805 691.004 20.0508C691.402 21.1133 692.152 21.6445 693.254 21.6445C694.035 21.6445 694.59 21.4336 694.918 21.0117C695.246 20.5898 695.445 20.043 695.516 19.3711H698.926C698.848 20.3867 698.48 21.3477 697.824 22.2539C696.777 23.7148 695.227 24.4453 693.172 24.4453C691.117 24.4453 689.605 23.8359 688.637 22.6172C687.668 21.3984 687.184 19.8164 687.184 17.8711C687.184 15.6758 687.719 13.9688 688.789 12.75C689.859 11.5312 691.336 10.9219 693.219 10.9219C694.82 10.9219 696.129 11.2812 697.145 12C698.168 12.7188 698.773 13.9883 698.961 15.8086H695.539ZM701.234 6.78516H704.516V16.0898L708.676 11.2852H712.812L708.348 16.1719L712.988 24H708.957L705.898 18.5391L704.516 19.9805V24H701.234V6.78516Z" fill="white"/>
</svg>
