<svg width="32" height="32" viewBox="0 0 32 32" fill="none" xmlns="http://www.w3.org/2000/svg">
<path fill-rule="evenodd" clip-rule="evenodd" d="M9.95331 1.42134C11.5173 1.34934 12.016 1.33334 16 1.33334C19.984 1.33334 20.4826 1.35068 22.0453 1.42134C23.608 1.49201 24.6746 1.74134 25.608 2.10268C26.5853 2.47201 27.472 3.04934 28.2053 3.79601C28.952 4.52801 29.528 5.41334 29.896 6.39201C30.2586 7.32534 30.5066 8.39201 30.5786 9.95201C30.6506 11.5187 30.6666 12.0173 30.6666 16C30.6666 19.984 30.6493 20.4827 30.5786 22.0467C30.508 23.6067 30.2586 24.6733 29.896 25.6067C29.528 26.5855 28.951 27.4723 28.2053 28.2053C27.472 28.952 26.5853 29.528 25.608 29.896C24.6746 30.2587 23.608 30.5067 22.048 30.5787C20.4826 30.6507 19.984 30.6667 16 30.6667C12.016 30.6667 11.5173 30.6493 9.95331 30.5787C8.39331 30.508 7.32665 30.2587 6.39331 29.896C5.41454 29.528 4.52774 28.951 3.79465 28.2053C3.04849 27.4729 2.47107 26.5865 2.10265 25.608C1.74131 24.6747 1.49331 23.608 1.42131 22.048C1.34931 20.4813 1.33331 19.9827 1.33331 16C1.33331 12.016 1.35065 11.5173 1.42131 9.95468C1.49198 8.39201 1.74131 7.32534 2.10265 6.39201C2.47161 5.41345 3.04947 4.52709 3.79598 3.79468C4.52803 3.04868 5.41394 2.47127 6.39198 2.10268C7.32531 1.74134 8.39198 1.49334 9.95198 1.42134H9.95331ZM21.9266 4.06134C20.38 3.99068 19.916 3.97601 16 3.97601C12.084 3.97601 11.62 3.99068 10.0733 4.06134C8.64265 4.12668 7.86665 4.36534 7.34931 4.56668C6.66531 4.83334 6.17598 5.14934 5.66265 5.66268C5.17604 6.13608 4.80155 6.71239 4.56665 7.34934C4.36531 7.86668 4.12665 8.64268 4.06131 10.0733C3.99065 11.62 3.97598 12.084 3.97598 16C3.97598 19.916 3.99065 20.38 4.06131 21.9267C4.12665 23.3573 4.36531 24.1333 4.56665 24.6507C4.80131 25.2867 5.17598 25.864 5.66265 26.3373C6.13598 26.824 6.71331 27.1987 7.34931 27.4333C7.86665 27.6347 8.64265 27.8733 10.0733 27.9387C11.62 28.0093 12.0826 28.024 16 28.024C19.9173 28.024 20.38 28.0093 21.9266 27.9387C23.3573 27.8733 24.1333 27.6347 24.6506 27.4333C25.3346 27.1667 25.824 26.8507 26.3373 26.3373C26.824 25.864 27.1986 25.2867 27.4333 24.6507C27.6346 24.1333 27.8733 23.3573 27.9386 21.9267C28.0093 20.38 28.024 19.916 28.024 16C28.024 12.084 28.0093 11.62 27.9386 10.0733C27.8733 8.64268 27.6346 7.86668 27.4333 7.34934C27.1666 6.66534 26.8506 6.17601 26.3373 5.66268C25.8639 5.17611 25.2876 4.80162 24.6506 4.56668C24.1333 4.36534 23.3573 4.12668 21.9266 4.06134ZM14.1266 20.5213C15.1729 20.9569 16.3378 21.0156 17.4226 20.6876C18.5073 20.3596 19.4445 19.6652 20.0741 18.723C20.7038 17.7808 20.9867 16.6492 20.8747 15.5215C20.7627 14.3938 20.2627 13.34 19.46 12.54C18.9483 12.0286 18.3296 11.6371 17.6484 11.3935C16.9673 11.15 16.2406 11.0605 15.5206 11.1315C14.8007 11.2025 14.1055 11.4322 13.4851 11.8042C12.8646 12.1761 12.3343 12.681 11.9324 13.2825C11.5305 13.884 11.2669 14.5671 11.1607 15.2826C11.0544 15.9982 11.1082 16.7284 11.318 17.4207C11.5279 18.113 11.8886 18.7502 12.3743 19.2863C12.8599 19.8225 13.4584 20.2443 14.1266 20.5213ZM10.6693 10.6693C11.3693 9.96931 12.2004 9.41401 13.115 9.03516C14.0297 8.6563 15.01 8.46131 16 8.46131C16.99 8.46131 17.9703 8.6563 18.8849 9.03516C19.7996 9.41401 20.6306 9.96931 21.3306 10.6693C22.0307 11.3694 22.586 12.2004 22.9648 13.1151C23.3437 14.0297 23.5387 15.01 23.5387 16C23.5387 16.99 23.3437 17.9703 22.9648 18.8849C22.586 19.7996 22.0307 20.6306 21.3306 21.3307C19.9169 22.7445 17.9994 23.5387 16 23.5387C14.0006 23.5387 12.0831 22.7445 10.6693 21.3307C9.25553 19.9169 8.46128 17.9994 8.46128 16C8.46128 14.0006 9.25553 12.0831 10.6693 10.6693ZM25.2106 9.58401C25.3841 9.42037 25.523 9.22359 25.6191 9.00531C25.7151 8.78703 25.7664 8.5517 25.7699 8.31325C25.7733 8.0748 25.7289 7.83807 25.6393 7.61709C25.5496 7.39611 25.4166 7.19536 25.2479 7.02673C25.0793 6.8581 24.8786 6.72502 24.6576 6.63537C24.4366 6.54571 24.1999 6.50131 23.9614 6.50479C23.723 6.50826 23.4876 6.55955 23.2693 6.65561C23.0511 6.75166 22.8543 6.89054 22.6906 7.06401C22.3724 7.40138 22.1982 7.84951 22.2049 8.31325C22.2117 8.777 22.3989 9.21985 22.7269 9.5478C23.0548 9.87575 23.4977 10.063 23.9614 10.0697C24.4252 10.0765 24.8733 9.90226 25.2106 9.58401Z" fill="#F8F8F8"/>
</svg>
