<svg width="91" height="31" viewBox="0 0 91 31" fill="none" xmlns="http://www.w3.org/2000/svg">
<path d="M25.792 3.52C26.4533 3.648 26.944 3.872 27.264 4.192C27.6053 4.512 27.776 4.88533 27.776 5.312C27.776 6.016 27.5733 6.528 27.168 6.848C26.784 7.168 26.1653 7.296 25.312 7.232C23.392 7.08267 21.888 6.98667 20.8 6.944C19.7333 6.88 18.3253 6.83733 16.576 6.816C15.7867 10.7413 15.0613 14.688 14.4 18.656C14.1653 20.1067 13.92 21.792 13.664 23.712C13.408 25.6107 13.2373 27.1467 13.152 28.32C13.1093 28.9387 12.8533 29.4187 12.384 29.76C11.9147 30.08 11.3493 30.24 10.688 30.24C9.984 30.24 9.44 30.0693 9.056 29.728C8.672 29.3867 8.48 28.9387 8.48 28.384C8.48 27.872 8.55466 27.0293 8.704 25.856C8.87466 24.6613 9.06666 23.4133 9.28 22.112C9.51466 20.8107 9.696 19.68 9.824 18.72C10.0587 17.0987 10.3253 15.488 10.624 13.888C10.9227 12.288 11.2213 10.7733 11.52 9.344C11.584 9.024 11.6587 8.66133 11.744 8.256C11.8293 7.82933 11.9253 7.36 12.032 6.848C9.94133 6.912 8.29866 7.08267 7.104 7.36C5.90933 7.63733 5.056 8.032 4.544 8.544C4.05333 9.03467 3.808 9.67467 3.808 10.464C3.808 11.1893 4.02133 11.8827 4.448 12.544C4.53333 12.6933 4.576 12.8533 4.576 13.024C4.576 13.4293 4.33066 13.8133 3.84 14.176C3.37066 14.5173 2.88 14.688 2.368 14.688C2.00533 14.688 1.70666 14.5813 1.472 14.368C1.04533 14.0053 0.693331 13.4933 0.415997 12.832C0.138664 12.1493 -2.74181e-06 11.3813 -2.74181e-06 10.528C-2.74181e-06 8.71467 0.586664 7.264 1.76 6.176C2.95466 5.06667 4.75733 4.256 7.168 3.744C9.6 3.232 12.7147 2.976 16.512 2.976C18.8587 2.976 20.7253 3.01867 22.112 3.104C23.52 3.18933 24.7467 3.328 25.792 3.52ZM24.0317 30.24C23.2211 30.24 22.6451 29.8133 22.3037 28.96C21.9837 28.1067 21.8237 26.7413 21.8237 24.864C21.8237 22.0907 22.2184 19.456 23.0077 16.96C23.1997 16.3413 23.5091 15.8933 23.9357 15.616C24.3837 15.3173 25.0024 15.168 25.7917 15.168C26.2184 15.168 26.5171 15.2213 26.6877 15.328C26.8584 15.4347 26.9437 15.6373 26.9437 15.936C26.9437 16.2773 26.7837 17.0453 26.4637 18.24C26.2504 19.0933 26.0797 19.84 25.9517 20.48C25.8237 21.12 25.7171 21.9093 25.6317 22.848C26.3357 21.0133 27.1251 19.52 27.9997 18.368C28.8744 17.216 29.7277 16.3947 30.5597 15.904C31.4131 15.4133 32.1917 15.168 32.8957 15.168C34.2824 15.168 34.9757 15.8613 34.9757 17.248C34.9757 17.5253 34.8797 18.1973 34.6877 19.264C34.5171 20.1173 34.4317 20.6507 34.4317 20.864C34.4317 21.6107 34.6984 21.984 35.2317 21.984C35.8291 21.984 36.5971 21.5147 37.5357 20.576C37.8131 20.2987 38.1011 20.16 38.3997 20.16C38.6771 20.16 38.8904 20.288 39.0397 20.544C39.2104 20.7787 39.2957 21.0987 39.2957 21.504C39.2957 22.2933 39.0824 22.912 38.6557 23.36C38.0584 23.9787 37.3544 24.512 36.5437 24.96C35.7544 25.3867 34.9117 25.6 34.0157 25.6C32.8851 25.6 32.0211 25.312 31.4237 24.736C30.8477 24.16 30.5597 23.3813 30.5597 22.4C30.5597 22.08 30.5917 21.76 30.6557 21.44C30.6984 21.0133 30.7197 20.7253 30.7197 20.576C30.7197 20.2347 30.6024 20.064 30.3677 20.064C30.0477 20.064 29.6211 20.4267 29.0877 21.152C28.5757 21.856 28.0637 22.7947 27.5517 23.968C27.0397 25.1413 26.6237 26.3787 26.3037 27.68C26.0691 28.6827 25.7917 29.3653 25.4717 29.728C25.1731 30.0693 24.6931 30.24 24.0317 30.24ZM40.2582 30.24C38.9356 30.24 37.8796 29.76 37.0902 28.8C36.3009 27.84 35.9062 26.5813 35.9062 25.024C35.9062 23.3173 36.3009 21.7067 37.0902 20.192C37.8796 18.656 38.9249 17.4293 40.2262 16.512C41.5489 15.5733 42.9462 15.104 44.4182 15.104C44.8876 15.104 45.1969 15.2 45.3462 15.392C45.5169 15.5627 45.6556 15.8827 45.7622 16.352C46.2102 16.2667 46.6796 16.224 47.1702 16.224C48.2156 16.224 48.7382 16.5973 48.7382 17.344C48.7382 17.792 48.5782 18.8587 48.2582 20.544C47.7676 22.9973 47.5222 24.704 47.5222 25.664C47.5222 25.984 47.5969 26.24 47.7462 26.432C47.9169 26.624 48.1302 26.72 48.3862 26.72C48.7916 26.72 49.2822 26.464 49.8582 25.952C50.4342 25.4187 51.2129 24.5653 52.1942 23.392C52.4502 23.0933 52.7382 22.944 53.0582 22.944C53.3356 22.944 53.5489 23.072 53.6982 23.328C53.8689 23.584 53.9542 23.936 53.9542 24.384C53.9542 25.2373 53.7516 25.8987 53.3462 26.368C52.4716 27.456 51.5436 28.3733 50.5622 29.12C49.5809 29.8667 48.6316 30.24 47.7142 30.24C47.0102 30.24 46.3596 30.0053 45.7622 29.536C45.1862 29.0453 44.7489 28.384 44.4502 27.552C43.3409 29.344 41.9436 30.24 40.2582 30.24ZM41.4102 27.008C41.8796 27.008 42.3276 26.7307 42.7542 26.176C43.1809 25.6213 43.4902 24.8853 43.6822 23.968L44.8662 18.08C43.9702 18.1013 43.1382 18.4427 42.3702 19.104C41.6236 19.744 41.0262 20.5973 40.5782 21.664C40.1302 22.7307 39.9062 23.8613 39.9062 25.056C39.9062 25.7173 40.0342 26.208 40.2902 26.528C40.5676 26.848 40.9409 27.008 41.4102 27.008ZM67.506 20.352C67.57 20.3307 67.6767 20.32 67.826 20.32C68.146 20.32 68.3913 20.4267 68.562 20.64C68.7327 20.8533 68.818 21.1413 68.818 21.504C68.818 22.1653 68.69 22.688 68.434 23.072C68.178 23.4347 67.794 23.7013 67.282 23.872C66.3007 24.192 65.2553 24.352 64.146 24.352C63.2073 24.352 62.322 24.224 61.49 23.968C60.8713 24.9707 60.1887 26.0053 59.442 27.072C58.5887 28.288 57.8527 29.12 57.234 29.568C56.6153 30.016 55.9113 30.24 55.122 30.24C54.2473 30.24 53.554 29.8987 53.042 29.216C52.5513 28.5333 52.242 27.456 52.114 25.984C51.858 22.9973 51.73 20.384 51.73 18.144V17.024C51.7513 16.32 51.9433 15.8293 52.306 15.552C52.6687 15.2747 53.2127 15.136 53.938 15.136C54.4927 15.136 54.898 15.264 55.154 15.52C55.4313 15.7547 55.57 16.16 55.57 16.736C55.57 19.1893 55.7193 22.3787 56.018 26.304C57.298 24.4053 58.258 22.8907 58.898 21.76C58.578 21.1413 58.418 20.4053 58.418 19.552C58.418 18.8267 58.578 18.1227 58.898 17.44C59.218 16.7573 59.6553 16.2027 60.21 15.776C60.7647 15.3493 61.394 15.136 62.098 15.136C62.7167 15.136 63.218 15.36 63.602 15.808C63.986 16.2347 64.178 16.864 64.178 17.696C64.178 18.656 63.922 19.7547 63.41 20.992C64.2207 20.9493 65.298 20.7893 66.642 20.512L67.506 20.352ZM80.313 22.944C80.5903 22.944 80.8037 23.072 80.953 23.328C81.1237 23.584 81.209 23.936 81.209 24.384C81.209 25.2373 81.0063 25.8987 80.601 26.368C79.8117 27.328 78.6917 28.2133 77.241 29.024C75.8117 29.8347 74.2757 30.24 72.633 30.24C70.393 30.24 68.6543 29.632 67.417 28.416C66.1797 27.2 65.561 25.536 65.561 23.424C65.561 21.952 65.8703 20.5867 66.489 19.328C67.1077 18.048 67.961 17.0347 69.049 16.288C70.1583 15.5413 71.4063 15.168 72.793 15.168C74.0303 15.168 75.0223 15.5413 75.769 16.288C76.5157 17.0133 76.889 18.0053 76.889 19.264C76.889 20.736 76.3557 22.0053 75.289 23.072C74.2437 24.1173 72.4623 24.9493 69.945 25.568C70.4783 26.5493 71.4917 27.04 72.985 27.04C73.945 27.04 75.033 26.7093 76.249 26.048C77.4863 25.3653 78.553 24.48 79.449 23.392C79.705 23.0933 79.993 22.944 80.313 22.944ZM72.249 18.304C71.4597 18.304 70.7877 18.7627 70.233 19.68C69.6997 20.5973 69.433 21.7067 69.433 23.008V23.072C70.6917 22.7733 71.6837 22.3253 72.409 21.728C73.1343 21.1307 73.497 20.4373 73.497 19.648C73.497 19.2427 73.3797 18.9227 73.145 18.688C72.9317 18.432 72.633 18.304 72.249 18.304ZM87.8515 25.568C88.0862 25.3547 88.3208 25.248 88.5555 25.248C88.8115 25.248 89.0142 25.3973 89.1635 25.696C89.3342 25.9733 89.4195 26.3147 89.4195 26.72C89.4195 27.616 89.0995 28.3307 88.4595 28.864C87.3502 29.7813 86.0915 30.24 84.6835 30.24C82.6568 30.24 81.1742 29.3973 80.2355 27.712C79.2968 26.0053 78.8275 23.7867 78.8275 21.056C78.8275 18.4533 79.1582 15.488 79.8195 12.16C80.5022 8.832 81.4942 5.97333 82.7955 3.584C84.1182 1.19467 85.6862 0 87.4995 0C88.5235 0 89.3235 0.48 89.8995 1.44C90.4968 2.37867 90.7955 3.73333 90.7955 5.504C90.7955 8.04267 90.0915 10.9867 88.6835 14.336C87.2968 17.6853 85.3982 20.992 82.9875 24.256C83.1368 25.1307 83.4035 25.76 83.7875 26.144C84.1715 26.528 84.6942 26.72 85.3555 26.72C85.7182 26.72 86.1235 26.6133 86.5715 26.4C87.0408 26.1867 87.4675 25.9093 87.8515 25.568ZM86.7955 3.168C86.3048 3.168 85.7502 4.05333 85.1315 5.824C84.5128 7.59467 83.9688 9.792 83.4995 12.416C83.0302 15.04 82.7742 17.5573 82.7315 19.968C84.2462 17.472 85.4515 14.976 86.3475 12.48C87.2435 9.96267 87.6915 7.66933 87.6915 5.6C87.6915 3.97867 87.3928 3.168 86.7955 3.168Z" fill="white"/>
</svg>
