<svg width="1201" height="36" viewBox="0 0 1201 36" fill="none" xmlns="http://www.w3.org/2000/svg">
<rect width="113" height="35" rx="17.5" fill="#008ECC"/>
<rect x="127" width="148" height="36" rx="18" fill="#F3F9FB"/>
<path d="M143.43 22H144.626V17.8438H146.205C148.181 17.8438 149.514 16.873 149.514 15.1162C149.514 13.3594 148.16 12.3408 146.205 12.3408H143.43V22ZM144.626 16.7158V13.4688H146.205C147.606 13.4688 148.317 14.0771 148.317 15.1162C148.317 16.1553 147.634 16.7158 146.205 16.7158H144.626ZM151.004 22H152.125V18.7119C152.125 16.9004 153.116 16.1826 153.978 16.1826C154.251 16.1826 154.511 16.2578 154.743 16.3877L155.276 15.4307C154.969 15.1709 154.552 15.0547 154.148 15.0547C153.349 15.0547 152.46 15.5264 152.132 16.5107V15.1709H151.004V22ZM158.756 22.1162C159.87 22.1162 160.69 21.7607 161.449 20.9473L160.643 20.2432C160.075 20.8447 159.515 21.0635 158.763 21.0635C157.484 21.0635 156.794 20.2432 156.705 18.9307H161.62C161.647 18.8281 161.675 18.5547 161.675 18.3018C161.675 16.8936 160.93 15.0547 158.64 15.0547C156.548 15.0547 155.481 16.7363 155.481 18.6162C155.481 20.5371 156.596 22.1162 158.756 22.1162ZM156.705 18.083C156.835 16.8867 157.478 16.0322 158.633 16.0322C159.781 16.0322 160.383 16.8047 160.499 17.6523C160.526 17.7891 160.526 17.9326 160.526 18.083H156.705ZM163.384 22H164.546V18.0488C164.546 16.9551 165.195 16.1348 166.262 16.1348C167.294 16.1348 167.704 16.8594 167.704 17.9395V22H168.859V18.0488C168.859 16.9551 169.516 16.1348 170.568 16.1348C171.635 16.1348 172.018 16.8867 172.018 18.1104V22H173.18V17.9736C173.18 16.3262 172.462 15.0547 170.794 15.0547C169.837 15.0547 169.01 15.499 168.559 16.4629C168.224 15.458 167.41 15.0547 166.487 15.0547C165.64 15.0547 164.895 15.4102 164.498 16.2441V15.1709H163.377L163.384 22ZM175.258 13.79H176.468V12.3408H175.258V13.79ZM175.285 22H176.44V15.1709H175.285V22ZM180.952 22.1162C181.779 22.1162 182.586 21.7402 183.051 20.9609V22H184.199V15.1709H183.051V19.1084C183.051 20.3867 182.354 21.043 181.267 21.043C180.234 21.043 179.694 20.3389 179.694 19.2109V15.1709H178.546V19.416C178.566 20.8789 179.291 22.1162 180.952 22.1162ZM186.503 22H187.665V18.0488C187.665 16.9551 188.314 16.1348 189.381 16.1348C190.413 16.1348 190.823 16.8594 190.823 17.9395V22H191.979V18.0488C191.979 16.9551 192.635 16.1348 193.688 16.1348C194.754 16.1348 195.137 16.8867 195.137 18.1104V22H196.299V17.9736C196.299 16.3262 195.581 15.0547 193.913 15.0547C192.956 15.0547 192.129 15.499 191.678 16.4629C191.343 15.458 190.529 15.0547 189.606 15.0547C188.759 15.0547 188.014 15.4102 187.617 16.2441V15.1709H186.496L186.503 22ZM202.205 22H203.408V17.7139H208.187V16.5996H203.408V13.4482H208.836V12.3408H202.205V22ZM210.039 22H211.16V18.7119C211.16 16.9004 212.151 16.1826 213.013 16.1826C213.286 16.1826 213.546 16.2578 213.778 16.3877L214.312 15.4307C214.004 15.1709 213.587 15.0547 213.184 15.0547C212.384 15.0547 211.495 15.5264 211.167 16.5107V15.1709H210.039V22ZM217.771 22.1162C218.598 22.1162 219.404 21.7402 219.869 20.9609V22H221.018V15.1709H219.869V19.1084C219.869 20.3867 219.172 21.043 218.085 21.043C217.053 21.043 216.513 20.3389 216.513 19.2109V15.1709H215.364V19.416C215.385 20.8789 216.109 22.1162 217.771 22.1162ZM223.287 13.79H224.497V12.3408H223.287V13.79ZM223.314 22H224.47V15.1709H223.314V22ZM228.947 22.1162C229.371 22.1162 229.781 22.0342 230 21.9521L229.993 20.8994C229.795 20.9883 229.46 21.0908 229.146 21.0908C228.517 21.0908 228.154 20.7627 228.154 19.9014V16.1484H230V15.1709H228.154V12.4502L227.013 13.2842V15.1709H225.871V16.1484H226.999V20.0928C226.999 21.3779 227.696 22.1162 228.947 22.1162ZM233.883 22.1162C235.202 22.1162 236.392 21.4189 236.392 19.9834C236.392 17.4062 232.57 18.3359 232.57 16.8594C232.57 16.3467 233.056 15.9775 233.828 15.9775C234.628 15.9775 235.134 16.4355 235.435 16.9824L236.33 16.4971C235.838 15.5879 234.977 15.0547 233.869 15.0547C232.557 15.0547 231.463 15.7246 231.463 17.0098C231.463 19.4639 235.25 18.418 235.25 20.0381C235.25 20.6396 234.771 21.1455 233.828 21.1455C232.823 21.1455 232.249 20.5166 232.017 19.8672L231.08 20.2773C231.422 21.3164 232.502 22.1162 233.883 22.1162Z" fill="#222222"/>
<path d="M257.25 15.375L252 20.625L246.75 15.375" stroke="#008ECC" stroke-width="1.5" stroke-linecap="round" stroke-linejoin="round"/>
<rect x="289" width="153" height="36" rx="18" fill="#F3F9FB"/>
<path d="M304.66 22H305.863V17.707H310.655V22H311.858V12.3408H310.655V16.5928H305.863V12.3408H304.66V22ZM317.17 22.1162C319.173 22.1162 320.547 20.5234 320.547 18.5684C320.547 16.627 319.173 15.0547 317.17 15.0547C315.167 15.0547 313.807 16.627 313.807 18.5684C313.807 20.5234 315.167 22.1162 317.17 22.1162ZM317.17 21.1113C315.769 21.1113 315.01 19.9561 315.01 18.5684C315.01 17.1875 315.769 16.0596 317.17 16.0596C318.578 16.0596 319.344 17.1943 319.344 18.5684C319.344 19.9492 318.578 21.1113 317.17 21.1113ZM322.249 22H323.411V18.0488C323.411 16.9551 324.061 16.1348 325.127 16.1348C326.159 16.1348 326.569 16.8594 326.569 17.9395V22H327.725V18.0488C327.725 16.9551 328.381 16.1348 329.434 16.1348C330.5 16.1348 330.883 16.8867 330.883 18.1104V22H332.045V17.9736C332.045 16.3262 331.327 15.0547 329.659 15.0547C328.702 15.0547 327.875 15.499 327.424 16.4629C327.089 15.458 326.275 15.0547 325.353 15.0547C324.505 15.0547 323.76 15.4102 323.363 16.2441V15.1709H322.242L322.249 22ZM336.857 22.1162C337.972 22.1162 338.792 21.7607 339.551 20.9473L338.744 20.2432C338.177 20.8447 337.616 21.0635 336.864 21.0635C335.586 21.0635 334.896 20.2432 334.807 18.9307H339.722C339.749 18.8281 339.776 18.5547 339.776 18.3018C339.776 16.8936 339.031 15.0547 336.741 15.0547C334.649 15.0547 333.583 16.7363 333.583 18.6162C333.583 20.5371 334.697 22.1162 336.857 22.1162ZM334.807 18.083C334.937 16.8867 335.579 16.0322 336.734 16.0322C337.883 16.0322 338.484 16.8047 338.601 17.6523C338.628 17.7891 338.628 17.9326 338.628 18.083H334.807ZM352.177 21.7402L350.775 20.1338C351.274 19.375 351.582 18.4385 351.65 17.3926L350.522 17.2832C350.495 18.0146 350.317 18.6982 350.023 19.2793L348.096 17.0713C349.183 16.4424 350.16 15.7109 350.16 14.4531C350.16 13.2021 349.08 12.2451 347.74 12.2451C346.407 12.2451 345.184 13.1064 345.184 14.46C345.184 15.499 346.031 16.4014 346.435 16.8457C345.238 17.4951 344.09 18.2812 344.09 19.7783C344.09 21.2754 345.375 22.123 347.111 22.123C348.28 22.123 349.292 21.6992 350.064 20.9746L351.356 22.4717L352.177 21.7402ZM346.305 14.4805C346.305 13.667 346.94 13.1543 347.747 13.1543C348.567 13.1543 349.087 13.749 349.087 14.4736C349.087 15.3213 348.301 15.8408 347.351 16.3535C347.029 15.9707 346.305 15.1572 346.305 14.4805ZM347.084 21.1387C345.949 21.1387 345.211 20.6533 345.211 19.7988C345.211 18.7871 346.12 18.1787 347.159 17.5977L349.388 20.1816C348.807 20.7764 348.027 21.1387 347.084 21.1387ZM357.27 22H358.473V19.3613L360.756 17.0098L364.003 22H365.493L361.59 16.1963L365.343 12.3408H363.723L358.473 17.8916V12.3408H357.27V22ZM366.963 13.79H368.173V12.3408H366.963V13.79ZM366.99 22H368.146V15.1709H366.99V22ZM372.623 22.1162C373.047 22.1162 373.457 22.0342 373.676 21.9521L373.669 20.8994C373.471 20.9883 373.136 21.0908 372.821 21.0908C372.192 21.0908 371.83 20.7627 371.83 19.9014V16.1484H373.676V15.1709H371.83V12.4502L370.688 13.2842V15.1709H369.547V16.1484H370.675V20.0928C370.675 21.3779 371.372 22.1162 372.623 22.1162ZM377.894 22.1162C379.186 22.1162 380.197 21.4053 380.628 20.1816L379.575 19.7852C379.329 20.5645 378.7 21.0635 377.88 21.0635C376.513 21.0635 375.918 19.8809 375.918 18.5957C375.918 17.3311 376.513 16.1074 377.88 16.1074C378.693 16.1074 379.322 16.6133 379.596 17.4062L380.696 16.9756C380.19 15.7041 379.158 15.0547 377.88 15.0547C375.768 15.0547 374.742 16.8047 374.742 18.5957C374.742 20.4893 375.843 22.1162 377.894 22.1162ZM382.248 22H383.424V18.2471C383.424 17.0029 384.06 16.1074 385.229 16.1074C386.356 16.1074 386.753 16.8662 386.753 17.96V22H387.929V17.748C387.908 16.2852 387.156 15.0547 385.495 15.0547C384.668 15.0547 383.889 15.4307 383.424 16.21V12.3408H382.248V22ZM392.748 22.1162C393.862 22.1162 394.683 21.7607 395.441 20.9473L394.635 20.2432C394.067 20.8447 393.507 21.0635 392.755 21.0635C391.477 21.0635 390.786 20.2432 390.697 18.9307H395.612C395.64 18.8281 395.667 18.5547 395.667 18.3018C395.667 16.8936 394.922 15.0547 392.632 15.0547C390.54 15.0547 389.474 16.7363 389.474 18.6162C389.474 20.5371 390.588 22.1162 392.748 22.1162ZM390.697 18.083C390.827 16.8867 391.47 16.0322 392.625 16.0322C393.773 16.0322 394.375 16.8047 394.491 17.6523C394.519 17.7891 394.519 17.9326 394.519 18.083H390.697ZM397.369 22H398.524V18.0625C398.524 16.7773 399.215 16.1279 400.302 16.1279C401.334 16.1279 401.874 16.832 401.874 17.96V22H403.029V17.748C403.009 16.2852 402.277 15.0547 400.616 15.0547C399.789 15.0547 398.996 15.4307 398.524 16.21V15.1709H397.369V22Z" fill="#222222"/>
<path d="M424.25 15.375L419 20.625L413.75 15.375" stroke="#008ECC" stroke-width="1.5" stroke-linecap="round" stroke-linejoin="round"/>
<rect x="456" width="101" height="36" rx="18" fill="#F3F9FB"/>
<path d="M471.941 22H473.145V17.7139H477.923V16.5996H473.145V13.4482H478.572V12.3408H471.941V22ZM482.093 15.0547C480.842 15.0547 480.021 15.5811 479.358 16.4902L480.247 17.1328C480.657 16.4971 481.238 16.0664 482.106 16.0664C483.398 16.0664 483.836 16.6885 483.843 18.0215H481.908C480.227 18.0215 479.092 18.5615 479.092 19.9766C479.092 21.3301 480.104 22.1162 481.491 22.1162C482.428 22.1162 483.371 21.6719 483.856 20.7832L483.932 22H484.896V17.8369C484.896 16.1416 483.884 15.0547 482.093 15.0547ZM481.717 21.125C480.787 21.125 480.281 20.6807 480.281 20.0176C480.281 19.3271 480.828 18.8691 481.977 18.8691H483.843V19.3135C483.617 20.3389 482.872 21.125 481.717 21.125ZM489.031 22.1162C490.351 22.1162 491.54 21.4189 491.54 19.9834C491.54 17.4062 487.719 18.3359 487.719 16.8594C487.719 16.3467 488.204 15.9775 488.977 15.9775C489.776 15.9775 490.282 16.4355 490.583 16.9824L491.479 16.4971C490.986 15.5879 490.125 15.0547 489.018 15.0547C487.705 15.0547 486.611 15.7246 486.611 17.0098C486.611 19.4639 490.398 18.418 490.398 20.0381C490.398 20.6396 489.92 21.1455 488.977 21.1455C487.972 21.1455 487.397 20.5166 487.165 19.8672L486.229 20.2773C486.57 21.3164 487.65 22.1162 489.031 22.1162ZM493.311 22H494.486V18.2471C494.486 17.0029 495.122 16.1074 496.291 16.1074C497.419 16.1074 497.815 16.8662 497.815 17.96V22H498.991V17.748C498.971 16.2852 498.219 15.0547 496.558 15.0547C495.73 15.0547 494.951 15.4307 494.486 16.21V12.3408H493.311V22ZM501.076 13.79H502.286V12.3408H501.076V13.79ZM501.104 22H502.259V15.1709H501.104V22ZM507.297 22.1162C509.3 22.1162 510.674 20.5234 510.674 18.5684C510.674 16.627 509.3 15.0547 507.297 15.0547C505.294 15.0547 503.934 16.627 503.934 18.5684C503.934 20.5234 505.294 22.1162 507.297 22.1162ZM507.297 21.1113C505.896 21.1113 505.137 19.9561 505.137 18.5684C505.137 17.1875 505.896 16.0596 507.297 16.0596C508.705 16.0596 509.471 17.1943 509.471 18.5684C509.471 19.9492 508.705 21.1113 507.297 21.1113ZM512.369 22H513.524V18.0625C513.524 16.7773 514.215 16.1279 515.302 16.1279C516.334 16.1279 516.874 16.832 516.874 17.96V22H518.029V17.748C518.009 16.2852 517.277 15.0547 515.616 15.0547C514.789 15.0547 513.996 15.4307 513.524 16.21V15.1709H512.369V22Z" fill="#222222"/>
<path d="M539.25 15.375L534 20.625L528.75 15.375" stroke="#008ECC" stroke-width="1.5" stroke-linecap="round" stroke-linejoin="round"/>
<rect x="571" width="121" height="27" rx="13.5" fill="#F3F9FB"/>
<path d="M586.584 22H592.935V20.8584H587.787V17.7139H592.47V16.5996H587.787V13.4482H592.935V12.3408H586.584V22ZM596.216 22.1162C596.544 22.1162 596.954 22.0615 597.269 21.9932L597.262 21.0156C597.063 21.0498 596.872 21.0703 596.735 21.0703C596.175 21.0703 596.059 20.7354 596.059 20.2773V12.3408H594.896V20.585C594.896 21.6309 595.307 22.1162 596.216 22.1162ZM601.459 22.1162C602.573 22.1162 603.394 21.7607 604.152 20.9473L603.346 20.2432C602.778 20.8447 602.218 21.0635 601.466 21.0635C600.188 21.0635 599.497 20.2432 599.408 18.9307H604.323C604.351 18.8281 604.378 18.5547 604.378 18.3018C604.378 16.8936 603.633 15.0547 601.343 15.0547C599.251 15.0547 598.185 16.7363 598.185 18.6162C598.185 20.5371 599.299 22.1162 601.459 22.1162ZM599.408 18.083C599.538 16.8867 600.181 16.0322 601.336 16.0322C602.484 16.0322 603.086 16.8047 603.202 17.6523C603.229 17.7891 603.229 17.9326 603.229 18.083H599.408ZM608.657 22.1162C609.949 22.1162 610.961 21.4053 611.392 20.1816L610.339 19.7852C610.093 20.5645 609.464 21.0635 608.644 21.0635C607.276 21.0635 606.682 19.8809 606.682 18.5957C606.682 17.3311 607.276 16.1074 608.644 16.1074C609.457 16.1074 610.086 16.6133 610.359 17.4062L611.46 16.9756C610.954 15.7041 609.922 15.0547 608.644 15.0547C606.531 15.0547 605.506 16.8047 605.506 18.5957C605.506 20.4893 606.606 22.1162 608.657 22.1162ZM615.186 22.1162C615.609 22.1162 616.02 22.0342 616.238 21.9521L616.231 20.8994C616.033 20.9883 615.698 21.0908 615.384 21.0908C614.755 21.0908 614.393 20.7627 614.393 19.9014V16.1484H616.238V15.1709H614.393V12.4502L613.251 13.2842V15.1709H612.109V16.1484H613.237V20.0928C613.237 21.3779 613.935 22.1162 615.186 22.1162ZM617.838 22H618.959V18.7119C618.959 16.9004 619.95 16.1826 620.812 16.1826C621.085 16.1826 621.345 16.2578 621.577 16.3877L622.11 15.4307C621.803 15.1709 621.386 15.0547 620.982 15.0547C620.183 15.0547 619.294 15.5264 618.966 16.5107V15.1709H617.838V22ZM625.631 22.1162C627.634 22.1162 629.008 20.5234 629.008 18.5684C629.008 16.627 627.634 15.0547 625.631 15.0547C623.628 15.0547 622.268 16.627 622.268 18.5684C622.268 20.5234 623.628 22.1162 625.631 22.1162ZM625.631 21.1113C624.229 21.1113 623.471 19.9561 623.471 18.5684C623.471 17.1875 624.229 16.0596 625.631 16.0596C627.039 16.0596 627.805 17.1943 627.805 18.5684C627.805 19.9492 627.039 21.1113 625.631 21.1113ZM630.703 22H631.858V18.0625C631.858 16.7773 632.549 16.1279 633.636 16.1279C634.668 16.1279 635.208 16.832 635.208 17.96V22H636.363V17.748C636.343 16.2852 635.611 15.0547 633.95 15.0547C633.123 15.0547 632.33 15.4307 631.858 16.21V15.1709H630.703V22ZM638.455 13.79H639.665V12.3408H638.455V13.79ZM638.482 22H639.638V15.1709H638.482V22ZM644.505 22.1162C645.797 22.1162 646.809 21.4053 647.239 20.1816L646.187 19.7852C645.94 20.5645 645.312 21.0635 644.491 21.0635C643.124 21.0635 642.529 19.8809 642.529 18.5957C642.529 17.3311 643.124 16.1074 644.491 16.1074C645.305 16.1074 645.934 16.6133 646.207 17.4062L647.308 16.9756C646.802 15.7041 645.77 15.0547 644.491 15.0547C642.379 15.0547 641.354 16.8047 641.354 18.5957C641.354 20.4893 642.454 22.1162 644.505 22.1162ZM650.883 22.1162C652.202 22.1162 653.392 21.4189 653.392 19.9834C653.392 17.4062 649.57 18.3359 649.57 16.8594C649.57 16.3467 650.056 15.9775 650.828 15.9775C651.628 15.9775 652.134 16.4355 652.435 16.9824L653.33 16.4971C652.838 15.5879 651.977 15.0547 650.869 15.0547C649.557 15.0547 648.463 15.7246 648.463 17.0098C648.463 19.4639 652.25 18.418 652.25 20.0381C652.25 20.6396 651.771 21.1455 650.828 21.1455C649.823 21.1455 649.249 20.5166 649.017 19.8672L648.08 20.2773C648.422 21.3164 649.502 22.1162 650.883 22.1162Z" fill="#222222"/>
<path d="M674.25 15.375L669 20.625L663.75 15.375" stroke="#008ECC" stroke-width="1.5" stroke-linecap="round" stroke-linejoin="round"/>
<rect x="706" width="96" height="36" rx="18" fill="#F3F9FB"/>
<path d="M722.328 22H725.726C727.476 22 728.829 21.0361 728.829 19.2861C728.829 18.1582 728.132 17.1602 727.12 16.873C727.79 16.5791 728.357 15.8135 728.357 14.8633C728.357 13.0586 726.963 12.3408 725.397 12.3408H722.328V22ZM723.531 16.4629V13.4346H725.418C726.532 13.4346 727.243 13.9336 727.243 14.9316C727.243 15.9912 726.505 16.4629 725.65 16.4629H723.531ZM723.531 20.8516V17.5088H725.883C726.977 17.5088 727.64 18.1924 727.64 19.1562C727.64 20.2842 726.977 20.8516 725.739 20.8516H723.531ZM733.512 22.1162C734.626 22.1162 735.446 21.7607 736.205 20.9473L735.398 20.2432C734.831 20.8447 734.271 21.0635 733.519 21.0635C732.24 21.0635 731.55 20.2432 731.461 18.9307H736.376C736.403 18.8281 736.431 18.5547 736.431 18.3018C736.431 16.8936 735.686 15.0547 733.396 15.0547C731.304 15.0547 730.237 16.7363 730.237 18.6162C730.237 20.5371 731.352 22.1162 733.512 22.1162ZM731.461 18.083C731.591 16.8867 732.233 16.0322 733.389 16.0322C734.537 16.0322 735.139 16.8047 735.255 17.6523C735.282 17.7891 735.282 17.9326 735.282 18.083H731.461ZM740.505 15.0547C739.254 15.0547 738.434 15.5811 737.771 16.4902L738.659 17.1328C739.069 16.4971 739.65 16.0664 740.519 16.0664C741.811 16.0664 742.248 16.6885 742.255 18.0215H740.32C738.639 18.0215 737.504 18.5615 737.504 19.9766C737.504 21.3301 738.516 22.1162 739.903 22.1162C740.84 22.1162 741.783 21.6719 742.269 20.7832L742.344 22H743.308V17.8369C743.308 16.1416 742.296 15.0547 740.505 15.0547ZM740.129 21.125C739.199 21.125 738.693 20.6807 738.693 20.0176C738.693 19.3271 739.24 18.8691 740.389 18.8691H742.255V19.3135C742.029 20.3389 741.284 21.125 740.129 21.125ZM747.519 22.1162C748.346 22.1162 749.152 21.7402 749.617 20.9609V22H750.766V15.1709H749.617V19.1084C749.617 20.3867 748.92 21.043 747.833 21.043C746.801 21.043 746.261 20.3389 746.261 19.2109V15.1709H745.112V19.416C745.133 20.8789 745.857 22.1162 747.519 22.1162ZM755.25 22.1162C755.674 22.1162 756.084 22.0342 756.303 21.9521L756.296 20.8994C756.098 20.9883 755.763 21.0908 755.448 21.0908C754.819 21.0908 754.457 20.7627 754.457 19.9014V16.1484H756.303V15.1709H754.457V12.4502L753.315 13.2842V15.1709H752.174V16.1484H753.302V20.0928C753.302 21.3779 753.999 22.1162 755.25 22.1162ZM758.777 24.9326H760.042L763.843 15.1709H762.571L760.589 20.5439L758.422 15.1709H757.144L759.974 21.8838L758.777 24.9326Z" fill="#222222"/>
<path d="M784.25 15.375L779 20.625L773.75 15.375" stroke="#008ECC" stroke-width="1.5" stroke-linecap="round" stroke-linejoin="round"/>
<rect x="816" width="176" height="36" rx="18" fill="#F3F9FB"/>
<path d="M832.129 22H833.332V17.707H838.124V22H839.327V12.3408H838.124V16.5928H833.332V12.3408H832.129V22ZM844.639 22.1162C846.642 22.1162 848.016 20.5234 848.016 18.5684C848.016 16.627 846.642 15.0547 844.639 15.0547C842.636 15.0547 841.275 16.627 841.275 18.5684C841.275 20.5234 842.636 22.1162 844.639 22.1162ZM844.639 21.1113C843.237 21.1113 842.479 19.9561 842.479 18.5684C842.479 17.1875 843.237 16.0596 844.639 16.0596C846.047 16.0596 846.812 17.1943 846.812 18.5684C846.812 19.9492 846.047 21.1113 844.639 21.1113ZM849.718 22H850.88V18.0488C850.88 16.9551 851.529 16.1348 852.596 16.1348C853.628 16.1348 854.038 16.8594 854.038 17.9395V22H855.193V18.0488C855.193 16.9551 855.85 16.1348 856.902 16.1348C857.969 16.1348 858.352 16.8867 858.352 18.1104V22H859.514V17.9736C859.514 16.3262 858.796 15.0547 857.128 15.0547C856.171 15.0547 855.344 15.499 854.893 16.4629C854.558 15.458 853.744 15.0547 852.821 15.0547C851.974 15.0547 851.229 15.4102 850.832 16.2441V15.1709H849.711L849.718 22ZM864.326 22.1162C865.44 22.1162 866.261 21.7607 867.02 20.9473L866.213 20.2432C865.646 20.8447 865.085 21.0635 864.333 21.0635C863.055 21.0635 862.364 20.2432 862.275 18.9307H867.19C867.218 18.8281 867.245 18.5547 867.245 18.3018C867.245 16.8936 866.5 15.0547 864.21 15.0547C862.118 15.0547 861.052 16.7363 861.052 18.6162C861.052 20.5371 862.166 22.1162 864.326 22.1162ZM862.275 18.083C862.405 16.8867 863.048 16.0322 864.203 16.0322C865.352 16.0322 865.953 16.8047 866.069 17.6523C866.097 17.7891 866.097 17.9326 866.097 18.083H862.275ZM872.748 22H873.951V12.3408H872.748V22ZM876.556 22H877.718V18.0488C877.718 16.9551 878.367 16.1348 879.434 16.1348C880.466 16.1348 880.876 16.8594 880.876 17.9395V22H882.031V18.0488C882.031 16.9551 882.688 16.1348 883.74 16.1348C884.807 16.1348 885.189 16.8867 885.189 18.1104V22H886.352V17.9736C886.352 16.3262 885.634 15.0547 883.966 15.0547C883.009 15.0547 882.182 15.499 881.73 16.4629C881.396 15.458 880.582 15.0547 879.659 15.0547C878.812 15.0547 878.066 15.4102 877.67 16.2441V15.1709H876.549L876.556 22ZM888.471 24.8301H889.667V20.7695C890.111 21.6309 890.966 22.1162 891.93 22.1162C893.803 22.1162 894.849 20.5166 894.849 18.5889C894.849 16.668 893.803 15.0547 891.95 15.0547C890.993 15.0547 890.111 15.54 889.667 16.4014V15.1709H888.471V24.8301ZM891.67 21.0635C890.337 21.0635 889.564 19.9902 889.564 18.5889C889.564 17.1807 890.337 16.1279 891.67 16.1279C893.003 16.1279 893.687 17.2012 893.687 18.5889C893.687 19.9766 893.003 21.0635 891.67 21.0635ZM896.605 22H897.727V18.7119C897.727 16.9004 898.718 16.1826 899.579 16.1826C899.853 16.1826 900.112 16.2578 900.345 16.3877L900.878 15.4307C900.57 15.1709 900.153 15.0547 899.75 15.0547C898.95 15.0547 898.062 15.5264 897.733 16.5107V15.1709H896.605V22ZM904.398 22.1162C906.401 22.1162 907.775 20.5234 907.775 18.5684C907.775 16.627 906.401 15.0547 904.398 15.0547C902.396 15.0547 901.035 16.627 901.035 18.5684C901.035 20.5234 902.396 22.1162 904.398 22.1162ZM904.398 21.1113C902.997 21.1113 902.238 19.9561 902.238 18.5684C902.238 17.1875 902.997 16.0596 904.398 16.0596C905.807 16.0596 906.572 17.1943 906.572 18.5684C906.572 19.9492 905.807 21.1113 904.398 21.1113ZM911.036 22H912.007L914.803 15.1709H913.538L911.521 20.5166L909.512 15.1709H908.247L911.036 22ZM918.59 22.1162C919.704 22.1162 920.524 21.7607 921.283 20.9473L920.477 20.2432C919.909 20.8447 919.349 21.0635 918.597 21.0635C917.318 21.0635 916.628 20.2432 916.539 18.9307H921.454C921.481 18.8281 921.509 18.5547 921.509 18.3018C921.509 16.8936 920.764 15.0547 918.474 15.0547C916.382 15.0547 915.315 16.7363 915.315 18.6162C915.315 20.5371 916.43 22.1162 918.59 22.1162ZM916.539 18.083C916.669 16.8867 917.312 16.0322 918.467 16.0322C919.615 16.0322 920.217 16.8047 920.333 17.6523C920.36 17.7891 920.36 17.9326 920.36 18.083H916.539ZM923.218 22H924.38V18.0488C924.38 16.9551 925.029 16.1348 926.096 16.1348C927.128 16.1348 927.538 16.8594 927.538 17.9395V22H928.693V18.0488C928.693 16.9551 929.35 16.1348 930.402 16.1348C931.469 16.1348 931.852 16.8867 931.852 18.1104V22H933.014V17.9736C933.014 16.3262 932.296 15.0547 930.628 15.0547C929.671 15.0547 928.844 15.499 928.393 16.4629C928.058 15.458 927.244 15.0547 926.321 15.0547C925.474 15.0547 924.729 15.4102 924.332 16.2441V15.1709H923.211L923.218 22ZM937.826 22.1162C938.94 22.1162 939.761 21.7607 940.52 20.9473L939.713 20.2432C939.146 20.8447 938.585 21.0635 937.833 21.0635C936.555 21.0635 935.864 20.2432 935.775 18.9307H940.69C940.718 18.8281 940.745 18.5547 940.745 18.3018C940.745 16.8936 940 15.0547 937.71 15.0547C935.618 15.0547 934.552 16.7363 934.552 18.6162C934.552 20.5371 935.666 22.1162 937.826 22.1162ZM935.775 18.083C935.905 16.8867 936.548 16.0322 937.703 16.0322C938.852 16.0322 939.453 16.8047 939.569 17.6523C939.597 17.7891 939.597 17.9326 939.597 18.083H935.775ZM942.447 22H943.603V18.0625C943.603 16.7773 944.293 16.1279 945.38 16.1279C946.412 16.1279 946.952 16.832 946.952 17.96V22H948.107V17.748C948.087 16.2852 947.355 15.0547 945.694 15.0547C944.867 15.0547 944.074 15.4307 943.603 16.21V15.1709H942.447V22ZM952.414 22.1162C952.838 22.1162 953.248 22.0342 953.467 21.9521L953.46 20.8994C953.262 20.9883 952.927 21.0908 952.612 21.0908C951.983 21.0908 951.621 20.7627 951.621 19.9014V16.1484H953.467V15.1709H951.621V12.4502L950.479 13.2842V15.1709H949.338V16.1484H950.466V20.0928C950.466 21.3779 951.163 22.1162 952.414 22.1162Z" fill="#222222"/>
<path d="M974.25 15.375L969 20.625L963.75 15.375" stroke="#008ECC" stroke-width="1.5" stroke-linecap="round" stroke-linejoin="round"/>
<rect x="1006" width="195" height="36" rx="18" fill="#F3F9FB"/>
<path d="M1024.39 22.0957C1026.17 22.0957 1027.58 21.002 1027.58 19.293C1027.58 16.1006 1022.71 16.832 1022.71 14.6992C1022.71 13.8789 1023.4 13.2979 1024.29 13.2979C1025.11 13.2979 1025.73 13.6807 1026.14 14.4395L1027.14 13.8242C1026.51 12.71 1025.52 12.2246 1024.33 12.2246C1022.78 12.2246 1021.51 13.1816 1021.51 14.7539C1021.51 17.8164 1026.38 17.0371 1026.38 19.3955C1026.38 20.3184 1025.62 21.0225 1024.41 21.0225C1023.21 21.0225 1022.28 20.373 1022.1 19.0811L1020.92 19.3818C1021.21 21.1592 1022.71 22.0957 1024.39 22.0957ZM1029.08 24.8301H1030.28V20.7695C1030.72 21.6309 1031.58 22.1162 1032.54 22.1162C1034.42 22.1162 1035.46 20.5166 1035.46 18.5889C1035.46 16.668 1034.42 15.0547 1032.56 15.0547C1031.61 15.0547 1030.72 15.54 1030.28 16.4014V15.1709H1029.08V24.8301ZM1032.28 21.0635C1030.95 21.0635 1030.18 19.9902 1030.18 18.5889C1030.18 17.1807 1030.95 16.1279 1032.28 16.1279C1033.62 16.1279 1034.3 17.2012 1034.3 18.5889C1034.3 19.9766 1033.62 21.0635 1032.28 21.0635ZM1039.97 22.1162C1041.97 22.1162 1043.34 20.5234 1043.34 18.5684C1043.34 16.627 1041.97 15.0547 1039.97 15.0547C1037.96 15.0547 1036.6 16.627 1036.6 18.5684C1036.6 20.5234 1037.96 22.1162 1039.97 22.1162ZM1039.97 21.1113C1038.57 21.1113 1037.81 19.9561 1037.81 18.5684C1037.81 17.1875 1038.57 16.0596 1039.97 16.0596C1041.38 16.0596 1042.14 17.1943 1042.14 18.5684C1042.14 19.9492 1041.38 21.1113 1039.97 21.1113ZM1045.04 22H1046.16V18.7119C1046.16 16.9004 1047.15 16.1826 1048.01 16.1826C1048.29 16.1826 1048.55 16.2578 1048.78 16.3877L1049.31 15.4307C1049 15.1709 1048.59 15.0547 1048.18 15.0547C1047.38 15.0547 1046.5 15.5264 1046.17 16.5107V15.1709H1045.04V22ZM1053.02 22.1162C1053.45 22.1162 1053.86 22.0342 1054.08 21.9521L1054.07 20.8994C1053.87 20.9883 1053.54 21.0908 1053.22 21.0908C1052.59 21.0908 1052.23 20.7627 1052.23 19.9014V16.1484H1054.08V15.1709H1052.23V12.4502L1051.09 13.2842V15.1709H1049.95V16.1484H1051.08V20.0928C1051.08 21.3779 1051.77 22.1162 1053.02 22.1162ZM1057.96 22.1162C1059.28 22.1162 1060.47 21.4189 1060.47 19.9834C1060.47 17.4062 1056.65 18.3359 1056.65 16.8594C1056.65 16.3467 1057.13 15.9775 1057.9 15.9775C1058.7 15.9775 1059.21 16.4355 1059.51 16.9824L1060.41 16.4971C1059.91 15.5879 1059.05 15.0547 1057.95 15.0547C1056.63 15.0547 1055.54 15.7246 1055.54 17.0098C1055.54 19.4639 1059.33 18.418 1059.33 20.0381C1059.33 20.6396 1058.85 21.1455 1057.9 21.1455C1056.9 21.1455 1056.33 20.5166 1056.09 19.8672L1055.16 20.2773C1055.5 21.3164 1056.58 22.1162 1057.96 22.1162ZM1062.11 24.126H1062.89L1064.7 20.2021H1063.37L1062.11 24.126ZM1072.6 22H1073.8V13.4209H1077.06V12.3408H1069.35V13.4209H1072.6V22ZM1079.96 22.1162C1081.96 22.1162 1083.33 20.5234 1083.33 18.5684C1083.33 16.627 1081.96 15.0547 1079.96 15.0547C1077.95 15.0547 1076.59 16.627 1076.59 18.5684C1076.59 20.5234 1077.95 22.1162 1079.96 22.1162ZM1079.96 21.1113C1078.56 21.1113 1077.8 19.9561 1077.8 18.5684C1077.8 17.1875 1078.56 16.0596 1079.96 16.0596C1081.37 16.0596 1082.13 17.1943 1082.13 18.5684C1082.13 19.9492 1081.37 21.1113 1079.96 21.1113ZM1085.34 24.9326H1086.61L1090.41 15.1709H1089.14L1087.16 20.5439L1084.99 15.1709H1083.71L1086.54 21.8838L1085.34 24.9326ZM1093.64 22.1162C1094.96 22.1162 1096.15 21.4189 1096.15 19.9834C1096.15 17.4062 1092.33 18.3359 1092.33 16.8594C1092.33 16.3467 1092.82 15.9775 1093.59 15.9775C1094.39 15.9775 1094.89 16.4355 1095.19 16.9824L1096.09 16.4971C1095.6 15.5879 1094.74 15.0547 1093.63 15.0547C1092.32 15.0547 1091.22 15.7246 1091.22 17.0098C1091.22 19.4639 1095.01 18.418 1095.01 20.0381C1095.01 20.6396 1094.53 21.1455 1093.59 21.1455C1092.58 21.1455 1092.01 20.5166 1091.78 19.8672L1090.84 20.2773C1091.18 21.3164 1092.26 22.1162 1093.64 22.1162ZM1108.61 21.7402L1107.21 20.1338C1107.7 19.375 1108.01 18.4385 1108.08 17.3926L1106.95 17.2832C1106.92 18.0146 1106.75 18.6982 1106.45 19.2793L1104.53 17.0713C1105.61 16.4424 1106.59 15.7109 1106.59 14.4531C1106.59 13.2021 1105.51 12.2451 1104.17 12.2451C1102.84 12.2451 1101.61 13.1064 1101.61 14.46C1101.61 15.499 1102.46 16.4014 1102.86 16.8457C1101.67 17.4951 1100.52 18.2812 1100.52 19.7783C1100.52 21.2754 1101.8 22.123 1103.54 22.123C1104.71 22.123 1105.72 21.6992 1106.49 20.9746L1107.79 22.4717L1108.61 21.7402ZM1102.73 14.4805C1102.73 13.667 1103.37 13.1543 1104.18 13.1543C1105 13.1543 1105.52 13.749 1105.52 14.4736C1105.52 15.3213 1104.73 15.8408 1103.78 16.3535C1103.46 15.9707 1102.73 15.1572 1102.73 14.4805ZM1103.51 21.1387C1102.38 21.1387 1101.64 20.6533 1101.64 19.7988C1101.64 18.7871 1102.55 18.1787 1103.59 17.5977L1105.82 20.1816C1105.24 20.7764 1104.46 21.1387 1103.51 21.1387ZM1113.7 22H1119.23V20.8584H1114.9V12.3408H1113.7V22ZM1122.72 22.1162C1123.54 22.1162 1124.35 21.7402 1124.81 20.9609V22H1125.96V15.1709H1124.81V19.1084C1124.81 20.3867 1124.12 21.043 1123.03 21.043C1122 21.043 1121.46 20.3389 1121.46 19.2109V15.1709H1120.31V19.416C1120.33 20.8789 1121.05 22.1162 1122.72 22.1162ZM1130.95 21.0977C1129.74 20.9268 1128.83 20.8516 1128.83 20.1611C1128.83 19.8945 1128.96 19.7031 1129.25 19.5664C1129.65 19.7715 1130.13 19.8877 1130.65 19.8877C1132.11 19.8877 1133.28 18.958 1133.28 17.5156C1133.28 17.0439 1133.15 16.6133 1132.94 16.2578L1133.87 15.4785L1133.27 14.7266L1132.3 15.5674C1131.84 15.2393 1131.25 15.0547 1130.61 15.0547C1129.13 15.0547 1127.95 16.0391 1127.95 17.4541C1127.95 18.0625 1128.16 18.5957 1128.53 19.0127C1128.08 19.3477 1127.83 19.7715 1127.83 20.3594C1127.83 21.0361 1128.17 21.4326 1128.64 21.6787L1127.7 22.5195C1127.69 22.6084 1127.68 22.6904 1127.68 22.8203C1127.68 24.1875 1128.81 25.1719 1130.82 25.1719C1132.49 25.1719 1133.72 24.4336 1133.72 23.0254C1133.72 21.5283 1132.3 21.2959 1130.95 21.0977ZM1130.65 15.957C1131.57 15.957 1132.13 16.5791 1132.13 17.4678C1132.13 18.3291 1131.58 18.9375 1130.65 18.9375C1129.71 18.9375 1129.15 18.3291 1129.15 17.4609C1129.15 16.5859 1129.73 15.957 1130.65 15.957ZM1130.81 24.2627C1129.71 24.2627 1128.88 23.832 1128.74 22.9707L1128.72 22.7656L1129.36 21.9248C1129.76 22.0137 1130.17 22.0615 1130.55 22.1094C1131.8 22.2666 1132.62 22.3965 1132.62 23.1484C1132.62 23.8594 1131.91 24.2627 1130.81 24.2627ZM1138.09 21.0977C1136.87 20.9268 1135.96 20.8516 1135.96 20.1611C1135.96 19.8945 1136.1 19.7031 1136.39 19.5664C1136.79 19.7715 1137.26 19.8877 1137.78 19.8877C1139.25 19.8877 1140.41 18.958 1140.41 17.5156C1140.41 17.0439 1140.29 16.6133 1140.07 16.2578L1141.01 15.4785L1140.41 14.7266L1139.44 15.5674C1138.98 15.2393 1138.39 15.0547 1137.75 15.0547C1136.27 15.0547 1135.09 16.0391 1135.09 17.4541C1135.09 18.0625 1135.3 18.5957 1135.67 19.0127C1135.21 19.3477 1134.97 19.7715 1134.97 20.3594C1134.97 21.0361 1135.31 21.4326 1135.78 21.6787L1134.84 22.5195C1134.82 22.6084 1134.82 22.6904 1134.82 22.8203C1134.82 24.1875 1135.94 25.1719 1137.95 25.1719C1139.63 25.1719 1140.86 24.4336 1140.86 23.0254C1140.86 21.5283 1139.44 21.2959 1138.09 21.0977ZM1137.79 15.957C1138.71 15.957 1139.27 16.5791 1139.27 17.4678C1139.27 18.3291 1138.71 18.9375 1137.78 18.9375C1136.85 18.9375 1136.29 18.3291 1136.29 17.4609C1136.29 16.5859 1136.87 15.957 1137.79 15.957ZM1137.95 24.2627C1136.85 24.2627 1136.01 23.832 1135.88 22.9707L1135.85 22.7656L1136.5 21.9248C1136.89 22.0137 1137.31 22.0615 1137.69 22.1094C1138.94 22.2666 1139.76 22.3965 1139.76 23.1484C1139.76 23.8594 1139.05 24.2627 1137.95 24.2627ZM1144.8 15.0547C1143.54 15.0547 1142.72 15.5811 1142.06 16.4902L1142.95 17.1328C1143.36 16.4971 1143.94 16.0664 1144.81 16.0664C1146.1 16.0664 1146.54 16.6885 1146.55 18.0215H1144.61C1142.93 18.0215 1141.79 18.5615 1141.79 19.9766C1141.79 21.3301 1142.81 22.1162 1144.19 22.1162C1145.13 22.1162 1146.07 21.6719 1146.56 20.7832L1146.63 22H1147.6V17.8369C1147.6 16.1416 1146.59 15.0547 1144.8 15.0547ZM1144.42 21.125C1143.49 21.125 1142.98 20.6807 1142.98 20.0176C1142.98 19.3271 1143.53 18.8691 1144.68 18.8691H1146.55V19.3135C1146.32 20.3389 1145.58 21.125 1144.42 21.125ZM1152.42 21.0977C1151.2 20.9268 1150.29 20.8516 1150.29 20.1611C1150.29 19.8945 1150.43 19.7031 1150.72 19.5664C1151.12 19.7715 1151.59 19.8877 1152.11 19.8877C1153.57 19.8877 1154.74 18.958 1154.74 17.5156C1154.74 17.0439 1154.62 16.6133 1154.4 16.2578L1155.34 15.4785L1154.74 14.7266L1153.76 15.5674C1153.31 15.2393 1152.72 15.0547 1152.08 15.0547C1150.6 15.0547 1149.42 16.0391 1149.42 17.4541C1149.42 18.0625 1149.63 18.5957 1150 19.0127C1149.54 19.3477 1149.29 19.7715 1149.29 20.3594C1149.29 21.0361 1149.64 21.4326 1150.11 21.6787L1149.16 22.5195C1149.15 22.6084 1149.14 22.6904 1149.14 22.8203C1149.14 24.1875 1150.27 25.1719 1152.28 25.1719C1153.96 25.1719 1155.19 24.4336 1155.19 23.0254C1155.19 21.5283 1153.76 21.2959 1152.42 21.0977ZM1152.12 15.957C1153.03 15.957 1153.59 16.5791 1153.59 17.4678C1153.59 18.3291 1153.04 18.9375 1152.11 18.9375C1151.17 18.9375 1150.61 18.3291 1150.61 17.4609C1150.61 16.5859 1151.19 15.957 1152.12 15.957ZM1152.27 24.2627C1151.17 24.2627 1150.34 23.832 1150.2 22.9707L1150.18 22.7656L1150.83 21.9248C1151.22 22.0137 1151.64 22.0615 1152.01 22.1094C1153.27 22.2666 1154.09 22.3965 1154.09 23.1484C1154.09 23.8594 1153.38 24.2627 1152.27 24.2627ZM1159.53 22.1162C1160.64 22.1162 1161.46 21.7607 1162.22 20.9473L1161.41 20.2432C1160.85 20.8447 1160.29 21.0635 1159.53 21.0635C1158.26 21.0635 1157.57 20.2432 1157.48 18.9307H1162.39C1162.42 18.8281 1162.45 18.5547 1162.45 18.3018C1162.45 16.8936 1161.7 15.0547 1159.41 15.0547C1157.32 15.0547 1156.25 16.7363 1156.25 18.6162C1156.25 20.5371 1157.37 22.1162 1159.53 22.1162ZM1157.48 18.083C1157.61 16.8867 1158.25 16.0322 1159.4 16.0322C1160.55 16.0322 1161.15 16.8047 1161.27 17.6523C1161.3 17.7891 1161.3 17.9326 1161.3 18.083H1157.48Z" fill="#222222"/>
<path d="M1183.25 15.375L1178 20.625L1172.75 15.375" stroke="#008ECC" stroke-width="1.5" stroke-linecap="round" stroke-linejoin="round"/>
</svg>
