<svg width="59" height="64" viewBox="0 0 59 64" fill="none" xmlns="http://www.w3.org/2000/svg">
<path d="M9 29.7778C9 21.3978 9 17.2067 11.6696 14.6044C14.3368 12 18.6327 12 27.2222 12H31.7778C40.3673 12 44.6632 12 47.3304 14.6044C50 17.2067 50 21.3978 50 29.7778V34.2222C50 42.6022 50 46.7933 47.3304 49.3956C44.6632 52 40.3673 52 31.7778 52H27.2222C18.6327 52 14.3368 52 11.6696 49.3956C9 46.7933 9 42.6022 9 34.2222V29.7778Z" stroke="#606FF1" stroke-width="2"/>
<path d="M40 25C41.6569 25 43 23.6569 43 22C43 20.3431 41.6569 19 40 19C38.3431 19 37 20.3431 37 22C37 23.6569 38.3431 25 40 25Z" fill="#606FF1"/>
<path d="M30 39C33.866 39 37 35.866 37 32C37 28.134 33.866 25 30 25C26.134 25 23 28.134 23 32C23 35.866 26.134 39 30 39Z" stroke="#606FF1" stroke-width="2"/>
</svg>
