<svg width="59" height="64" viewBox="0 0 59 64" fill="none" xmlns="http://www.w3.org/2000/svg">
<path d="M45.4444 12C46.6527 12 47.8114 12.4683 48.6657 13.3017C49.52 14.1352 50 15.2657 50 16.4444V47.5556C50 48.7343 49.52 49.8648 48.6657 50.6983C47.8114 51.5317 46.6527 52 45.4444 52H13.5556C12.3473 52 11.1886 51.5317 10.3343 50.6983C9.47996 49.8648 9 48.7343 9 47.5556V16.4444C9 15.2657 9.47996 14.1352 10.3343 13.3017C11.1886 12.4683 12.3473 12 13.5556 12H45.4444ZM44.3056 46.4444V34.6667C44.3056 32.7453 43.5232 30.9027 42.1307 29.5441C40.7381 28.1855 38.8494 27.4222 36.88 27.4222C34.9439 27.4222 32.6889 28.5778 31.5956 30.3111V27.8444H25.2406V46.4444H31.5956V35.4889C31.5956 33.7778 33.0078 32.3778 34.7617 32.3778C35.6074 32.3778 36.4185 32.7056 37.0166 33.289C37.6146 33.8724 37.9506 34.6638 37.9506 35.4889V46.4444H44.3056ZM17.8378 24.3556C18.8527 24.3556 19.826 23.9622 20.5436 23.2621C21.2613 22.562 21.6644 21.6124 21.6644 20.6222C21.6644 18.5556 19.9561 16.8667 17.8378 16.8667C16.8168 16.8667 15.8377 17.2623 15.1158 17.9666C14.3939 18.6709 13.9883 19.6262 13.9883 20.6222C13.9883 22.6889 15.7194 24.3556 17.8378 24.3556ZM21.0039 46.4444V27.8444H14.6944V46.4444H21.0039Z" fill="#606FF1"/>
</svg>
