<svg width="59" height="64" viewBox="0 0 59 64" fill="none" xmlns="http://www.w3.org/2000/svg">
<path d="M13.1 52C11.9725 52 11.0076 51.5108 10.2054 50.5325C9.40317 49.5542 9.00137 48.3767 9 47V17C9 15.625 9.4018 14.4483 10.2054 13.47C11.009 12.4917 11.9739 12.0017 13.1 12H45.9C47.0275 12 47.993 12.49 48.7966 13.47C49.6002 14.45 50.0014 15.6267 50 17V47C50 48.375 49.5989 49.5525 48.7966 50.5325C47.9944 51.5125 47.0289 52.0017 45.9 52H13.1ZM29.5 34.5L13.1 22V47H45.9V22L29.5 34.5ZM29.5 29.5L45.9 17H13.1L29.5 29.5ZM13.1 22V17V47V22Z" fill="#606FF1"/>
</svg>
