<svg width="135" height="26" viewBox="0 0 135 26" fill="none" xmlns="http://www.w3.org/2000/svg">
<path d="M3.57628e-06 24.7955V1.52273H9.61364C11.3561 1.52273 12.8599 1.86364 14.125 2.54546C15.3977 3.2197 16.3788 4.16288 17.0682 5.375C17.7576 6.57955 18.1023 7.98106 18.1023 9.57955C18.1023 11.1856 17.75 12.5909 17.0455 13.7955C16.3485 14.9924 15.3523 15.9205 14.0568 16.5795C12.7614 17.2386 11.2235 17.5682 9.44319 17.5682H3.51137V13.1364H8.39773C9.24622 13.1364 9.95455 12.9886 10.5227 12.6932C11.0985 12.3977 11.5341 11.9848 11.8295 11.4545C12.125 10.9167 12.2727 10.2917 12.2727 9.57955C12.2727 8.85985 12.125 8.23864 11.8295 7.71591C11.5341 7.18561 11.0985 6.77652 10.5227 6.48864C9.94697 6.20076 9.23864 6.05682 8.39773 6.05682H5.625V24.7955H3.57628e-06ZM28.679 25.125C26.8456 25.125 25.2699 24.75 23.9517 24C22.6411 23.2424 21.6297 22.1894 20.9176 20.8409C20.2131 19.4848 19.8608 17.9129 19.8608 16.125C19.8608 14.3295 20.2131 12.7576 20.9176 11.4091C21.6297 10.053 22.6411 9 23.9517 8.25C25.2699 7.49243 26.8456 7.11364 28.679 7.11364C30.5123 7.11364 32.0843 7.49243 33.3949 8.25C34.7131 9 35.7244 10.053 36.429 11.4091C37.1411 12.7576 37.4972 14.3295 37.4972 16.125C37.4972 17.9129 37.1411 19.4848 36.429 20.8409C35.7244 22.1894 34.7131 23.2424 33.3949 24C32.0843 24.75 30.5123 25.125 28.679 25.125ZM28.7131 20.9318C29.3797 20.9318 29.9441 20.7273 30.4063 20.3182C30.8684 19.9091 31.2206 19.3409 31.4631 18.6136C31.7131 17.8864 31.8381 17.0455 31.8381 16.0909C31.8381 15.1212 31.7131 14.2727 31.4631 13.5455C31.2206 12.8182 30.8684 12.25 30.4063 11.8409C29.9441 11.4318 29.3797 11.2273 28.7131 11.2273C28.0237 11.2273 27.4403 11.4318 26.9631 11.8409C26.4934 12.25 26.1335 12.8182 25.8835 13.5455C25.6411 14.2727 25.5199 15.1212 25.5199 16.0909C25.5199 17.0455 25.6411 17.8864 25.8835 18.6136C26.1335 19.3409 26.4934 19.9091 26.9631 20.3182C27.4403 20.7273 28.0237 20.9318 28.7131 20.9318ZM40.3438 24.7955V7.34091H45.7415V10.5227H45.9233C46.2415 9.37121 46.7604 8.51515 47.4801 7.95455C48.1998 7.38636 49.0369 7.10227 49.9915 7.10227C50.2491 7.10227 50.5142 7.12121 50.7869 7.15909C51.0597 7.18939 51.3135 7.23864 51.5483 7.30682V12.1364C51.2831 12.0455 50.9347 11.9735 50.5028 11.9205C50.0786 11.8674 49.6998 11.8409 49.3665 11.8409C48.7074 11.8409 48.1127 11.9886 47.5824 12.2841C47.0597 12.572 46.6468 12.9773 46.3438 13.5C46.0483 14.0152 45.9006 14.6212 45.9006 15.3182V24.7955H40.3438ZM64.4773 7.34091V11.4318H53.4659V7.34091H64.4773ZM55.7727 3.15909H61.3295V19.3068C61.3295 19.6477 61.3826 19.9242 61.4886 20.1364C61.6023 20.3409 61.7652 20.4886 61.9773 20.5795C62.1894 20.6629 62.4432 20.7045 62.7386 20.7045C62.9508 20.7045 63.1742 20.6856 63.4091 20.6477C63.6515 20.6023 63.8333 20.5644 63.9545 20.5341L64.7955 24.5455C64.5303 24.6212 64.1553 24.7159 63.6705 24.8295C63.1932 24.9432 62.6212 25.0152 61.9545 25.0455C60.6515 25.1061 59.5341 24.9545 58.6023 24.5909C57.678 24.2197 56.9697 23.6439 56.4773 22.8636C55.9924 22.0833 55.7576 21.1023 55.7727 19.9205V3.15909ZM77.233 7.34091V11.4318H66.0057V7.34091H77.233ZM68.3466 24.7955V6.45455C68.3466 5.10606 68.6004 3.98864 69.108 3.10227C69.6155 2.20833 70.3201 1.54167 71.2216 1.10227C72.1231 0.655303 73.1648 0.431818 74.3466 0.431818C75.1193 0.431818 75.8466 0.492425 76.5284 0.613638C77.2178 0.727274 77.7292 0.829547 78.0625 0.920456L77.1761 4.98864C76.9716 4.92046 76.7216 4.86364 76.4261 4.81818C76.1383 4.77273 75.8655 4.75 75.608 4.75C74.9564 4.75 74.5095 4.89394 74.267 5.18182C74.0246 5.4697 73.9034 5.86364 73.9034 6.36364V24.7955H68.3466ZM87.4915 25.125C85.6581 25.125 84.0824 24.75 82.7642 24C81.4536 23.2424 80.4422 22.1894 79.7301 20.8409C79.0256 19.4848 78.6733 17.9129 78.6733 16.125C78.6733 14.3295 79.0256 12.7576 79.7301 11.4091C80.4422 10.053 81.4536 9 82.7642 8.25C84.0824 7.49243 85.6581 7.11364 87.4915 7.11364C89.3248 7.11364 90.8968 7.49243 92.2074 8.25C93.5256 9 94.5369 10.053 95.2415 11.4091C95.9536 12.7576 96.3097 14.3295 96.3097 16.125C96.3097 17.9129 95.9536 19.4848 95.2415 20.8409C94.5369 22.1894 93.5256 23.2424 92.2074 24C90.8968 24.75 89.3248 25.125 87.4915 25.125ZM87.5256 20.9318C88.1922 20.9318 88.7566 20.7273 89.2188 20.3182C89.6809 19.9091 90.0331 19.3409 90.2756 18.6136C90.5256 17.8864 90.6506 17.0455 90.6506 16.0909C90.6506 15.1212 90.5256 14.2727 90.2756 13.5455C90.0331 12.8182 89.6809 12.25 89.2188 11.8409C88.7566 11.4318 88.1922 11.2273 87.5256 11.2273C86.8362 11.2273 86.2528 11.4318 85.7756 11.8409C85.3059 12.25 84.946 12.8182 84.696 13.5455C84.4536 14.2727 84.3324 15.1212 84.3324 16.0909C84.3324 17.0455 84.4536 17.8864 84.696 18.6136C84.946 19.3409 85.3059 19.9091 85.7756 20.3182C86.2528 20.7273 86.8362 20.9318 87.5256 20.9318ZM104.713 1.52273V24.7955H99.1563V1.52273H104.713ZM108.25 24.7955V7.34091H113.807V24.7955H108.25ZM111.034 5.30682C110.254 5.30682 109.583 5.04924 109.023 4.53409C108.462 4.01136 108.182 3.38258 108.182 2.64773C108.182 1.92045 108.462 1.29924 109.023 0.784092C109.583 0.261364 110.254 0 111.034 0C111.822 0 112.492 0.261364 113.045 0.784092C113.606 1.29924 113.886 1.92045 113.886 2.64773C113.886 3.38258 113.606 4.01136 113.045 4.53409C112.492 5.04924 111.822 5.30682 111.034 5.30682ZM125.491 25.125C123.658 25.125 122.082 24.75 120.764 24C119.454 23.2424 118.442 22.1894 117.73 20.8409C117.026 19.4848 116.673 17.9129 116.673 16.125C116.673 14.3295 117.026 12.7576 117.73 11.4091C118.442 10.053 119.454 9 120.764 8.25C122.082 7.49243 123.658 7.11364 125.491 7.11364C127.325 7.11364 128.897 7.49243 130.207 8.25C131.526 9 132.537 10.053 133.241 11.4091C133.954 12.7576 134.31 14.3295 134.31 16.125C134.31 17.9129 133.954 19.4848 133.241 20.8409C132.537 22.1894 131.526 23.2424 130.207 24C128.897 24.75 127.325 25.125 125.491 25.125ZM125.526 20.9318C126.192 20.9318 126.757 20.7273 127.219 20.3182C127.681 19.9091 128.033 19.3409 128.276 18.6136C128.526 17.8864 128.651 17.0455 128.651 16.0909C128.651 15.1212 128.526 14.2727 128.276 13.5455C128.033 12.8182 127.681 12.25 127.219 11.8409C126.757 11.4318 126.192 11.2273 125.526 11.2273C124.836 11.2273 124.253 11.4318 123.776 11.8409C123.306 12.25 122.946 12.8182 122.696 13.5455C122.454 14.2727 122.332 15.1212 122.332 16.0909C122.332 17.0455 122.454 17.8864 122.696 18.6136C122.946 19.3409 123.306 19.9091 123.776 20.3182C124.253 20.7273 124.836 20.9318 125.526 20.9318Z" fill="white"/>
</svg>
