<svg width="41" height="40" viewBox="0 0 41 40" fill="none" xmlns="http://www.w3.org/2000/svg">
<path d="M4.1 40C2.9725 40 2.00763 39.5108 1.2054 38.5325C0.403167 37.5542 0.00136667 36.3767 0 35V5C0 3.625 0.4018 2.44833 1.2054 1.47C2.009 0.491666 2.97387 0.00166667 4.1 0H36.9C38.0275 0 38.993 0.49 39.7966 1.47C40.6002 2.45 41.0014 3.62667 41 5V35C41 36.375 40.5989 37.5525 39.7966 38.5325C38.9944 39.5125 38.0289 40.0017 36.9 40H4.1ZM20.5 22.5L4.1 10V35H36.9V10L20.5 22.5ZM20.5 17.5L36.9 5H4.1L20.5 17.5ZM4.1 10V5V35V10Z" fill="#606FF1"/>
</svg>
