<svg width="41" height="40" viewBox="0 0 41 40" fill="none" xmlns="http://www.w3.org/2000/svg">
<path d="M36.4444 0C37.6527 0 38.8114 0.468252 39.6657 1.30175C40.52 2.13524 41 3.2657 41 4.44444V35.5556C41 36.7343 40.52 37.8648 39.6657 38.6983C38.8114 39.5317 37.6527 40 36.4444 40H4.55556C3.34735 40 2.18862 39.5317 1.33429 38.6983C0.479959 37.8648 0 36.7343 0 35.5556V4.44444C0 3.2657 0.479959 2.13524 1.33429 1.30175C2.18862 0.468252 3.34735 0 4.55556 0H36.4444ZM35.3056 34.4444V22.6667C35.3056 20.7453 34.5232 18.9027 33.1307 17.5441C31.7381 16.1855 29.8494 15.4222 27.88 15.4222C25.9439 15.4222 23.6889 16.5778 22.5956 18.3111V15.8444H16.2406V34.4444H22.5956V23.4889C22.5956 21.7778 24.0078 20.3778 25.7617 20.3778C26.6074 20.3778 27.4185 20.7056 28.0166 21.289C28.6146 21.8724 28.9506 22.6638 28.9506 23.4889V34.4444H35.3056ZM8.83778 12.3556C9.85267 12.3556 10.826 11.9622 11.5436 11.2621C12.2613 10.562 12.6644 9.61236 12.6644 8.62222C12.6644 6.55556 10.9561 4.86667 8.83778 4.86667C7.81684 4.86667 6.83772 5.26234 6.11581 5.96664C5.3939 6.67095 4.98833 7.62619 4.98833 8.62222C4.98833 10.6889 6.71944 12.3556 8.83778 12.3556ZM12.0039 34.4444V15.8444H5.69444V34.4444H12.0039Z" fill="#606FF1"/>
</svg>
