<svg width="50" height="50" viewBox="0 0 50 50" fill="none" xmlns="http://www.w3.org/2000/svg">
<path d="M46.1538 0H3.84615C2.82609 0 1.84781 0.478895 1.12651 1.33133C0.405218 2.18377 0 3.33993 0 4.54545V45.4545C0 46.6601 0.405218 47.8162 1.12651 48.6687C1.84781 49.5211 2.82609 50 3.84615 50H46.1538C47.1739 50 48.1522 49.5211 48.8735 48.6687C49.5948 47.8162 50 46.6601 50 45.4545V4.54545C50 3.33993 49.5948 2.18377 48.8735 1.33133C48.1522 0.478895 47.1739 0 46.1538 0ZM16.5385 30C16.9465 30.3617 17.2162 30.9001 17.2884 31.4968C17.3605 32.0935 17.2291 32.6996 16.9231 33.1818C16.6171 33.664 16.1615 33.9828 15.6566 34.0681C15.1517 34.1533 14.6388 33.998 14.2308 33.6364L6.53846 26.8182C6.29962 26.6065 6.10577 26.332 5.97226 26.0164C5.83874 25.7008 5.76923 25.3528 5.76923 25C5.76923 24.6472 5.83874 24.2992 5.97226 23.9836C6.10577 23.668 6.29962 23.3935 6.53846 23.1818L14.2308 16.3636C14.6388 16.002 15.1517 15.8467 15.6566 15.9319C16.1615 16.0172 16.6171 16.336 16.9231 16.8182C17.2291 17.3004 17.3605 17.9065 17.2884 18.5032C17.2162 19.0999 16.9465 19.6383 16.5385 20L10.8966 25L16.5385 30ZM30.6947 9.71591L23.0024 41.5341C22.9368 41.8261 22.8227 42.0998 22.6665 42.3391C22.5104 42.5784 22.3155 42.7785 22.0932 42.9277C21.8708 43.0769 21.6256 43.1722 21.3717 43.208C21.1179 43.2438 20.8605 43.2195 20.6147 43.1364C20.3689 43.0533 20.1396 42.9131 19.9401 42.724C19.7407 42.5349 19.5752 42.3007 19.4533 42.0351C19.3314 41.7695 19.2555 41.4779 19.2301 41.1772C19.2047 40.8766 19.2302 40.5729 19.3053 40.2841L26.9976 8.46591C27.1454 7.89698 27.4762 7.41928 27.9189 7.13547C28.3615 6.85166 28.8807 6.78437 29.3649 6.94807C29.849 7.11177 30.2596 7.49339 30.5082 8.01093C30.7569 8.52848 30.8238 9.14065 30.6947 9.71591ZM43.4615 26.8182L35.7692 33.6364C35.3612 33.998 34.8483 34.1533 34.3434 34.0681C33.8385 33.9828 33.3829 33.664 33.0769 33.1818C32.7709 32.6996 32.6395 32.0935 32.7116 31.4968C32.7838 30.9001 33.0535 30.3617 33.4615 30L39.1034 25L33.4615 20C33.2595 19.8209 33.0893 19.5966 32.9606 19.3398C32.832 19.0829 32.7473 18.7987 32.7116 18.5032C32.6759 18.2078 32.6898 17.9069 32.7525 17.6178C32.8151 17.3286 32.9254 17.0569 33.0769 16.8182C33.2284 16.5794 33.4183 16.3783 33.6356 16.2262C33.8529 16.0741 34.0934 15.9741 34.3434 15.9319C34.5934 15.8897 34.848 15.9061 35.0927 15.9802C35.3373 16.0543 35.5672 16.1846 35.7692 16.3636L43.4615 23.1818C43.7004 23.3935 43.8942 23.668 44.0277 23.9836C44.1613 24.2992 44.2308 24.6472 44.2308 25C44.2308 25.3528 44.1613 25.7008 44.0277 26.0164C43.8942 26.332 43.7004 26.6065 43.4615 26.8182Z" fill="#9747FF"/>
</svg>
