<svg width="50" height="50" viewBox="0 0 50 50" fill="none" xmlns="http://www.w3.org/2000/svg">
<path d="M41.3141 0.99842C42.3875 0.238027 43.677 -0.104944 44.9628 0.0280225C46.2486 0.160989 47.4509 0.761653 48.3646 1.72754C49.2784 2.69342 49.8469 3.96467 49.9732 5.32441C50.0996 6.68415 49.7759 8.04812 49.0574 9.18361L42.1321 20.1638C38.9617 25.1934 34.4603 29.1235 29.1902 31.4632C28.4666 29.2778 27.287 27.2928 25.7388 25.6555C24.1907 24.0182 22.3137 22.7707 20.2473 22.0054C22.4606 16.4314 26.1781 11.6708 30.9352 8.31857L41.3141 0.99842ZM15.4559 26.9188C13.0455 26.9188 10.7339 27.9315 9.02949 29.734C7.32509 31.5365 6.36757 33.9812 6.36757 36.5304C6.36802 36.8498 6.29319 37.1643 6.14986 37.4455C6.00652 37.7267 5.79919 37.9656 5.54661 38.1408C5.29403 38.3159 5.00415 38.4218 4.70319 38.4487C4.40222 38.4756 4.09966 38.4228 3.82283 38.2951C3.31647 38.0599 2.75445 37.9931 2.21136 38.1036C1.66828 38.2141 1.16982 38.4967 0.782121 38.9138C0.394426 39.3309 0.135836 39.8628 0.0406711 40.439C-0.0544942 41.0151 0.018265 41.6083 0.249292 42.1397C1.45748 44.9339 3.53348 47.2067 6.13225 48.5804C8.73102 49.954 11.696 50.3457 14.5344 49.6903C17.3729 49.035 19.9137 47.3721 21.7347 44.978C23.5557 42.584 24.5472 39.6029 24.5443 36.5304C24.5443 33.9812 23.5868 31.5365 21.8824 29.734C20.178 27.9315 17.8663 26.9188 15.4559 26.9188Z" fill="#9747FF"/>
</svg>
