<svg width="418" height="117" viewBox="0 0 418 117" fill="none" xmlns="http://www.w3.org/2000/svg">
<path d="M155.716 22.276C156.613 22.276 157.28 21.586 157.28 20.689V9.626H160.891C161.696 9.626 162.317 9.005 162.317 8.223C162.317 7.418 161.719 6.82 160.891 6.82H150.564C149.759 6.82 149.138 7.418 149.138 8.223C149.138 9.005 149.759 9.626 150.564 9.626H154.175V20.689C154.175 21.586 154.842 22.276 155.716 22.276ZM168.475 10.362C165.117 10.362 162.564 12.938 162.564 16.319C162.564 19.723 165.209 22.276 168.797 22.276C170.131 22.276 171.373 21.908 172.408 21.218C172.96 20.85 173.19 20.482 173.19 19.976C173.19 19.263 172.638 18.734 171.925 18.734C171.695 18.734 171.488 18.803 171.258 18.941C170.568 19.378 169.717 19.608 168.889 19.608C167.21 19.608 166.06 18.78 165.692 17.354H172.178C173.19 17.354 173.88 16.733 173.88 15.767V15.698C173.88 12.616 171.58 10.362 168.475 10.362ZM168.406 12.869C169.855 12.869 170.821 13.812 170.867 15.169H165.692C166.037 13.766 167.049 12.869 168.406 12.869ZM180.903 22.276C183.387 22.276 185.342 20.988 185.342 18.642C185.342 16.871 184.192 15.997 182.145 15.169L181.041 14.709C180.213 14.387 179.845 14.157 179.845 13.697C179.845 13.145 180.328 12.892 181.064 12.892C181.823 12.892 182.536 13.168 183.134 13.582C183.41 13.766 183.686 13.904 183.962 13.904C184.652 13.904 185.227 13.329 185.227 12.616C185.227 12.202 185.043 11.834 184.675 11.558C183.755 10.776 182.444 10.339 181.087 10.339C178.672 10.339 176.901 11.581 176.901 13.766C176.901 15.56 178.074 16.457 180.006 17.239L181.225 17.745C181.915 18.044 182.398 18.251 182.398 18.78C182.398 19.424 181.731 19.723 180.949 19.723C179.96 19.723 179.132 19.286 178.465 18.711C178.143 18.458 177.867 18.366 177.568 18.366C176.855 18.366 176.28 18.964 176.28 19.677C176.28 20.045 176.418 20.39 176.717 20.643C177.729 21.632 179.201 22.276 180.903 22.276ZM194.82 19.47C194.705 19.47 194.567 19.493 194.383 19.493C192.934 19.493 192.336 18.987 192.336 17.722V13.237H194.429C195.188 13.237 195.74 12.685 195.74 11.926C195.74 11.167 195.188 10.615 194.429 10.615H192.336V9.051C192.336 8.154 191.669 7.487 190.795 7.487C189.875 7.487 189.231 8.154 189.231 9.051V10.615H188.587C187.828 10.615 187.253 11.167 187.253 11.926C187.253 12.685 187.828 13.237 188.587 13.237H189.231V17.998C189.231 20.781 190.818 22.276 193.785 22.276C194.452 22.276 194.958 22.161 195.395 21.977C195.878 21.747 196.177 21.31 196.177 20.735C196.177 19.976 195.648 19.47 194.82 19.47ZM200.662 4.589C199.581 4.589 198.707 5.417 198.707 6.475C198.707 7.51 199.581 8.338 200.662 8.338C201.697 8.338 202.594 7.51 202.594 6.475C202.594 5.417 201.697 4.589 200.662 4.589ZM200.639 22.276C201.536 22.276 202.203 21.586 202.203 20.689V11.926C202.203 11.029 201.536 10.362 200.662 10.362C199.765 10.362 199.098 11.029 199.098 11.926V20.689C199.098 21.586 199.765 22.276 200.639 22.276ZM219.443 10.362C217.925 10.362 216.545 10.983 215.648 11.995C214.912 10.937 213.739 10.362 212.267 10.362C211.025 10.362 209.967 10.776 209.185 11.512C209.001 10.822 208.449 10.362 207.736 10.362C206.862 10.362 206.195 11.029 206.195 11.926V20.689C206.195 21.586 206.862 22.276 207.759 22.276C208.633 22.276 209.3 21.609 209.3 20.689V15.376C209.3 14.042 210.128 13.168 211.393 13.168C212.612 13.168 213.417 14.019 213.417 15.376V20.689C213.417 21.586 214.084 22.276 214.981 22.276C215.855 22.276 216.522 21.609 216.522 20.689V15.307C216.522 14.042 217.373 13.168 218.615 13.168C219.857 13.168 220.639 14.019 220.639 15.376V20.689C220.639 21.586 221.306 22.276 222.203 22.276C223.077 22.276 223.744 21.609 223.744 20.689V14.939C223.744 12.133 222.088 10.362 219.443 10.362ZM233.073 10.362C229.646 10.362 226.978 12.961 226.978 16.296C226.978 19.631 229.646 22.253 233.05 22.253C236.477 22.253 239.191 19.608 239.191 16.296C239.191 12.984 236.477 10.362 233.073 10.362ZM233.073 13.191C234.752 13.191 236.017 14.525 236.017 16.319C236.017 18.09 234.752 19.401 233.073 19.401C231.371 19.401 230.129 18.113 230.129 16.319C230.129 14.502 231.371 13.191 233.073 13.191ZM248.722 10.362C247.457 10.362 246.33 10.799 245.525 11.535C245.364 10.845 244.789 10.362 244.076 10.362C243.202 10.362 242.535 11.029 242.535 11.926V20.689C242.535 21.586 243.202 22.276 244.099 22.276C244.973 22.276 245.64 21.609 245.64 20.689V15.353C245.64 14.065 246.537 13.145 247.802 13.145C249.067 13.145 249.918 14.042 249.918 15.353V20.689C249.918 21.586 250.585 22.276 251.459 22.276C252.356 22.276 253 21.609 253 20.689V14.939C253 12.156 251.321 10.362 248.722 10.362ZM266.247 10.362C265.626 10.362 265.097 10.707 264.867 11.236L261.785 17.975L258.772 11.236C258.542 10.684 258.013 10.362 257.415 10.362C256.587 10.362 255.897 11.052 255.897 11.857C255.897 12.087 255.966 12.317 256.104 12.593L260.037 21.264L259.623 22.184C259.117 23.219 258.45 23.633 257.461 23.633C257.392 23.633 257.3 23.61 257.185 23.61C256.403 23.61 255.782 24.185 255.782 24.944C255.782 25.473 256.081 25.956 256.564 26.163C256.909 26.324 257.369 26.416 257.875 26.416C259.945 26.416 261.325 25.358 262.544 22.851L267.558 12.57C267.696 12.317 267.742 12.087 267.742 11.857C267.742 11.052 267.052 10.362 266.247 10.362Z" fill="#242424"/>
<g clip-path="url(#clip0_2_322)">
<path d="M222.502 47C226.085 47 229 44.9813 229 42.4999C229 40.0186 226.085 38 222.502 38C219.112 38 216.322 39.8064 216.03 42.1018H211.353V41.1552H189V43.8445H211.353V42.898H216.03C216.322 45.1935 219.112 47 222.502 47ZM210.49 43.0484H189.863V41.9516H210.49V43.0484ZM216.866 42.4999C216.866 40.4578 219.394 38.7964 222.502 38.7964C225.609 38.7964 228.137 40.4578 228.137 42.4999C228.137 44.5422 225.609 46.2037 222.502 46.2037C219.394 46.2037 216.866 44.5422 216.866 42.4999Z" fill="#242424"/>
</g>
<path d="M6.24 101.528C7.296 101.528 8.112 100.664 8.112 99.608V85.736H25.872V99.608C25.872 100.664 26.688 101.528 27.744 101.528C28.848 101.528 29.616 100.664 29.616 99.608V70.712C29.616 69.656 28.848 68.792 27.744 68.792C26.688 68.792 25.872 69.656 25.872 70.712V82.376H8.112V70.712C8.112 69.656 7.296 68.792 6.24 68.792C5.136 68.792 4.368 69.656 4.368 70.712V99.608C4.368 100.664 5.136 101.528 6.24 101.528ZM47.67 77.096C44.262 77.096 41.142 78.392 39.126 80.744C38.646 81.272 38.454 81.8 38.454 82.328C38.454 83.096 39.222 83.864 40.134 83.864C40.614 83.864 41.094 83.624 41.574 83.144C43.206 81.416 45.174 80.504 47.43 80.504C51.03 80.504 53.094 82.616 53.094 86.408V88.424H45.702C40.614 88.424 37.302 91.016 37.302 94.952C37.302 98.888 40.566 101.528 45.462 101.528C48.726 101.528 51.366 100.328 53.094 98.264V99.608C53.094 100.664 53.91 101.528 54.966 101.528C55.974 101.528 56.79 100.712 56.79 99.608V86.6C56.79 80.648 53.334 77.096 47.67 77.096ZM45.942 98.456C43.014 98.456 41.094 97.016 41.094 94.808C41.094 92.6 42.822 91.448 46.134 91.448H53.094V92.024C53.094 95.576 49.878 98.456 45.942 98.456ZM78.3574 77.096C74.7094 77.096 71.5894 78.632 69.7654 81.032V78.92C69.7654 77.864 68.9494 77.048 67.9414 77.048C66.8374 77.048 66.0694 77.864 66.0694 78.92V108.296C66.0694 109.352 66.8374 110.216 67.9414 110.216C68.9494 110.216 69.7654 109.4 69.7654 108.296V97.592C71.5894 99.992 74.7574 101.528 78.3574 101.528C84.9814 101.528 89.9254 96.296 89.9254 89.288C89.9254 82.328 84.9814 77.096 78.3574 77.096ZM77.8294 98.12C72.9334 98.12 69.7174 94.568 69.7174 89.288C69.7174 84.056 72.9814 80.504 77.8294 80.504C82.6294 80.504 86.1334 84.248 86.1334 89.336C86.1334 94.376 82.6294 98.12 77.8294 98.12ZM110.126 77.096C106.478 77.096 103.357 78.632 101.533 81.032V78.92C101.533 77.864 100.718 77.048 99.7095 77.048C98.6055 77.048 97.8375 77.864 97.8375 78.92V108.296C97.8375 109.352 98.6055 110.216 99.7095 110.216C100.718 110.216 101.533 109.4 101.533 108.296V97.592C103.357 99.992 106.525 101.528 110.126 101.528C116.75 101.528 121.694 96.296 121.694 89.288C121.694 82.328 116.75 77.096 110.126 77.096ZM109.598 98.12C104.702 98.12 101.486 94.568 101.486 89.288C101.486 84.056 104.75 80.504 109.598 80.504C114.398 80.504 117.902 84.248 117.902 89.336C117.902 94.376 114.398 98.12 109.598 98.12ZM147.716 77.096C146.948 77.096 146.228 77.576 145.988 78.248L137.876 95.816L130.052 78.248C129.812 77.576 129.092 77.096 128.324 77.096C127.364 77.096 126.5 77.96 126.5 78.92C126.5 79.304 126.596 79.544 126.692 79.784L135.86 100.28L134.66 102.872C133.412 105.608 131.684 106.808 129.332 106.808C128.948 106.808 128.516 106.76 127.988 106.76C127.124 106.76 126.308 107.48 126.308 108.392C126.308 109.16 126.884 109.88 127.748 110.024C128.324 110.12 128.996 110.168 129.62 110.168C133.46 110.168 136.052 108.152 138.212 103.592L149.396 79.736C149.492 79.496 149.54 79.208 149.54 78.92C149.54 77.96 148.676 77.096 147.716 77.096ZM185.892 101.528C190.836 101.528 195.444 99.416 198.228 95.864C198.756 95.192 198.948 94.76 198.948 94.28C198.948 93.368 198.132 92.6 197.172 92.6C196.548 92.6 196.02 92.84 195.588 93.368C193.092 96.44 189.828 98.072 185.94 98.072C178.74 98.072 173.316 92.504 173.316 85.16C173.316 77.816 178.74 72.248 185.94 72.248C189.828 72.248 193.092 73.832 195.588 76.952C196.02 77.48 196.548 77.72 197.172 77.72C198.132 77.72 198.948 76.952 198.948 76.04C198.948 75.56 198.756 75.128 198.228 74.456C195.348 70.904 190.788 68.792 185.892 68.792C176.628 68.792 169.428 75.992 169.428 85.16C169.428 94.328 176.628 101.528 185.892 101.528ZM216.365 101.528C221.981 101.528 226.013 97.448 226.013 91.688V79.016C226.013 77.912 225.197 77.096 224.189 77.096C223.085 77.096 222.317 77.96 222.317 79.016V91.928C222.317 95.528 219.821 98.12 216.365 98.12C212.765 98.12 210.317 95.528 210.317 91.928V79.016C210.317 77.96 209.501 77.096 208.493 77.096C207.437 77.096 206.669 77.96 206.669 79.016V91.688C206.669 97.448 210.653 101.528 216.365 101.528ZM242.168 101.528C246.488 101.528 250.376 99.224 250.376 94.664C250.376 91.352 248.408 89.528 244.184 87.752L242.024 86.84C239.432 85.784 238.232 85.016 238.232 83.432C238.232 81.512 239.912 80.504 242.12 80.504C244.136 80.504 245.912 81.368 247.16 82.424C247.784 82.952 248.12 83.144 248.552 83.144C249.464 83.144 250.184 82.376 250.184 81.512C250.184 81.08 250.04 80.696 249.704 80.312C248.024 78.392 245.48 77.096 242.312 77.096C238.04 77.096 234.44 79.4 234.44 83.624C234.44 86.984 236.696 88.616 240.248 90.104L242.504 91.064C244.856 92.024 246.584 92.792 246.584 94.808C246.584 96.92 244.568 98.12 242.12 98.12C239.624 98.12 237.8 96.872 236.168 95.192C235.784 94.856 235.304 94.664 234.872 94.664C233.912 94.664 233.096 95.432 233.096 96.392C233.096 96.872 233.24 97.208 233.576 97.592C235.496 99.848 238.424 101.528 242.168 101.528ZM270.061 98.072C269.533 98.072 268.957 98.168 268.141 98.168C264.781 98.168 263.197 96.776 263.197 93.704V80.936H269.005C269.917 80.936 270.685 80.216 270.685 79.256C270.685 78.344 269.917 77.624 269.005 77.624H263.197V72.68C263.197 71.576 262.429 70.76 261.373 70.76C260.317 70.76 259.501 71.624 259.501 72.68V77.624H257.101C256.141 77.624 255.373 78.344 255.373 79.256C255.373 80.216 256.141 80.936 257.101 80.936H259.501V93.944C259.501 98.84 262.285 101.528 267.373 101.528C268.669 101.528 269.629 101.432 270.397 101.192C271.261 100.952 271.741 100.376 271.741 99.512C271.741 98.648 271.069 98.072 270.061 98.072ZM288.306 77.096C281.442 77.096 276.066 82.424 276.066 89.288C276.066 96.056 281.442 101.432 288.258 101.48C295.122 101.48 300.546 96.056 300.546 89.288C300.546 82.472 295.122 77.096 288.306 77.096ZM288.306 80.504C293.106 80.504 296.754 84.296 296.754 89.336C296.754 94.28 293.058 98.072 288.258 98.072C283.458 98.072 279.858 94.328 279.858 89.336C279.81 84.296 283.458 80.504 288.306 80.504ZM334.114 77.096C330.754 77.096 327.826 78.632 326.098 81.128C324.754 78.536 322.21 77.096 318.898 77.096C316.114 77.096 313.81 78.104 312.178 79.784V79.016C312.178 77.96 311.362 77.096 310.354 77.096C309.25 77.096 308.482 77.96 308.482 79.016V99.608C308.482 100.664 309.25 101.528 310.354 101.528C311.362 101.528 312.178 100.712 312.178 99.608V86.792C312.178 83.096 314.578 80.504 318.13 80.504C321.49 80.504 323.698 83 323.698 86.792V99.608C323.698 100.664 324.466 101.528 325.57 101.528C326.578 101.528 327.394 100.712 327.394 99.608V86.456C327.394 83.096 329.938 80.504 333.394 80.504C336.754 80.504 338.914 82.952 338.914 86.792V99.608C338.914 100.664 339.682 101.528 340.786 101.528C341.794 101.528 342.61 100.712 342.61 99.608V86.312C342.61 80.648 339.346 77.096 334.114 77.096ZM362.148 77.096C355.476 77.096 350.196 82.472 350.196 89.336C350.196 96.296 355.476 101.528 362.58 101.528C365.604 101.528 368.388 100.568 370.692 98.648C371.364 98.024 371.604 97.592 371.604 96.968C371.604 96.008 370.884 95.336 369.972 95.336C369.54 95.336 369.108 95.528 368.724 95.864C367.044 97.304 364.932 98.12 362.628 98.12C357.924 98.12 354.516 95.048 354.036 90.44H370.548C371.988 90.44 372.804 89.672 372.804 88.136V87.896C372.804 81.608 368.34 77.096 362.148 77.096ZM362.052 80.456C366.132 80.456 368.916 83.24 369.012 87.176H354.18C354.996 83.192 358.068 80.456 362.052 80.456ZM391.73 77.432C388.754 77.432 386.162 78.68 384.434 80.744V79.016C384.434 77.96 383.618 77.096 382.61 77.096C381.506 77.096 380.738 77.96 380.738 79.016V99.608C380.738 100.664 381.506 101.528 382.61 101.528C383.618 101.528 384.434 100.712 384.434 99.608V87.8C384.434 83.816 387.506 80.888 391.73 80.888C392.786 80.888 393.602 80.216 393.602 79.16C393.602 78.152 392.786 77.432 391.73 77.432ZM406.48 101.528C410.8 101.528 414.688 99.224 414.688 94.664C414.688 91.352 412.72 89.528 408.496 87.752L406.336 86.84C403.744 85.784 402.544 85.016 402.544 83.432C402.544 81.512 404.224 80.504 406.432 80.504C408.448 80.504 410.224 81.368 411.472 82.424C412.096 82.952 412.432 83.144 412.864 83.144C413.776 83.144 414.496 82.376 414.496 81.512C414.496 81.08 414.352 80.696 414.016 80.312C412.336 78.392 409.792 77.096 406.624 77.096C402.352 77.096 398.752 79.4 398.752 83.624C398.752 86.984 401.008 88.616 404.56 90.104L406.816 91.064C409.168 92.024 410.896 92.792 410.896 94.808C410.896 96.92 408.88 98.12 406.432 98.12C403.936 98.12 402.112 96.872 400.48 95.192C400.096 94.856 399.616 94.664 399.184 94.664C398.224 94.664 397.408 95.432 397.408 96.392C397.408 96.872 397.552 97.208 397.888 97.592C399.808 99.848 402.736 101.528 406.48 101.528Z" fill="#242424"/>
<defs>
<clipPath id="clip0_2_322">
<rect width="40" height="9" fill="white" transform="translate(189 38)"/>
</clipPath>
</defs>
</svg>
