<svg width="94" height="94" viewBox="0 0 94 94" fill="none" xmlns="http://www.w3.org/2000/svg">
<rect width="93.3333" height="93.3333" rx="20" fill="#D7F5DC"/>
<path fill-rule="evenodd" clip-rule="evenodd" d="M50.8721 31.2941C51.5496 31.3022 52.0948 31.8524 52.0947 32.5285C52.0947 32.8543 51.9637 33.1665 51.7314 33.3956C51.499 33.6248 51.1841 33.7521 50.8574 33.7482H40.0312C35.1557 33.7482 32.46 36.4381 32.46 41.3175V53.3244C32.46 58.2038 35.1557 60.879 40.0312 60.879C40.711 60.8872 41.2605 61.4351 41.2686 62.1134C41.2605 62.7894 40.7087 63.333 40.0312 63.3331C33.8448 63.3331 30 59.4972 30 53.3244V41.3175C30 35.13 33.8448 31.2941 40.0312 31.2941H50.8721ZM60.9326 41.3175C61.6019 41.3257 62.1397 41.8693 62.1396 42.5372V53.3244C62.1396 59.4971 58.2811 63.333 52.0947 63.3331H47.1748C46.4972 63.3332 45.9456 62.7895 45.9375 62.1134C45.9456 61.435 46.4949 60.887 47.1748 60.879H52.0947C56.9701 60.879 59.6658 58.2037 59.71 53.3244V42.5372C59.71 41.8635 60.2574 41.3175 60.9326 41.3175ZM52.5811 42.5812C53.0175 42.1673 53.6906 42.132 54.168 42.4982C54.6454 42.8646 54.7843 43.5237 54.4951 44.0509L49.7822 50.1203C49.5759 50.3744 49.2812 50.5426 48.957 50.591C48.6344 50.6237 48.3118 50.5286 48.0586 50.3263L43.5361 46.7843L39.4707 52.0607C39.2769 52.3237 38.9858 52.498 38.6621 52.5451C38.3383 52.592 38.0089 52.5078 37.748 52.3107C37.2156 51.8942 37.1174 51.128 37.5273 50.591L42.3438 44.3302C42.5447 44.0706 42.8409 43.9009 43.167 43.8595C43.493 43.8183 43.8225 43.9084 44.082 44.1095L48.6035 47.6515L52.5811 42.5812ZM57.335 30.3331C58.9527 29.6597 60.818 30.0263 62.0596 31.2609C63.3011 32.4955 63.6743 34.3554 63.0049 35.9718C62.3354 37.588 60.7556 38.6416 59.0029 38.6417C56.617 38.6418 54.6801 36.7167 54.6719 34.3361C54.6659 32.5871 55.7173 31.0066 57.335 30.3331ZM59.0029 32.4699C57.9698 32.4699 57.1318 33.3052 57.1318 34.3361C57.1319 35.3669 57.9698 36.2023 59.0029 36.2023C60.0359 36.2022 60.873 35.3668 60.873 34.3361C60.873 33.3053 60.036 32.47 59.0029 32.4699Z" fill="#130F26"/>
</svg>
