<svg width="122" height="60" viewBox="0 0 122 60" fill="none" xmlns="http://www.w3.org/2000/svg">
<g clip-path="url(#clip0_244_28)">
<path d="M23.3559 21.4L17.6759 26.4L14.2759 22.48L23.5159 14.68H29.1159V43H23.3559V21.4ZM36.8278 28.84C36.8278 27.16 36.9745 25.4533 37.2678 23.72C37.5878 21.9867 38.1345 20.4133 38.9078 19C39.7078 17.5867 40.7878 16.44 42.1478 15.56C43.5078 14.6533 45.2411 14.2 47.3478 14.2C49.4545 14.2 51.1878 14.6533 52.5478 15.56C53.9078 16.44 54.9745 17.5867 55.7478 19C56.5478 20.4133 57.0945 21.9867 57.3878 23.72C57.7078 25.4533 57.8678 27.16 57.8678 28.84C57.8678 30.52 57.7078 32.2267 57.3878 33.96C57.0945 35.6933 56.5478 37.2667 55.7478 38.68C54.9745 40.0933 53.9078 41.2533 52.5478 42.16C51.1878 43.04 49.4545 43.48 47.3478 43.48C45.2411 43.48 43.5078 43.04 42.1478 42.16C40.7878 41.2533 39.7078 40.0933 38.9078 38.68C38.1345 37.2667 37.5878 35.6933 37.2678 33.96C36.9745 32.2267 36.8278 30.52 36.8278 28.84ZM42.8278 28.84C42.8278 29.5867 42.8545 30.48 42.9078 31.52C42.9878 32.56 43.1745 33.56 43.4678 34.52C43.7611 35.48 44.2011 36.2933 44.7878 36.96C45.4011 37.6267 46.2545 37.96 47.3478 37.96C48.4145 37.96 49.2545 37.6267 49.8678 36.96C50.4811 36.2933 50.9345 35.48 51.2278 34.52C51.5211 33.56 51.6945 32.56 51.7478 31.52C51.8278 30.48 51.8678 29.5867 51.8678 28.84C51.8678 28.0933 51.8278 27.2 51.7478 26.16C51.6945 25.12 51.5211 24.12 51.2278 23.16C50.9345 22.2 50.4811 21.3867 49.8678 20.72C49.2545 20.0533 48.4145 19.72 47.3478 19.72C46.2545 19.72 45.4011 20.0533 44.7878 20.72C44.2011 21.3867 43.7611 22.2 43.4678 23.16C43.1745 24.12 42.9878 25.12 42.9078 26.16C42.8545 27.2 42.8278 28.0933 42.8278 28.84ZM60.4997 28.84C60.4997 27.16 60.6464 25.4533 60.9397 23.72C61.2597 21.9867 61.8064 20.4133 62.5797 19C63.3797 17.5867 64.4597 16.44 65.8197 15.56C67.1797 14.6533 68.913 14.2 71.0197 14.2C73.1264 14.2 74.8597 14.6533 76.2197 15.56C77.5797 16.44 78.6464 17.5867 79.4197 19C80.2197 20.4133 80.7664 21.9867 81.0597 23.72C81.3797 25.4533 81.5397 27.16 81.5397 28.84C81.5397 30.52 81.3797 32.2267 81.0597 33.96C80.7664 35.6933 80.2197 37.2667 79.4197 38.68C78.6464 40.0933 77.5797 41.2533 76.2197 42.16C74.8597 43.04 73.1264 43.48 71.0197 43.48C68.913 43.48 67.1797 43.04 65.8197 42.16C64.4597 41.2533 63.3797 40.0933 62.5797 38.68C61.8064 37.2667 61.2597 35.6933 60.9397 33.96C60.6464 32.2267 60.4997 30.52 60.4997 28.84ZM66.4997 28.84C66.4997 29.5867 66.5264 30.48 66.5797 31.52C66.6597 32.56 66.8464 33.56 67.1397 34.52C67.433 35.48 67.873 36.2933 68.4597 36.96C69.073 37.6267 69.9264 37.96 71.0197 37.96C72.0864 37.96 72.9264 37.6267 73.5397 36.96C74.153 36.2933 74.6064 35.48 74.8997 34.52C75.193 33.56 75.3664 32.56 75.4197 31.52C75.4997 30.48 75.5397 29.5867 75.5397 28.84C75.5397 28.0933 75.4997 27.2 75.4197 26.16C75.3664 25.12 75.193 24.12 74.8997 23.16C74.6064 22.2 74.153 21.3867 73.5397 20.72C72.9264 20.0533 72.0864 19.72 71.0197 19.72C69.9264 19.72 69.073 20.0533 68.4597 20.72C67.873 21.3867 67.433 22.2 67.1397 23.16C66.8464 24.12 66.6597 25.12 66.5797 26.16C66.5264 27.2 66.4997 28.0933 66.4997 28.84ZM13.7959 96.64L24.7959 86.76C25.3559 86.2533 25.9159 85.68 26.4759 85.04C27.0359 84.4 27.3159 83.6533 27.3159 82.8C27.3159 81.84 26.9693 81.0933 26.2759 80.56C25.5826 80 24.7693 79.72 23.8359 79.72C22.7159 79.72 21.8359 80.0667 21.1959 80.76C20.5826 81.4533 20.2359 82.3067 20.1559 83.32L14.1559 82.88C14.2359 81.4133 14.5426 80.1467 15.0759 79.08C15.6093 77.9867 16.3159 77.08 17.1959 76.36C18.0759 75.64 19.1026 75.1067 20.2759 74.76C21.4759 74.3867 22.7693 74.2 24.1559 74.2C25.4359 74.2 26.6359 74.3867 27.7559 74.76C28.8759 75.1067 29.8493 75.64 30.6759 76.36C31.5026 77.0533 32.1426 77.9333 32.5959 79C33.0759 80.0667 33.3159 81.3067 33.3159 82.72C33.3159 83.6267 33.2226 84.4533 33.0359 85.2C32.8493 85.92 32.5826 86.5867 32.2359 87.2C31.9159 87.7867 31.5293 88.3333 31.0759 88.84C30.6226 89.3467 30.1293 89.84 29.5959 90.32L20.9959 97.72H33.5559V103H13.7959V96.64ZM36.8278 88.84C36.8278 87.16 36.9745 85.4533 37.2678 83.72C37.5878 81.9867 38.1345 80.4133 38.9078 79C39.7078 77.5867 40.7878 76.44 42.1478 75.56C43.5078 74.6533 45.2411 74.2 47.3478 74.2C49.4545 74.2 51.1878 74.6533 52.5478 75.56C53.9078 76.44 54.9745 77.5867 55.7478 79C56.5478 80.4133 57.0945 81.9867 57.3878 83.72C57.7078 85.4533 57.8678 87.16 57.8678 88.84C57.8678 90.52 57.7078 92.2267 57.3878 93.96C57.0945 95.6933 56.5478 97.2667 55.7478 98.68C54.9745 100.093 53.9078 101.253 52.5478 102.16C51.1878 103.04 49.4545 103.48 47.3478 103.48C45.2411 103.48 43.5078 103.04 42.1478 102.16C40.7878 101.253 39.7078 100.093 38.9078 98.68C38.1345 97.2667 37.5878 95.6933 37.2678 93.96C36.9745 92.2267 36.8278 90.52 36.8278 88.84ZM42.8278 88.84C42.8278 89.5867 42.8545 90.48 42.9078 91.52C42.9878 92.56 43.1745 93.56 43.4678 94.52C43.7611 95.48 44.2011 96.2933 44.7878 96.96C45.4011 97.6267 46.2545 97.96 47.3478 97.96C48.4145 97.96 49.2545 97.6267 49.8678 96.96C50.4811 96.2933 50.9345 95.48 51.2278 94.52C51.5211 93.56 51.6945 92.56 51.7478 91.52C51.8278 90.48 51.8678 89.5867 51.8678 88.84C51.8678 88.0933 51.8278 87.2 51.7478 86.16C51.6945 85.12 51.5211 84.12 51.2278 83.16C50.9345 82.2 50.4811 81.3867 49.8678 80.72C49.2545 80.0533 48.4145 79.72 47.3478 79.72C46.2545 79.72 45.4011 80.0533 44.7878 80.72C44.2011 81.3867 43.7611 82.2 43.4678 83.16C43.1745 84.12 42.9878 85.12 42.9078 86.16C42.8545 87.2 42.8278 88.0933 42.8278 88.84ZM60.4997 88.84C60.4997 87.16 60.6464 85.4533 60.9397 83.72C61.2597 81.9867 61.8064 80.4133 62.5797 79C63.3797 77.5867 64.4597 76.44 65.8197 75.56C67.1797 74.6533 68.913 74.2 71.0197 74.2C73.1264 74.2 74.8597 74.6533 76.2197 75.56C77.5797 76.44 78.6464 77.5867 79.4197 79C80.2197 80.4133 80.7664 81.9867 81.0597 83.72C81.3797 85.4533 81.5397 87.16 81.5397 88.84C81.5397 90.52 81.3797 92.2267 81.0597 93.96C80.7664 95.6933 80.2197 97.2667 79.4197 98.68C78.6464 100.093 77.5797 101.253 76.2197 102.16C74.8597 103.04 73.1264 103.48 71.0197 103.48C68.913 103.48 67.1797 103.04 65.8197 102.16C64.4597 101.253 63.3797 100.093 62.5797 98.68C61.8064 97.2667 61.2597 95.6933 60.9397 93.96C60.6464 92.2267 60.4997 90.52 60.4997 88.84ZM66.4997 88.84C66.4997 89.5867 66.5264 90.48 66.5797 91.52C66.6597 92.56 66.8464 93.56 67.1397 94.52C67.433 95.48 67.873 96.2933 68.4597 96.96C69.073 97.6267 69.9264 97.96 71.0197 97.96C72.0864 97.96 72.9264 97.6267 73.5397 96.96C74.153 96.2933 74.6064 95.48 74.8997 94.52C75.193 93.56 75.3664 92.56 75.4197 91.52C75.4997 90.48 75.5397 89.5867 75.5397 88.84C75.5397 88.0933 75.4997 87.2 75.4197 86.16C75.3664 85.12 75.193 84.12 74.8997 83.16C74.6064 82.2 74.153 81.3867 73.5397 80.72C72.9264 80.0533 72.0864 79.72 71.0197 79.72C69.9264 79.72 69.073 80.0533 68.4597 80.72C67.873 81.3867 67.433 82.2 67.1397 83.16C66.8464 84.12 66.6597 85.12 66.5797 86.16C66.5264 87.2 66.4997 88.0933 66.4997 88.84ZM25.1559 157.32H12.7959V152.28L24.3559 134.68H30.9159V152.28H34.5559V157.32H30.9159V163H25.1559V157.32ZM25.1559 142.52H25.0759L18.7959 152.28H25.1559V142.52ZM36.8278 148.84C36.8278 147.16 36.9745 145.453 37.2678 143.72C37.5878 141.987 38.1345 140.413 38.9078 139C39.7078 137.587 40.7878 136.44 42.1478 135.56C43.5078 134.653 45.2411 134.2 47.3478 134.2C49.4545 134.2 51.1878 134.653 52.5478 135.56C53.9078 136.44 54.9745 137.587 55.7478 139C56.5478 140.413 57.0945 141.987 57.3878 143.72C57.7078 145.453 57.8678 147.16 57.8678 148.84C57.8678 150.52 57.7078 152.227 57.3878 153.96C57.0945 155.693 56.5478 157.267 55.7478 158.68C54.9745 160.093 53.9078 161.253 52.5478 162.16C51.1878 163.04 49.4545 163.48 47.3478 163.48C45.2411 163.48 43.5078 163.04 42.1478 162.16C40.7878 161.253 39.7078 160.093 38.9078 158.68C38.1345 157.267 37.5878 155.693 37.2678 153.96C36.9745 152.227 36.8278 150.52 36.8278 148.84ZM42.8278 148.84C42.8278 149.587 42.8545 150.48 42.9078 151.52C42.9878 152.56 43.1745 153.56 43.4678 154.52C43.7611 155.48 44.2011 156.293 44.7878 156.96C45.4011 157.627 46.2545 157.96 47.3478 157.96C48.4145 157.96 49.2545 157.627 49.8678 156.96C50.4811 156.293 50.9345 155.48 51.2278 154.52C51.5211 153.56 51.6945 152.56 51.7478 151.52C51.8278 150.48 51.8678 149.587 51.8678 148.84C51.8678 148.093 51.8278 147.2 51.7478 146.16C51.6945 145.12 51.5211 144.12 51.2278 143.16C50.9345 142.2 50.4811 141.387 49.8678 140.72C49.2545 140.053 48.4145 139.72 47.3478 139.72C46.2545 139.72 45.4011 140.053 44.7878 140.72C44.2011 141.387 43.7611 142.2 43.4678 143.16C43.1745 144.12 42.9878 145.12 42.9078 146.16C42.8545 147.2 42.8278 148.093 42.8278 148.84ZM60.4997 148.84C60.4997 147.16 60.6464 145.453 60.9397 143.72C61.2597 141.987 61.8064 140.413 62.5797 139C63.3797 137.587 64.4597 136.44 65.8197 135.56C67.1797 134.653 68.913 134.2 71.0197 134.2C73.1264 134.2 74.8597 134.653 76.2197 135.56C77.5797 136.44 78.6464 137.587 79.4197 139C80.2197 140.413 80.7664 141.987 81.0597 143.72C81.3797 145.453 81.5397 147.16 81.5397 148.84C81.5397 150.52 81.3797 152.227 81.0597 153.96C80.7664 155.693 80.2197 157.267 79.4197 158.68C78.6464 160.093 77.5797 161.253 76.2197 162.16C74.8597 163.04 73.1264 163.48 71.0197 163.48C68.913 163.48 67.1797 163.04 65.8197 162.16C64.4597 161.253 63.3797 160.093 62.5797 158.68C61.8064 157.267 61.2597 155.693 60.9397 153.96C60.6464 152.227 60.4997 150.52 60.4997 148.84ZM66.4997 148.84C66.4997 149.587 66.5264 150.48 66.5797 151.52C66.6597 152.56 66.8464 153.56 67.1397 154.52C67.433 155.48 67.873 156.293 68.4597 156.96C69.073 157.627 69.9264 157.96 71.0197 157.96C72.0864 157.96 72.9264 157.627 73.5397 156.96C74.153 156.293 74.6064 155.48 74.8997 154.52C75.193 153.56 75.3664 152.56 75.4197 151.52C75.4997 150.48 75.5397 149.587 75.5397 148.84C75.5397 148.093 75.4997 147.2 75.4197 146.16C75.3664 145.12 75.193 144.12 74.8997 143.16C74.6064 142.2 74.153 141.387 73.5397 140.72C72.9264 140.053 72.0864 139.72 71.0197 139.72C69.9264 139.72 69.073 140.053 68.4597 140.72C67.873 141.387 67.433 142.2 67.1397 143.16C66.8464 144.12 66.6597 145.12 66.5797 146.16C66.5264 147.2 66.4997 148.093 66.4997 148.84ZM23.3159 204.8C23.6359 204.72 23.9559 204.653 24.2759 204.6C24.5959 204.547 24.9293 204.52 25.2759 204.52C26.6093 204.52 27.8226 204.76 28.9159 205.24C30.0093 205.72 30.9426 206.373 31.7159 207.2C32.4893 208.027 33.0893 209.013 33.5159 210.16C33.9426 211.28 34.1559 212.48 34.1559 213.76C34.1559 215.227 33.8759 216.56 33.3159 217.76C32.7826 218.933 32.0359 219.947 31.0759 220.8C30.1426 221.653 29.0226 222.32 27.7159 222.8C26.4359 223.253 25.0626 223.48 23.5959 223.48C22.1026 223.48 20.7159 223.253 19.4359 222.8C18.1559 222.32 17.0359 221.653 16.0759 220.8C15.1426 219.947 14.3959 218.933 13.8359 217.76C13.3026 216.56 13.0359 215.227 13.0359 213.76C13.0359 212.747 13.1293 211.827 13.3159 211C13.5026 210.147 13.7426 209.347 14.0359 208.6C14.3559 207.853 14.7159 207.147 15.1159 206.48C15.5426 205.787 15.9826 205.08 16.4359 204.36L22.6359 194.68H29.9559L23.3159 204.8ZM28.1559 213.52C28.1559 212.24 27.7293 211.187 26.8759 210.36C26.0493 209.507 24.9559 209.08 23.5959 209.08C22.2359 209.08 21.1293 209.507 20.2759 210.36C19.4493 211.187 19.0359 212.24 19.0359 213.52C19.0359 214.8 19.4493 215.867 20.2759 216.72C21.1293 217.547 22.2359 217.96 23.5959 217.96C24.9559 217.96 26.0493 217.547 26.8759 216.72C27.7293 215.867 28.1559 214.8 28.1559 213.52ZM36.8278 208.84C36.8278 207.16 36.9745 205.453 37.2678 203.72C37.5878 201.987 38.1345 200.413 38.9078 199C39.7078 197.587 40.7878 196.44 42.1478 195.56C43.5078 194.653 45.2411 194.2 47.3478 194.2C49.4545 194.2 51.1878 194.653 52.5478 195.56C53.9078 196.44 54.9745 197.587 55.7478 199C56.5478 200.413 57.0945 201.987 57.3878 203.72C57.7078 205.453 57.8678 207.16 57.8678 208.84C57.8678 210.52 57.7078 212.227 57.3878 213.96C57.0945 215.693 56.5478 217.267 55.7478 218.68C54.9745 220.093 53.9078 221.253 52.5478 222.16C51.1878 223.04 49.4545 223.48 47.3478 223.48C45.2411 223.48 43.5078 223.04 42.1478 222.16C40.7878 221.253 39.7078 220.093 38.9078 218.68C38.1345 217.267 37.5878 215.693 37.2678 213.96C36.9745 212.227 36.8278 210.52 36.8278 208.84ZM42.8278 208.84C42.8278 209.587 42.8545 210.48 42.9078 211.52C42.9878 212.56 43.1745 213.56 43.4678 214.52C43.7611 215.48 44.2011 216.293 44.7878 216.96C45.4011 217.627 46.2545 217.96 47.3478 217.96C48.4145 217.96 49.2545 217.627 49.8678 216.96C50.4811 216.293 50.9345 215.48 51.2278 214.52C51.5211 213.56 51.6945 212.56 51.7478 211.52C51.8278 210.48 51.8678 209.587 51.8678 208.84C51.8678 208.093 51.8278 207.2 51.7478 206.16C51.6945 205.12 51.5211 204.12 51.2278 203.16C50.9345 202.2 50.4811 201.387 49.8678 200.72C49.2545 200.053 48.4145 199.72 47.3478 199.72C46.2545 199.72 45.4011 200.053 44.7878 200.72C44.2011 201.387 43.7611 202.2 43.4678 203.16C43.1745 204.12 42.9878 205.12 42.9078 206.16C42.8545 207.2 42.8278 208.093 42.8278 208.84ZM60.4997 208.84C60.4997 207.16 60.6464 205.453 60.9397 203.72C61.2597 201.987 61.8064 200.413 62.5797 199C63.3797 197.587 64.4597 196.44 65.8197 195.56C67.1797 194.653 68.913 194.2 71.0197 194.2C73.1264 194.2 74.8597 194.653 76.2197 195.56C77.5797 196.44 78.6464 197.587 79.4197 199C80.2197 200.413 80.7664 201.987 81.0597 203.72C81.3797 205.453 81.5397 207.16 81.5397 208.84C81.5397 210.52 81.3797 212.227 81.0597 213.96C80.7664 215.693 80.2197 217.267 79.4197 218.68C78.6464 220.093 77.5797 221.253 76.2197 222.16C74.8597 223.04 73.1264 223.48 71.0197 223.48C68.913 223.48 67.1797 223.04 65.8197 222.16C64.4597 221.253 63.3797 220.093 62.5797 218.68C61.8064 217.267 61.2597 215.693 60.9397 213.96C60.6464 212.227 60.4997 210.52 60.4997 208.84ZM66.4997 208.84C66.4997 209.587 66.5264 210.48 66.5797 211.52C66.6597 212.56 66.8464 213.56 67.1397 214.52C67.433 215.48 67.873 216.293 68.4597 216.96C69.073 217.627 69.9264 217.96 71.0197 217.96C72.0864 217.96 72.9264 217.627 73.5397 216.96C74.153 216.293 74.6064 215.48 74.8997 214.52C75.193 213.56 75.3664 212.56 75.4197 211.52C75.4997 210.48 75.5397 209.587 75.5397 208.84C75.5397 208.093 75.4997 207.2 75.4197 206.16C75.3664 205.12 75.193 204.12 74.8997 203.16C74.6064 202.2 74.153 201.387 73.5397 200.72C72.9264 200.053 72.0864 199.72 71.0197 199.72C69.9264 199.72 69.073 200.053 68.4597 200.72C67.873 201.387 67.433 202.2 67.1397 203.16C66.8464 204.12 66.6597 205.12 66.5797 206.16C66.5264 207.2 66.4997 208.093 66.4997 208.84ZM14.1959 262C14.1959 260.693 14.4359 259.56 14.9159 258.6C15.4226 257.613 16.1026 256.8 16.9559 256.16C17.8359 255.493 18.8493 255 19.9959 254.68C21.1426 254.36 22.3693 254.2 23.6759 254.2C24.9826 254.2 26.2093 254.36 27.3559 254.68C28.5026 255 29.5026 255.493 30.3559 256.16C31.2093 256.8 31.8893 257.613 32.3959 258.6C32.9026 259.56 33.1559 260.693 33.1559 262C33.1559 263.547 32.7293 264.867 31.8759 265.96C31.0493 267.053 29.8759 267.827 28.3559 268.28V268.36C30.0626 268.813 31.3693 269.64 32.2759 270.84C33.1826 272.013 33.6359 273.48 33.6359 275.24C33.6359 276.6 33.3559 277.8 32.7959 278.84C32.2626 279.88 31.5293 280.747 30.5959 281.44C29.6893 282.107 28.6359 282.613 27.4359 282.96C26.2359 283.307 24.9826 283.48 23.6759 283.48C22.3693 283.48 21.1159 283.307 19.9159 282.96C18.7159 282.613 17.6493 282.107 16.7159 281.44C15.8093 280.747 15.0759 279.88 14.5159 278.84C13.9826 277.8 13.7159 276.6 13.7159 275.24C13.7159 273.48 14.1693 272.013 15.0759 270.84C15.9826 269.64 17.2893 268.813 18.9959 268.36V268.28C17.4759 267.827 16.2893 267.053 15.4359 265.96C14.6093 264.867 14.1959 263.547 14.1959 262ZM20.1959 262.84C20.1959 263.72 20.5159 264.467 21.1559 265.08C21.7959 265.693 22.6359 266 23.6759 266C24.7159 266 25.5559 265.693 26.1959 265.08C26.8359 264.467 27.1559 263.72 27.1559 262.84C27.1559 261.987 26.8359 261.253 26.1959 260.64C25.5559 260.027 24.7159 259.72 23.6759 259.72C22.6359 259.72 21.7959 260.027 21.1559 260.64C20.5159 261.253 20.1959 261.987 20.1959 262.84ZM19.7159 274.4C19.7159 275.387 20.0759 276.227 20.7959 276.92C21.5159 277.613 22.4759 277.96 23.6759 277.96C24.8759 277.96 25.8359 277.613 26.5559 276.92C27.2759 276.227 27.6359 275.387 27.6359 274.4C27.6359 273.387 27.2759 272.533 26.5559 271.84C25.8359 271.147 24.8759 270.8 23.6759 270.8C22.4759 270.8 21.5159 271.147 20.7959 271.84C20.0759 272.533 19.7159 273.387 19.7159 274.4ZM36.8278 268.84C36.8278 267.16 36.9745 265.453 37.2678 263.72C37.5878 261.987 38.1345 260.413 38.9078 259C39.7078 257.587 40.7878 256.44 42.1478 255.56C43.5078 254.653 45.2411 254.2 47.3478 254.2C49.4545 254.2 51.1878 254.653 52.5478 255.56C53.9078 256.44 54.9745 257.587 55.7478 259C56.5478 260.413 57.0945 261.987 57.3878 263.72C57.7078 265.453 57.8678 267.16 57.8678 268.84C57.8678 270.52 57.7078 272.227 57.3878 273.96C57.0945 275.693 56.5478 277.267 55.7478 278.68C54.9745 280.093 53.9078 281.253 52.5478 282.16C51.1878 283.04 49.4545 283.48 47.3478 283.48C45.2411 283.48 43.5078 283.04 42.1478 282.16C40.7878 281.253 39.7078 280.093 38.9078 278.68C38.1345 277.267 37.5878 275.693 37.2678 273.96C36.9745 272.227 36.8278 270.52 36.8278 268.84ZM42.8278 268.84C42.8278 269.587 42.8545 270.48 42.9078 271.52C42.9878 272.56 43.1745 273.56 43.4678 274.52C43.7611 275.48 44.2011 276.293 44.7878 276.96C45.4011 277.627 46.2545 277.96 47.3478 277.96C48.4145 277.96 49.2545 277.627 49.8678 276.96C50.4811 276.293 50.9345 275.48 51.2278 274.52C51.5211 273.56 51.6945 272.56 51.7478 271.52C51.8278 270.48 51.8678 269.587 51.8678 268.84C51.8678 268.093 51.8278 267.2 51.7478 266.16C51.6945 265.12 51.5211 264.12 51.2278 263.16C50.9345 262.2 50.4811 261.387 49.8678 260.72C49.2545 260.053 48.4145 259.72 47.3478 259.72C46.2545 259.72 45.4011 260.053 44.7878 260.72C44.2011 261.387 43.7611 262.2 43.4678 263.16C43.1745 264.12 42.9878 265.12 42.9078 266.16C42.8545 267.2 42.8278 268.093 42.8278 268.84ZM60.4997 268.84C60.4997 267.16 60.6464 265.453 60.9397 263.72C61.2597 261.987 61.8064 260.413 62.5797 259C63.3797 257.587 64.4597 256.44 65.8197 255.56C67.1797 254.653 68.913 254.2 71.0197 254.2C73.1264 254.2 74.8597 254.653 76.2197 255.56C77.5797 256.44 78.6464 257.587 79.4197 259C80.2197 260.413 80.7664 261.987 81.0597 263.72C81.3797 265.453 81.5397 267.16 81.5397 268.84C81.5397 270.52 81.3797 272.227 81.0597 273.96C80.7664 275.693 80.2197 277.267 79.4197 278.68C78.6464 280.093 77.5797 281.253 76.2197 282.16C74.8597 283.04 73.1264 283.48 71.0197 283.48C68.913 283.48 67.1797 283.04 65.8197 282.16C64.4597 281.253 63.3797 280.093 62.5797 278.68C61.8064 277.267 61.2597 275.693 60.9397 273.96C60.6464 272.227 60.4997 270.52 60.4997 268.84ZM66.4997 268.84C66.4997 269.587 66.5264 270.48 66.5797 271.52C66.6597 272.56 66.8464 273.56 67.1397 274.52C67.433 275.48 67.873 276.293 68.4597 276.96C69.073 277.627 69.9264 277.96 71.0197 277.96C72.0864 277.96 72.9264 277.627 73.5397 276.96C74.153 276.293 74.6064 275.48 74.8997 274.52C75.193 273.56 75.3664 272.56 75.4197 271.52C75.4997 270.48 75.5397 269.587 75.5397 268.84C75.5397 268.093 75.4997 267.2 75.4197 266.16C75.3664 265.12 75.193 264.12 74.8997 263.16C74.6064 262.2 74.153 261.387 73.5397 260.72C72.9264 260.053 72.0864 259.72 71.0197 259.72C69.9264 259.72 69.073 260.053 68.4597 260.72C67.873 261.387 67.433 262.2 67.1397 263.16C66.8464 264.12 66.6597 265.12 66.5797 266.16C66.5264 267.2 66.4997 268.093 66.4997 268.84ZM11.52 321.4L5.84 326.4L2.44 322.48L11.68 314.68H17.28V343H11.52V321.4ZM25.6319 336.64L36.6319 326.76C37.1919 326.253 37.7519 325.68 38.3119 325.04C38.8719 324.4 39.1519 323.653 39.1519 322.8C39.1519 321.84 38.8052 321.093 38.1119 320.56C37.4185 320 36.6052 319.72 35.6719 319.72C34.5519 319.72 33.6719 320.067 33.0319 320.76C32.4185 321.453 32.0719 322.307 31.9919 323.32L25.9919 322.88C26.0719 321.413 26.3785 320.147 26.9119 319.08C27.4452 317.987 28.1519 317.08 29.0319 316.36C29.9119 315.64 30.9385 315.107 32.1119 314.76C33.3119 314.387 34.6052 314.2 35.9919 314.2C37.2719 314.2 38.4719 314.387 39.5919 314.76C40.7119 315.107 41.6852 315.64 42.5119 316.36C43.3385 317.053 43.9785 317.933 44.4319 319C44.9119 320.067 45.1519 321.307 45.1519 322.72C45.1519 323.627 45.0585 324.453 44.8719 325.2C44.6852 325.92 44.4185 326.587 44.0719 327.2C43.7519 327.787 43.3652 328.333 42.9119 328.84C42.4585 329.347 41.9652 329.84 41.4319 330.32L32.8319 337.72H45.3919V343H25.6319V336.64ZM48.6637 328.84C48.6637 327.16 48.8104 325.453 49.1038 323.72C49.4238 321.987 49.9704 320.413 50.7438 319C51.5438 317.587 52.6238 316.44 53.9838 315.56C55.3438 314.653 57.0771 314.2 59.1838 314.2C61.2904 314.2 63.0238 314.653 64.3838 315.56C65.7438 316.44 66.8104 317.587 67.5838 319C68.3838 320.413 68.9304 321.987 69.2238 323.72C69.5438 325.453 69.7038 327.16 69.7038 328.84C69.7038 330.52 69.5438 332.227 69.2238 333.96C68.9304 335.693 68.3838 337.267 67.5838 338.68C66.8104 340.093 65.7438 341.253 64.3838 342.16C63.0238 343.04 61.2904 343.48 59.1838 343.48C57.0771 343.48 55.3438 343.04 53.9838 342.16C52.6238 341.253 51.5438 340.093 50.7438 338.68C49.9704 337.267 49.4238 335.693 49.1038 333.96C48.8104 332.227 48.6637 330.52 48.6637 328.84ZM54.6638 328.84C54.6638 329.587 54.6904 330.48 54.7438 331.52C54.8238 332.56 55.0104 333.56 55.3038 334.52C55.5971 335.48 56.0371 336.293 56.6238 336.96C57.2371 337.627 58.0904 337.96 59.1838 337.96C60.2504 337.96 61.0904 337.627 61.7038 336.96C62.3171 336.293 62.7704 335.48 63.0638 334.52C63.3571 333.56 63.5304 332.56 63.5838 331.52C63.6638 330.48 63.7038 329.587 63.7038 328.84C63.7038 328.093 63.6638 327.2 63.5838 326.16C63.5304 325.12 63.3571 324.12 63.0638 323.16C62.7704 322.2 62.3171 321.387 61.7038 320.72C61.0904 320.053 60.2504 319.72 59.1838 319.72C58.0904 319.72 57.2371 320.053 56.6238 320.72C56.0371 321.387 55.5971 322.2 55.3038 323.16C55.0104 324.12 54.8238 325.12 54.7438 326.16C54.6904 327.2 54.6638 328.093 54.6638 328.84ZM72.3356 328.84C72.3356 327.16 72.4823 325.453 72.7756 323.72C73.0956 321.987 73.6423 320.413 74.4156 319C75.2156 317.587 76.2956 316.44 77.6556 315.56C79.0156 314.653 80.749 314.2 82.8556 314.2C84.9623 314.2 86.6956 314.653 88.0556 315.56C89.4156 316.44 90.4823 317.587 91.2556 319C92.0556 320.413 92.6023 321.987 92.8956 323.72C93.2156 325.453 93.3756 327.16 93.3756 328.84C93.3756 330.52 93.2156 332.227 92.8956 333.96C92.6023 335.693 92.0556 337.267 91.2556 338.68C90.4823 340.093 89.4156 341.253 88.0556 342.16C86.6956 343.04 84.9623 343.48 82.8556 343.48C80.749 343.48 79.0156 343.04 77.6556 342.16C76.2956 341.253 75.2156 340.093 74.4156 338.68C73.6423 337.267 73.0956 335.693 72.7756 333.96C72.4823 332.227 72.3356 330.52 72.3356 328.84ZM78.3356 328.84C78.3356 329.587 78.3623 330.48 78.4156 331.52C78.4956 332.56 78.6823 333.56 78.9756 334.52C79.269 335.48 79.709 336.293 80.2956 336.96C80.909 337.627 81.7623 337.96 82.8556 337.96C83.9223 337.96 84.7623 337.627 85.3756 336.96C85.989 336.293 86.4423 335.48 86.7356 334.52C87.029 333.56 87.2023 332.56 87.2556 331.52C87.3356 330.48 87.3756 329.587 87.3756 328.84C87.3756 328.093 87.3356 327.2 87.2556 326.16C87.2023 325.12 87.029 324.12 86.7356 323.16C86.4423 322.2 85.989 321.387 85.3756 320.72C84.7623 320.053 83.9223 319.72 82.8556 319.72C81.7623 319.72 80.909 320.053 80.2956 320.72C79.709 321.387 79.269 322.2 78.9756 323.16C78.6823 324.12 78.4956 325.12 78.4156 326.16C78.3623 327.2 78.3356 328.093 78.3356 328.84ZM11.52 381.4L5.84 386.4L2.44 382.48L11.68 374.68H17.28V403H11.52V381.4ZM36.9919 397.32H24.6319V392.28L36.1919 374.68H42.7519V392.28H46.3919V397.32H42.7519V403H36.9919V397.32ZM36.9919 382.52H36.9119L30.6319 392.28H36.9919V382.52ZM48.6637 388.84C48.6637 387.16 48.8104 385.453 49.1038 383.72C49.4238 381.987 49.9704 380.413 50.7438 379C51.5438 377.587 52.6238 376.44 53.9838 375.56C55.3438 374.653 57.0771 374.2 59.1838 374.2C61.2904 374.2 63.0238 374.653 64.3838 375.56C65.7438 376.44 66.8104 377.587 67.5838 379C68.3838 380.413 68.9304 381.987 69.2238 383.72C69.5438 385.453 69.7038 387.16 69.7038 388.84C69.7038 390.52 69.5438 392.227 69.2238 393.96C68.9304 395.693 68.3838 397.267 67.5838 398.68C66.8104 400.093 65.7438 401.253 64.3838 402.16C63.0238 403.04 61.2904 403.48 59.1838 403.48C57.0771 403.48 55.3438 403.04 53.9838 402.16C52.6238 401.253 51.5438 400.093 50.7438 398.68C49.9704 397.267 49.4238 395.693 49.1038 393.96C48.8104 392.227 48.6637 390.52 48.6637 388.84ZM54.6638 388.84C54.6638 389.587 54.6904 390.48 54.7438 391.52C54.8238 392.56 55.0104 393.56 55.3038 394.52C55.5971 395.48 56.0371 396.293 56.6238 396.96C57.2371 397.627 58.0904 397.96 59.1838 397.96C60.2504 397.96 61.0904 397.627 61.7038 396.96C62.3171 396.293 62.7704 395.48 63.0638 394.52C63.3571 393.56 63.5304 392.56 63.5838 391.52C63.6638 390.48 63.7038 389.587 63.7038 388.84C63.7038 388.093 63.6638 387.2 63.5838 386.16C63.5304 385.12 63.3571 384.12 63.0638 383.16C62.7704 382.2 62.3171 381.387 61.7038 380.72C61.0904 380.053 60.2504 379.72 59.1838 379.72C58.0904 379.72 57.2371 380.053 56.6238 380.72C56.0371 381.387 55.5971 382.2 55.3038 383.16C55.0104 384.12 54.8238 385.12 54.7438 386.16C54.6904 387.2 54.6638 388.093 54.6638 388.84ZM72.3356 388.84C72.3356 387.16 72.4823 385.453 72.7756 383.72C73.0956 381.987 73.6423 380.413 74.4156 379C75.2156 377.587 76.2956 376.44 77.6556 375.56C79.0156 374.653 80.749 374.2 82.8556 374.2C84.9623 374.2 86.6956 374.653 88.0556 375.56C89.4156 376.44 90.4823 377.587 91.2556 379C92.0556 380.413 92.6023 381.987 92.8956 383.72C93.2156 385.453 93.3756 387.16 93.3756 388.84C93.3756 390.52 93.2156 392.227 92.8956 393.96C92.6023 395.693 92.0556 397.267 91.2556 398.68C90.4823 400.093 89.4156 401.253 88.0556 402.16C86.6956 403.04 84.9623 403.48 82.8556 403.48C80.749 403.48 79.0156 403.04 77.6556 402.16C76.2956 401.253 75.2156 400.093 74.4156 398.68C73.6423 397.267 73.0956 395.693 72.7756 393.96C72.4823 392.227 72.3356 390.52 72.3356 388.84ZM78.3356 388.84C78.3356 389.587 78.3623 390.48 78.4156 391.52C78.4956 392.56 78.6823 393.56 78.9756 394.52C79.269 395.48 79.709 396.293 80.2956 396.96C80.909 397.627 81.7623 397.96 82.8556 397.96C83.9223 397.96 84.7623 397.627 85.3756 396.96C85.989 396.293 86.4423 395.48 86.7356 394.52C87.029 393.56 87.2023 392.56 87.2556 391.52C87.3356 390.48 87.3756 389.587 87.3756 388.84C87.3756 388.093 87.3356 387.2 87.2556 386.16C87.2023 385.12 87.029 384.12 86.7356 383.16C86.4423 382.2 85.989 381.387 85.3756 380.72C84.7623 380.053 83.9223 379.72 82.8556 379.72C81.7623 379.72 80.909 380.053 80.2956 380.72C79.709 381.387 79.269 382.2 78.9756 383.16C78.6823 384.12 78.4956 385.12 78.4156 386.16C78.3623 387.2 78.3356 388.093 78.3356 388.84Z" fill="#20B15A"/>
</g>
<path d="M97.36 28.36H105.8V19.92H110.84V28.36H119.28V33.4H110.84V41.84H105.8V33.4H97.36V28.36Z" fill="#20B15A"/>
<defs>
<clipPath id="clip0_244_28">
<rect width="95" height="60" fill="white"/>
</clipPath>
</defs>
</svg>
