<svg width="106" height="60" viewBox="0 0 106 60" fill="none" xmlns="http://www.w3.org/2000/svg">
<g clip-path="url(#clip0_244_56)">
<path d="M13.7959 36.64L24.7959 26.76C25.3559 26.2533 25.9159 25.68 26.4759 25.04C27.0359 24.4 27.3159 23.6533 27.3159 22.8C27.3159 21.84 26.9693 21.0933 26.2759 20.56C25.5826 20 24.7693 19.72 23.8359 19.72C22.7159 19.72 21.8359 20.0667 21.1959 20.76C20.5826 21.4533 20.2359 22.3067 20.1559 23.32L14.1559 22.88C14.2359 21.4133 14.5426 20.1467 15.0759 19.08C15.6093 17.9867 16.3159 17.08 17.1959 16.36C18.0759 15.64 19.1026 15.1067 20.2759 14.76C21.4759 14.3867 22.7693 14.2 24.1559 14.2C25.4359 14.2 26.6359 14.3867 27.7559 14.76C28.8759 15.1067 29.8493 15.64 30.6759 16.36C31.5026 17.0533 32.1426 17.9333 32.5959 19C33.0759 20.0667 33.3159 21.3067 33.3159 22.72C33.3159 23.6267 33.2226 24.4533 33.0359 25.2C32.8493 25.92 32.5826 26.5867 32.2359 27.2C31.9159 27.7867 31.5293 28.3333 31.0759 28.84C30.6226 29.3467 30.1293 29.84 29.5959 30.32L20.9959 37.72H33.5559V43H13.7959V36.64ZM25.1559 97.32H12.7959V92.28L24.3559 74.68H30.9159V92.28H34.5559V97.32H30.9159V103H25.1559V97.32ZM25.1559 82.52H25.0759L18.7959 92.28H25.1559V82.52ZM23.3159 144.8C23.6359 144.72 23.9559 144.653 24.2759 144.6C24.5959 144.547 24.9293 144.52 25.2759 144.52C26.6093 144.52 27.8226 144.76 28.9159 145.24C30.0093 145.72 30.9426 146.373 31.7159 147.2C32.4893 148.027 33.0893 149.013 33.5159 150.16C33.9426 151.28 34.1559 152.48 34.1559 153.76C34.1559 155.227 33.8759 156.56 33.3159 157.76C32.7826 158.933 32.0359 159.947 31.0759 160.8C30.1426 161.653 29.0226 162.32 27.7159 162.8C26.4359 163.253 25.0626 163.48 23.5959 163.48C22.1026 163.48 20.7159 163.253 19.4359 162.8C18.1559 162.32 17.0359 161.653 16.0759 160.8C15.1426 159.947 14.3959 158.933 13.8359 157.76C13.3026 156.56 13.0359 155.227 13.0359 153.76C13.0359 152.747 13.1293 151.827 13.3159 151C13.5026 150.147 13.7426 149.347 14.0359 148.6C14.3559 147.853 14.7159 147.147 15.1159 146.48C15.5426 145.787 15.9826 145.08 16.4359 144.36L22.6359 134.68H29.9559L23.3159 144.8ZM28.1559 153.52C28.1559 152.24 27.7293 151.187 26.8759 150.36C26.0493 149.507 24.9559 149.08 23.5959 149.08C22.2359 149.08 21.1293 149.507 20.2759 150.36C19.4493 151.187 19.0359 152.24 19.0359 153.52C19.0359 154.8 19.4493 155.867 20.2759 156.72C21.1293 157.547 22.2359 157.96 23.5959 157.96C24.9559 157.96 26.0493 157.547 26.8759 156.72C27.7293 155.867 28.1559 154.8 28.1559 153.52ZM14.1959 202C14.1959 200.693 14.4359 199.56 14.9159 198.6C15.4226 197.613 16.1026 196.8 16.9559 196.16C17.8359 195.493 18.8493 195 19.9959 194.68C21.1426 194.36 22.3693 194.2 23.6759 194.2C24.9826 194.2 26.2093 194.36 27.3559 194.68C28.5026 195 29.5026 195.493 30.3559 196.16C31.2093 196.8 31.8893 197.613 32.3959 198.6C32.9026 199.56 33.1559 200.693 33.1559 202C33.1559 203.547 32.7293 204.867 31.8759 205.96C31.0493 207.053 29.8759 207.827 28.3559 208.28V208.36C30.0626 208.813 31.3693 209.64 32.2759 210.84C33.1826 212.013 33.6359 213.48 33.6359 215.24C33.6359 216.6 33.3559 217.8 32.7959 218.84C32.2626 219.88 31.5293 220.747 30.5959 221.44C29.6893 222.107 28.6359 222.613 27.4359 222.96C26.2359 223.307 24.9826 223.48 23.6759 223.48C22.3693 223.48 21.1159 223.307 19.9159 222.96C18.7159 222.613 17.6493 222.107 16.7159 221.44C15.8093 220.747 15.0759 219.88 14.5159 218.84C13.9826 217.8 13.7159 216.6 13.7159 215.24C13.7159 213.48 14.1693 212.013 15.0759 210.84C15.9826 209.64 17.2893 208.813 18.9959 208.36V208.28C17.4759 207.827 16.2893 207.053 15.4359 205.96C14.6093 204.867 14.1959 203.547 14.1959 202ZM20.1959 202.84C20.1959 203.72 20.5159 204.467 21.1559 205.08C21.7959 205.693 22.6359 206 23.6759 206C24.7159 206 25.5559 205.693 26.1959 205.08C26.8359 204.467 27.1559 203.72 27.1559 202.84C27.1559 201.987 26.8359 201.253 26.1959 200.64C25.5559 200.027 24.7159 199.72 23.6759 199.72C22.6359 199.72 21.7959 200.027 21.1559 200.64C20.5159 201.253 20.1959 201.987 20.1959 202.84ZM19.7159 214.4C19.7159 215.387 20.0759 216.227 20.7959 216.92C21.5159 217.613 22.4759 217.96 23.6759 217.96C24.8759 217.96 25.8359 217.613 26.5559 216.92C27.2759 216.227 27.6359 215.387 27.6359 214.4C27.6359 213.387 27.2759 212.533 26.5559 211.84C25.8359 211.147 24.8759 210.8 23.6759 210.8C22.4759 210.8 21.5159 211.147 20.7959 211.84C20.0759 212.533 19.7159 213.387 19.7159 214.4ZM11.52 261.4L5.84 266.4L2.44 262.48L11.68 254.68H17.28V283H11.52V261.4ZM24.9919 268.84C24.9919 267.16 25.1385 265.453 25.4319 263.72C25.7519 261.987 26.2985 260.413 27.0719 259C27.8719 257.587 28.9519 256.44 30.3119 255.56C31.6719 254.653 33.4052 254.2 35.5119 254.2C37.6185 254.2 39.3519 254.653 40.7119 255.56C42.0719 256.44 43.1385 257.587 43.9119 259C44.7119 260.413 45.2585 261.987 45.5519 263.72C45.8719 265.453 46.0319 267.16 46.0319 268.84C46.0319 270.52 45.8719 272.227 45.5519 273.96C45.2585 275.693 44.7119 277.267 43.9119 278.68C43.1385 280.093 42.0719 281.253 40.7119 282.16C39.3519 283.04 37.6185 283.48 35.5119 283.48C33.4052 283.48 31.6719 283.04 30.3119 282.16C28.9519 281.253 27.8719 280.093 27.0719 278.68C26.2985 277.267 25.7519 275.693 25.4319 273.96C25.1385 272.227 24.9919 270.52 24.9919 268.84ZM30.9919 268.84C30.9919 269.587 31.0185 270.48 31.0719 271.52C31.1519 272.56 31.3385 273.56 31.6319 274.52C31.9252 275.48 32.3652 276.293 32.9519 276.96C33.5652 277.627 34.4185 277.96 35.5119 277.96C36.5785 277.96 37.4185 277.627 38.0319 276.96C38.6452 276.293 39.0985 275.48 39.3919 274.52C39.6852 273.56 39.8585 272.56 39.9119 271.52C39.9919 270.48 40.0319 269.587 40.0319 268.84C40.0319 268.093 39.9919 267.2 39.9119 266.16C39.8585 265.12 39.6852 264.12 39.3919 263.16C39.0985 262.2 38.6452 261.387 38.0319 260.72C37.4185 260.053 36.5785 259.72 35.5119 259.72C34.4185 259.72 33.5652 260.053 32.9519 260.72C32.3652 261.387 31.9252 262.2 31.6319 263.16C31.3385 264.12 31.1519 265.12 31.0719 266.16C31.0185 267.2 30.9919 268.093 30.9919 268.84ZM11.52 321.4L5.84 326.4L2.44 322.48L11.68 314.68H17.28V343H11.52V321.4ZM25.6319 336.64L36.6319 326.76C37.1919 326.253 37.7519 325.68 38.3119 325.04C38.8719 324.4 39.1519 323.653 39.1519 322.8C39.1519 321.84 38.8052 321.093 38.1119 320.56C37.4185 320 36.6052 319.72 35.6719 319.72C34.5519 319.72 33.6719 320.067 33.0319 320.76C32.4185 321.453 32.0719 322.307 31.9919 323.32L25.9919 322.88C26.0719 321.413 26.3785 320.147 26.9119 319.08C27.4452 317.987 28.1519 317.08 29.0319 316.36C29.9119 315.64 30.9385 315.107 32.1119 314.76C33.3119 314.387 34.6052 314.2 35.9919 314.2C37.2719 314.2 38.4719 314.387 39.5919 314.76C40.7119 315.107 41.6852 315.64 42.5119 316.36C43.3385 317.053 43.9785 317.933 44.4319 319C44.9119 320.067 45.1519 321.307 45.1519 322.72C45.1519 323.627 45.0585 324.453 44.8719 325.2C44.6852 325.92 44.4185 326.587 44.0719 327.2C43.7519 327.787 43.3652 328.333 42.9119 328.84C42.4585 329.347 41.9652 329.84 41.4319 330.32L32.8319 337.72H45.3919V343H25.6319V336.64ZM11.52 381.4L5.84 386.4L2.44 382.48L11.68 374.68H17.28V403H11.52V381.4ZM36.9919 397.32H24.6319V392.28L36.1919 374.68H42.7519V392.28H46.3919V397.32H42.7519V403H36.9919V397.32ZM36.9919 382.52H36.9119L30.6319 392.28H36.9919V382.52ZM11.52 441.4L5.84 446.4L2.44 442.48L11.68 434.68H17.28V463H11.52V441.4ZM35.1519 444.8C35.4719 444.72 35.7919 444.653 36.1119 444.6C36.4319 444.547 36.7652 444.52 37.1119 444.52C38.4452 444.52 39.6585 444.76 40.7519 445.24C41.8452 445.72 42.7785 446.373 43.5519 447.2C44.3252 448.027 44.9252 449.013 45.3519 450.16C45.7785 451.28 45.9919 452.48 45.9919 453.76C45.9919 455.227 45.7119 456.56 45.1519 457.76C44.6185 458.933 43.8719 459.947 42.9119 460.8C41.9785 461.653 40.8585 462.32 39.5519 462.8C38.2719 463.253 36.8985 463.48 35.4319 463.48C33.9385 463.48 32.5519 463.253 31.2719 462.8C29.9919 462.32 28.8719 461.653 27.9119 460.8C26.9785 459.947 26.2319 458.933 25.6719 457.76C25.1385 456.56 24.8719 455.227 24.8719 453.76C24.8719 452.747 24.9652 451.827 25.1519 451C25.3385 450.147 25.5785 449.347 25.8719 448.6C26.1919 447.853 26.5519 447.147 26.9519 446.48C27.3785 445.787 27.8185 445.08 28.2719 444.36L34.4719 434.68H41.7919L35.1519 444.8ZM39.9919 453.52C39.9919 452.24 39.5652 451.187 38.7119 450.36C37.8852 449.507 36.7919 449.08 35.4319 449.08C34.0719 449.08 32.9652 449.507 32.1119 450.36C31.2852 451.187 30.8719 452.24 30.8719 453.52C30.8719 454.8 31.2852 455.867 32.1119 456.72C32.9652 457.547 34.0719 457.96 35.4319 457.96C36.7919 457.96 37.8852 457.547 38.7119 456.72C39.5652 455.867 39.9919 454.8 39.9919 453.52ZM11.52 501.4L5.84 506.4L2.44 502.48L11.68 494.68H17.28V523H11.52V501.4ZM26.0319 502C26.0319 500.693 26.2719 499.56 26.7519 498.6C27.2585 497.613 27.9385 496.8 28.7919 496.16C29.6719 495.493 30.6852 495 31.8319 494.68C32.9785 494.36 34.2052 494.2 35.5119 494.2C36.8185 494.2 38.0452 494.36 39.1919 494.68C40.3385 495 41.3385 495.493 42.1919 496.16C43.0452 496.8 43.7252 497.613 44.2319 498.6C44.7385 499.56 44.9919 500.693 44.9919 502C44.9919 503.547 44.5652 504.867 43.7119 505.96C42.8852 507.053 41.7119 507.827 40.1919 508.28V508.36C41.8985 508.813 43.2052 509.64 44.1119 510.84C45.0185 512.013 45.4719 513.48 45.4719 515.24C45.4719 516.6 45.1919 517.8 44.6319 518.84C44.0985 519.88 43.3652 520.747 42.4319 521.44C41.5252 522.107 40.4719 522.613 39.2719 522.96C38.0719 523.307 36.8185 523.48 35.5119 523.48C34.2052 523.48 32.9519 523.307 31.7519 522.96C30.5519 522.613 29.4852 522.107 28.5519 521.44C27.6452 520.747 26.9119 519.88 26.3519 518.84C25.8185 517.8 25.5519 516.6 25.5519 515.24C25.5519 513.48 26.0052 512.013 26.9119 510.84C27.8185 509.64 29.1252 508.813 30.8319 508.36V508.28C29.3119 507.827 28.1252 507.053 27.2719 505.96C26.4452 504.867 26.0319 503.547 26.0319 502ZM32.0319 502.84C32.0319 503.72 32.3519 504.467 32.9919 505.08C33.6319 505.693 34.4719 506 35.5119 506C36.5519 506 37.3919 505.693 38.0319 505.08C38.6719 504.467 38.9919 503.72 38.9919 502.84C38.9919 501.987 38.6719 501.253 38.0319 500.64C37.3919 500.027 36.5519 499.72 35.5119 499.72C34.4719 499.72 33.6319 500.027 32.9919 500.64C32.3519 501.253 32.0319 501.987 32.0319 502.84ZM31.5519 514.4C31.5519 515.387 31.9119 516.227 32.6319 516.92C33.3519 517.613 34.3119 517.96 35.5119 517.96C36.7119 517.96 37.6719 517.613 38.3919 516.92C39.1119 516.227 39.4719 515.387 39.4719 514.4C39.4719 513.387 39.1119 512.533 38.3919 511.84C37.6719 511.147 36.7119 510.8 35.5119 510.8C34.3119 510.8 33.3519 511.147 32.6319 511.84C31.9119 512.533 31.5519 513.387 31.5519 514.4ZM1.96 576.64L12.96 566.76C13.52 566.253 14.08 565.68 14.64 565.04C15.2 564.4 15.48 563.653 15.48 562.8C15.48 561.84 15.1333 561.093 14.44 560.56C13.7467 560 12.9333 559.72 12 559.72C10.88 559.72 10 560.067 9.36 560.76C8.74667 561.453 8.4 562.307 8.32 563.32L2.32 562.88C2.4 561.413 2.70667 560.147 3.24 559.08C3.77333 557.987 4.48 557.08 5.36 556.36C6.24 555.64 7.26667 555.107 8.44 554.76C9.64 554.387 10.9333 554.2 12.32 554.2C13.6 554.2 14.8 554.387 15.92 554.76C17.04 555.107 18.0133 555.64 18.84 556.36C19.6667 557.053 20.3067 557.933 20.76 559C21.24 560.067 21.48 561.307 21.48 562.72C21.48 563.627 21.3867 564.453 21.2 565.2C21.0133 565.92 20.7467 566.587 20.4 567.2C20.08 567.787 19.6933 568.333 19.24 568.84C18.7867 569.347 18.2933 569.84 17.76 570.32L9.16 577.72H21.72V583H1.96V576.64ZM24.9919 568.84C24.9919 567.16 25.1385 565.453 25.4319 563.72C25.7519 561.987 26.2985 560.413 27.0719 559C27.8719 557.587 28.9519 556.44 30.3119 555.56C31.6719 554.653 33.4052 554.2 35.5119 554.2C37.6185 554.2 39.3519 554.653 40.7119 555.56C42.0719 556.44 43.1385 557.587 43.9119 559C44.7119 560.413 45.2585 561.987 45.5519 563.72C45.8719 565.453 46.0319 567.16 46.0319 568.84C46.0319 570.52 45.8719 572.227 45.5519 573.96C45.2585 575.693 44.7119 577.267 43.9119 578.68C43.1385 580.093 42.0719 581.253 40.7119 582.16C39.3519 583.04 37.6185 583.48 35.5119 583.48C33.4052 583.48 31.6719 583.04 30.3119 582.16C28.9519 581.253 27.8719 580.093 27.0719 578.68C26.2985 577.267 25.7519 575.693 25.4319 573.96C25.1385 572.227 24.9919 570.52 24.9919 568.84ZM30.9919 568.84C30.9919 569.587 31.0185 570.48 31.0719 571.52C31.1519 572.56 31.3385 573.56 31.6319 574.52C31.9252 575.48 32.3652 576.293 32.9519 576.96C33.5652 577.627 34.4185 577.96 35.5119 577.96C36.5785 577.96 37.4185 577.627 38.0319 576.96C38.6452 576.293 39.0985 575.48 39.3919 574.52C39.6852 573.56 39.8585 572.56 39.9119 571.52C39.9919 570.48 40.0319 569.587 40.0319 568.84C40.0319 568.093 39.9919 567.2 39.9119 566.16C39.8585 565.12 39.6852 564.12 39.3919 563.16C39.0985 562.2 38.6452 561.387 38.0319 560.72C37.4185 560.053 36.5785 559.72 35.5119 559.72C34.4185 559.72 33.5652 560.053 32.9519 560.72C32.3652 561.387 31.9252 562.2 31.6319 563.16C31.3385 564.12 31.1519 565.12 31.0719 566.16C31.0185 567.2 30.9919 568.093 30.9919 568.84ZM1.96 636.64L12.96 626.76C13.52 626.253 14.08 625.68 14.64 625.04C15.2 624.4 15.48 623.653 15.48 622.8C15.48 621.84 15.1333 621.093 14.44 620.56C13.7467 620 12.9333 619.72 12 619.72C10.88 619.72 10 620.067 9.36 620.76C8.74667 621.453 8.4 622.307 8.32 623.32L2.32 622.88C2.4 621.413 2.70667 620.147 3.24 619.08C3.77333 617.987 4.48 617.08 5.36 616.36C6.24 615.64 7.26667 615.107 8.44 614.76C9.64 614.387 10.9333 614.2 12.32 614.2C13.6 614.2 14.8 614.387 15.92 614.76C17.04 615.107 18.0133 615.64 18.84 616.36C19.6667 617.053 20.3067 617.933 20.76 619C21.24 620.067 21.48 621.307 21.48 622.72C21.48 623.627 21.3867 624.453 21.2 625.2C21.0133 625.92 20.7467 626.587 20.4 627.2C20.08 627.787 19.6933 628.333 19.24 628.84C18.7867 629.347 18.2933 629.84 17.76 630.32L9.16 637.72H21.72V643H1.96V636.64ZM35.1919 621.4L29.5119 626.4L26.1119 622.48L35.3519 614.68H40.9519V643H35.1919V621.4Z" fill="#20B15A"/>
</g>
<path d="M61.32 46.16C60.92 47.2 60.5333 48.12 60.16 48.92C59.7867 49.72 59.3067 50.3867 58.72 50.92C58.16 51.48 57.44 51.8933 56.56 52.16C55.68 52.4533 54.52 52.6 53.08 52.6C51.5333 52.6 50.04 52.36 48.6 51.88L49.4 46.96C50.3067 47.36 51.24 47.56 52.2 47.56C52.8667 47.56 53.4133 47.48 53.84 47.32C54.2667 47.1867 54.6133 46.9733 54.88 46.68C55.1733 46.4133 55.4133 46.08 55.6 45.68C55.7867 45.28 55.9867 44.8133 56.2 44.28L56.64 43.16L48.12 23.56H54.6L59.6 36.4H59.68L63.96 23.56H70.12L61.32 46.16ZM72.3466 23.56H78.3466V26.68H78.4266C79.0666 25.48 79.8266 24.5867 80.7066 24C81.5866 23.3867 82.6932 23.08 84.0266 23.08C84.3732 23.08 84.7199 23.0933 85.0666 23.12C85.4132 23.1467 85.7332 23.2 86.0266 23.28V28.76C85.5999 28.6267 85.1732 28.5333 84.7466 28.48C84.3466 28.4 83.9199 28.36 83.4666 28.36C82.3199 28.36 81.4132 28.52 80.7466 28.84C80.0799 29.16 79.5599 29.6133 79.1866 30.2C78.8399 30.76 78.6132 31.44 78.5066 32.24C78.3999 33.04 78.3466 33.92 78.3466 34.88V43H72.3466V23.56ZM99.6356 29.28C98.7556 28.1867 97.5956 27.64 96.1556 27.64C95.649 27.64 95.1556 27.76 94.6756 28C94.1956 28.24 93.9556 28.6533 93.9556 29.24C93.9556 29.72 94.1956 30.08 94.6756 30.32C95.1823 30.5333 95.809 30.7333 96.5556 30.92C97.329 31.08 98.1423 31.2667 98.9956 31.48C99.8756 31.6667 100.689 31.9733 101.436 32.4C102.209 32.8267 102.836 33.4133 103.316 34.16C103.822 34.88 104.076 35.8533 104.076 37.08C104.076 38.3333 103.796 39.3733 103.236 40.2C102.702 41 102.009 41.6533 101.156 42.16C100.302 42.64 99.3423 42.9733 98.2756 43.16C97.209 43.3733 96.1556 43.48 95.1156 43.48C93.7556 43.48 92.3823 43.2933 90.9956 42.92C89.609 42.52 88.4356 41.8267 87.4756 40.84L91.1156 36.8C91.6756 37.4933 92.289 38.0267 92.9556 38.4C93.649 38.7467 94.449 38.92 95.3556 38.92C96.049 38.92 96.6756 38.8267 97.2356 38.64C97.7956 38.4267 98.0756 38.0533 98.0756 37.52C98.0756 37.0133 97.8223 36.64 97.3156 36.4C96.8356 36.1333 96.209 35.92 95.4356 35.76C94.689 35.5733 93.8756 35.3867 92.9956 35.2C92.1423 34.9867 91.329 34.68 90.5556 34.28C89.809 33.88 89.1823 33.32 88.6756 32.6C88.1956 31.8533 87.9556 30.8667 87.9556 29.64C87.9556 28.4933 88.1823 27.5067 88.6356 26.68C89.1156 25.8533 89.729 25.1733 90.4756 24.64C91.249 24.1067 92.129 23.72 93.1156 23.48C94.1023 23.2133 95.1023 23.08 96.1156 23.08C97.3956 23.08 98.689 23.2667 99.9956 23.64C101.302 24.0133 102.409 24.68 103.316 25.64L99.6356 29.28Z" fill="#20B15A"/>
<defs>
<clipPath id="clip0_244_56">
<rect width="48" height="60" fill="white"/>
</clipPath>
</defs>
</svg>
