<svg width="110" height="60" viewBox="0 0 110 60" fill="none" xmlns="http://www.w3.org/2000/svg">
<path d="M13.12 14.2C14.56 14.2 16.0533 14.3867 17.6 14.76C19.1467 15.1333 20.5067 15.7867 21.68 16.72L17.84 21.4C17.2 20.84 16.4667 20.44 15.64 20.2C14.8133 19.9333 13.9733 19.7733 13.12 19.72V26.08L16.96 27.2C18.72 27.7333 20.12 28.6133 21.16 29.84C22.2267 31.04 22.76 32.5733 22.76 34.44C22.76 35.8533 22.5067 37.0933 22 38.16C21.4933 39.2267 20.8 40.1333 19.92 40.88C19.04 41.6267 18.0133 42.2133 16.84 42.64C15.6667 43.0667 14.4267 43.3467 13.12 43.48V46.28H10.48V43.48C8.72 43.48 6.96 43.24 5.2 42.76C3.46667 42.28 1.93333 41.44 0.6 40.24L4.84 35.48C5.53333 36.3333 6.37333 36.9467 7.36 37.32C8.34667 37.6667 9.38667 37.88 10.48 37.96V31.2L7.56 30.32C5.53333 29.68 3.98667 28.7867 2.92 27.64C1.88 26.4667 1.36 24.8667 1.36 22.84C1.36 21.5867 1.61333 20.4533 2.12 19.44C2.62667 18.4267 3.29333 17.56 4.12 16.84C4.97333 16.12 5.94667 15.5333 7.04 15.08C8.16 14.6267 9.30667 14.3333 10.48 14.2V11.4H13.12V14.2ZM10.48 19.84C9.73333 20 9.06667 20.28 8.48 20.68C7.89333 21.08 7.6 21.7067 7.6 22.56C7.6 23.1733 7.72 23.6533 7.96 24C8.2 24.3467 8.48 24.6267 8.8 24.84C9.12 25.0267 9.44 25.16 9.76 25.24C10.08 25.32 10.32 25.3867 10.48 25.44V19.84ZM13.12 37.88C13.52 37.8 13.92 37.6933 14.32 37.56C14.7467 37.4 15.12 37.2 15.44 36.96C15.76 36.72 16.0133 36.44 16.2 36.12C16.4133 35.7733 16.52 35.3733 16.52 34.92C16.52 34.4933 16.44 34.1333 16.28 33.84C16.1467 33.5467 15.96 33.3067 15.72 33.12C15.48 32.9067 15.2 32.7333 14.88 32.6C14.56 32.44 14.2267 32.2933 13.88 32.16L13.12 31.88V37.88Z" fill="#20B15A"/>
<g clip-path="url(#clip0_244_46)">
<path d="M35.52 21.4L29.84 26.4L26.44 22.48L35.68 14.68H41.28V43H35.52V21.4ZM48.9919 28.84C48.9919 27.16 49.1385 25.4533 49.4319 23.72C49.7519 21.9867 50.2985 20.4133 51.0719 19C51.8719 17.5867 52.9519 16.44 54.3119 15.56C55.6719 14.6533 57.4052 14.2 59.5119 14.2C61.6185 14.2 63.3519 14.6533 64.7119 15.56C66.0719 16.44 67.1385 17.5867 67.9119 19C68.7119 20.4133 69.2585 21.9867 69.5519 23.72C69.8719 25.4533 70.0319 27.16 70.0319 28.84C70.0319 30.52 69.8719 32.2267 69.5519 33.96C69.2585 35.6933 68.7119 37.2667 67.9119 38.68C67.1385 40.0933 66.0719 41.2533 64.7119 42.16C63.3519 43.04 61.6185 43.48 59.5119 43.48C57.4052 43.48 55.6719 43.04 54.3119 42.16C52.9519 41.2533 51.8719 40.0933 51.0719 38.68C50.2985 37.2667 49.7519 35.6933 49.4319 33.96C49.1385 32.2267 48.9919 30.52 48.9919 28.84ZM54.9919 28.84C54.9919 29.5867 55.0185 30.48 55.0719 31.52C55.1519 32.56 55.3385 33.56 55.6319 34.52C55.9252 35.48 56.3652 36.2933 56.9519 36.96C57.5652 37.6267 58.4185 37.96 59.5119 37.96C60.5785 37.96 61.4185 37.6267 62.0319 36.96C62.6452 36.2933 63.0985 35.48 63.3919 34.52C63.6852 33.56 63.8585 32.56 63.9119 31.52C63.9919 30.48 64.0319 29.5867 64.0319 28.84C64.0319 28.0933 63.9919 27.2 63.9119 26.16C63.8585 25.12 63.6852 24.12 63.3919 23.16C63.0985 22.2 62.6452 21.3867 62.0319 20.72C61.4185 20.0533 60.5785 19.72 59.5119 19.72C58.4185 19.72 57.5652 20.0533 56.9519 20.72C56.3652 21.3867 55.9252 22.2 55.6319 23.16C55.3385 24.12 55.1519 25.12 55.0719 26.16C55.0185 27.2 54.9919 28.0933 54.9919 28.84ZM25.96 96.64L36.96 86.76C37.52 86.2533 38.08 85.68 38.64 85.04C39.2 84.4 39.48 83.6533 39.48 82.8C39.48 81.84 39.1333 81.0933 38.44 80.56C37.7467 80 36.9333 79.72 36 79.72C34.88 79.72 34 80.0667 33.36 80.76C32.7467 81.4533 32.4 82.3067 32.32 83.32L26.32 82.88C26.4 81.4133 26.7067 80.1467 27.24 79.08C27.7733 77.9867 28.48 77.08 29.36 76.36C30.24 75.64 31.2667 75.1067 32.44 74.76C33.64 74.3867 34.9333 74.2 36.32 74.2C37.6 74.2 38.8 74.3867 39.92 74.76C41.04 75.1067 42.0133 75.64 42.84 76.36C43.6667 77.0533 44.3067 77.9333 44.76 79C45.24 80.0667 45.48 81.3067 45.48 82.72C45.48 83.6267 45.3867 84.4533 45.2 85.2C45.0133 85.92 44.7467 86.5867 44.4 87.2C44.08 87.7867 43.6933 88.3333 43.24 88.84C42.7867 89.3467 42.2933 89.84 41.76 90.32L33.16 97.72H45.72V103H25.96V96.64ZM48.9919 88.84C48.9919 87.16 49.1385 85.4533 49.4319 83.72C49.7519 81.9867 50.2985 80.4133 51.0719 79C51.8719 77.5867 52.9519 76.44 54.3119 75.56C55.6719 74.6533 57.4052 74.2 59.5119 74.2C61.6185 74.2 63.3519 74.6533 64.7119 75.56C66.0719 76.44 67.1385 77.5867 67.9119 79C68.7119 80.4133 69.2585 81.9867 69.5519 83.72C69.8719 85.4533 70.0319 87.16 70.0319 88.84C70.0319 90.52 69.8719 92.2267 69.5519 93.96C69.2585 95.6933 68.7119 97.2667 67.9119 98.68C67.1385 100.093 66.0719 101.253 64.7119 102.16C63.3519 103.04 61.6185 103.48 59.5119 103.48C57.4052 103.48 55.6719 103.04 54.3119 102.16C52.9519 101.253 51.8719 100.093 51.0719 98.68C50.2985 97.2667 49.7519 95.6933 49.4319 93.96C49.1385 92.2267 48.9919 90.52 48.9919 88.84ZM54.9919 88.84C54.9919 89.5867 55.0185 90.48 55.0719 91.52C55.1519 92.56 55.3385 93.56 55.6319 94.52C55.9252 95.48 56.3652 96.2933 56.9519 96.96C57.5652 97.6267 58.4185 97.96 59.5119 97.96C60.5785 97.96 61.4185 97.6267 62.0319 96.96C62.6452 96.2933 63.0985 95.48 63.3919 94.52C63.6852 93.56 63.8585 92.56 63.9119 91.52C63.9919 90.48 64.0319 89.5867 64.0319 88.84C64.0319 88.0933 63.9919 87.2 63.9119 86.16C63.8585 85.12 63.6852 84.12 63.3919 83.16C63.0985 82.2 62.6452 81.3867 62.0319 80.72C61.4185 80.0533 60.5785 79.72 59.5119 79.72C58.4185 79.72 57.5652 80.0533 56.9519 80.72C56.3652 81.3867 55.9252 82.2 55.6319 83.16C55.3385 84.12 55.1519 85.12 55.0719 86.16C55.0185 87.2 54.9919 88.0933 54.9919 88.84ZM32.64 145.84H34.6C35.16 145.84 35.7067 145.8 36.24 145.72C36.7733 145.64 37.2533 145.493 37.68 145.28C38.1333 145.04 38.4933 144.72 38.76 144.32C39.0267 143.893 39.16 143.347 39.16 142.68C39.16 141.827 38.8133 141.12 38.12 140.56C37.4533 140 36.6267 139.72 35.64 139.72C34.7067 139.72 33.9333 139.973 33.32 140.48C32.7067 140.987 32.3067 141.613 32.12 142.36L25.52 141C25.84 139.773 26.32 138.733 26.96 137.88C27.6 137 28.36 136.293 29.24 135.76C30.12 135.227 31.0933 134.84 32.16 134.6C33.2533 134.333 34.4 134.2 35.6 134.2C36.8533 134.2 38.0533 134.36 39.2 134.68C40.3733 134.973 41.4 135.453 42.28 136.12C43.16 136.76 43.8533 137.573 44.36 138.56C44.8933 139.547 45.16 140.72 45.16 142.08C45.16 143.653 44.7467 145 43.92 146.12C43.0933 147.24 41.8933 147.96 40.32 148.28V148.4C41.1733 148.507 41.92 148.76 42.56 149.16C43.2267 149.56 43.7867 150.053 44.24 150.64C44.6933 151.227 45.04 151.893 45.28 152.64C45.52 153.387 45.64 154.173 45.64 155C45.64 156.413 45.36 157.653 44.8 158.72C44.2667 159.787 43.5333 160.68 42.6 161.4C41.6933 162.093 40.6133 162.613 39.36 162.96C38.1333 163.307 36.8267 163.48 35.44 163.48C32.9067 163.48 30.72 162.893 28.88 161.72C27.0667 160.547 25.8667 158.693 25.28 156.16L31.6 154.68C31.8133 155.693 32.24 156.493 32.88 157.08C33.5467 157.667 34.52 157.96 35.8 157.96C37.1067 157.96 38.0667 157.627 38.68 156.96C39.32 156.267 39.64 155.387 39.64 154.32C39.64 153.52 39.4667 152.907 39.12 152.48C38.8 152.027 38.3733 151.693 37.84 151.48C37.3067 151.267 36.7067 151.147 36.04 151.12C35.3733 151.067 34.7067 151.04 34.04 151.04H32.64V145.84ZM48.9919 148.84C48.9919 147.16 49.1385 145.453 49.4319 143.72C49.7519 141.987 50.2985 140.413 51.0719 139C51.8719 137.587 52.9519 136.44 54.3119 135.56C55.6719 134.653 57.4052 134.2 59.5119 134.2C61.6185 134.2 63.3519 134.653 64.7119 135.56C66.0719 136.44 67.1385 137.587 67.9119 139C68.7119 140.413 69.2585 141.987 69.5519 143.72C69.8719 145.453 70.0319 147.16 70.0319 148.84C70.0319 150.52 69.8719 152.227 69.5519 153.96C69.2585 155.693 68.7119 157.267 67.9119 158.68C67.1385 160.093 66.0719 161.253 64.7119 162.16C63.3519 163.04 61.6185 163.48 59.5119 163.48C57.4052 163.48 55.6719 163.04 54.3119 162.16C52.9519 161.253 51.8719 160.093 51.0719 158.68C50.2985 157.267 49.7519 155.693 49.4319 153.96C49.1385 152.227 48.9919 150.52 48.9919 148.84ZM54.9919 148.84C54.9919 149.587 55.0185 150.48 55.0719 151.52C55.1519 152.56 55.3385 153.56 55.6319 154.52C55.9252 155.48 56.3652 156.293 56.9519 156.96C57.5652 157.627 58.4185 157.96 59.5119 157.96C60.5785 157.96 61.4185 157.627 62.0319 156.96C62.6452 156.293 63.0985 155.48 63.3919 154.52C63.6852 153.56 63.8585 152.56 63.9119 151.52C63.9919 150.48 64.0319 149.587 64.0319 148.84C64.0319 148.093 63.9919 147.2 63.9119 146.16C63.8585 145.12 63.6852 144.12 63.3919 143.16C63.0985 142.2 62.6452 141.387 62.0319 140.72C61.4185 140.053 60.5785 139.72 59.5119 139.72C58.4185 139.72 57.5652 140.053 56.9519 140.72C56.3652 141.387 55.9252 142.2 55.6319 143.16C55.3385 144.12 55.1519 145.12 55.0719 146.16C55.0185 147.2 54.9919 148.093 54.9919 148.84ZM37.32 217.32H24.96V212.28L36.52 194.68H43.08V212.28H46.72V217.32H43.08V223H37.32V217.32ZM37.32 202.52H37.24L30.96 212.28H37.32V202.52ZM48.9919 208.84C48.9919 207.16 49.1385 205.453 49.4319 203.72C49.7519 201.987 50.2985 200.413 51.0719 199C51.8719 197.587 52.9519 196.44 54.3119 195.56C55.6719 194.653 57.4052 194.2 59.5119 194.2C61.6185 194.2 63.3519 194.653 64.7119 195.56C66.0719 196.44 67.1385 197.587 67.9119 199C68.7119 200.413 69.2585 201.987 69.5519 203.72C69.8719 205.453 70.0319 207.16 70.0319 208.84C70.0319 210.52 69.8719 212.227 69.5519 213.96C69.2585 215.693 68.7119 217.267 67.9119 218.68C67.1385 220.093 66.0719 221.253 64.7119 222.16C63.3519 223.04 61.6185 223.48 59.5119 223.48C57.4052 223.48 55.6719 223.04 54.3119 222.16C52.9519 221.253 51.8719 220.093 51.0719 218.68C50.2985 217.267 49.7519 215.693 49.4319 213.96C49.1385 212.227 48.9919 210.52 48.9919 208.84ZM54.9919 208.84C54.9919 209.587 55.0185 210.48 55.0719 211.52C55.1519 212.56 55.3385 213.56 55.6319 214.52C55.9252 215.48 56.3652 216.293 56.9519 216.96C57.5652 217.627 58.4185 217.96 59.5119 217.96C60.5785 217.96 61.4185 217.627 62.0319 216.96C62.6452 216.293 63.0985 215.48 63.3919 214.52C63.6852 213.56 63.8585 212.56 63.9119 211.52C63.9919 210.48 64.0319 209.587 64.0319 208.84C64.0319 208.093 63.9919 207.2 63.9119 206.16C63.8585 205.12 63.6852 204.12 63.3919 203.16C63.0985 202.2 62.6452 201.387 62.0319 200.72C61.4185 200.053 60.5785 199.72 59.5119 199.72C58.4185 199.72 57.5652 200.053 56.9519 200.72C56.3652 201.387 55.9252 202.2 55.6319 203.16C55.3385 204.12 55.1519 205.12 55.0719 206.16C55.0185 207.2 54.9919 208.093 54.9919 208.84ZM44.68 259.96H33.44L33.32 264.32C33.9333 264.107 34.7733 264 35.84 264C37.28 264 38.6 264.213 39.8 264.64C41 265.067 42.0267 265.693 42.88 266.52C43.76 267.32 44.44 268.307 44.92 269.48C45.4 270.627 45.64 271.92 45.64 273.36C45.64 274.96 45.36 276.387 44.8 277.64C44.2667 278.893 43.52 279.96 42.56 280.84C41.6 281.693 40.4533 282.347 39.12 282.8C37.8133 283.253 36.3867 283.48 34.84 283.48C32.3867 283.48 30.3333 282.88 28.68 281.68C27.0267 280.48 25.8933 278.667 25.28 276.24L31.56 274.8C31.72 275.813 32.1467 276.64 32.84 277.28C33.5333 277.893 34.4 278.2 35.44 278.2C36.72 278.2 37.7333 277.8 38.48 277C39.2533 276.2 39.64 275.187 39.64 273.96C39.64 273.027 39.44 272.267 39.04 271.68C38.6667 271.067 38.16 270.587 37.52 270.24C36.9067 269.867 36.2133 269.613 35.44 269.48C34.6667 269.347 33.8933 269.28 33.12 269.28C32.1333 269.28 31.1333 269.373 30.12 269.56C29.1333 269.747 28.1733 270 27.24 270.32L27.56 254.68H44.68V259.96ZM48.9919 268.84C48.9919 267.16 49.1385 265.453 49.4319 263.72C49.7519 261.987 50.2985 260.413 51.0719 259C51.8719 257.587 52.9519 256.44 54.3119 255.56C55.6719 254.653 57.4052 254.2 59.5119 254.2C61.6185 254.2 63.3519 254.653 64.7119 255.56C66.0719 256.44 67.1385 257.587 67.9119 259C68.7119 260.413 69.2585 261.987 69.5519 263.72C69.8719 265.453 70.0319 267.16 70.0319 268.84C70.0319 270.52 69.8719 272.227 69.5519 273.96C69.2585 275.693 68.7119 277.267 67.9119 278.68C67.1385 280.093 66.0719 281.253 64.7119 282.16C63.3519 283.04 61.6185 283.48 59.5119 283.48C57.4052 283.48 55.6719 283.04 54.3119 282.16C52.9519 281.253 51.8719 280.093 51.0719 278.68C50.2985 277.267 49.7519 275.693 49.4319 273.96C49.1385 272.227 48.9919 270.52 48.9919 268.84ZM54.9919 268.84C54.9919 269.587 55.0185 270.48 55.0719 271.52C55.1519 272.56 55.3385 273.56 55.6319 274.52C55.9252 275.48 56.3652 276.293 56.9519 276.96C57.5652 277.627 58.4185 277.96 59.5119 277.96C60.5785 277.96 61.4185 277.627 62.0319 276.96C62.6452 276.293 63.0985 275.48 63.3919 274.52C63.6852 273.56 63.8585 272.56 63.9119 271.52C63.9919 270.48 64.0319 269.587 64.0319 268.84C64.0319 268.093 63.9919 267.2 63.9119 266.16C63.8585 265.12 63.6852 264.12 63.3919 263.16C63.0985 262.2 62.6452 261.387 62.0319 260.72C61.4185 260.053 60.5785 259.72 59.5119 259.72C58.4185 259.72 57.5652 260.053 56.9519 260.72C56.3652 261.387 55.9252 262.2 55.6319 263.16C55.3385 264.12 55.1519 265.12 55.0719 266.16C55.0185 267.2 54.9919 268.093 54.9919 268.84Z" fill="#20B15A"/>
</g>
<path d="M74.88 14.68H84.32L90.84 33.16H90.92L97.48 14.68H106.88V43H100.64V21.28H100.56L93.12 43H88.36L81.2 21.28H81.12V43H74.88V14.68Z" fill="#20B15A"/>
<defs>
<clipPath id="clip0_244_46">
<rect width="48" height="60" fill="white" transform="translate(24)"/>
</clipPath>
</defs>
</svg>
