<svg width="109" height="60" viewBox="0 0 109 60" fill="none" xmlns="http://www.w3.org/2000/svg">
<g clip-path="url(#clip0_244_37)">
<path d="M13.7959 36.64L24.7959 26.76C25.3559 26.2533 25.9159 25.68 26.4759 25.04C27.0359 24.4 27.3159 23.6533 27.3159 22.8C27.3159 21.84 26.9693 21.0933 26.2759 20.56C25.5826 20 24.7693 19.72 23.8359 19.72C22.7159 19.72 21.8359 20.0667 21.1959 20.76C20.5826 21.4533 20.2359 22.3067 20.1559 23.32L14.1559 22.88C14.2359 21.4133 14.5426 20.1467 15.0759 19.08C15.6093 17.9867 16.3159 17.08 17.1959 16.36C18.0759 15.64 19.1026 15.1067 20.2759 14.76C21.4759 14.3867 22.7693 14.2 24.1559 14.2C25.4359 14.2 26.6359 14.3867 27.7559 14.76C28.8759 15.1067 29.8493 15.64 30.6759 16.36C31.5026 17.0533 32.1426 17.9333 32.5959 19C33.0759 20.0667 33.3159 21.3067 33.3159 22.72C33.3159 23.6267 33.2226 24.4533 33.0359 25.2C32.8493 25.92 32.5826 26.5867 32.2359 27.2C31.9159 27.7867 31.5293 28.3333 31.0759 28.84C30.6226 29.3467 30.1293 29.84 29.5959 30.32L20.9959 37.72H33.5559V43H13.7959V36.64ZM36.8278 28.84C36.8278 27.16 36.9745 25.4533 37.2678 23.72C37.5878 21.9867 38.1345 20.4133 38.9078 19C39.7078 17.5867 40.7878 16.44 42.1478 15.56C43.5078 14.6533 45.2411 14.2 47.3478 14.2C49.4545 14.2 51.1878 14.6533 52.5478 15.56C53.9078 16.44 54.9745 17.5867 55.7478 19C56.5478 20.4133 57.0945 21.9867 57.3878 23.72C57.7078 25.4533 57.8678 27.16 57.8678 28.84C57.8678 30.52 57.7078 32.2267 57.3878 33.96C57.0945 35.6933 56.5478 37.2667 55.7478 38.68C54.9745 40.0933 53.9078 41.2533 52.5478 42.16C51.1878 43.04 49.4545 43.48 47.3478 43.48C45.2411 43.48 43.5078 43.04 42.1478 42.16C40.7878 41.2533 39.7078 40.0933 38.9078 38.68C38.1345 37.2667 37.5878 35.6933 37.2678 33.96C36.9745 32.2267 36.8278 30.52 36.8278 28.84ZM42.8278 28.84C42.8278 29.5867 42.8545 30.48 42.9078 31.52C42.9878 32.56 43.1745 33.56 43.4678 34.52C43.7611 35.48 44.2011 36.2933 44.7878 36.96C45.4011 37.6267 46.2545 37.96 47.3478 37.96C48.4145 37.96 49.2545 37.6267 49.8678 36.96C50.4811 36.2933 50.9345 35.48 51.2278 34.52C51.5211 33.56 51.6945 32.56 51.7478 31.52C51.8278 30.48 51.8678 29.5867 51.8678 28.84C51.8678 28.0933 51.8278 27.2 51.7478 26.16C51.6945 25.12 51.5211 24.12 51.2278 23.16C50.9345 22.2 50.4811 21.3867 49.8678 20.72C49.2545 20.0533 48.4145 19.72 47.3478 19.72C46.2545 19.72 45.4011 20.0533 44.7878 20.72C44.2011 21.3867 43.7611 22.2 43.4678 23.16C43.1745 24.12 42.9878 25.12 42.9078 26.16C42.8545 27.2 42.8278 28.0933 42.8278 28.84ZM25.1559 97.32H12.7959V92.28L24.3559 74.68H30.9159V92.28H34.5559V97.32H30.9159V103H25.1559V97.32ZM25.1559 82.52H25.0759L18.7959 92.28H25.1559V82.52ZM36.8278 88.84C36.8278 87.16 36.9745 85.4533 37.2678 83.72C37.5878 81.9867 38.1345 80.4133 38.9078 79C39.7078 77.5867 40.7878 76.44 42.1478 75.56C43.5078 74.6533 45.2411 74.2 47.3478 74.2C49.4545 74.2 51.1878 74.6533 52.5478 75.56C53.9078 76.44 54.9745 77.5867 55.7478 79C56.5478 80.4133 57.0945 81.9867 57.3878 83.72C57.7078 85.4533 57.8678 87.16 57.8678 88.84C57.8678 90.52 57.7078 92.2267 57.3878 93.96C57.0945 95.6933 56.5478 97.2667 55.7478 98.68C54.9745 100.093 53.9078 101.253 52.5478 102.16C51.1878 103.04 49.4545 103.48 47.3478 103.48C45.2411 103.48 43.5078 103.04 42.1478 102.16C40.7878 101.253 39.7078 100.093 38.9078 98.68C38.1345 97.2667 37.5878 95.6933 37.2678 93.96C36.9745 92.2267 36.8278 90.52 36.8278 88.84ZM42.8278 88.84C42.8278 89.5867 42.8545 90.48 42.9078 91.52C42.9878 92.56 43.1745 93.56 43.4678 94.52C43.7611 95.48 44.2011 96.2933 44.7878 96.96C45.4011 97.6267 46.2545 97.96 47.3478 97.96C48.4145 97.96 49.2545 97.6267 49.8678 96.96C50.4811 96.2933 50.9345 95.48 51.2278 94.52C51.5211 93.56 51.6945 92.56 51.7478 91.52C51.8278 90.48 51.8678 89.5867 51.8678 88.84C51.8678 88.0933 51.8278 87.2 51.7478 86.16C51.6945 85.12 51.5211 84.12 51.2278 83.16C50.9345 82.2 50.4811 81.3867 49.8678 80.72C49.2545 80.0533 48.4145 79.72 47.3478 79.72C46.2545 79.72 45.4011 80.0533 44.7878 80.72C44.2011 81.3867 43.7611 82.2 43.4678 83.16C43.1745 84.12 42.9878 85.12 42.9078 86.16C42.8545 87.2 42.8278 88.0933 42.8278 88.84ZM23.3159 144.8C23.6359 144.72 23.9559 144.653 24.2759 144.6C24.5959 144.547 24.9293 144.52 25.2759 144.52C26.6093 144.52 27.8226 144.76 28.9159 145.24C30.0093 145.72 30.9426 146.373 31.7159 147.2C32.4893 148.027 33.0893 149.013 33.5159 150.16C33.9426 151.28 34.1559 152.48 34.1559 153.76C34.1559 155.227 33.8759 156.56 33.3159 157.76C32.7826 158.933 32.0359 159.947 31.0759 160.8C30.1426 161.653 29.0226 162.32 27.7159 162.8C26.4359 163.253 25.0626 163.48 23.5959 163.48C22.1026 163.48 20.7159 163.253 19.4359 162.8C18.1559 162.32 17.0359 161.653 16.0759 160.8C15.1426 159.947 14.3959 158.933 13.8359 157.76C13.3026 156.56 13.0359 155.227 13.0359 153.76C13.0359 152.747 13.1293 151.827 13.3159 151C13.5026 150.147 13.7426 149.347 14.0359 148.6C14.3559 147.853 14.7159 147.147 15.1159 146.48C15.5426 145.787 15.9826 145.08 16.4359 144.36L22.6359 134.68H29.9559L23.3159 144.8ZM28.1559 153.52C28.1559 152.24 27.7293 151.187 26.8759 150.36C26.0493 149.507 24.9559 149.08 23.5959 149.08C22.2359 149.08 21.1293 149.507 20.2759 150.36C19.4493 151.187 19.0359 152.24 19.0359 153.52C19.0359 154.8 19.4493 155.867 20.2759 156.72C21.1293 157.547 22.2359 157.96 23.5959 157.96C24.9559 157.96 26.0493 157.547 26.8759 156.72C27.7293 155.867 28.1559 154.8 28.1559 153.52ZM36.8278 148.84C36.8278 147.16 36.9745 145.453 37.2678 143.72C37.5878 141.987 38.1345 140.413 38.9078 139C39.7078 137.587 40.7878 136.44 42.1478 135.56C43.5078 134.653 45.2411 134.2 47.3478 134.2C49.4545 134.2 51.1878 134.653 52.5478 135.56C53.9078 136.44 54.9745 137.587 55.7478 139C56.5478 140.413 57.0945 141.987 57.3878 143.72C57.7078 145.453 57.8678 147.16 57.8678 148.84C57.8678 150.52 57.7078 152.227 57.3878 153.96C57.0945 155.693 56.5478 157.267 55.7478 158.68C54.9745 160.093 53.9078 161.253 52.5478 162.16C51.1878 163.04 49.4545 163.48 47.3478 163.48C45.2411 163.48 43.5078 163.04 42.1478 162.16C40.7878 161.253 39.7078 160.093 38.9078 158.68C38.1345 157.267 37.5878 155.693 37.2678 153.96C36.9745 152.227 36.8278 150.52 36.8278 148.84ZM42.8278 148.84C42.8278 149.587 42.8545 150.48 42.9078 151.52C42.9878 152.56 43.1745 153.56 43.4678 154.52C43.7611 155.48 44.2011 156.293 44.7878 156.96C45.4011 157.627 46.2545 157.96 47.3478 157.96C48.4145 157.96 49.2545 157.627 49.8678 156.96C50.4811 156.293 50.9345 155.48 51.2278 154.52C51.5211 153.56 51.6945 152.56 51.7478 151.52C51.8278 150.48 51.8678 149.587 51.8678 148.84C51.8678 148.093 51.8278 147.2 51.7478 146.16C51.6945 145.12 51.5211 144.12 51.2278 143.16C50.9345 142.2 50.4811 141.387 49.8678 140.72C49.2545 140.053 48.4145 139.72 47.3478 139.72C46.2545 139.72 45.4011 140.053 44.7878 140.72C44.2011 141.387 43.7611 142.2 43.4678 143.16C43.1745 144.12 42.9878 145.12 42.9078 146.16C42.8545 147.2 42.8278 148.093 42.8278 148.84ZM14.1959 202C14.1959 200.693 14.4359 199.56 14.9159 198.6C15.4226 197.613 16.1026 196.8 16.9559 196.16C17.8359 195.493 18.8493 195 19.9959 194.68C21.1426 194.36 22.3693 194.2 23.6759 194.2C24.9826 194.2 26.2093 194.36 27.3559 194.68C28.5026 195 29.5026 195.493 30.3559 196.16C31.2093 196.8 31.8893 197.613 32.3959 198.6C32.9026 199.56 33.1559 200.693 33.1559 202C33.1559 203.547 32.7293 204.867 31.8759 205.96C31.0493 207.053 29.8759 207.827 28.3559 208.28V208.36C30.0626 208.813 31.3693 209.64 32.2759 210.84C33.1826 212.013 33.6359 213.48 33.6359 215.24C33.6359 216.6 33.3559 217.8 32.7959 218.84C32.2626 219.88 31.5293 220.747 30.5959 221.44C29.6893 222.107 28.6359 222.613 27.4359 222.96C26.2359 223.307 24.9826 223.48 23.6759 223.48C22.3693 223.48 21.1159 223.307 19.9159 222.96C18.7159 222.613 17.6493 222.107 16.7159 221.44C15.8093 220.747 15.0759 219.88 14.5159 218.84C13.9826 217.8 13.7159 216.6 13.7159 215.24C13.7159 213.48 14.1693 212.013 15.0759 210.84C15.9826 209.64 17.2893 208.813 18.9959 208.36V208.28C17.4759 207.827 16.2893 207.053 15.4359 205.96C14.6093 204.867 14.1959 203.547 14.1959 202ZM20.1959 202.84C20.1959 203.72 20.5159 204.467 21.1559 205.08C21.7959 205.693 22.6359 206 23.6759 206C24.7159 206 25.5559 205.693 26.1959 205.08C26.8359 204.467 27.1559 203.72 27.1559 202.84C27.1559 201.987 26.8359 201.253 26.1959 200.64C25.5559 200.027 24.7159 199.72 23.6759 199.72C22.6359 199.72 21.7959 200.027 21.1559 200.64C20.5159 201.253 20.1959 201.987 20.1959 202.84ZM19.7159 214.4C19.7159 215.387 20.0759 216.227 20.7959 216.92C21.5159 217.613 22.4759 217.96 23.6759 217.96C24.8759 217.96 25.8359 217.613 26.5559 216.92C27.2759 216.227 27.6359 215.387 27.6359 214.4C27.6359 213.387 27.2759 212.533 26.5559 211.84C25.8359 211.147 24.8759 210.8 23.6759 210.8C22.4759 210.8 21.5159 211.147 20.7959 211.84C20.0759 212.533 19.7159 213.387 19.7159 214.4ZM36.8278 208.84C36.8278 207.16 36.9745 205.453 37.2678 203.72C37.5878 201.987 38.1345 200.413 38.9078 199C39.7078 197.587 40.7878 196.44 42.1478 195.56C43.5078 194.653 45.2411 194.2 47.3478 194.2C49.4545 194.2 51.1878 194.653 52.5478 195.56C53.9078 196.44 54.9745 197.587 55.7478 199C56.5478 200.413 57.0945 201.987 57.3878 203.72C57.7078 205.453 57.8678 207.16 57.8678 208.84C57.8678 210.52 57.7078 212.227 57.3878 213.96C57.0945 215.693 56.5478 217.267 55.7478 218.68C54.9745 220.093 53.9078 221.253 52.5478 222.16C51.1878 223.04 49.4545 223.48 47.3478 223.48C45.2411 223.48 43.5078 223.04 42.1478 222.16C40.7878 221.253 39.7078 220.093 38.9078 218.68C38.1345 217.267 37.5878 215.693 37.2678 213.96C36.9745 212.227 36.8278 210.52 36.8278 208.84ZM42.8278 208.84C42.8278 209.587 42.8545 210.48 42.9078 211.52C42.9878 212.56 43.1745 213.56 43.4678 214.52C43.7611 215.48 44.2011 216.293 44.7878 216.96C45.4011 217.627 46.2545 217.96 47.3478 217.96C48.4145 217.96 49.2545 217.627 49.8678 216.96C50.4811 216.293 50.9345 215.48 51.2278 214.52C51.5211 213.56 51.6945 212.56 51.7478 211.52C51.8278 210.48 51.8678 209.587 51.8678 208.84C51.8678 208.093 51.8278 207.2 51.7478 206.16C51.6945 205.12 51.5211 204.12 51.2278 203.16C50.9345 202.2 50.4811 201.387 49.8678 200.72C49.2545 200.053 48.4145 199.72 47.3478 199.72C46.2545 199.72 45.4011 200.053 44.7878 200.72C44.2011 201.387 43.7611 202.2 43.4678 203.16C43.1745 204.12 42.9878 205.12 42.9078 206.16C42.8545 207.2 42.8278 208.093 42.8278 208.84ZM11.52 261.4L5.84 266.4L2.44 262.48L11.68 254.68H17.28V283H11.52V261.4ZM24.9919 268.84C24.9919 267.16 25.1385 265.453 25.4319 263.72C25.7519 261.987 26.2985 260.413 27.0719 259C27.8719 257.587 28.9519 256.44 30.3119 255.56C31.6719 254.653 33.4052 254.2 35.5119 254.2C37.6185 254.2 39.3519 254.653 40.7119 255.56C42.0719 256.44 43.1385 257.587 43.9119 259C44.7119 260.413 45.2585 261.987 45.5519 263.72C45.8719 265.453 46.0319 267.16 46.0319 268.84C46.0319 270.52 45.8719 272.227 45.5519 273.96C45.2585 275.693 44.7119 277.267 43.9119 278.68C43.1385 280.093 42.0719 281.253 40.7119 282.16C39.3519 283.04 37.6185 283.48 35.5119 283.48C33.4052 283.48 31.6719 283.04 30.3119 282.16C28.9519 281.253 27.8719 280.093 27.0719 278.68C26.2985 277.267 25.7519 275.693 25.4319 273.96C25.1385 272.227 24.9919 270.52 24.9919 268.84ZM30.9919 268.84C30.9919 269.587 31.0185 270.48 31.0719 271.52C31.1519 272.56 31.3385 273.56 31.6319 274.52C31.9252 275.48 32.3652 276.293 32.9519 276.96C33.5652 277.627 34.4185 277.96 35.5119 277.96C36.5785 277.96 37.4185 277.627 38.0319 276.96C38.6452 276.293 39.0985 275.48 39.3919 274.52C39.6852 273.56 39.8585 272.56 39.9119 271.52C39.9919 270.48 40.0319 269.587 40.0319 268.84C40.0319 268.093 39.9919 267.2 39.9119 266.16C39.8585 265.12 39.6852 264.12 39.3919 263.16C39.0985 262.2 38.6452 261.387 38.0319 260.72C37.4185 260.053 36.5785 259.72 35.5119 259.72C34.4185 259.72 33.5652 260.053 32.9519 260.72C32.3652 261.387 31.9252 262.2 31.6319 263.16C31.3385 264.12 31.1519 265.12 31.0719 266.16C31.0185 267.2 30.9919 268.093 30.9919 268.84ZM48.6637 268.84C48.6637 267.16 48.8104 265.453 49.1038 263.72C49.4238 261.987 49.9704 260.413 50.7438 259C51.5438 257.587 52.6238 256.44 53.9838 255.56C55.3438 254.653 57.0771 254.2 59.1838 254.2C61.2904 254.2 63.0238 254.653 64.3838 255.56C65.7438 256.44 66.8104 257.587 67.5838 259C68.3838 260.413 68.9304 261.987 69.2238 263.72C69.5438 265.453 69.7038 267.16 69.7038 268.84C69.7038 270.52 69.5438 272.227 69.2238 273.96C68.9304 275.693 68.3838 277.267 67.5838 278.68C66.8104 280.093 65.7438 281.253 64.3838 282.16C63.0238 283.04 61.2904 283.48 59.1838 283.48C57.0771 283.48 55.3438 283.04 53.9838 282.16C52.6238 281.253 51.5438 280.093 50.7438 278.68C49.9704 277.267 49.4238 275.693 49.1038 273.96C48.8104 272.227 48.6637 270.52 48.6637 268.84ZM54.6638 268.84C54.6638 269.587 54.6904 270.48 54.7438 271.52C54.8238 272.56 55.0104 273.56 55.3038 274.52C55.5971 275.48 56.0371 276.293 56.6238 276.96C57.2371 277.627 58.0904 277.96 59.1838 277.96C60.2504 277.96 61.0904 277.627 61.7038 276.96C62.3171 276.293 62.7704 275.48 63.0638 274.52C63.3571 273.56 63.5304 272.56 63.5838 271.52C63.6638 270.48 63.7038 269.587 63.7038 268.84C63.7038 268.093 63.6638 267.2 63.5838 266.16C63.5304 265.12 63.3571 264.12 63.0638 263.16C62.7704 262.2 62.3171 261.387 61.7038 260.72C61.0904 260.053 60.2504 259.72 59.1838 259.72C58.0904 259.72 57.2371 260.053 56.6238 260.72C56.0371 261.387 55.5971 262.2 55.3038 263.16C55.0104 264.12 54.8238 265.12 54.7438 266.16C54.6904 267.2 54.6638 268.093 54.6638 268.84Z" fill="#20B15A"/>
</g>
<path d="M92.32 35.52C92.32 34.4267 92.52 33.4 92.92 32.44C93.3467 31.48 93.9067 30.64 94.6 29.92C95.32 29.2 96.16 28.64 97.12 28.24C98.08 27.8133 99.1067 27.6 100.2 27.6C101.293 27.6 102.32 27.8133 103.28 28.24C104.24 28.64 105.067 29.2 105.76 29.92C106.48 30.64 107.04 31.48 107.44 32.44C107.867 33.4 108.08 34.4267 108.08 35.52C108.08 36.6133 107.867 37.6533 107.44 38.64C107.04 39.6 106.48 40.44 105.76 41.16C105.067 41.88 104.24 42.4533 103.28 42.88C102.32 43.28 101.293 43.48 100.2 43.48C99.1067 43.48 98.08 43.28 97.12 42.88C96.16 42.4533 95.32 41.88 94.6 41.16C93.9067 40.44 93.3467 39.6 92.92 38.64C92.52 37.6533 92.32 36.6133 92.32 35.52ZM104 35.52C104 34.4533 103.627 33.5467 102.88 32.8C102.16 32.0533 101.267 31.68 100.2 31.68C99.1333 31.68 98.2267 32.0533 97.48 32.8C96.76 33.5467 96.4 34.4533 96.4 35.52C96.4 36.6133 96.76 37.5333 97.48 38.28C98.2267 39.0267 99.1333 39.4 100.2 39.4C101.267 39.4 102.16 39.0267 102.88 38.28C103.627 37.5333 104 36.6133 104 35.52ZM72.2 22.12C72.2 21.0267 72.4 20 72.8 19.04C73.2267 18.08 73.7867 17.24 74.48 16.52C75.2 15.8 76.04 15.24 77 14.84C77.96 14.4133 78.9867 14.2 80.08 14.2C81.1733 14.2 82.2 14.4133 83.16 14.84C84.12 15.24 84.9467 15.8 85.64 16.52C86.36 17.24 86.92 18.08 87.32 19.04C87.7467 20 87.96 21.0267 87.96 22.12C87.96 23.2133 87.7467 24.24 87.32 25.2C86.92 26.16 86.36 27 85.64 27.72C84.9467 28.44 84.12 29.0133 83.16 29.44C82.2 29.84 81.1733 30.04 80.08 30.04C78.9867 30.04 77.96 29.84 77 29.44C76.04 29.0133 75.2 28.44 74.48 27.72C73.7867 27 73.2267 26.16 72.8 25.2C72.4 24.24 72.2 23.2133 72.2 22.12ZM83.88 22.12C83.88 21.0533 83.5067 20.1467 82.76 19.4C82.04 18.6533 81.1467 18.28 80.08 18.28C79.0133 18.28 78.1067 18.6533 77.36 19.4C76.64 20.1467 76.28 21.0533 76.28 22.12C76.28 23.1867 76.64 24.0933 77.36 24.84C78.1067 25.5867 79.0133 25.96 80.08 25.96C81.1467 25.96 82.04 25.5867 82.76 24.84C83.5067 24.0933 83.88 23.1867 83.88 22.12ZM96.6 13.4L99.96 15.28L83.44 44.28L80.4 42.56L96.6 13.4Z" fill="#20B15A"/>
<defs>
<clipPath id="clip0_244_37">
<rect width="72" height="60" fill="white"/>
</clipPath>
</defs>
</svg>
