<svg width="94" height="92" viewBox="0 0 94 92" fill="none" xmlns="http://www.w3.org/2000/svg">
<rect width="93.3333" height="91.6667" rx="20" fill="#D7F5DC"/>
<path fill-rule="evenodd" clip-rule="evenodd" d="M46.6765 31.733C49.4186 29.9798 52.7747 29.5312 55.8679 30.5045C58.558 31.3412 60.7946 33.2629 62.0584 35.8229C63.536 38.9257 63.7379 42.5009 62.6179 45.7555C61.587 48.7516 59.8965 51.4678 57.6765 53.6959C56.2209 55.192 54.6521 56.5697 52.9851 57.816L52.8972 57.8912C52.3434 58.2641 51.5983 58.1172 51.2205 57.5611C51.0284 57.2926 50.9512 56.956 51.0066 56.6285C51.0621 56.3012 51.2452 56.0103 51.5144 55.8229C53.0786 54.6443 54.5538 53.3475 55.9265 51.943C57.9035 49.9975 59.4127 47.6131 60.3377 44.9762C61.2273 42.3486 61.0473 39.4676 59.8377 36.9762C58.8642 35.0163 57.149 33.5446 55.0877 32.901C52.4585 32.0636 49.5942 32.5714 47.3972 34.2643C46.9604 34.5939 46.3633 34.5939 45.9265 34.2643C43.7304 32.5688 40.8643 32.0609 38.2351 32.901C36.1598 33.5304 34.4278 34.9979 33.4412 36.9615C32.2589 39.4511 32.0897 42.3153 32.9705 44.9313C33.8994 47.5619 35.4082 49.9408 37.3816 51.8834C40.2976 54.7319 43.5138 57.2434 46.9705 59.3736C47.4101 59.6843 47.6029 60.2482 47.449 60.7701C47.2949 61.2921 46.8286 61.6544 46.2937 61.6666C46.0526 61.668 45.8164 61.5947 45.617 61.4567C42.0162 59.238 38.6672 56.62 35.6316 53.651C33.3993 51.4303 31.7036 48.712 30.6765 45.7106C29.5952 42.4605 29.8168 38.9071 31.2937 35.8229C32.5575 33.2627 34.7948 31.3412 37.4851 30.5045C40.5783 29.5312 43.9345 29.9797 46.6765 31.733ZM53.1472 36.6617C55.3397 37.367 56.8999 39.347 57.1023 41.6803C57.1438 42.0065 57.0552 42.3362 56.8562 42.5953C56.6572 42.8544 56.3645 43.0218 56.0437 43.0592C55.3703 43.1477 54.7533 42.6655 54.6619 41.9801C54.6004 40.5957 53.6952 39.3985 52.3972 38.984C51.9146 38.677 51.6999 38.0737 51.8777 37.5231C52.0555 36.9724 52.5799 36.6168 53.1472 36.6617Z" fill="#130F26"/>
</svg>
