<svg width="89" height="30" viewBox="0 0 89 30" fill="none" xmlns="http://www.w3.org/2000/svg">
<g clip-path="url(#clip0_2_241)">
<path d="M85.9475 17.7893L88.4086 19.4299C87.6098 20.6064 85.6994 22.6249 82.3965 22.6249C78.295 22.6249 75.2406 19.4516 75.2406 15.4147C75.2406 11.119 78.3274 8.20471 82.0512 8.20471C85.7965 8.20471 87.6313 11.1836 88.2251 12.7919L88.5489 13.6123L78.8995 17.6058C79.6335 19.0522 80.7777 19.7861 82.3965 19.7861C84.0157 19.7861 85.1381 18.9874 85.9475 17.7893ZM78.3815 15.1883L84.8251 12.5113C84.4689 11.6156 83.4113 10.9788 82.1482 10.9788C80.5402 10.9788 78.3059 12.4036 78.3815 15.1883Z" fill="#FF302F"/>
<path d="M70.5886 0.85436H73.697V21.9665H70.5886V0.854187V0.85436Z" fill="#20B15A"/>
<path d="M65.6884 8.76591H68.689V21.5886C68.689 26.9097 65.5481 29.1008 61.835 29.1008C58.3381 29.1008 56.2334 26.7479 55.4454 24.8375L58.1977 23.6932C58.6941 24.8697 59.8922 26.2622 61.835 26.2622C64.2203 26.2622 65.6884 24.7834 65.6884 22.0204V20.9843H65.5805C64.868 21.8476 63.5081 22.6247 61.7811 22.6247C58.1761 22.6247 54.8731 19.4838 54.8731 15.4364C54.8731 11.3671 58.1761 8.19397 61.7811 8.19397C63.4973 8.19397 64.868 8.96031 65.5805 9.8022H65.6884V8.76609V8.76591ZM65.9041 15.4364C65.9041 12.8891 64.2096 11.0325 62.0509 11.0325C59.8706 11.0325 58.0357 12.8891 58.0357 15.4364C58.0357 17.9511 59.8706 19.7752 62.0509 19.7752C64.2098 19.7861 65.9043 17.9511 65.9043 15.4364H65.9041Z" fill="#3686F7"/>
<path d="M37.8088 15.3823C37.8088 19.5378 34.5709 22.5923 30.5988 22.5923C26.6269 22.5923 23.3888 19.5271 23.3888 15.3823C23.3888 11.2053 26.6269 8.16156 30.5988 8.16156C34.5709 8.16156 37.8088 11.2053 37.8088 15.3823ZM34.6572 15.3823C34.6572 12.792 32.779 11.0109 30.5988 11.0109C28.4187 11.0109 26.5405 12.792 26.5405 15.3823C26.5405 17.9511 28.4187 19.7537 30.5988 19.7537C32.7792 19.7537 34.6572 17.9511 34.6572 15.3823Z" fill="#FF302F"/>
<path d="M53.5565 15.4147C53.5565 19.5703 50.3184 22.6247 46.3465 22.6247C42.3744 22.6247 39.1365 19.5701 39.1365 15.4147C39.1365 11.2377 42.3744 8.20471 46.3465 8.20471C50.3184 8.20471 53.5565 11.2269 53.5565 15.4147ZM50.3939 15.4147C50.3939 12.8244 48.5159 11.0433 46.3356 11.0433C44.1554 11.0433 42.2772 12.8244 42.2772 15.4147C42.2772 17.9835 44.1554 19.7861 46.3356 19.7861C48.5267 19.7861 50.3939 17.9728 50.3939 15.4147Z" fill="#FFBA40"/>
<path d="M11.5376 19.4623C7.01506 19.4623 3.47495 15.8141 3.47495 11.2916C3.47495 6.76926 7.01506 3.12103 11.5376 3.12103C13.977 3.12103 15.7577 4.0816 17.0746 5.31211L19.2442 3.14269C17.4093 1.38337 14.9592 0.0447388 11.5376 0.0447388C5.34221 0.044912 0.128891 5.0964 0.128891 11.2916C0.128891 17.4871 5.34221 22.5385 11.5376 22.5385C14.8836 22.5385 17.4093 21.4375 19.3845 19.3868C21.4136 17.3575 22.0396 14.5081 22.0396 12.1983C22.0396 11.4751 21.9533 10.7304 21.8561 10.1799H11.5376V13.1805H18.8879C18.672 15.0587 18.0784 16.3431 17.2042 17.2172C16.1464 18.2859 14.4735 19.4623 11.5376 19.4623Z" fill="#3686F7"/>
</g>
<defs>
<clipPath id="clip0_2_241">
<rect width="88.7107" height="29.1082" fill="white"/>
</clipPath>
</defs>
</svg>
