<svg width="157" height="30" viewBox="0 0 157 30" fill="none" xmlns="http://www.w3.org/2000/svg">
<g clip-path="url(#clip0_2_233)">
<path d="M3.25254 22.5682C2.67458 22.5694 2.10665 22.4172 1.60676 22.1271C1.10688 21.837 0.69296 21.4194 0.407288 20.917C0.12594 20.4181 -0.0143969 19.8521 0.00130971 19.2796C0.0170164 18.7071 0.188175 18.1497 0.496452 17.667L6.35609 8.46572C6.65596 7.97118 7.08173 7.56509 7.5899 7.28893C8.09807 7.01278 8.67043 6.87645 9.24853 6.89388C9.82621 6.90771 10.3899 7.07478 10.8818 7.37799C11.3737 7.6812 11.7762 8.10967 12.0481 8.61954C12.316 9.12546 12.4411 9.69475 12.4101 10.2664C12.379 10.838 12.193 11.3904 11.8719 11.8643L6.01598 21.0665C5.71898 21.5293 5.30995 21.9096 4.82682 22.1721C4.34369 22.4347 3.80209 22.571 3.25223 22.5685L3.25254 22.5682Z" fill="#F62B54"/>
<path d="M13.3031 22.5681C12.1213 22.5681 11.0339 21.9363 10.4627 20.9206C10.1821 20.4231 10.0421 19.8586 10.0579 19.2876C10.0737 18.7166 10.2445 18.1607 10.5522 17.6794L16.4005 8.49902C16.6959 7.9975 17.1202 7.58414 17.6292 7.30183C18.1382 7.01951 18.7135 6.87852 19.2954 6.89347C20.4873 6.91982 21.5674 7.58655 22.1137 8.62924C22.3802 9.13994 22.5015 9.71402 22.4642 10.2889C22.4269 10.8638 22.2326 11.4174 21.9023 11.8894L16.0555 21.0695C15.7594 21.5302 15.3521 21.909 14.8711 22.1709C14.39 22.4327 13.8508 22.5692 13.3031 22.5678V22.5681Z" fill="#FFCC00"/>
<path d="M23.1291 22.645C24.7952 22.645 26.1459 21.3227 26.1459 19.6916C26.1459 18.0604 24.7952 16.7382 23.1291 16.7382C21.4629 16.7382 20.1122 18.0604 20.1122 19.6916C20.1122 21.3227 21.4629 22.645 23.1291 22.645Z" fill="#00CA72"/>
<path d="M154.183 16.9097C155.094 16.9097 155.639 17.5578 155.639 18.6191V22.2564H156.876V18.5358C156.876 16.7311 156.026 15.6844 154.427 15.6844C153.801 15.6844 152.808 15.8557 152.216 17.0065C152.078 16.6671 151.852 16.3712 151.559 16.1504C151.267 15.9295 150.92 15.792 150.556 15.7524C150.327 15.7105 150.093 15.6968 149.861 15.7117C149.352 15.7524 148.446 16.0693 148.107 16.7866V15.822H146.868V22.2564H148.107V18.7843C148.107 17.4334 148.991 16.9097 149.876 16.9097C150.705 16.9097 151.25 17.544 151.25 18.6054V22.2564H152.482V18.7843C152.482 17.7088 153.127 16.8972 154.182 16.9097H154.183ZM142.32 21.1813C142.601 21.187 142.88 21.1347 143.14 21.0274C143.399 20.9201 143.634 20.7604 143.829 20.5581C144.025 20.3543 144.179 20.1129 144.28 19.8483C144.381 19.5838 144.427 19.3016 144.416 19.0187C144.416 17.7226 143.463 16.9097 142.32 16.9097C141.177 16.9097 140.225 17.7226 140.225 19.0187C140.213 19.3008 140.259 19.5823 140.36 19.8462C140.46 20.1101 140.613 20.351 140.808 20.5544C141.002 20.7565 141.236 20.9165 141.494 21.0244C141.753 21.1322 142.031 21.1856 142.311 21.1813H142.32ZM142.32 22.3879C140.511 22.3879 139 21.0511 139 19.0113C139 16.9716 140.51 15.6768 142.32 15.6768C144.13 15.6768 145.654 16.9716 145.654 19.0113C145.654 21.0511 144.122 22.394 142.312 22.394L142.32 22.3879ZM132.625 19.0113L132.613 19.0187C132.613 16.979 134.163 15.6844 135.985 15.6768C136.443 15.6679 136.898 15.7553 137.32 15.9332C137.742 16.1111 138.121 16.3756 138.435 16.7096L137.496 17.5094C137.297 17.3136 137.061 17.1593 136.801 17.0552C136.542 16.9512 136.265 16.8996 135.986 16.9033C134.843 16.9033 133.85 17.7165 133.85 19.0113C133.85 19.8864 134.37 20.6751 135.169 21.01C135.559 21.1735 135.99 21.2162 136.404 21.1326C136.819 21.049 137.2 20.8429 137.496 20.5409L138.448 21.3403C138.134 21.6778 137.753 21.9455 137.328 22.126C136.904 22.3065 136.446 22.3959 135.985 22.3882C134.177 22.3882 132.625 21.0511 132.625 19.0113ZM128.661 21.0213C128.658 20.7942 128.746 20.5753 128.905 20.4128C129.064 20.2503 129.28 20.1575 129.508 20.1548C129.735 20.1575 129.952 20.2503 130.11 20.4128C130.269 20.5753 130.357 20.7942 130.354 21.0213C130.343 21.2391 130.249 21.4445 130.092 21.5955C129.935 21.7466 129.726 21.8319 129.508 21.8342C129.29 21.8319 129.081 21.7466 128.923 21.5955C128.766 21.4445 128.672 21.2391 128.661 21.0213ZM132.048 7.64228H127.639L124.549 15.6087L121.476 7.64228H117.067L122.426 20.2305L119.093 28.553H123.469L132.048 7.64228ZM105.238 14.6439C105.238 16.6551 106.995 17.9785 108.722 17.9785C110.419 17.9785 112.087 16.7467 112.087 14.6427C112.087 12.5386 110.419 11.3059 108.722 11.3059C106.995 11.3059 105.238 12.6305 105.238 14.6427V14.6439ZM112.087 21.6728V20.0801C111.193 21.4335 109.107 21.9448 108.037 21.9448C104.494 21.9448 100.95 19.1517 100.95 14.6427C100.95 10.1352 104.493 7.3417 108.037 7.3417C108.93 7.3417 111.015 7.63983 112.087 9.20402V7.64749H116.196V21.6755L112.087 21.6743V21.6731L112.087 21.6728ZM99.7802 21.6728H95.6713V19.9299C94.9847 21.2211 93.3197 21.9736 91.5916 21.9736C88.0177 21.9736 84.8605 19.1192 84.8605 14.6996C84.8605 10.1971 88.0177 7.33925 91.5916 7.33925C93.3172 7.33925 94.9871 8.0593 95.671 9.3517V0H99.7802V21.6731V21.6728ZM95.5815 14.6117C95.5815 12.5086 94.0633 11.2759 92.3665 11.2759C90.6086 11.2759 89.1486 12.598 89.1486 14.6117C89.1486 16.6897 90.6086 18.0057 92.3652 18.0057C94.0946 18.0082 95.5815 16.6254 95.5815 14.6117Z" fill="#333333"/>
<path d="M74.7009 14.2492C74.7009 12.1167 75.8033 11.3951 77.2618 11.3951C78.6608 11.3951 79.6741 12.3263 79.6741 14.1883V21.6706H83.813V13.2884C83.813 9.29348 81.8465 7.33925 78.7194 7.33925C77.0819 7.33925 75.4445 8.27071 74.6994 9.68323V7.64228H70.5629V21.6706H74.7009V14.2492ZM62.1586 21.9114C58.2281 21.9114 54.9496 19.0276 54.9496 14.6105C54.9496 10.1909 58.2244 7.33557 62.1586 7.33557C66.0928 7.33557 69.3958 10.1909 69.3958 14.6105C69.3958 19.03 66.0888 21.9127 62.1586 21.9127V21.9114ZM62.1586 17.8271C63.8843 17.8271 65.3155 16.5632 65.3155 14.6117C65.3155 12.7184 63.8855 11.426 62.1586 11.426C61.7428 11.4196 61.33 11.4978 60.9455 11.656C60.5609 11.8142 60.2125 12.049 59.9216 12.3462C59.629 12.6449 59.3994 12.9994 59.2465 13.3885C59.0936 13.7777 59.0204 14.1937 59.0315 14.6117C59.0327 16.5656 60.4615 17.8271 62.1586 17.8271Z" fill="#333333"/>
<path d="M47.5291 11.3963C48.7495 11.3963 49.8222 12.3584 49.8222 14.1895V21.673H53.9311V13.7054C53.9311 9.46966 51.8717 7.33679 48.5705 7.33679C47.5901 7.33679 45.7425 7.63492 44.4019 9.82968C43.6274 8.20697 42.1389 7.36529 39.9389 7.36529C39.1751 7.36141 38.4264 7.5776 37.7822 7.98801C37.1381 8.39841 36.6257 8.98566 36.3065 9.67954V7.6435H32.1652V21.6718H36.3028V14.2492C36.3028 12.1167 37.4647 11.3951 38.7148 11.3951C39.9067 11.3951 40.977 12.3262 41.0079 14.0991V21.6718H45.1468V14.2492C45.1468 12.2095 46.2192 11.3975 47.5291 11.3975V11.3963Z" fill="#333333"/>
</g>
<defs>
<clipPath id="clip0_2_233">
<rect width="156.878" height="29.1082" fill="white"/>
</clipPath>
</defs>
</svg>
