<svg width="94" height="93" viewBox="0 0 94 93" fill="none" xmlns="http://www.w3.org/2000/svg">
<rect width="93.3164" height="92.8906" rx="20" fill="#D7F5DC"/>
<path d="M62.0254 51.209C62.7134 51.2092 63.2713 51.7671 63.2715 52.4551C63.2715 52.4917 63.0367 55.437 62.9834 56.3438C62.8884 57.907 62.282 59.5023 61.3604 60.6123C60.0771 62.1589 58.4419 62.8816 56.2188 62.8867C55.2871 62.8884 49.7638 62.8906 45.8838 62.8906C45.1938 62.8906 44.6339 62.3306 44.6338 61.6406C44.6338 60.9507 45.1932 60.3908 45.8848 60.3906C49.9042 60.3906 55.2251 60.3884 56.2129 60.3867C57.7161 60.3834 58.6196 59.9987 59.4346 59.0156C60.0129 58.3206 60.4266 57.2117 60.4883 56.1934C60.5417 55.2728 60.7979 52.3584 60.7979 52.3584C60.848 51.7186 61.3705 51.209 62.0254 51.209ZM31.292 51.209C31.947 51.209 32.4669 51.7187 32.5186 52.3604C32.5208 52.3862 32.7753 55.279 32.8301 56.1934C32.8917 57.2117 33.3035 58.3203 33.8818 59.0137C34.6985 60.0003 35.602 60.3834 37.1035 60.3867C37.4302 60.3884 38.1069 60.3887 38.9951 60.3887C39.6851 60.3887 40.25 60.9487 40.25 61.6387C40.2499 62.3285 39.6837 62.8886 38.9922 62.8887C38.0924 62.8887 37.4357 62.8884 37.1006 62.8867C34.8756 62.8817 33.2403 62.1586 31.957 60.6104C31.0371 59.5021 30.4283 57.907 30.335 56.3438C30.28 55.4371 30.0449 52.4917 30.0449 52.4551C30.045 51.7668 30.6037 51.209 31.292 51.209ZM46.6582 51.0557C47.3481 51.0558 47.9082 51.6157 47.9082 52.3057V54.4619C47.9082 55.1518 47.3481 55.7118 46.6582 55.7119C45.9682 55.7119 45.4082 55.1519 45.4082 54.4619V52.3057C45.4082 51.6157 45.9682 51.0557 46.6582 51.0557ZM48.8096 30C51.3146 30 53.3902 31.8784 53.7002 34.3018H56.9717C60.4699 34.3018 63.3163 37.1482 63.3164 40.6465V46.4248C63.3164 46.8448 63.1068 47.2354 62.7568 47.4688C59.3202 49.7421 55.2399 51.2579 50.96 51.8496C50.9018 51.8579 50.8453 51.8613 50.7871 51.8613C50.2238 51.8613 49.7188 51.478 49.5771 50.918C49.2404 49.5932 48.0368 48.6652 46.6504 48.665C45.2487 48.665 44.0563 49.5732 43.6846 50.9248C43.5179 51.5315 42.9383 51.9263 42.3066 51.833C38.055 51.2413 33.9932 49.7337 30.5615 47.4688C30.2099 47.2371 30 46.8448 30 46.4248V40.6465C30.0001 37.1483 32.8532 34.3019 36.3613 34.3018L39.6162 34.2998C39.9263 31.8765 42.0019 30 44.5068 30H48.8096ZM44.5068 32.5C43.1669 32.5 42.0754 33.5898 42.0752 34.9297L42.0771 35.5469C42.0771 35.8784 41.9451 36.195 41.7119 36.4316C41.477 36.6665 41.1603 36.7977 40.8271 36.7979L36.3633 36.8018C34.2317 36.8018 32.5001 38.5266 32.5 40.6465V45.7412C35.2349 47.4378 38.3814 48.6234 41.6846 49.2051C42.6229 47.3717 44.5321 46.165 46.6504 46.165C48.7852 46.1652 50.6853 47.3749 51.5986 49.2197C54.9218 48.6347 58.0782 47.4428 60.8164 45.7412V40.6465C60.8163 38.5266 59.0916 36.8018 56.9717 36.8018H46.6582C45.9683 36.8017 45.4083 36.2417 45.4082 35.5518C45.4082 34.8618 45.9683 34.3018 46.6582 34.3018H51.1582C50.8799 33.2651 49.9312 32.5 48.8096 32.5H44.5068Z" fill="#130F26"/>
</svg>
